<?xml version="1.0" encoding="UTF-8" standalone="no"?>
<!DOCTYPE svg PUBLIC "-//W3C//DTD SVG 1.1//EN" "http://www.w3.org/Graphics/SVG/1.1/DTD/svg11.dtd">
<svg version="1.1" xmlns="http://www.w3.org/2000/svg" xmlns:xlink="http://www.w3.org/1999/xlink" preserveAspectRatio="xMidYMid meet" viewBox="0 0 640 640" width="640" height="640"><defs><path d="M0.03 318.46L0.07 317.88L0.11 317.14L0.12 317.06L0.12 316.94L0.19 316.26L0.25 315.71L0.26 315.61L0.28 315.44L0.37 314.76L0.44 314.29L0.46 314.16L0.49 313.95L0.6 313.33L0.68 312.87L0.72 312.71L0.76 312.49L0.88 311.94L0.98 311.47L1.03 311.26L1.09 311.04L1.2 310.59L1.34 310.07L1.42 309.8L1.47 309.61L1.57 309.28L1.75 308.68L1.86 308.34L1.9 308.21L1.98 308L2.21 307.31L2.37 306.89L2.39 306.84L2.43 306.75L2.73 305.96L3.3 304.62L3.93 303.3L4.61 302L5.35 300.72L6.14 299.47L6.99 298.24L7.89 297.04L8.85 295.87L9.86 294.73L10.92 293.62L11.5 293.06L11.49 293.05L37.3 267.24L248.35 56.19L249.46 55.13L250.6 54.12L251.77 53.16L252.97 52.26L254.2 51.41L255.45 50.62L256.73 49.88L258.03 49.2L259.35 48.57L260.69 48L262.05 47.48L263.42 47.02L264.8 46.61L266.2 46.25L267.6 45.95L269.02 45.71L270.44 45.52L271.87 45.38L273.3 45.3L274.73 45.27L276.16 45.3L277.6 45.38L279.02 45.52L280.44 45.71L281.86 45.95L283.27 46.25L284.66 46.61L286.05 47.02L287.42 47.48L288.77 48L290.11 48.57L291.43 49.2L292.73 49.88L294.01 50.62L295.26 51.41L296.49 52.26L297.69 53.16L298.86 54.12L300 55.13L301.11 56.19L302.18 57.3L303.19 58.44L304.14 59.61L305.04 60.81L305.89 62.04L306.68 63.29L307.42 64.57L308.1 65.87L308.73 67.19L309.3 68.53L309.82 69.88L310.29 71.26L310.7 72.64L311.05 74.04L311.35 75.44L311.6 76.86L311.79 78.28L311.92 79.71L312.01 81.14L312.03 82.57L312.01 84L311.92 85.43L311.79 86.86L311.6 88.28L311.35 89.7L311.05 91.11L310.7 92.5L310.29 93.89L309.82 95.26L309.3 96.61L308.73 97.95L308.1 99.27L307.42 100.57L306.68 101.85L305.89 103.1L305.04 104.33L304.14 105.53L303.19 106.7L302.18 107.84L301.11 108.95L301.11 108.95L127.37 282.69L596.94 282.69L596.94 283.14L598.13 282.97L599.63 282.82L601.15 282.72L602.69 282.69L604.23 282.72L605.75 282.82L607.25 282.97L608.74 283.18L610.21 283.45L611.65 283.78L613.08 284.16L614.48 284.59L615.86 285.08L617.21 285.63L618.53 286.22L619.83 286.86L621.1 287.55L622.34 288.28L623.54 289.07L624.72 289.89L625.86 290.76L626.97 291.68L628.04 292.63L629.07 293.62L630.06 294.66L631.01 295.73L631.93 296.83L632.8 297.97L633.62 299.15L634.41 300.35L635.14 301.59L635.83 302.86L636.47 304.16L637.07 305.48L637.61 306.84L638.1 308.21L638.53 309.61L638.91 311.04L639.24 312.49L639.51 313.95L639.72 315.44L639.88 316.94L639.97 318.46L640 320L639.97 321.54L639.88 323.06L639.72 324.56L639.51 326.05L639.24 327.51L638.91 328.96L638.53 330.39L638.1 331.79L637.61 333.16L637.07 334.52L636.47 335.84L635.83 337.14L635.14 338.41L634.41 339.65L633.62 340.85L632.8 342.03L631.93 343.17L631.01 344.27L630.06 345.34L629.07 346.38L628.04 347.37L626.97 348.32L625.86 349.24L624.72 350.11L623.54 350.93L622.34 351.72L621.1 352.45L619.83 353.14L618.53 353.78L617.21 354.37L615.86 354.92L614.48 355.41L613.08 355.84L611.65 356.22L610.21 356.55L608.74 356.82L607.25 357.03L605.75 357.18L604.23 357.28L602.69 357.31L601.15 357.28L599.63 357.18L598.13 357.03L596.94 356.86L596.94 357.31L127.37 357.31L301.11 531.05L302.18 532.16L303.19 533.3L304.14 534.47L305.04 535.67L305.89 536.9L306.68 538.15L307.42 539.43L308.1 540.73L308.73 542.05L309.3 543.39L309.82 544.74L310.29 546.11L310.7 547.5L311.05 548.89L311.35 550.3L311.6 551.72L311.79 553.14L311.92 554.57L312.01 556L312.03 557.43L312.01 558.86L311.92 560.29L311.79 561.72L311.6 563.14L311.35 564.56L311.05 565.96L310.7 567.36L310.29 568.74L309.82 570.12L309.3 571.47L308.73 572.81L308.1 574.13L307.42 575.43L306.68 576.71L305.89 577.96L305.04 579.19L304.14 580.39L303.19 581.56L302.18 582.7L301.11 583.81L300 584.87L298.86 585.88L297.69 586.84L296.49 587.74L295.26 588.59L294.01 589.38L292.73 590.12L291.43 590.8L290.11 591.43L288.77 592L287.42 592.52L286.05 592.98L284.66 593.39L283.27 593.75L281.86 594.05L280.44 594.29L279.02 594.48L277.6 594.62L276.16 594.7L274.73 594.73L273.3 594.7L271.87 594.62L270.44 594.48L269.02 594.29L267.6 594.05L266.2 593.75L264.8 593.39L263.42 592.98L262.05 592.52L260.69 592L259.35 591.43L258.03 590.8L256.73 590.12L255.45 589.38L254.2 588.59L252.97 587.74L251.77 586.84L250.6 585.88L249.46 584.87L248.35 583.81L11.49 346.95L11.5 346.94L10.92 346.38L9.86 345.27L8.85 344.13L7.89 342.96L6.99 341.76L6.14 340.53L5.35 339.28L4.61 338L3.93 336.7L3.3 335.38L2.73 334.04L2.43 333.25L2.39 333.16L2.37 333.11L2.21 332.69L1.98 332L1.9 331.79L1.86 331.66L1.75 331.32L1.57 330.72L1.47 330.39L1.42 330.2L1.34 329.93L1.2 329.41L1.09 328.96L1.03 328.74L0.98 328.53L0.88 328.06L0.76 327.51L0.72 327.29L0.68 327.13L0.6 326.67L0.49 326.05L0.46 325.84L0.44 325.71L0.37 325.24L0.28 324.56L0.26 324.39L0.25 324.29L0.19 323.74L0.12 323.06L0.12 322.94L0.11 322.86L0.07 322.13L0.03 321.54L0.03 321.48L0.03 321.43L0 320L0.03 318.57L0.03 318.52L0.03 318.46Z" id="e12F6opdMT"></path></defs><g><g><g><use xlink:href="#e12F6opdMT" opacity="1" fill="#000000" fill-opacity="1"></use></g></g></g></svg>