<?xml version="1.0" encoding="UTF-8" standalone="no"?>
<!DOCTYPE svg PUBLIC "-//W3C//DTD SVG 1.1//EN" "http://www.w3.org/Graphics/SVG/1.1/DTD/svg11.dtd">
<svg version="1.1" xmlns="http://www.w3.org/2000/svg" xmlns:xlink="http://www.w3.org/1999/xlink" preserveAspectRatio="xMidYMid meet" viewBox="0 0 640 640" width="640" height="640"><defs><path d="M321.48 0.03L321.54 0.03L322.13 0.07L322.86 0.11L322.94 0.12L323.06 0.12L323.74 0.19L324.29 0.25L324.39 0.26L324.56 0.28L325.24 0.37L325.71 0.44L325.84 0.46L326.05 0.49L326.67 0.6L327.13 0.68L327.29 0.72L327.51 0.76L328.06 0.88L328.53 0.98L328.74 1.03L328.96 1.09L329.41 1.2L329.93 1.34L330.2 1.42L330.39 1.47L330.72 1.57L331.32 1.75L331.66 1.86L331.79 1.9L332 1.98L332.69 2.21L333.11 2.37L333.16 2.39L333.25 2.43L334.04 2.73L335.38 3.3L336.7 3.93L338 4.61L339.28 5.35L340.53 6.14L341.76 6.99L342.96 7.89L344.13 8.85L345.27 9.86L346.38 10.92L346.94 11.5L346.95 11.49L373.33 37.87L373.33 37.87L583.81 248.35L583.81 248.35L584.87 249.46L585.88 250.6L586.84 251.77L587.74 252.97L588.59 254.2L589.38 255.45L590.12 256.73L590.8 258.03L591.43 259.35L592 260.69L592.52 262.05L592.98 263.42L593.39 264.8L593.75 266.2L594.05 267.6L594.29 269.02L594.48 270.44L594.62 271.87L594.7 273.3L594.73 274.73L594.7 276.16L594.62 277.6L594.48 279.02L594.29 280.44L594.05 281.86L593.75 283.27L593.39 284.66L592.98 286.05L592.52 287.42L592 288.77L591.43 290.11L590.8 291.43L590.12 292.73L589.38 294.01L588.59 295.26L587.74 296.49L586.84 297.69L585.88 298.86L584.87 300L583.81 301.11L582.7 302.18L581.56 303.19L580.39 304.14L579.19 305.04L577.96 305.89L576.71 306.68L575.43 307.42L574.13 308.1L572.81 308.73L571.47 309.3L570.12 309.82L568.74 310.29L567.36 310.7L565.96 311.05L564.56 311.35L563.14 311.6L561.72 311.79L560.29 311.92L558.86 312.01L557.43 312.03L556 312.01L554.57 311.92L553.14 311.79L551.72 311.6L550.3 311.35L548.89 311.05L547.5 310.7L546.11 310.29L544.74 309.82L543.39 309.3L542.05 308.73L540.73 308.1L539.43 307.42L538.15 306.68L536.9 305.89L535.67 305.04L534.47 304.14L533.3 303.19L532.16 302.18L531.05 301.11L357.31 127.37L357.31 596.94L356.86 596.94L357.03 598.13L357.18 599.63L357.28 601.15L357.31 602.69L357.28 604.23L357.18 605.75L357.03 607.25L356.82 608.74L356.55 610.21L356.22 611.65L355.84 613.08L355.41 614.48L354.92 615.86L354.37 617.21L353.78 618.53L353.14 619.83L352.45 621.1L351.72 622.34L350.93 623.54L350.11 624.72L349.24 625.86L348.32 626.97L347.37 628.04L346.38 629.07L345.34 630.06L344.27 631.01L343.17 631.93L342.03 632.8L340.85 633.62L339.65 634.41L338.41 635.14L337.14 635.83L335.84 636.47L334.52 637.07L333.16 637.61L331.79 638.1L330.39 638.53L328.96 638.91L327.51 639.24L326.05 639.51L324.56 639.72L323.06 639.88L321.54 639.97L320 640L318.46 639.97L316.94 639.88L315.44 639.72L313.95 639.51L312.49 639.24L311.04 638.91L309.61 638.53L308.21 638.1L306.84 637.61L305.48 637.07L304.16 636.47L302.86 635.83L301.59 635.14L300.35 634.41L299.15 633.62L297.97 632.8L296.83 631.93L295.73 631.01L294.66 630.06L293.62 629.07L292.63 628.04L291.68 626.97L290.76 625.86L289.89 624.72L289.07 623.54L288.28 622.34L287.55 621.1L286.86 619.83L286.22 618.53L285.63 617.21L285.08 615.86L284.59 614.48L284.16 613.08L283.78 611.65L283.45 610.21L283.18 608.74L282.97 607.25L282.82 605.75L282.72 604.23L282.69 602.69L282.72 601.15L282.82 599.63L282.97 598.13L283.14 596.94L282.69 596.94L282.69 127.37L108.95 301.11L107.84 302.18L106.7 303.19L105.53 304.14L104.33 305.04L103.1 305.89L101.85 306.68L100.57 307.42L99.27 308.1L97.95 308.73L96.61 309.3L95.26 309.82L93.89 310.29L92.5 310.7L91.11 311.05L89.7 311.35L88.28 311.6L86.86 311.79L85.43 311.92L84 312.01L82.57 312.03L81.14 312.01L79.71 311.92L78.28 311.79L76.86 311.6L75.44 311.35L74.04 311.05L72.64 310.7L71.26 310.29L69.88 309.82L68.53 309.3L67.19 308.73L65.87 308.1L64.57 307.42L63.29 306.68L62.04 305.89L60.81 305.04L59.61 304.14L58.44 303.19L57.3 302.18L56.19 301.11L55.13 300L54.12 298.86L53.16 297.69L52.26 296.49L51.41 295.26L50.62 294.01L49.88 292.73L49.2 291.43L48.57 290.11L48 288.77L47.48 287.42L47.02 286.05L46.61 284.66L46.25 283.27L45.95 281.86L45.71 280.44L45.52 279.02L45.38 277.6L45.3 276.16L45.27 274.73L45.3 273.3L45.38 271.87L45.52 270.44L45.71 269.02L45.95 267.6L46.25 266.2L46.61 264.8L47.02 263.42L47.48 262.05L48 260.69L48.57 259.35L49.2 258.03L49.88 256.73L50.62 255.45L51.41 254.2L52.26 252.97L53.16 251.77L54.12 250.6L55.13 249.46L56.19 248.35L56.19 248.35L266.67 37.87L266.67 37.87L293.05 11.49L293.06 11.5L293.62 10.92L294.73 9.86L295.87 8.85L297.04 7.89L298.24 6.99L299.47 6.14L300.72 5.35L302 4.61L303.3 3.93L304.62 3.3L305.96 2.73L306.75 2.43L306.84 2.39L306.89 2.37L307.31 2.21L308 1.98L308.21 1.9L308.34 1.86L308.68 1.75L309.28 1.57L309.61 1.47L309.8 1.42L310.07 1.34L310.59 1.2L311.04 1.09L311.26 1.03L311.47 0.98L311.94 0.88L312.49 0.76L312.71 0.72L312.87 0.68L313.33 0.6L313.95 0.49L314.16 0.46L314.29 0.44L314.76 0.37L315.44 0.28L315.61 0.26L315.71 0.25L316.26 0.19L316.94 0.12L317.06 0.12L317.14 0.11L317.88 0.07L318.46 0.03L318.52 0.03L318.57 0.03L320 0L320 0L321.43 0.03L321.48 0.03Z" id="cdTXAQ5is"></path></defs><g><g><g><use xlink:href="#cdTXAQ5is" opacity="1" fill="#000000" fill-opacity="1"></use></g></g></g></svg>