<?xml version="1.0" encoding="UTF-8" standalone="no"?>
<!DOCTYPE svg PUBLIC "-//W3C//DTD SVG 1.1//EN" "http://www.w3.org/Graphics/SVG/1.1/DTD/svg11.dtd">
<svg version="1.1" xmlns="http://www.w3.org/2000/svg" xmlns:xlink="http://www.w3.org/1999/xlink" preserveAspectRatio="xMidYMid meet" viewBox="0 0 640 640" width="640" height="640"><defs><path d="M335.52 635.26L334.43 635.96L333.31 636.6L332.17 637.19L331.01 637.73L329.84 638.2L328.64 638.63L327.44 638.99L326.22 639.3L324.98 639.55L323.75 639.75L322.5 639.89L321.25 639.97L320 640L318.75 639.97L317.5 639.89L316.25 639.75L315.02 639.55L313.78 639.3L312.56 638.99L311.36 638.63L310.16 638.2L310.16 638.2L308.99 637.73L307.83 637.19L307.83 637.19L306.69 636.6L305.57 635.96L304.48 635.26L303.42 634.5L302.38 633.69L301.38 632.82L300.41 631.89L6.54 338.03L6.54 338.03L5.62 337.05L4.75 336.05L3.93 335.01L3.18 333.95L2.48 332.86L1.83 331.75L1.24 330.61L0.71 329.45L0.23 328.27L-0.19 327.08L-0.56 325.87L-0.86 324.65L-1.12 323.42L-1.31 322.18L-1.45 320.93L-1.54 319.69L-1.57 318.43L-1.54 317.18L-1.45 315.93L-1.31 314.69L-1.12 313.45L-0.86 312.22L-0.56 311L-0.19 309.79L0.23 308.6L0.71 307.42L1.24 306.26L1.83 305.12L2.48 304.01L3.18 302.92L3.93 301.85L4.75 300.82L5.62 299.81L6.54 298.84L7.52 297.92L8.52 297.05L9.55 296.23L10.62 295.48L11.71 294.77L12.82 294.13L13.96 293.54L15.12 293.01L16.3 292.53L17.49 292.11L18.7 291.74L19.92 291.44L21.15 291.18L22.39 290.99L23.63 290.85L24.88 290.76L26.14 290.73L27.39 290.76L28.64 290.85L29.88 290.99L31.12 291.18L32.35 291.44L33.57 291.74L34.78 292.11L35.97 292.53L37.15 293.01L38.31 293.54L39.45 294.13L40.56 294.77L41.65 295.48L42.72 296.23L43.75 297.05L44.75 297.92L45.73 298.84L320 573.12L594.27 298.84L595.25 297.92L596.25 297.05L597.28 296.23L598.35 295.48L599.44 294.77L600.55 294.13L601.69 293.54L602.85 293.01L604.03 292.53L605.22 292.11L606.43 291.74L607.65 291.44L608.88 291.18L610.12 290.99L611.36 290.85L612.61 290.76L613.86 290.73L615.12 290.76L616.37 290.85L617.61 290.99L618.85 291.18L620.08 291.44L621.3 291.74L622.51 292.11L623.7 292.53L624.88 293.01L626.04 293.54L627.18 294.13L628.29 294.77L629.38 295.48L630.45 296.23L631.48 297.05L632.48 297.92L633.46 298.84L634.38 299.81L635.25 300.82L636.07 301.85L636.82 302.92L637.52 304.01L638.17 305.12L638.76 306.26L639.29 307.42L639.77 308.6L640.19 309.79L640.56 311L640.86 312.22L641.12 313.45L641.31 314.69L641.45 315.93L641.54 317.18L641.57 318.43L641.54 319.69L641.45 320.93L641.31 322.18L641.12 323.42L640.86 324.65L640.56 325.87L640.19 327.08L639.77 328.27L639.29 329.45L638.76 330.61L638.17 331.75L637.52 332.86L636.82 333.95L636.07 335.01L635.25 336.05L634.38 337.05L633.46 338.03L633.46 338.03L339.59 631.89L338.62 632.82L337.62 633.69L337.62 633.69L336.58 634.5L335.52 635.26Z" id="aVfntcKH4"></path></defs><g><g><g><use xlink:href="#aVfntcKH4" opacity="1" fill="#000000" fill-opacity="1"></use></g></g></g></svg>