<?xml version="1.0" encoding="UTF-8" standalone="no"?>
<!DOCTYPE svg PUBLIC "-//W3C//DTD SVG 1.1//EN" "http://www.w3.org/Graphics/SVG/1.1/DTD/svg11.dtd">
<svg version="1.1" xmlns="http://www.w3.org/2000/svg" xmlns:xlink="http://www.w3.org/1999/xlink" preserveAspectRatio="xMidYMid meet" viewBox="0 0 640 640" width="640" height="640"><defs><path d="M612.42 32.7L613.74 32.85L615.04 33.05L616.32 33.3L617.58 33.61L618.82 33.97L620.03 34.38L621.22 34.84L622.39 35.35L623.53 35.91L624.65 36.51L625.73 37.15L626.79 37.84L627.81 38.58L628.8 39.35L629.76 40.16L630.69 41.01L631.57 41.9L632.42 42.82L633.24 43.78L634.01 44.77L634.74 45.8L635.43 46.85L636.08 47.94L636.68 49.05L637.23 50.19L637.74 51.36L638.2 52.55L638.61 53.77L638.97 55.01L639.28 56.27L639.54 57.55L639.74 58.85L639.88 60.16L639.97 61.49L640 62.84L640 577.16L639.97 578.51L639.88 579.84L639.74 581.15L639.54 582.45L639.28 583.73L638.97 584.99L638.61 586.23L638.2 587.45L637.74 588.64L637.23 589.81L636.68 590.95L636.08 592.06L635.43 593.15L634.74 594.2L634.01 595.23L633.24 596.22L632.42 597.18L631.57 598.1L630.69 598.99L629.76 599.84L628.8 600.65L627.81 601.42L626.79 602.16L625.73 602.85L624.65 603.49L623.53 604.09L622.39 604.65L621.22 605.16L620.03 605.62L618.82 606.03L617.58 606.39L616.32 606.7L615.04 606.95L613.74 607.15L612.42 607.3L611.09 607.39L609.75 607.41L428.22 607.42L426.87 607.39L425.54 607.3L424.23 607.15L422.93 606.95L421.65 606.7L420.39 606.39L419.15 606.03L417.94 605.62L416.74 605.16L415.58 604.65L414.44 604.09L413.32 603.49L412.24 602.85L411.18 602.16L410.16 601.42L409.16 600.65L408.21 599.84L407.28 598.99L406.39 598.1L405.54 597.18L404.73 596.22L403.96 595.23L403.23 594.2L402.54 593.15L401.89 592.06L401.29 590.95L400.73 589.81L400.22 588.64L399.76 587.45L399.35 586.23L398.99 584.99L398.68 583.73L398.43 582.45L398.23 581.15L398.08 579.84L398 578.51L397.97 577.16L398 575.81L398.08 574.48L398.23 573.17L398.43 571.87L398.68 570.59L398.99 569.33L399.35 568.09L399.76 566.88L400.22 565.68L400.73 564.52L401.29 563.37L401.89 562.26L402.54 561.18L403.23 560.12L403.96 559.1L404.73 558.1L405.54 557.14L406.39 556.22L407.28 555.33L408.21 554.48L409.16 553.67L410.16 552.9L411.18 552.17L412.24 551.48L413.32 550.83L414.44 550.23L415.58 549.67L416.74 549.16L417.94 548.7L419.15 548.29L420.39 547.93L421.65 547.62L422.93 547.37L424.23 547.17L425.54 547.02L426.87 546.94L428.22 546.91L428.22 546.91L579.49 546.91L579.49 93.09L428.22 93.09L428.22 93.09L426.87 93.06L425.54 92.98L424.23 92.83L422.93 92.63L421.65 92.38L420.39 92.07L419.15 91.71L417.94 91.3L416.74 90.84L415.58 90.33L414.44 89.77L413.32 89.17L412.24 88.52L411.18 87.83L410.16 87.1L409.16 86.33L408.21 85.52L407.28 84.67L406.39 83.78L405.54 82.86L404.73 81.9L403.96 80.9L403.23 79.88L402.54 78.82L401.89 77.74L401.29 76.63L400.73 75.48L400.22 74.32L399.76 73.12L399.35 71.91L398.99 70.67L398.68 69.41L398.43 68.13L398.23 66.83L398.08 65.52L398 64.19L397.97 62.84L398 61.49L398.08 60.16L398.23 58.85L398.43 57.55L398.68 56.27L398.99 55.01L399.35 53.77L399.76 52.55L400.22 51.36L400.73 50.19L401.29 49.05L401.89 47.94L402.54 46.85L403.23 45.8L403.96 44.77L404.73 43.78L405.54 42.82L406.39 41.9L407.28 41.01L408.21 40.16L409.16 39.35L410.16 38.58L411.18 37.84L412.24 37.15L413.32 36.51L414.44 35.91L415.58 35.35L416.74 34.84L417.94 34.38L419.15 33.97L420.39 33.61L421.65 33.3L422.93 33.05L424.23 32.85L425.54 32.7L426.87 32.61L428.22 32.59L609.75 32.59L611.09 32.61L612.42 32.7ZM298.08 97.27L299.34 97.38L300.58 97.53L301.82 97.74L303.06 98L304.28 98.31L305.5 98.67L306.7 99.08L307.88 99.55L309.05 100.07L310.2 100.64L311.33 101.26L312.44 101.93L313.52 102.66L314.58 103.43L315.62 104.26L316.62 105.14L317.59 106.07L317.59 106.07L488.27 276.75L488.27 276.75L509.67 298.15L509.66 298.16L510.13 298.61L511.06 299.58L511.94 300.58L512.77 301.62L513.54 302.68L514.27 303.76L514.94 304.87L515.56 306L516.13 307.15L516.65 308.32L517.11 309.5L517.18 309.7L517.19 309.71L517.21 309.78L517.53 310.7L517.58 310.87L517.6 310.93L517.69 311.24L517.89 311.92L517.93 312.06L517.96 312.17L518.07 312.63L518.2 313.14L518.23 313.27L518.27 313.43L518.37 313.95L518.46 314.37L518.48 314.51L518.52 314.71L518.6 315.22L518.67 315.62L518.69 315.78L518.72 316.01L518.77 316.47L518.82 316.86L518.84 317.07L518.87 317.32L518.89 317.73L518.93 318.12L518.94 318.39L518.95 318.65L518.96 319L518.98 319.37L518.98 319.71L518.98 320L518.98 320.3L518.98 320.63L518.96 321.01L518.95 321.35L518.94 321.62L518.93 321.88L518.89 322.27L518.87 322.68L518.84 322.93L518.82 323.14L518.77 323.53L518.72 323.99L518.69 324.22L518.67 324.38L518.6 324.78L518.52 325.29L518.48 325.49L518.46 325.63L518.37 326.06L518.27 326.57L518.23 326.73L518.2 326.86L518.07 327.37L517.96 327.83L517.93 327.94L517.89 328.08L517.69 328.76L517.6 329.07L517.58 329.13L517.53 329.3L517.21 330.22L517.19 330.29L517.19 330.29L517.11 330.5L516.65 331.68L516.13 332.85L515.56 334L514.94 335.13L514.27 336.24L513.54 337.32L512.77 338.38L511.94 339.42L511.06 340.42L510.13 341.39L509.66 341.84L509.67 341.85L488.27 363.25L488.27 363.25L317.59 533.93L316.62 534.86L315.62 535.74L314.58 536.57L313.52 537.34L312.44 538.07L311.33 538.74L310.2 539.36L309.05 539.93L307.88 540.45L306.7 540.92L305.5 541.33L304.28 541.69L303.06 542L301.82 542.26L300.58 542.47L299.34 542.62L298.08 542.73L296.83 542.78L295.57 542.78L294.32 542.73L293.06 542.62L291.82 542.47L290.57 542.26L289.34 542L288.12 541.69L286.9 541.33L285.7 540.92L284.52 540.45L283.35 539.93L282.2 539.36L281.07 538.74L279.96 538.07L278.88 537.34L277.82 536.57L276.78 535.74L275.78 534.86L274.81 533.93L273.88 532.96L273 531.95L272.17 530.92L271.39 529.86L270.67 528.78L269.99 527.67L269.37 526.54L268.8 525.39L268.29 524.22L267.82 523.03L267.41 521.83L267.04 520.62L266.73 519.4L266.48 518.16L266.27 516.92L266.11 515.67L266.01 514.42L265.96 513.16L265.96 511.91L266.01 510.65L266.11 509.4L266.27 508.15L266.48 506.91L266.73 505.68L267.04 504.45L267.41 503.24L267.82 502.04L268.29 500.85L268.8 499.69L269.37 498.54L269.99 497.41L270.67 496.3L271.39 495.21L272.17 494.15L273 493.12L273.88 492.12L274.81 491.14L274.81 491.14L415.7 350.25L34.92 350.25L34.92 349.89L34.25 349.99L32.93 350.14L31.6 350.22L30.25 350.25L28.91 350.22L27.58 350.14L26.26 349.99L24.96 349.79L23.68 349.54L22.42 349.23L21.18 348.87L19.97 348.46L18.78 348L17.61 347.49L16.47 346.93L15.35 346.33L14.27 345.69L13.21 345L12.19 344.26L11.2 343.49L10.24 342.68L9.31 341.83L8.43 340.94L7.58 340.02L6.76 339.06L5.99 338.07L5.26 337.04L4.57 335.99L3.92 334.9L3.32 333.79L2.77 332.64L2.26 331.48L1.8 330.29L1.39 329.07L1.03 327.83L0.72 326.57L0.46 325.29L0.26 323.99L0.12 322.68L0.03 321.35L0 320L0.03 318.65L0.12 317.32L0.26 316.01L0.46 314.71L0.72 313.43L1.03 312.17L1.39 310.93L1.8 309.71L2.26 308.52L2.77 307.36L3.32 306.21L3.92 305.1L4.57 304.01L5.26 302.96L5.99 301.93L6.76 300.94L7.58 299.98L8.43 299.06L9.31 298.17L10.24 297.32L11.2 296.51L12.19 295.74L13.21 295L14.27 294.31L15.35 293.67L16.47 293.07L17.61 292.51L18.78 292L19.97 291.54L21.18 291.13L22.42 290.77L23.68 290.46L24.96 290.21L26.26 290.01L27.58 289.86L28.91 289.78L30.25 289.75L31.6 289.78L32.93 289.86L34.25 290.01L34.92 290.11L34.92 289.75L415.7 289.75L274.81 148.86L274.81 148.86L273.88 147.88L273 146.88L272.17 145.85L271.39 144.79L270.67 143.7L269.99 142.59L269.37 141.46L268.8 140.31L268.29 139.15L267.82 137.96L267.41 136.76L267.04 135.55L266.73 134.32L266.48 133.09L266.27 131.85L266.11 130.6L266.01 129.35L265.96 128.09L265.96 126.84L266.01 125.58L266.11 124.33L266.27 123.08L266.48 121.84L266.73 120.6L267.04 119.38L267.41 118.17L267.82 116.97L268.29 115.78L268.8 114.61L269.37 113.46L269.99 112.33L270.67 111.22L271.39 110.14L272.17 109.08L273 108.05L273.88 107.04L274.81 106.07L275.78 105.14L276.78 104.26L277.82 103.43L278.88 102.66L279.96 101.93L281.07 101.26L282.2 100.64L283.35 100.07L284.52 99.55L285.7 99.08L286.9 98.67L288.12 98.31L289.34 98L290.57 97.74L291.82 97.53L293.06 97.38L294.32 97.27L295.57 97.22L296.83 97.22L298.08 97.27Z" id="a21OFMhwqq"></path></defs><g><g><g><use xlink:href="#a21OFMhwqq" opacity="1" fill="#000000" fill-opacity="1"></use></g></g></g></svg>