<?xml version="1.0" encoding="UTF-8" standalone="no"?>
<!DOCTYPE svg PUBLIC "-//W3C//DTD SVG 1.1//EN" "http://www.w3.org/Graphics/SVG/1.1/DTD/svg11.dtd">
<svg version="1.1" xmlns="http://www.w3.org/2000/svg" xmlns:xlink="http://www.w3.org/1999/xlink" preserveAspectRatio="xMidYMid meet" viewBox="0 0 640 640" width="640" height="640"><defs><path d="M617.24 78.43L618.55 78.6L619.84 78.84L621.11 79.14L622.35 79.51L623.56 79.93L624.75 80.42L625.91 80.96L627.03 81.55L628.12 82.21L629.17 82.91L630.18 83.66L631.16 84.46L632.09 85.31L632.98 86.2L633.83 87.13L634.63 88.11L635.38 89.12L636.08 90.17L636.74 91.26L637.33 92.38L637.87 93.54L638.36 94.73L638.78 95.94L639.15 97.18L639.45 98.45L639.69 99.74L639.86 101.05L639.96 102.38L640 103.73L640 536.27L639.96 537.62L639.86 538.95L639.69 540.26L639.45 541.55L639.15 542.82L638.78 544.06L638.36 545.27L637.87 546.46L637.33 547.62L636.74 548.74L636.08 549.83L635.38 550.88L634.63 551.89L633.83 552.87L632.98 553.8L632.09 554.69L631.16 555.54L630.18 556.34L629.17 557.09L628.12 557.79L627.03 558.45L625.91 559.04L624.75 559.58L623.56 560.07L622.35 560.49L621.11 560.86L619.84 561.16L618.55 561.4L617.24 561.57L615.91 561.67L614.56 561.71L461.9 561.71L460.55 561.67L459.22 561.57L457.9 561.4L456.61 561.16L455.35 560.86L454.11 560.49L452.89 560.07L451.71 559.58L450.55 559.04L449.43 558.45L448.34 557.79L447.29 557.09L446.27 556.34L445.3 555.54L444.36 554.69L443.47 553.8L442.62 552.87L441.82 551.89L441.07 550.88L440.37 549.83L439.72 548.74L439.12 547.62L438.58 546.46L438.1 545.27L437.67 544.06L437.31 542.82L437.01 541.55L436.77 540.26L436.6 538.95L436.49 537.62L436.46 536.27L436.49 534.92L436.6 533.58L436.77 532.27L437.01 530.98L437.31 529.72L437.67 528.47L438.1 527.26L438.58 526.07L439.12 524.92L439.72 523.8L440.37 522.71L441.07 521.66L441.82 520.64L442.62 519.66L443.47 518.73L444.36 517.84L445.3 516.99L446.27 516.19L447.29 515.44L448.34 514.74L449.43 514.09L450.55 513.49L451.71 512.95L452.89 512.47L454.11 512.04L455.35 511.68L456.61 511.37L457.9 511.14L459.22 510.96L460.55 510.86L461.9 510.82L589.11 510.82L589.11 129.18L461.9 129.18L461.9 129.18L460.55 129.14L459.22 129.04L457.9 128.86L456.61 128.63L455.35 128.32L454.11 127.96L452.89 127.53L451.71 127.05L450.55 126.51L449.43 125.91L448.34 125.26L447.29 124.56L446.27 123.81L445.3 123.01L444.36 122.16L443.47 121.27L442.62 120.34L441.82 119.36L441.07 118.34L440.37 117.29L439.72 116.2L439.12 115.08L438.58 113.93L438.1 112.74L437.67 111.53L437.31 110.28L437.01 109.02L436.77 107.73L436.6 106.42L436.49 105.08L436.46 103.73L436.49 102.38L436.6 101.05L436.77 99.74L437.01 98.45L437.31 97.18L437.67 95.94L438.1 94.73L438.58 93.54L439.12 92.38L439.72 91.26L440.37 90.17L441.07 89.12L441.82 88.11L442.62 87.13L443.47 86.2L444.36 85.31L445.3 84.46L446.27 83.66L447.29 82.91L448.34 82.21L449.43 81.55L450.55 80.96L451.71 80.42L452.89 79.93L454.11 79.51L455.35 79.14L456.61 78.84L457.9 78.6L459.22 78.43L460.55 78.33L461.9 78.29L614.56 78.29L615.91 78.33L617.24 78.43ZM252.24 132.84L253.49 133.02L254.73 133.27L255.96 133.58L257.18 133.95L258.38 134.39L259.56 134.88L260.72 135.44L261.85 136.06L262.96 136.74L264.04 137.49L265.09 138.29L266.11 139.16L267.09 140.09L411.02 284.02L411.02 284.02L428.62 301.62L428.61 301.63L429.01 302.01L429.94 302.99L430.81 304L431.61 305.05L432.36 306.14L433.04 307.24L433.66 308.38L434.22 309.54L434.33 309.8L434.33 309.81L434.34 309.84L434.71 310.72L434.79 310.94L434.81 310.99L434.88 311.19L435.15 311.92L435.2 312.11L435.24 312.21L435.34 312.56L435.52 313.14L435.56 313.31L435.6 313.45L435.71 313.89L435.83 314.37L435.86 314.53L435.9 314.71L435.99 315.18L436.08 315.61L436.1 315.79L436.14 316.01L436.2 316.45L436.26 316.85L436.28 317.07L436.32 317.32L436.35 317.72L436.39 318.11L436.4 318.38L436.42 318.65L436.43 318.99L436.45 319.37L436.45 319.7L436.46 320L436.45 320.3L436.45 320.63L436.43 321.01L436.42 321.35L436.4 321.62L436.39 321.89L436.35 322.28L436.32 322.68L436.28 322.93L436.26 323.15L436.2 323.55L436.14 323.99L436.1 324.21L436.08 324.39L435.99 324.82L435.9 325.29L435.86 325.47L435.83 325.63L435.71 326.11L435.6 326.55L435.56 326.69L435.52 326.86L435.34 327.45L435.24 327.79L435.2 327.89L435.15 328.08L434.88 328.81L434.81 329.01L434.79 329.06L434.71 329.28L434.34 330.16L434.33 330.19L434.33 330.2L434.22 330.46L433.66 331.62L433.04 332.76L432.36 333.86L431.61 334.95L430.81 336L429.94 337.01L429.44 337.53L429.44 337.54L429.44 337.54L429.01 337.99L428.61 338.37L428.62 338.38L411.02 355.98L411.02 355.98L267.09 499.91L267.09 499.91L266.11 500.84L265.09 501.71L264.04 502.51L262.96 503.26L261.85 503.94L260.72 504.56L259.56 505.12L258.38 505.61L257.18 506.05L255.96 506.42L254.73 506.73L253.49 506.98L252.24 507.16L250.99 507.29L249.73 507.35L248.47 507.35L247.21 507.29L245.95 507.16L244.7 506.98L243.46 506.73L242.23 506.42L241.02 506.05L239.82 505.61L238.64 505.12L237.48 504.56L236.34 503.94L235.23 503.26L234.15 502.51L233.1 501.71L232.09 500.84L231.11 499.91L230.18 498.93L229.31 497.91L228.5 496.86L227.76 495.78L227.08 494.67L226.46 493.54L225.9 492.38L225.4 491.2L224.97 490L224.6 488.78L224.29 487.55L224.04 486.31L223.85 485.06L223.73 483.81L223.67 482.55L223.67 481.29L223.73 480.03L223.85 478.77L224.04 477.52L224.29 476.28L224.6 475.06L224.97 473.84L225.4 472.64L225.9 471.46L226.46 470.3L227.08 469.16L227.76 468.05L228.5 466.97L229.31 465.92L230.18 464.91L231.11 463.93L231.11 463.93L349.59 345.44L29.37 345.44L29.37 345.14L28.13 345.3L26.79 345.41L25.44 345.44L24.09 345.41L22.76 345.3L21.45 345.13L20.16 344.89L18.89 344.59L17.65 344.23L16.44 343.8L15.25 343.32L14.09 342.77L12.97 342.18L11.88 341.53L10.83 340.83L9.82 340.07L8.84 339.27L7.91 338.43L7.02 337.54L6.17 336.6L5.37 335.63L4.62 334.61L3.92 333.56L3.26 332.47L2.67 331.35L2.13 330.19L1.64 329.01L1.22 327.79L0.85 326.55L0.55 325.29L0.31 323.99L0.14 322.68L0.04 321.35L0 320L0.04 318.65L0.14 317.32L0.31 316.01L0.55 314.71L0.85 313.45L1.22 312.21L1.64 310.99L2.13 309.81L2.67 308.65L3.26 307.53L3.92 306.44L4.62 305.39L5.37 304.37L6.17 303.4L7.02 302.46L7.91 301.57L8.84 300.73L9.82 299.93L10.83 299.17L11.88 298.47L12.97 297.82L14.09 297.23L15.25 296.68L16.44 296.2L17.65 295.77L18.89 295.41L20.16 295.11L21.45 294.87L22.76 294.7L24.09 294.59L25.44 294.56L26.79 294.59L28.13 294.7L29.37 294.86L29.37 294.56L349.59 294.56L231.11 176.07L231.11 176.07L230.18 175.09L229.31 174.08L228.5 173.03L227.76 171.95L227.08 170.84L226.46 169.7L225.9 168.54L225.4 167.36L224.97 166.16L224.6 164.94L224.29 163.72L224.04 162.48L223.85 161.23L223.73 159.97L223.67 158.71L223.67 157.45L223.73 156.19L223.85 154.94L224.04 153.69L224.29 152.45L224.6 151.22L224.97 150L225.4 148.8L225.9 147.62L226.46 146.46L227.08 145.33L227.76 144.22L228.5 143.14L229.31 142.09L230.18 141.07L231.11 140.09L232.09 139.16L233.1 138.29L234.15 137.49L235.23 136.74L236.34 136.06L237.48 135.44L238.64 134.88L239.82 134.39L241.02 133.95L242.23 133.58L243.46 133.27L244.7 133.02L245.95 132.84L247.21 132.71L248.47 132.65L249.73 132.65L250.99 132.71L252.24 132.84Z" id="a2e7o0rcHJ"></path></defs><g><g><g><use xlink:href="#a2e7o0rcHJ" opacity="1" fill="#000000" fill-opacity="1"></use></g></g></g></svg>