<?xml version="1.0" encoding="UTF-8" standalone="no"?>
<!DOCTYPE svg PUBLIC "-//W3C//DTD SVG 1.1//EN" "http://www.w3.org/Graphics/SVG/1.1/DTD/svg11.dtd">
<svg version="1.1" xmlns="http://www.w3.org/2000/svg" xmlns:xlink="http://www.w3.org/1999/xlink" preserveAspectRatio="xMidYMid meet" viewBox="0 0 640 640" width="640" height="640"><defs><path d="M5.5 338.15L4.74 337.08L4.04 335.99L3.4 334.88L2.81 333.74L2.27 332.58L1.8 331.4L1.37 330.21L1.01 329L0.7 327.78L0.45 326.55L0.25 325.31L0.11 324.07L0.03 322.82L0 321.57L0.03 320.31L0.11 319.06L0.25 317.82L0.45 316.58L0.7 315.35L1.01 314.13L1.37 312.92L1.8 311.73L2.27 310.55L2.81 309.39L3.4 308.25L4.04 307.14L4.74 306.05L5.5 304.98L6.31 303.95L7.18 302.95L8.11 301.97L8.11 301.97L301.97 8.11L302.95 7.18L303.95 6.31L304.99 5.5L306.05 4.74L307.14 4.04L308.25 3.4L309.39 2.81L310.55 2.27L311.73 1.8L312.92 1.37L314.13 1.01L315.35 0.7L316.58 0.45L317.82 0.25L319.07 0.11L320.31 0.03L321.57 0L322.82 0.03L324.07 0.11L325.31 0.25L326.55 0.45L327.78 0.7L329 1.01L330.21 1.37L331.4 1.8L332.58 2.27L333.74 2.81L334.88 3.4L335.99 4.04L337.08 4.74L338.15 5.5L339.18 6.31L340.19 7.18L341.16 8.11L342.08 9.08L342.95 10.08L343.77 11.12L344.52 12.18L345.23 13.27L345.87 14.39L346.46 15.53L346.99 16.69L347.47 17.86L347.89 19.06L348.26 20.26L348.56 21.49L348.82 22.72L349.01 23.95L349.15 25.2L349.24 26.45L349.27 27.7L349.24 28.95L349.15 30.2L349.01 31.45L348.82 32.68L348.56 33.92L348.26 35.14L347.89 36.34L347.47 37.54L346.99 38.71L346.46 39.87L345.87 41.01L345.23 42.13L344.52 43.22L343.77 44.28L342.95 45.32L342.08 46.32L341.16 47.29L66.88 321.57L341.16 595.84L341.16 595.84L342.08 596.81L342.95 597.81L343.77 598.85L344.52 599.91L345.23 601L345.87 602.12L346.46 603.26L346.99 604.42L347.47 605.59L347.89 606.79L348.26 607.99L348.56 609.22L348.82 610.45L349.01 611.68L349.15 612.93L349.24 614.18L349.27 615.43L349.24 616.68L349.15 617.93L349.01 619.18L348.82 620.41L348.56 621.65L348.26 622.87L347.89 624.07L347.47 625.27L346.99 626.44L346.46 627.6L345.87 628.74L345.23 629.86L344.52 630.95L343.77 632.01L342.95 633.05L342.08 634.05L341.16 635.02L340.19 635.95L339.18 636.82L338.15 637.63L337.08 638.39L335.99 639.09L334.88 639.74L333.74 640.32L332.58 640.86L331.4 641.33L330.21 641.76L329 642.12L327.78 642.43L326.55 642.68L325.31 642.88L324.07 643.02L322.82 643.1L321.57 643.13L320.31 643.1L319.07 643.02L317.82 642.88L316.58 642.68L315.35 642.43L314.13 642.12L312.92 641.76L311.73 641.33L310.55 640.86L309.39 640.32L308.25 639.74L307.14 639.09L306.05 638.39L304.99 637.63L303.95 636.82L302.95 635.95L301.97 635.02L8.11 341.16L8.11 341.16L7.18 340.19L6.31 339.18L5.5 338.15Z" id="a2509qdj6K"></path></defs><g><g><g><use xlink:href="#a2509qdj6K" opacity="1" fill="#000000" fill-opacity="1"></use></g></g></g></svg>