<?xml version="1.0" encoding="UTF-8" standalone="no"?>
<!DOCTYPE svg PUBLIC "-//W3C//DTD SVG 1.1//EN" "http://www.w3.org/Graphics/SVG/1.1/DTD/svg11.dtd">
<svg version="1.1" xmlns="http://www.w3.org/2000/svg" xmlns:xlink="http://www.w3.org/1999/xlink" preserveAspectRatio="xMidYMid meet" viewBox="0 0 640 640" width="640" height="640"><defs><path d="M618.55 78.6L619.84 78.84L621.11 79.14L622.35 79.51L623.56 79.93L624.75 80.42L625.91 80.96L627.03 81.55L628.12 82.21L629.17 82.91L630.18 83.66L631.16 84.46L632.09 85.31L632.98 86.2L633.83 87.13L634.63 88.11L635.38 89.12L636.08 90.17L636.74 91.26L637.33 92.38L637.87 93.54L638.36 94.73L638.78 95.94L639.15 97.18L639.45 98.45L639.69 99.74L639.86 101.05L639.96 102.38L640 103.73L640 536.27L640 536.27L639.96 537.62L639.86 538.95L639.69 540.26L639.45 541.55L639.15 542.82L638.78 544.06L638.36 545.27L637.87 546.46L637.33 547.62L636.74 548.74L636.08 549.83L635.38 550.88L634.63 551.89L633.83 552.87L632.98 553.8L632.09 554.69L631.16 555.54L630.18 556.34L629.17 557.09L628.12 557.79L627.03 558.45L625.91 559.04L624.75 559.58L623.56 560.07L622.35 560.49L621.11 560.86L619.84 561.16L618.55 561.4L617.24 561.57L615.91 561.67L614.56 561.71L461.9 561.71L460.55 561.67L459.22 561.57L457.9 561.4L456.61 561.16L455.35 560.86L454.11 560.49L452.89 560.07L451.71 559.58L450.55 559.04L449.43 558.45L448.34 557.79L447.29 557.09L446.27 556.34L445.3 555.54L444.36 554.69L443.47 553.8L442.62 552.87L441.82 551.89L441.07 550.88L440.37 549.83L439.72 548.74L439.12 547.62L438.58 546.46L438.1 545.27L437.67 544.06L437.31 542.82L437.01 541.55L436.77 540.26L436.6 538.95L436.49 537.62L436.46 536.27L436.49 534.92L436.6 533.58L436.77 532.27L437.01 530.98L437.31 529.72L437.67 528.47L438.1 527.26L438.58 526.07L439.12 524.92L439.72 523.8L440.37 522.71L441.07 521.66L441.82 520.64L442.62 519.66L443.47 518.73L444.36 517.84L445.3 516.99L446.27 516.19L447.29 515.44L448.34 514.74L449.43 514.09L450.55 513.49L451.71 512.95L452.89 512.47L454.11 512.04L455.35 511.68L456.61 511.37L457.9 511.14L459.22 510.96L460.55 510.86L461.9 510.82L589.11 510.82L589.11 129.18L461.9 129.18L460.55 129.14L459.22 129.04L457.9 128.86L456.61 128.63L455.35 128.32L454.11 127.96L452.89 127.53L451.71 127.05L450.55 126.51L449.43 125.91L448.34 125.26L447.29 124.56L446.27 123.81L445.3 123.01L444.36 122.16L443.47 121.27L442.62 120.34L441.82 119.36L441.07 118.34L440.37 117.29L439.72 116.2L439.12 115.08L438.58 113.93L438.1 112.74L437.67 111.53L437.31 110.28L437.01 109.02L436.77 107.73L436.6 106.42L436.49 105.08L436.46 103.73L436.49 102.38L436.6 101.05L436.77 99.74L437.01 98.45L437.31 97.18L437.67 95.94L438.1 94.73L438.58 93.54L439.12 92.38L439.72 91.26L440.37 90.17L441.07 89.12L441.82 88.11L442.62 87.13L443.47 86.2L444.36 85.31L445.3 84.46L446.27 83.66L447.29 82.91L448.34 82.21L449.43 81.55L450.55 80.96L451.71 80.42L452.89 79.93L454.11 79.51L455.35 79.14L456.61 78.84L457.9 78.6L459.22 78.43L460.55 78.33L461.9 78.29L614.56 78.29L615.91 78.33L617.24 78.43L617.24 78.43L618.55 78.6ZM191.75 133.02L192.99 133.27L194.22 133.58L195.44 133.95L196.64 134.39L197.82 134.88L198.98 135.44L200.11 136.06L201.22 136.74L202.3 137.49L203.35 138.29L204.37 139.16L205.35 140.09L206.28 141.07L207.15 142.09L207.95 143.14L208.7 144.22L209.38 145.33L210 146.46L210.56 147.62L211.05 148.8L211.49 150L211.86 151.22L212.17 152.45L212.42 153.69L212.6 154.94L212.73 156.19L212.79 157.45L212.79 158.71L212.73 159.97L212.6 161.23L212.42 162.48L212.17 163.72L211.86 164.94L211.49 166.16L211.05 167.36L210.56 168.54L210 169.7L209.38 170.84L208.7 171.95L207.95 173.03L207.15 174.08L206.28 175.09L205.35 176.07L205.35 176.07L86.86 294.56L407.09 294.56L407.09 294.86L408.33 294.7L409.66 294.59L411.01 294.56L412.36 294.59L413.69 294.7L415.01 294.87L416.3 295.11L417.56 295.41L418.81 295.77L420.02 296.2L421.21 296.68L422.36 297.23L423.48 297.82L424.57 298.47L425.62 299.17L426.64 299.93L427.61 300.73L428.55 301.57L429.44 302.46L430.29 303.4L431.09 304.37L431.84 305.39L432.54 306.44L433.19 307.53L433.79 308.65L434.33 309.81L434.81 310.99L435.24 312.21L435.6 313.45L435.9 314.71L436.14 316.01L436.32 317.32L436.42 318.65L436.46 320L436.42 321.35L436.32 322.68L436.14 323.99L435.9 325.29L435.6 326.55L435.24 327.79L434.81 329.01L434.33 330.19L433.79 331.35L433.19 332.47L432.54 333.56L431.84 334.61L431.09 335.63L430.29 336.6L429.44 337.54L428.55 338.43L427.61 339.27L426.64 340.07L425.62 340.83L424.57 341.53L423.48 342.18L422.36 342.77L421.21 343.32L420.02 343.8L418.81 344.23L417.56 344.59L416.3 344.89L415.01 345.13L413.69 345.3L412.36 345.41L411.01 345.44L409.66 345.41L408.33 345.3L407.09 345.14L407.09 345.44L86.86 345.44L205.35 463.93L206.28 464.91L207.15 465.92L207.95 466.97L208.7 468.05L209.38 469.16L210 470.3L210.56 471.46L211.05 472.64L211.49 473.84L211.86 475.06L212.17 476.28L212.42 477.52L212.6 478.77L212.73 480.03L212.79 481.29L212.79 482.55L212.73 483.81L212.6 485.06L212.42 486.31L212.17 487.55L211.86 488.78L211.49 490L211.05 491.2L210.56 492.38L210 493.54L209.38 494.67L208.7 495.78L207.95 496.86L207.15 497.91L206.28 498.93L205.35 499.91L204.37 500.84L203.35 501.71L202.3 502.51L201.22 503.26L200.11 503.94L198.98 504.56L197.82 505.12L196.64 505.61L195.44 506.05L194.22 506.42L192.99 506.73L191.75 506.98L190.5 507.16L189.25 507.29L187.99 507.35L186.73 507.35L185.47 507.29L184.21 507.16L182.96 506.98L181.72 506.73L180.49 506.42L179.28 506.05L178.08 505.61L176.9 505.12L175.74 504.56L174.6 503.94L173.49 503.26L172.41 502.51L171.36 501.71L170.35 500.84L169.37 499.91L169.37 499.91L25.83 356.37L25.44 355.98L25.44 355.98L7.83 338.38L7.85 338.37L7.45 337.99L7.02 337.54L7.02 337.54L7.01 337.53L6.52 337.01L5.65 336L4.84 334.95L4.1 333.86L3.42 332.76L2.8 331.62L2.24 330.46L2.13 330.2L2.13 330.19L2.12 330.16L1.74 329.28L1.66 329.06L1.64 329.01L1.57 328.81L1.31 328.08L1.25 327.89L1.22 327.79L1.12 327.45L0.94 326.86L0.9 326.69L0.85 326.55L0.75 326.11L0.63 325.63L0.6 325.47L0.55 325.29L0.46 324.82L0.38 324.39L0.35 324.21L0.31 323.99L0.25 323.55L0.19 323.15L0.17 322.93L0.14 322.68L0.11 322.28L0.07 321.89L0.06 321.62L0.04 321.35L0.03 321.01L0.01 320.63L0.01 320.3L0 320L0.01 319.7L0.01 319.37L0.03 318.99L0.04 318.65L0.06 318.38L0.07 318.11L0.11 317.72L0.14 317.32L0.17 317.07L0.19 316.85L0.25 316.45L0.31 316.01L0.35 315.79L0.38 315.61L0.46 315.18L0.55 314.71L0.6 314.53L0.63 314.37L0.75 313.89L0.85 313.45L0.9 313.31L0.94 313.14L1.12 312.56L1.22 312.21L1.25 312.11L1.31 311.92L1.57 311.19L1.64 310.99L1.66 310.94L1.74 310.72L2.12 309.84L2.13 309.81L2.13 309.8L2.24 309.54L2.8 308.38L3.42 307.24L4.1 306.14L4.84 305.05L5.65 304L6.52 302.99L7.45 302.01L7.85 301.63L7.83 301.62L25.44 284.02L25.44 284.02L169.37 140.09L170.35 139.16L171.36 138.29L172.41 137.49L173.49 136.74L174.6 136.06L175.74 135.44L176.9 134.88L178.08 134.39L179.28 133.95L180.49 133.58L181.72 133.27L182.96 133.02L184.21 132.84L185.47 132.71L186.73 132.65L187.99 132.65L189.25 132.71L190.5 132.84L190.5 132.84L191.75 133.02Z" id="b2sveevDBq"></path></defs><g><g><g><use xlink:href="#b2sveevDBq" opacity="1" fill="#000000" fill-opacity="1"></use></g></g></g></svg>