<?xml version="1.0" encoding="UTF-8" standalone="no"?>
<!DOCTYPE svg PUBLIC "-//W3C//DTD SVG 1.1//EN" "http://www.w3.org/Graphics/SVG/1.1/DTD/svg11.dtd">
<svg version="1.1" xmlns="http://www.w3.org/2000/svg" xmlns:xlink="http://www.w3.org/1999/xlink" preserveAspectRatio="xMidYMid meet" viewBox="0 0 640 640" width="640" height="640"><defs><path d="M635.26 304.48L635.96 305.57L636.6 306.69L637.19 307.83L637.73 308.99L638.2 310.16L638.63 311.36L638.99 312.56L639.3 313.78L639.55 315.02L639.75 316.25L639.89 317.5L639.97 318.75L640 320L639.97 321.25L639.89 322.5L639.75 323.75L639.55 324.98L639.3 326.22L638.99 327.44L638.63 328.64L638.2 329.84L637.73 331.01L637.19 332.17L636.6 333.31L635.96 334.43L635.26 335.52L634.5 336.58L633.69 337.62L632.82 338.62L631.89 339.59L631.89 339.59L338.03 633.46L337.05 634.38L336.05 635.25L335.01 636.07L333.95 636.82L332.86 637.52L331.75 638.17L330.61 638.76L329.45 639.29L328.27 639.77L327.08 640.19L325.87 640.56L324.65 640.86L323.42 641.12L322.18 641.31L320.93 641.45L319.69 641.54L318.43 641.57L317.18 641.54L315.93 641.45L314.69 641.31L313.45 641.12L312.22 640.86L311 640.56L309.79 640.19L308.6 639.77L307.42 639.29L306.26 638.76L305.12 638.17L304.01 637.52L302.92 636.82L301.85 636.07L300.82 635.25L299.81 634.38L298.84 633.46L297.92 632.48L297.05 631.48L296.23 630.45L295.48 629.38L294.77 628.29L294.13 627.18L293.54 626.04L293.01 624.88L292.53 623.7L292.11 622.51L291.74 621.3L291.44 620.08L291.18 618.85L290.99 617.61L290.85 616.37L290.76 615.12L290.73 613.86L290.76 612.61L290.85 611.36L290.99 610.12L291.18 608.88L291.44 607.65L291.74 606.43L292.11 605.22L292.53 604.03L293.01 602.85L293.54 601.69L294.13 600.55L294.77 599.44L295.48 598.35L296.23 597.28L297.05 596.25L297.92 595.25L298.84 594.27L298.84 594.27L573.12 320L298.84 45.73L298.84 45.73L297.92 44.75L297.05 43.75L296.23 42.72L295.48 41.65L294.77 40.56L294.13 39.45L293.54 38.31L293.01 37.15L292.53 35.97L292.11 34.78L291.74 33.57L291.44 32.35L291.18 31.12L290.99 29.88L290.85 28.64L290.76 27.39L290.73 26.14L290.76 24.88L290.85 23.63L290.99 22.39L291.18 21.15L291.44 19.92L291.74 18.7L292.11 17.49L292.53 16.3L293.01 15.12L293.54 13.96L294.13 12.82L294.77 11.71L295.48 10.62L296.23 9.55L297.05 8.52L297.92 7.52L298.84 6.54L299.81 5.62L300.82 4.75L301.85 3.93L302.92 3.18L304.01 2.48L305.12 1.83L306.26 1.24L307.42 0.71L308.6 0.23L309.79 -0.19L311 -0.56L312.22 -0.86L313.45 -1.12L314.69 -1.31L315.93 -1.45L317.18 -1.54L318.43 -1.57L319.69 -1.54L320.93 -1.45L322.18 -1.31L323.42 -1.12L324.65 -0.86L325.87 -0.56L327.08 -0.19L328.27 0.23L329.45 0.71L330.61 1.24L331.75 1.83L332.86 2.48L333.95 3.18L335.01 3.93L336.05 4.75L337.05 5.62L338.03 6.54L631.89 300.41L631.89 300.41L632.82 301.38L633.69 302.38L634.5 303.42L635.26 304.48Z" id="c11qlpikBB"></path></defs><g><g><g><use xlink:href="#c11qlpikBB" opacity="1" fill="#000000" fill-opacity="1"></use></g></g></g></svg>