<?xml version="1.0" encoding="UTF-8" standalone="no"?>
<!DOCTYPE svg PUBLIC "-//W3C//DTD SVG 1.1//EN" "http://www.w3.org/Graphics/SVG/1.1/DTD/svg11.dtd">
<svg version="1.1" xmlns="http://www.w3.org/2000/svg" xmlns:xlink="http://www.w3.org/1999/xlink" preserveAspectRatio="xMidYMid meet" viewBox="0 0 640 640" width="640" height="640"><defs><path d="M438.3 0.02L439.59 0L440.89 0.02L442.18 0.1L443.47 0.22L444.75 0.39L446.03 0.62L447.3 0.89L448.56 1.21L449.81 1.58L451.05 2L452.27 2.46L453.48 2.98L454.67 3.55L455.84 4.17L457 4.83L458.13 5.55L459.24 6.31L460.32 7.12L461.38 7.99L462.41 8.9L463.41 9.86L630.14 176.59L630.14 176.59L631.1 177.59L632.01 178.62L632.87 179.68L633.69 180.76L634.45 181.87L635.17 183L635.83 184.15L636.45 185.33L637.01 186.52L637.53 187.73L638 188.95L638.42 190.19L638.79 191.44L639.11 192.7L639.38 193.97L639.6 195.25L639.77 196.53L639.9 197.82L639.97 199.11L640 200.41L639.97 201.7L639.95 202.11L640.01 202.11L640.01 572.63L640 572.63L640 606.32L639.97 607.7L639.89 609.08L639.75 610.43L639.56 611.78L639.31 613.1L639.02 614.41L638.67 615.69L638.28 616.96L637.84 618.2L637.35 619.42L636.81 620.62L636.23 621.79L635.61 622.94L634.95 624.05L634.24 625.14L633.49 626.2L632.71 627.23L631.88 628.23L631.02 629.2L630.13 630.13L629.19 631.03L628.23 631.89L627.23 632.71L626.2 633.5L625.14 634.24L624.05 634.95L622.93 635.62L621.79 636.24L620.62 636.82L619.42 637.35L618.2 637.84L616.95 638.28L615.69 638.68L614.4 639.02L613.1 639.32L611.77 639.56L610.43 639.75L609.07 639.89L607.7 639.97L606.31 640L33.68 640L32.3 639.97L30.92 639.89L29.57 639.75L28.22 639.56L26.9 639.32L25.59 639.02L24.31 638.68L23.04 638.28L21.8 637.84L20.58 637.35L19.38 636.82L18.21 636.24L17.06 635.62L15.95 634.95L14.86 634.24L13.8 633.5L12.77 632.71L11.77 631.89L10.8 631.03L9.87 630.13L8.97 629.2L8.11 628.23L7.29 627.23L6.5 626.2L5.76 625.14L5.05 624.05L4.38 622.94L3.76 621.79L3.18 620.62L2.65 619.42L2.16 618.2L1.72 616.96L1.32 615.69L0.98 614.41L0.68 613.1L0.44 611.78L0.25 610.43L0.11 609.08L0.03 607.7L0 606.32L0 33.68L0.03 32.3L0.11 30.92L0.25 29.57L0.44 28.22L0.68 26.9L0.98 25.59L1.32 24.31L1.72 23.04L2.16 21.8L2.65 20.58L3.18 19.38L3.76 18.21L4.38 17.06L5.05 15.95L5.76 14.86L6.5 13.8L7.29 12.77L8.11 11.77L8.97 10.8L9.87 9.87L10.8 8.97L11.77 8.11L12.77 7.29L13.8 6.5L14.86 5.76L15.95 5.05L17.06 4.38L18.21 3.76L19.38 3.18L20.58 2.65L21.8 2.16L23.04 1.72L24.31 1.32L25.59 0.98L26.9 0.68L28.22 0.44L29.57 0.25L30.92 0.11L32.3 0.03L33.68 0L437.89 0L437.89 0.05L438.3 0.02ZM67.37 572.63L117.9 572.63L117.9 372.64L117.93 371.25L118.01 369.88L118.15 368.52L118.34 367.18L118.59 365.86L118.88 364.55L119.23 363.26L119.62 362L120.06 360.75L120.55 359.53L121.08 358.34L121.66 357.17L122.29 356.02L122.95 354.9L123.66 353.81L124.4 352.75L125.19 351.72L126.01 350.72L126.87 349.76L127.77 348.83L128.7 347.93L129.67 347.07L130.67 346.24L131.7 345.46L132.76 344.71L133.85 344.01L134.97 343.34L136.11 342.72L137.28 342.14L138.48 341.6L139.7 341.12L140.94 340.67L142.21 340.28L143.49 339.94L144.8 339.64L146.12 339.4L147.47 339.21L148.82 339.07L150.2 338.98L151.58 338.96L488.43 338.96L489.81 338.98L491.19 339.07L492.54 339.21L493.89 339.4L495.21 339.64L496.52 339.94L497.8 340.28L499.07 340.67L500.31 341.12L501.53 341.6L502.73 342.14L503.9 342.72L505.04 343.34L506.16 344.01L507.25 344.71L508.31 345.46L509.34 346.24L510.34 347.07L511.31 347.93L512.24 348.83L513.14 349.76L514 350.72L514.82 351.72L515.61 352.75L516.35 353.81L517.06 354.9L517.72 356.02L518.35 357.17L518.93 358.34L519.46 359.53L519.95 360.75L520.39 362L520.78 363.26L521.13 364.55L521.42 365.86L521.67 367.18L521.86 368.52L522 369.88L522.08 371.25L522.11 372.64L522.11 572.63L572.63 572.63L572.63 538.95L572.64 538.95L572.64 214.37L522.11 163.83L522.11 201.18L522.08 202.57L522 203.94L521.86 205.3L521.67 206.64L521.42 207.96L521.13 209.27L520.78 210.56L520.39 211.82L519.95 213.06L519.46 214.29L518.93 215.48L518.35 216.65L517.72 217.8L517.06 218.92L516.35 220.01L515.61 221.07L514.82 222.1L514 223.1L513.14 224.06L512.24 224.99L511.31 225.89L510.34 226.75L509.34 227.57L508.31 228.36L507.25 229.11L506.16 229.81L505.04 230.48L503.9 231.1L502.73 231.68L501.53 232.21L500.31 232.7L499.07 233.14L497.8 233.54L496.52 233.88L495.21 234.18L493.89 234.42L492.54 234.61L491.19 234.75L489.81 234.84L488.43 234.86L488.43 234.86L151.58 234.86L150.2 234.84L148.82 234.75L147.47 234.61L146.12 234.42L144.8 234.18L143.49 233.88L142.21 233.54L140.94 233.14L139.7 232.7L138.48 232.21L137.28 231.68L136.11 231.1L134.97 230.48L133.85 229.81L132.76 229.11L131.7 228.36L130.67 227.57L129.67 226.75L128.7 225.89L127.77 224.99L126.87 224.06L126.01 223.1L125.19 222.1L124.4 221.07L123.66 220.01L122.95 218.92L122.29 217.8L121.66 216.65L121.08 215.48L120.55 214.29L120.06 213.06L119.62 211.82L119.23 210.56L118.88 209.27L118.59 207.96L118.34 206.64L118.15 205.3L118.01 203.94L117.93 202.57L117.9 201.18L117.9 201.18L117.9 67.37L67.37 67.37L67.37 572.63ZM454.74 572.63L454.74 406.32L185.27 406.32L185.27 572.63L454.74 572.63ZM373.29 456.96L374.65 457.1L375.99 457.29L377.32 457.54L378.62 457.83L379.91 458.18L381.17 458.57L382.42 459.01L383.64 459.5L384.83 460.03L386.01 460.61L387.15 461.24L388.27 461.9L389.36 462.61L390.42 463.35L391.45 464.14L392.45 464.96L393.41 465.82L394.34 466.72L395.24 467.65L396.1 468.62L396.93 469.62L397.71 470.65L398.46 471.71L399.17 472.8L399.83 473.92L400.45 475.06L401.03 476.23L401.57 477.43L402.05 478.65L402.5 479.89L402.89 481.16L403.24 482.44L403.53 483.75L403.77 485.07L403.97 486.42L404.1 487.77L404.19 489.15L404.22 490.53L404.19 491.92L404.1 493.3L403.97 494.65L403.77 496L403.53 497.32L403.24 498.63L402.89 499.91L402.5 501.18L402.05 502.42L401.57 503.64L401.03 504.84L400.45 506.01L399.83 507.15L399.17 508.27L398.46 509.36L397.71 510.42L396.93 511.45L396.1 512.45L395.24 513.42L394.34 514.35L393.41 515.25L392.45 516.11L391.45 516.93L390.42 517.72L389.36 518.46L388.27 519.17L387.15 519.83L386.01 520.46L384.83 521.04L383.64 521.57L382.42 522.06L381.17 522.5L379.91 522.89L378.62 523.24L377.32 523.53L375.99 523.78L374.65 523.97L373.29 524.11L371.92 524.19L370.53 524.22L269.48 524.22L269.48 524.22L268.09 524.19L266.72 524.11L265.36 523.97L264.02 523.78L262.69 523.53L261.39 523.24L260.1 522.89L258.84 522.5L257.59 522.06L256.37 521.57L255.18 521.04L254 520.46L252.86 519.83L251.74 519.17L250.65 518.46L249.59 517.72L248.56 516.93L247.56 516.11L246.6 515.25L245.67 514.35L244.77 513.42L243.91 512.45L243.08 511.45L242.3 510.42L241.55 509.36L240.84 508.27L240.18 507.15L239.56 506.01L238.98 504.84L238.44 503.64L237.96 502.42L237.51 501.18L237.12 499.91L236.77 498.63L236.48 497.32L236.24 496L236.04 494.65L235.91 493.3L235.82 491.92L235.79 490.53L235.82 489.15L235.91 487.77L236.04 486.42L236.24 485.07L236.48 483.75L236.77 482.44L237.12 481.16L237.51 479.89L237.96 478.65L238.44 477.43L238.98 476.23L239.56 475.06L240.18 473.92L240.84 472.8L241.55 471.71L242.3 470.65L243.08 469.62L243.91 468.62L244.77 467.65L245.67 466.72L246.6 465.82L247.56 464.96L248.56 464.14L249.59 463.35L250.65 462.61L251.74 461.9L252.86 461.24L254 460.61L255.18 460.03L256.37 459.5L257.59 459.01L258.84 458.57L260.1 458.18L261.39 457.83L262.69 457.54L264.02 457.29L265.36 457.1L266.72 456.96L268.09 456.88L269.48 456.85L269.48 456.85L370.53 456.85L371.92 456.88L373.29 456.96ZM185.27 167.49L454.74 167.49L454.74 96.46L425.65 67.37L185.27 67.37L185.27 167.49Z" id="a59L8bZIL"></path></defs><g><g><g><use xlink:href="#a59L8bZIL" opacity="1" fill="#000000" fill-opacity="1"></use></g></g></g></svg>