<?xml version="1.0" encoding="UTF-8" standalone="no"?>
<!DOCTYPE svg PUBLIC "-//W3C//DTD SVG 1.1//EN" "http://www.w3.org/Graphics/SVG/1.1/DTD/svg11.dtd">
<svg version="1.1" xmlns="http://www.w3.org/2000/svg" xmlns:xlink="http://www.w3.org/1999/xlink" preserveAspectRatio="xMidYMid meet" viewBox="0 0 640 640" width="640" height="640"><defs><path d="M582.3 570.93L583.69 571.07L585.07 571.26L586.43 571.51L587.77 571.82L589.09 572.17L590.39 572.58L591.67 573.03L592.92 573.53L594.15 574.08L595.35 574.67L596.53 575.31L597.68 576L598.8 576.72L599.89 577.49L600.94 578.3L601.97 579.14L602.96 580.03L603.92 580.95L604.84 581.91L605.72 582.9L606.57 583.92L607.38 584.98L608.14 586.07L608.87 587.19L609.55 588.34L610.19 589.51L610.79 590.72L611.33 591.95L611.84 593.2L612.29 594.48L612.69 595.78L613.05 597.1L613.35 598.44L613.6 599.8L613.8 601.18L613.94 602.57L614.03 603.98L614.05 605.41L614.03 606.83L613.94 608.24L613.8 609.64L613.6 611.01L613.35 612.37L613.05 613.71L612.69 615.04L612.29 616.34L611.84 617.61L611.33 618.87L610.79 620.09L610.19 621.3L609.55 622.47L608.87 623.62L608.14 624.74L607.38 625.83L606.57 626.89L605.72 627.91L604.84 628.91L603.92 629.86L602.96 630.78L601.97 631.67L600.94 632.51L599.89 633.32L598.8 634.09L597.68 634.81L596.53 635.5L595.35 636.14L594.15 636.73L592.92 637.28L591.67 637.78L590.39 638.24L589.09 638.64L587.77 638.99L586.43 639.3L585.07 639.55L583.69 639.74L582.3 639.89L580.89 639.97L579.46 640L60.54 640L59.11 639.97L57.7 639.89L56.31 639.74L54.93 639.55L53.57 639.3L52.23 638.99L50.91 638.64L49.61 638.24L48.33 637.78L47.08 637.28L45.85 636.73L44.65 636.14L43.47 635.5L42.32 634.81L41.2 634.09L40.11 633.32L39.06 632.51L38.03 631.67L37.04 630.78L36.08 629.86L35.16 628.91L34.28 627.91L33.43 626.89L32.62 625.83L31.86 624.74L31.13 623.62L30.45 622.47L29.81 621.3L29.21 620.09L28.67 618.87L28.16 617.61L27.71 616.34L27.31 615.04L26.95 613.71L26.65 612.37L26.4 611.01L26.2 609.64L26.06 608.24L25.97 606.83L25.95 605.41L25.97 603.98L26.06 602.57L26.2 601.18L26.4 599.8L26.65 598.44L26.95 597.1L27.31 595.78L27.71 594.48L28.16 593.2L28.67 591.95L29.21 590.72L29.81 589.51L30.45 588.34L31.13 587.19L31.86 586.07L32.62 584.98L33.43 583.92L34.28 582.9L35.16 581.91L36.08 580.95L37.04 580.03L38.03 579.14L39.06 578.3L40.11 577.49L41.2 576.72L42.32 576L43.47 575.31L44.65 574.67L45.85 574.08L47.08 573.53L48.33 573.03L49.61 572.58L50.91 572.17L52.23 571.82L53.57 571.51L54.93 571.26L56.31 571.07L57.7 570.93L59.11 570.84L60.54 570.81L60.54 570.81L579.46 570.81L580.89 570.84L582.3 570.93ZM320.26 0L320.8 0.01L321.07 0.02L321.21 0.02L321.6 0.03L322.37 0.08L322.4 0.09L322.42 0.09L322.94 0.12L324.28 0.26L325.62 0.45L326.95 0.7L328.28 1L329.6 1.35L330.91 1.76L332.21 2.22L333.51 2.74L333.95 2.94L333.96 2.95L333.99 2.96L334.78 3.32L335.09 3.47L335.17 3.51L335.42 3.63L336.05 3.95L336.23 4.05L336.36 4.11L336.89 4.41L337.3 4.63L337.38 4.69L337.53 4.77L338.36 5.28L338.52 5.37L338.54 5.39L338.67 5.47L339.78 6.21L340.87 7L341.94 7.84L342.97 8.71L343.97 9.64L343.99 9.66L344.93 10.6L344.94 10.62L344.96 10.63L345.88 11.63L346.76 12.66L347.59 13.72L348.38 14.81L348.44 14.9L349.13 15.93L349.2 16.04L349.22 16.08L349.37 16.33L349.83 17.07L349.9 17.2L349.96 17.3L609.42 466.69L609.42 466.69L609.47 466.78L609.55 466.92L610 467.74L610.11 467.94L610.13 467.98L610.19 468.1L610.79 469.3L611.33 470.53L611.84 471.78L612.29 473.06L612.69 474.36L612.7 474.38L612.7 474.39L612.97 475.38L613.05 475.68L613.05 475.69L613.06 475.71L613.36 477.04L613.6 478.37L613.79 479.71L613.93 481.05L614.02 482.39L614.02 482.54L614.03 482.57L614.03 482.75L614.06 483.73L614.05 483.89L614.05 483.99L614.05 484.45L614.04 485.06L614.03 485.21L614.03 485.42L613.98 486.11L613.97 486.4L613.96 486.49L613.94 486.83L613.85 487.69L613.85 487.72L613.85 487.74L613.8 488.22L613.6 489.6L613.35 490.96L613.05 492.3L612.69 493.62L612.29 494.92L611.84 496.2L611.33 497.45L610.79 498.68L610.56 499.14L610.55 499.16L610.52 499.22L610.19 499.88L610.01 500.22L609.94 500.35L609.79 500.61L609.55 501.06L609.42 501.28L609.29 501.52L609 501.99L608.87 502.21L608.8 502.32L608.59 502.66L607.84 503.78L607.05 504.87L606.22 505.93L605.34 506.96L604.42 507.96L603.45 508.93L602.44 509.86L601.39 510.75L600.29 511.61L599.16 512.43L598.86 512.63L598.8 512.67L598.61 512.8L597.98 513.21L597.78 513.33L597.68 513.4L597.21 513.68L596.76 513.95L596.66 514.01L596.53 514.08L595.75 514.51L595.51 514.64L595.47 514.66L595.35 514.72L594.24 515.27L594.24 515.27L594.15 515.32L592.92 515.87L591.67 516.37L590.39 516.82L589.09 517.23L589.07 517.23L589.06 517.23L587.74 517.59L586.41 517.89L585.08 518.13L583.74 518.33L582.4 518.46L581.06 518.55L580.91 518.56L580.89 518.56L580.7 518.56L579.72 518.59L579.56 518.58L579.46 518.59L60.54 518.59L60.44 518.58L60.28 518.59L59.3 518.56L59.11 518.56L59.09 518.56L58.94 518.55L57.6 518.46L56.26 518.33L54.92 518.13L53.59 517.89L52.26 517.59L50.94 517.23L50.93 517.23L50.91 517.23L49.61 516.82L48.33 516.37L47.08 515.87L45.85 515.32L45.76 515.27L45.76 515.27L44.65 514.72L44.53 514.66L44.49 514.64L44.25 514.51L43.47 514.08L43.35 514.01L43.24 513.95L42.79 513.68L42.32 513.4L42.22 513.33L42.02 513.21L41.39 512.8L41.2 512.67L41.14 512.63L40.84 512.43L39.71 511.61L38.61 510.75L37.56 509.86L36.55 508.93L35.58 507.96L34.66 506.96L33.78 505.93L32.95 504.87L32.16 503.78L31.41 502.66L31.2 502.32L31.13 502.21L31 501.99L30.71 501.52L30.58 501.28L30.45 501.06L30.21 500.61L30.06 500.35L29.99 500.22L29.81 499.88L29.48 499.22L29.45 499.16L29.44 499.14L29.21 498.68L28.67 497.45L28.16 496.2L27.71 494.92L27.31 493.62L26.95 492.3L26.65 490.96L26.4 489.6L26.2 488.22L26.15 487.74L26.15 487.72L26.15 487.69L26.06 486.83L26.04 486.49L26.03 486.4L26.02 486.11L25.97 485.42L25.97 485.21L25.96 485.06L25.95 484.45L25.95 483.99L25.95 483.89L25.94 483.73L25.97 482.75L25.97 482.57L25.98 482.54L25.98 482.39L26.07 481.05L26.21 479.71L26.4 478.37L26.64 477.04L26.94 475.71L26.95 475.69L26.95 475.68L27.03 475.38L27.3 474.39L27.3 474.38L27.31 474.36L27.71 473.06L28.16 471.78L28.67 470.53L29.21 469.3L29.81 468.1L29.88 467.98L29.89 467.94L30.01 467.73L30.45 466.92L30.52 466.8L30.58 466.69L30.58 466.69L290.04 17.3L290.1 17.2L290.17 17.07L290.63 16.33L290.78 16.08L290.8 16.04L290.87 15.93L291.55 14.91L291.56 14.9L291.56 14.9L291.62 14.81L292.41 13.72L293.24 12.66L294.12 11.63L295.04 10.63L295.06 10.62L295.07 10.6L296.01 9.66L296.01 9.66L296.03 9.64L297.03 8.71L298.06 7.84L299.13 7L300.22 6.21L301.33 5.47L301.46 5.39L301.48 5.37L301.64 5.28L302.47 4.77L302.62 4.69L302.7 4.63L303.11 4.41L303.64 4.11L303.77 4.05L303.95 3.95L304.58 3.63L304.83 3.51L304.91 3.47L305.22 3.32L306.01 2.96L306.04 2.95L306.05 2.94L306.49 2.74L307.79 2.22L309.09 1.76L310.4 1.35L311.72 1L313.05 0.7L314.38 0.45L315.72 0.26L317.06 0.12L317.58 0.09L317.6 0.09L317.63 0.08L318.4 0.03L318.79 0.02L318.93 0.02L319.21 0.01L319.74 0L320 0L320.26 0Z" id="a3ihTurzTq"></path></defs><g><g><g><use xlink:href="#a3ihTurzTq" opacity="1" fill="#000000" fill-opacity="1"></use></g></g></g></svg>