<?xml version="1.0" encoding="UTF-8" standalone="no"?>
<!DOCTYPE svg PUBLIC "-//W3C//DTD SVG 1.1//EN" "http://www.w3.org/Graphics/SVG/1.1/DTD/svg11.dtd">
<svg version="1.1" xmlns="http://www.w3.org/2000/svg" xmlns:xlink="http://www.w3.org/1999/xlink" preserveAspectRatio="xMidYMid meet" viewBox="0 0 640 640" width="640" height="640"><defs><path d="M575.39 572.74L576.75 572.88L578.09 573.07L579.42 573.32L580.72 573.61L582.01 573.96L583.27 574.35L584.52 574.79L585.74 575.28L586.93 575.81L588.11 576.39L589.25 577.02L590.37 577.68L591.46 578.39L592.52 579.13L593.55 579.92L594.55 580.74L595.51 581.61L596.44 582.5L597.34 583.43L598.2 584.4L599.03 585.4L599.81 586.43L600.56 587.49L601.27 588.58L601.93 589.7L602.55 590.84L603.13 592.01L603.67 593.21L604.15 594.43L604.6 595.67L604.99 596.94L605.34 598.23L605.63 599.53L605.87 600.86L606.07 602.2L606.2 603.55L606.29 604.93L606.32 606.32L606.29 607.7L606.2 609.08L606.07 610.43L605.87 611.78L605.63 613.1L605.34 614.41L604.99 615.69L604.6 616.96L604.15 618.2L603.67 619.42L603.13 620.62L602.55 621.79L601.93 622.94L601.27 624.05L600.56 625.14L599.81 626.2L599.03 627.23L598.2 628.23L597.34 629.2L596.44 630.13L595.51 631.03L594.55 631.89L593.55 632.71L592.52 633.5L591.46 634.24L590.37 634.95L589.25 635.62L588.11 636.24L586.93 636.82L585.74 637.35L584.52 637.84L583.27 638.28L582.01 638.68L580.72 639.02L579.42 639.32L578.09 639.56L576.75 639.75L575.39 639.89L574.02 639.97L572.63 640L67.37 640L65.98 639.97L64.61 639.89L63.25 639.75L61.91 639.56L60.58 639.32L59.28 639.02L57.99 638.68L56.73 638.28L55.48 637.84L54.26 637.35L53.07 636.82L51.89 636.24L50.75 635.62L49.63 634.95L48.54 634.24L47.48 633.5L46.45 632.71L45.45 631.89L44.49 631.03L43.56 630.13L42.66 629.2L41.8 628.23L40.97 627.23L40.19 626.2L39.44 625.14L38.73 624.05L38.07 622.94L37.45 621.79L36.87 620.62L36.33 619.42L35.85 618.2L35.4 616.96L35.01 615.69L34.66 614.41L34.37 613.1L34.13 611.78L33.93 610.43L33.8 609.08L33.71 607.7L33.69 606.32L33.71 604.93L33.8 603.55L33.93 602.2L34.13 600.86L34.37 599.53L34.66 598.23L35.01 596.94L35.4 595.67L35.85 594.43L36.33 593.21L36.87 592.01L37.45 590.84L38.07 589.7L38.73 588.58L39.44 587.49L40.19 586.43L40.97 585.4L41.8 584.4L42.66 583.43L43.56 582.5L44.49 581.61L45.45 580.74L46.45 579.92L47.48 579.13L48.54 578.39L49.63 577.68L50.75 577.02L51.89 576.39L53.07 575.81L54.26 575.28L55.48 574.79L56.73 574.35L57.99 573.96L59.28 573.61L60.58 573.32L61.91 573.07L63.25 572.88L64.61 572.74L65.98 572.66L67.37 572.63L572.63 572.63L574.02 572.66L575.39 572.74ZM320.26 0L320.77 0.01L321.04 0.02L321.18 0.02L321.56 0.03L322.3 0.08L322.34 0.08L322.36 0.09L322.86 0.12L324.17 0.25L325.47 0.44L326.77 0.68L328.06 0.97L329.35 1.32L330.62 1.71L331.89 2.16L333.15 2.67L333.59 2.87L333.6 2.87L333.62 2.88L334.39 3.23L334.69 3.38L334.77 3.41L335.01 3.54L335.63 3.84L335.81 3.94L335.93 4.01L336.45 4.3L336.84 4.51L336.93 4.56L337.06 4.64L337.88 5.14L338.03 5.23L338.05 5.25L338.18 5.32L339.26 6.05L340.32 6.82L341.36 7.63L342.36 8.48L343.34 9.38L344.28 10.33L344.29 10.34L344.3 10.35L345.2 11.32L346.05 12.33L346.87 13.36L347.64 14.42L347.69 14.51L347.7 14.52L348.36 15.51L348.43 15.62L348.45 15.65L348.6 15.9L349.04 16.62L349.11 16.74L349.17 16.84L349.17 16.84L601.8 454.41L601.85 454.51L601.93 454.63L602.36 455.43L602.47 455.63L602.49 455.66L602.55 455.78L603.09 456.86L603.13 456.95L603.67 458.15L604.15 459.37L604.6 460.61L604.99 461.88L605.26 462.87L605.34 463.2L605.64 464.49L605.87 465.79L606.06 467.09L606.2 468.39L606.28 469.69L606.29 469.84L606.29 469.87L606.29 470.05L606.32 471L606.31 471.16L606.32 471.25L606.31 471.7L606.3 472.3L606.29 472.44L606.29 472.64L606.25 473.32L606.23 473.6L606.22 473.68L606.2 474.02L606.12 474.86L606.11 474.89L606.11 474.9L606.07 475.37L605.87 476.72L605.63 478.04L605.34 479.35L604.99 480.63L604.6 481.9L604.15 483.14L603.67 484.36L603.13 485.56L602.91 486L602.9 486.03L602.88 486.08L602.55 486.73L602.38 487.06L602.31 487.18L602.17 487.44L601.93 487.87L601.81 488.09L601.67 488.32L601.39 488.78L601.27 488.99L601.2 489.1L600.99 489.43L600.27 490.52L599.5 491.58L598.69 492.61L597.83 493.62L596.93 494.59L595.99 495.53L595.01 496.44L593.98 497.31L592.92 498.15L591.81 498.95L591.52 499.14L591.46 499.18L591.27 499.3L590.66 499.71L590.47 499.82L590.37 499.89L589.92 500.16L589.47 500.43L589.37 500.48L589.25 500.55L588.49 500.97L588.26 501.1L588.22 501.11L588.11 501.18L586.93 501.76L585.74 502.29L584.52 502.78L583.27 503.22L582.01 503.61L581.99 503.62L581.98 503.62L580.77 503.95L580.72 503.96L580.69 503.97L579.4 504.26L578.1 504.5L576.8 504.69L575.5 504.82L574.19 504.91L574.05 504.91L574.02 504.91L573.84 504.91L572.89 504.94L572.73 504.94L572.63 504.94L67.37 504.94L67.27 504.94L67.11 504.94L66.16 504.91L65.98 504.91L65.95 504.91L65.81 504.91L64.5 504.82L63.2 504.69L61.9 504.5L60.6 504.26L59.31 503.97L59.28 503.96L59.23 503.95L58.02 503.62L58.01 503.62L57.99 503.61L56.73 503.22L55.48 502.78L54.26 502.29L53.07 501.76L51.89 501.18L51.78 501.11L51.74 501.1L51.51 500.97L50.75 500.55L50.63 500.48L50.53 500.43L50.09 500.16L49.63 499.89L49.53 499.82L49.34 499.71L48.73 499.3L48.54 499.18L48.48 499.14L48.19 498.95L47.08 498.15L46.02 497.31L44.99 496.44L44.01 495.53L43.07 494.59L42.17 493.62L41.31 492.61L40.5 491.58L39.73 490.52L39.01 489.43L38.8 489.1L38.73 488.99L38.61 488.78L38.33 488.32L38.2 488.09L38.07 487.87L37.83 487.44L37.69 487.18L37.62 487.06L37.45 486.73L37.13 486.08L37.1 486.03L37.09 486L36.87 485.56L36.33 484.36L35.85 483.14L35.4 481.9L35.01 480.63L34.66 479.35L34.37 478.04L34.13 476.72L33.93 475.37L33.89 474.9L33.89 474.89L33.88 474.86L33.8 474.02L33.78 473.68L33.77 473.6L33.76 473.32L33.71 472.64L33.71 472.44L33.7 472.3L33.69 471.7L33.69 471.25L33.69 471.16L33.68 471L33.71 470.05L33.71 469.87L33.72 469.84L33.72 469.69L33.8 468.39L33.94 467.09L34.13 465.79L34.36 464.49L34.66 463.2L34.74 462.87L35.01 461.88L35.4 460.61L35.85 459.37L36.33 458.15L36.87 456.95L36.91 456.86L36.91 456.86L37.45 455.78L37.51 455.66L37.53 455.63L37.64 455.43L38.07 454.63L38.15 454.51L38.2 454.41L290.83 16.84L290.83 16.84L290.89 16.74L290.96 16.62L291.4 15.9L291.55 15.65L291.57 15.62L291.64 15.51L292.3 14.52L292.31 14.51L292.36 14.42L293.13 13.36L293.95 12.33L294.8 11.32L295.7 10.35L295.71 10.34L295.72 10.33L296.64 9.41L296.64 9.41L296.66 9.38L297.64 8.48L298.64 7.63L299.68 6.82L300.74 6.05L301.82 5.32L301.95 5.25L301.97 5.23L302.12 5.14L302.94 4.64L303.07 4.56L303.16 4.51L303.55 4.3L304.07 4.01L304.2 3.94L304.37 3.84L304.99 3.54L305.23 3.41L305.31 3.38L305.61 3.23L306.38 2.88L306.4 2.87L306.41 2.87L306.85 2.67L308.11 2.16L309.38 1.71L310.65 1.32L311.94 0.97L313.23 0.68L314.53 0.44L315.83 0.25L317.14 0.12L317.64 0.09L317.66 0.08L317.7 0.08L318.44 0.03L318.82 0.02L318.96 0.02L319.23 0.01L319.74 0L320 0L320.26 0Z" id="dCnMIl1y7"></path></defs><g><g><g><use xlink:href="#dCnMIl1y7" opacity="1" fill="#000000" fill-opacity="1"></use></g></g></g></svg>