<?xml version="1.0" encoding="UTF-8" standalone="no"?>
<!DOCTYPE svg PUBLIC "-//W3C//DTD SVG 1.1//EN" "http://www.w3.org/Graphics/SVG/1.1/DTD/svg11.dtd">
<svg version="1.1" xmlns="http://www.w3.org/2000/svg" xmlns:xlink="http://www.w3.org/1999/xlink" preserveAspectRatio="xMidYMid meet" viewBox="0 0 640 640" width="640" height="640"><defs><path d="M326.55 0.45L327.78 0.7L329 1.01L330.21 1.37L331.4 1.8L332.58 2.27L333.74 2.81L334.88 3.4L334.88 3.4L335.99 4.04L337.08 4.74L338.15 5.5L339.18 6.31L340.19 7.18L340.19 7.18L341.16 8.11L341.16 8.11L635.02 301.97L635.02 301.98L635.95 302.95L636.82 303.95L637.63 304.99L638.39 306.05L639.09 307.14L639.74 308.25L640.32 309.39L640.86 310.55L641.33 311.73L641.76 312.92L642.12 314.13L642.43 315.35L642.68 316.58L642.88 317.82L643.02 319.07L643.1 320.31L643.13 321.57L643.1 322.82L643.02 324.07L642.88 325.31L642.68 326.55L642.43 327.78L642.12 329L641.76 330.21L641.33 331.4L640.86 332.58L640.32 333.74L639.74 334.88L639.09 335.99L638.39 337.08L637.63 338.15L636.82 339.18L635.95 340.19L635.02 341.16L634.05 342.08L633.05 342.95L632.01 343.77L630.95 344.52L629.86 345.23L628.74 345.87L627.6 346.46L626.44 346.99L625.27 347.47L624.07 347.89L622.87 348.26L621.65 348.56L620.41 348.82L619.18 349.01L617.93 349.15L616.68 349.24L615.43 349.27L614.18 349.24L612.93 349.15L611.68 349.01L610.45 348.82L609.22 348.56L607.99 348.26L606.79 347.89L605.59 347.47L604.42 346.99L603.26 346.46L602.12 345.87L601 345.23L599.91 344.52L598.85 343.77L597.81 342.95L596.81 342.08L595.84 341.16L321.57 66.88L47.29 341.16L46.32 342.08L45.32 342.95L44.28 343.77L43.22 344.52L42.13 345.23L41.01 345.87L39.87 346.46L38.71 346.99L37.54 347.47L36.34 347.89L35.14 348.26L33.92 348.56L32.68 348.82L31.45 349.01L30.2 349.15L28.95 349.24L27.7 349.27L26.45 349.24L25.2 349.15L23.95 349.01L22.72 348.82L21.49 348.56L20.26 348.26L19.06 347.89L17.86 347.47L16.69 346.99L15.53 346.46L14.39 345.87L13.27 345.23L12.18 344.52L11.12 343.77L10.08 342.95L9.08 342.08L8.11 341.16L7.18 340.19L6.31 339.18L5.5 338.15L4.74 337.08L4.04 335.99L3.4 334.88L2.81 333.74L2.27 332.58L1.8 331.4L1.37 330.21L1.01 329L0.7 327.78L0.45 326.55L0.25 325.31L0.11 324.07L0.03 322.82L0 321.57L0.03 320.31L0.11 319.07L0.25 317.82L0.45 316.58L0.7 315.35L1.01 314.13L1.37 312.92L1.8 311.73L2.27 310.55L2.81 309.39L3.4 308.25L4.04 307.14L4.74 306.05L5.5 304.99L6.31 303.95L7.18 302.95L8.11 301.98L8.11 301.97L301.97 8.11L302.95 7.18L303.95 6.31L304.98 5.5L306.05 4.74L307.14 4.04L308.25 3.4L309.39 2.81L310.55 2.27L311.73 1.8L312.92 1.37L312.92 1.37L314.13 1.01L315.35 0.7L316.58 0.45L316.58 0.45L317.82 0.25L317.82 0.25L319.06 0.11L320.31 0.03L321.57 0L322.82 0.03L324.07 0.11L325.31 0.25L326.55 0.45Z" id="a1kCIA9kM"></path></defs><g><g><g><use xlink:href="#a1kCIA9kM" opacity="1" fill="#000000" fill-opacity="1"></use></g></g></g></svg>