<?xml version="1.0" encoding="UTF-8" standalone="no"?>
<!DOCTYPE svg PUBLIC "-//W3C//DTD SVG 1.1//EN" "http://www.w3.org/Graphics/SVG/1.1/DTD/svg11.dtd">
<svg version="1.1" xmlns="http://www.w3.org/2000/svg" xmlns:xlink="http://www.w3.org/1999/xlink" preserveAspectRatio="xMidYMid meet" viewBox="0 0 640 640" width="640" height="640"><defs><path d="M117.49 576.91L118.09 577.02L118.09 576.63L526.1 576.63L527.32 576.67L528.51 576.76L529.7 576.91L530.86 577.12L532.01 577.39L533.15 577.71L534.26 578.08L535.35 578.52L536.42 579L537.47 579.53L538.5 580.11L539.5 580.74L540.48 581.42L541.43 582.14L542.35 582.91L543.24 583.72L544.1 584.57L544.93 585.46L545.73 586.39L546.49 587.36L547.22 588.36L547.92 589.4L548.58 590.47L549.2 591.58L549.78 592.71L550.32 593.88L550.82 595.08L551.28 596.3L551.69 597.55L552.06 598.82L552.38 600.12L552.66 601.44L552.89 602.78L553.07 604.13L553.2 605.51L553.28 606.91L553.31 608.32L553.28 609.73L553.2 611.12L553.07 612.5L552.89 613.86L552.66 615.2L552.38 616.52L552.06 617.81L551.69 619.09L551.28 620.34L550.82 621.56L550.32 622.75L549.78 623.92L549.2 625.06L548.58 626.16L547.92 627.24L547.22 628.27L546.49 629.28L545.73 630.25L544.93 631.18L544.1 632.07L543.24 632.92L542.35 633.73L541.43 634.49L540.48 635.22L539.5 635.89L538.5 636.52L537.47 637.1L536.42 637.64L535.35 638.12L534.26 638.55L533.15 638.93L532.01 639.25L530.86 639.52L529.7 639.73L528.51 639.88L527.32 639.97L526.1 640L118.09 640L118.09 639.62L117.49 639.73L116.3 639.88L115.11 639.97L113.9 640L112.68 639.97L111.49 639.88L110.3 639.73L109.14 639.52L107.99 639.25L106.85 638.93L105.74 638.55L104.65 638.12L103.58 637.64L102.53 637.1L101.5 636.52L100.5 635.89L99.52 635.22L98.57 634.49L97.65 633.73L96.76 632.92L95.9 632.07L95.07 631.18L94.27 630.25L93.51 629.28L92.78 628.27L92.08 627.24L91.42 626.16L90.8 625.06L90.22 623.92L89.68 622.75L89.18 621.56L88.72 620.34L88.31 619.09L87.94 617.81L87.62 616.52L87.34 615.2L87.11 613.86L86.93 612.5L86.8 611.12L86.72 609.73L86.69 608.32L86.72 606.91L86.8 605.51L86.93 604.13L87.11 602.78L87.34 601.44L87.62 600.12L87.94 598.82L88.31 597.55L88.72 596.3L89.18 595.08L89.68 593.88L90.22 592.71L90.8 591.58L91.42 590.47L92.08 589.4L92.78 588.36L93.51 587.36L94.27 586.39L95.07 585.46L95.9 584.57L96.76 583.72L97.65 582.91L98.57 582.14L99.52 581.42L100.5 580.74L101.5 580.11L102.53 579.53L103.58 579L104.65 578.52L105.74 578.08L106.85 577.71L107.99 577.39L109.14 577.12L110.3 576.91L111.49 576.76L112.68 576.67L113.9 576.63L115.11 576.67L116.3 576.76L117.49 576.91ZM320.62 0.01L321 0.02L321.34 0.03L321.61 0.05L321.87 0.06L322.26 0.09L322.66 0.11L322.91 0.14L323.12 0.15L323.5 0.2L323.97 0.25L324.2 0.28L324.36 0.3L324.74 0.36L325.26 0.44L325.46 0.47L325.59 0.49L326 0.58L326.54 0.68L326.7 0.72L326.82 0.74L327.31 0.86L327.8 0.97L327.91 1L328.04 1.03L328.68 1.21L329.03 1.31L329.1 1.33L329.25 1.37L330.15 1.67L330.25 1.7L330.27 1.7L330.45 1.76L331.63 2.2L332.8 2.69L333.95 3.23L335.09 3.81L336.2 4.45L337.3 5.13L338.37 5.86L339.42 6.64L340.44 7.47L341.44 8.35L342.4 9.27L342.88 9.77L342.89 9.76L365.29 32.16L365.29 32.16L544.03 210.9L544.03 210.9L544.96 211.87L545.84 212.86L546.67 213.89L547.45 214.93L548.18 216.01L548.86 217.1L549.49 218.22L550.08 219.35L550.62 220.51L551.1 221.68L551.54 222.86L551.93 224.06L552.27 225.27L552.57 226.49L552.81 227.71L553.01 228.95L553.15 230.19L553.25 231.44L553.3 232.68L553.3 233.93L553.25 235.18L553.15 236.42L553.01 237.66L552.81 238.9L552.57 240.13L552.27 241.34L551.93 242.55L551.54 243.75L551.1 244.94L550.62 246.11L550.08 247.26L549.49 248.39L548.86 249.51L548.18 250.61L547.45 251.68L546.67 252.73L545.84 253.75L544.96 254.74L544.03 255.71L543.07 256.64L542.07 257.51L541.05 258.34L540 259.12L538.93 259.85L537.83 260.54L536.72 261.17L535.58 261.76L534.43 262.29L533.26 262.78L532.07 263.22L530.88 263.61L529.67 263.95L528.45 264.24L527.22 264.49L525.98 264.68L524.74 264.83L523.5 264.93L522.25 264.98L521 264.98L519.76 264.93L518.51 264.83L517.27 264.68L516.04 264.49L514.81 264.24L513.59 263.95L512.38 263.61L511.18 263.22L510 262.78L508.83 262.29L507.67 261.76L506.54 261.17L505.42 260.54L504.33 259.85L503.26 259.12L502.21 258.34L501.19 257.51L500.19 256.64L499.23 255.71L351.68 108.17L351.68 506.93L351.3 506.93L351.44 507.84L351.57 509.15L351.66 510.47L351.68 511.81L351.66 513.15L351.57 514.47L351.44 515.78L351.25 517.08L351.01 518.35L350.71 519.61L350.37 520.85L349.98 522.06L349.55 523.26L349.07 524.43L348.54 525.58L347.97 526.7L347.35 527.8L346.7 528.87L346 529.91L345.27 530.92L344.49 531.9L343.68 532.85L342.84 533.76L341.95 534.65L341.04 535.49L340.09 536.31L339.11 537.08L338.1 537.81L337.06 538.51L335.99 539.17L334.89 539.78L333.77 540.35L332.62 540.88L331.45 541.36L330.25 541.8L329.03 542.19L327.8 542.53L326.54 542.82L325.26 543.06L323.97 543.25L322.66 543.38L321.34 543.47L320 543.49L318.66 543.47L317.34 543.38L316.03 543.25L314.74 543.06L313.46 542.82L312.2 542.53L310.97 542.19L309.75 541.8L308.55 541.36L307.38 540.88L306.23 540.35L305.11 539.78L304.01 539.17L302.94 538.51L301.9 537.81L300.89 537.08L299.91 536.31L298.96 535.49L298.05 534.65L297.16 533.76L296.32 532.85L295.51 531.9L294.73 530.92L294 529.91L293.3 528.87L292.65 527.8L292.03 526.7L291.46 525.58L290.93 524.43L290.45 523.26L290.02 522.06L289.63 520.85L289.29 519.61L288.99 518.35L288.75 517.08L288.56 515.78L288.43 514.47L288.34 513.15L288.32 511.81L288.34 510.47L288.43 509.15L288.56 507.84L288.7 506.93L288.32 506.93L288.32 108.17L140.77 255.71L139.81 256.64L138.81 257.51L137.79 258.34L136.74 259.12L135.67 259.85L134.58 260.54L133.46 261.17L132.33 261.76L131.17 262.29L130 262.78L128.82 263.22L127.62 263.61L126.41 263.95L125.19 264.24L123.96 264.49L122.73 264.68L121.49 264.83L120.24 264.93L119 264.98L117.75 264.98L116.5 264.93L115.26 264.83L114.02 264.68L112.78 264.49L111.55 264.24L110.33 263.95L109.12 263.61L107.93 263.22L106.74 262.78L105.57 262.29L104.42 261.76L103.28 261.17L102.17 260.54L101.07 259.85L100 259.12L98.95 258.34L97.93 257.51L96.93 256.64L95.97 255.71L95.04 254.74L94.16 253.75L93.33 252.73L92.55 251.68L91.82 250.61L91.14 249.51L90.51 248.39L89.92 247.26L89.38 246.11L88.9 244.94L88.46 243.75L88.07 242.55L87.73 241.34L87.43 240.13L87.19 238.9L86.99 237.66L86.85 236.42L86.75 235.18L86.7 233.93L86.7 232.68L86.75 231.44L86.85 230.19L86.99 228.95L87.19 227.71L87.43 226.49L87.73 225.27L88.07 224.06L88.46 222.86L88.9 221.68L89.38 220.51L89.92 219.35L90.51 218.22L91.14 217.1L91.82 216.01L92.55 214.93L93.33 213.89L94.16 212.86L95.04 211.87L95.97 210.9L274.71 32.16L274.71 32.16L297.11 9.76L297.12 9.77L297.6 9.27L298.56 8.35L299.56 7.47L300.58 6.64L301.63 5.86L302.7 5.13L303.8 4.45L304.91 3.81L306.05 3.23L307.2 2.69L308.37 2.2L309.55 1.76L309.73 1.7L309.75 1.7L309.85 1.67L310.75 1.37L310.9 1.33L310.97 1.31L311.32 1.21L311.96 1.03L312.09 1L312.2 0.97L312.7 0.86L313.18 0.74L313.3 0.72L313.46 0.68L314 0.58L314.41 0.49L314.54 0.47L314.74 0.44L315.26 0.36L315.64 0.3L315.8 0.28L316.03 0.25L316.5 0.2L316.88 0.15L317.09 0.14L317.34 0.11L317.74 0.09L318.13 0.06L318.4 0.05L318.66 0.03L319 0.02L319.38 0.01L319.71 0.01L320 0L320.29 0.01L320.62 0.01Z" id="c96UyUuz7z"></path></defs><g><g><g><use xlink:href="#c96UyUuz7z" opacity="1" fill="#000000" fill-opacity="1"></use></g></g></g></svg>