<?xml version="1.0" encoding="UTF-8" standalone="no"?>
<!DOCTYPE svg PUBLIC "-//W3C//DTD SVG 1.1//EN" "http://www.w3.org/Graphics/SVG/1.1/DTD/svg11.dtd">
<svg version="1.1" xmlns="http://www.w3.org/2000/svg" xmlns:xlink="http://www.w3.org/1999/xlink" preserveAspectRatio="xMidYMid meet" viewBox="0 0 640 640" width="640" height="640"><defs><path d="M639.97 321.54L639.93 322.13L639.89 322.86L639.88 322.94L639.88 323.06L639.81 323.74L639.75 324.29L639.74 324.39L639.72 324.56L639.63 325.24L639.56 325.71L639.54 325.84L639.51 326.05L639.4 326.67L639.32 327.13L639.28 327.29L639.24 327.51L639.12 328.06L639.02 328.53L638.97 328.74L638.91 328.96L638.8 329.41L638.66 329.93L638.58 330.2L638.53 330.39L638.43 330.72L638.25 331.32L638.14 331.66L638.1 331.79L638.02 332L637.79 332.69L637.63 333.11L637.61 333.16L637.57 333.25L637.27 334.04L636.7 335.38L636.07 336.7L635.39 338L634.65 339.28L633.86 340.53L633.01 341.76L632.11 342.96L631.15 344.13L630.14 345.27L629.08 346.38L628.5 346.94L628.51 346.95L602.7 372.76L602.7 372.76L391.65 583.81L390.54 584.87L389.4 585.88L388.23 586.84L387.03 587.74L385.8 588.59L384.55 589.38L383.27 590.12L381.97 590.8L380.65 591.43L379.31 592L377.95 592.52L376.58 592.98L375.2 593.39L373.8 593.75L372.4 594.05L370.98 594.29L369.56 594.48L368.13 594.62L366.7 594.7L365.27 594.73L363.84 594.7L362.4 594.62L360.98 594.48L359.56 594.29L358.14 594.05L356.73 593.75L355.34 593.39L353.95 592.98L352.58 592.52L351.23 592L349.89 591.43L348.57 590.8L347.27 590.12L345.99 589.38L344.74 588.59L343.51 587.74L342.31 586.84L341.14 585.88L340 584.87L338.89 583.81L337.82 582.7L336.81 581.56L335.86 580.39L334.96 579.19L334.11 577.96L333.32 576.71L332.58 575.43L331.9 574.13L331.27 572.81L330.7 571.47L330.18 570.12L329.71 568.74L329.3 567.36L328.95 565.96L328.65 564.56L328.4 563.14L328.21 561.72L328.08 560.29L327.99 558.86L327.97 557.43L327.99 556L328.08 554.57L328.21 553.14L328.4 551.72L328.65 550.3L328.95 548.89L329.3 547.5L329.71 546.11L330.18 544.74L330.7 543.39L331.27 542.05L331.9 540.73L332.58 539.43L333.32 538.15L334.11 536.9L334.96 535.67L335.86 534.47L336.81 533.3L337.82 532.16L338.89 531.05L338.89 531.05L512.63 357.31L43.06 357.31L43.06 356.86L41.87 357.03L40.37 357.18L38.85 357.28L37.31 357.31L35.77 357.28L34.25 357.18L32.75 357.03L31.26 356.82L29.79 356.55L28.35 356.22L26.92 355.84L25.52 355.41L24.14 354.92L22.79 354.37L21.47 353.78L20.17 353.14L18.9 352.45L17.66 351.72L16.46 350.93L15.28 350.11L14.14 349.24L13.03 348.32L11.96 347.37L10.93 346.38L9.94 345.34L8.99 344.27L8.07 343.17L7.2 342.03L6.38 340.85L5.59 339.65L4.86 338.41L4.17 337.14L3.53 335.84L2.93 334.52L2.39 333.16L1.9 331.79L1.47 330.39L1.09 328.96L0.76 327.51L0.49 326.05L0.28 324.56L0.12 323.06L0.03 321.54L0 320L0.03 318.46L0.12 316.94L0.28 315.44L0.49 313.95L0.76 312.49L1.09 311.04L1.47 309.61L1.9 308.21L2.39 306.84L2.93 305.48L3.53 304.16L4.17 302.86L4.86 301.59L5.59 300.35L6.38 299.15L7.2 297.97L8.07 296.83L8.99 295.73L9.94 294.66L10.93 293.62L11.96 292.63L13.03 291.68L14.14 290.76L15.28 289.89L16.46 289.07L17.66 288.28L18.9 287.55L20.17 286.86L21.47 286.22L22.79 285.63L24.14 285.08L25.52 284.59L26.92 284.16L28.35 283.78L29.79 283.45L31.26 283.18L32.75 282.97L34.25 282.82L35.77 282.72L37.31 282.69L38.85 282.72L40.37 282.82L41.87 282.97L43.06 283.14L43.06 282.69L512.63 282.69L338.89 108.95L338.89 108.95L337.82 107.84L336.81 106.7L335.86 105.53L334.96 104.33L334.11 103.1L333.32 101.85L332.58 100.57L331.9 99.27L331.27 97.95L330.7 96.61L330.18 95.26L329.71 93.89L329.3 92.5L328.95 91.11L328.65 89.7L328.4 88.28L328.21 86.86L328.08 85.43L327.99 84L327.97 82.57L327.99 81.14L328.08 79.71L328.21 78.28L328.4 76.86L328.65 75.44L328.95 74.04L329.3 72.64L329.71 71.26L330.18 69.88L330.7 68.53L331.27 67.19L331.9 65.87L332.58 64.57L333.32 63.29L334.11 62.04L334.96 60.81L335.86 59.61L336.81 58.44L337.82 57.3L338.89 56.19L340 55.13L341.14 54.12L342.31 53.16L343.51 52.26L344.74 51.41L345.99 50.62L347.27 49.88L348.57 49.2L349.89 48.57L351.23 48L352.58 47.48L353.95 47.02L355.34 46.61L356.73 46.25L358.14 45.95L359.56 45.71L360.98 45.52L362.4 45.38L363.84 45.3L365.27 45.27L366.7 45.3L368.13 45.38L369.56 45.52L370.98 45.71L372.4 45.95L373.8 46.25L375.2 46.61L376.58 47.02L377.95 47.48L379.31 48L380.65 48.57L381.97 49.2L383.27 49.88L384.55 50.62L385.8 51.41L387.03 52.26L388.23 53.16L389.4 54.12L390.54 55.13L391.65 56.19L391.65 56.19L602.7 267.24L628.51 293.05L628.5 293.06L629.08 293.62L630.14 294.73L631.15 295.87L632.11 297.04L633.01 298.24L633.86 299.47L634.65 300.72L635.39 302L636.07 303.3L636.7 304.62L637.27 305.96L637.57 306.75L637.61 306.84L637.63 306.89L637.79 307.31L638.02 308L638.1 308.21L638.14 308.34L638.25 308.68L638.43 309.28L638.53 309.61L638.58 309.8L638.66 310.07L638.8 310.59L638.91 311.04L638.97 311.26L639.02 311.47L639.12 311.94L639.24 312.49L639.28 312.71L639.32 312.87L639.4 313.33L639.51 313.95L639.54 314.16L639.56 314.29L639.63 314.76L639.72 315.44L639.74 315.61L639.75 315.71L639.81 316.26L639.88 316.94L639.88 317.06L639.89 317.14L639.93 317.88L639.97 318.46L639.97 318.52L639.97 318.57L640 320L639.97 321.43L639.97 321.48L639.97 321.54Z" id="ftZLgN2yM"></path></defs><g><g><g><use xlink:href="#ftZLgN2yM" opacity="1" fill="#000000" fill-opacity="1"></use></g></g></g></svg>