<?xml version="1.0" encoding="UTF-8" standalone="no"?>
<!DOCTYPE svg PUBLIC "-//W3C//DTD SVG 1.1//EN" "http://www.w3.org/Graphics/SVG/1.1/DTD/svg11.dtd">
<svg version="1.1" xmlns="http://www.w3.org/2000/svg" xmlns:xlink="http://www.w3.org/1999/xlink" preserveAspectRatio="xMidYMid meet" viewBox="0 0 640 640" width="640" height="640"><defs><path d="M640 320C640 496.61 496.61 640 320 640C143.39 640 0 496.61 0 320C0 143.39 143.39 0 320 0C496.61 0 640 143.39 640 320Z" id="b1HYoToI8p"></path><clipPath id="clipbaJQFrY5b"><use xlink:href="#b1HYoToI8p" opacity="1"></use></clipPath><path d="M322.68 143.87L323.98 144.1L325.25 144.41L326.48 144.81L327.68 145.3L328.83 145.86L329.94 146.49L331 147.19L332.01 147.96L332.96 148.8L333.86 149.69L334.69 150.65L335.46 151.65L336.16 152.71L336.8 153.82L337.36 154.97L337.84 156.17L338.24 157.4L338.56 158.67L338.79 159.97L338.93 161.3L338.98 162.65L338.98 162.65L338.98 431.56L454.18 316.36L455.17 315.44L456.21 314.6L457.29 313.84L458.41 313.17L459.57 312.58L460.75 312.08L461.96 311.66L463.19 311.32L464.44 311.07L465.7 310.9L466.96 310.82L468.23 310.82L469.49 310.9L470.75 311.07L472 311.32L473.23 311.66L474.44 312.08L475.62 312.58L476.78 313.17L477.9 313.84L478.98 314.6L480.02 315.44L481.01 316.36L481.93 317.35L482.77 318.39L483.53 319.47L484.2 320.6L484.79 321.75L485.29 322.94L485.71 324.15L486.05 325.38L486.3 326.62L486.47 327.88L486.55 329.15L486.55 330.41L486.47 331.68L486.3 332.94L486.05 334.18L485.71 335.41L485.29 336.62L484.79 337.81L484.2 338.96L483.53 340.08L482.77 341.17L481.93 342.21L481.01 343.2L481.01 343.2L333.42 490.79L333.42 490.79L332.43 491.71L331.39 492.55L330.3 493.31L329.18 493.98L328.03 494.57L326.84 495.07L325.63 495.49L324.4 495.83L323.16 496.08L321.9 496.25L320.63 496.33L319.37 496.33L318.1 496.25L316.84 496.08L315.6 495.83L314.37 495.49L313.16 495.07L311.97 494.57L310.82 493.98L309.7 493.31L308.61 492.55L307.57 491.71L306.58 490.79L306.58 490.79L293.17 477.37L293.16 477.37L158.99 343.2L158.07 342.21L157.23 341.17L156.47 340.08L155.8 338.96L155.21 337.81L154.71 336.62L154.29 335.41L153.95 334.18L153.7 332.94L153.53 331.68L153.45 330.41L153.45 329.15L153.53 327.88L153.7 326.62L153.95 325.38L154.29 324.15L154.71 322.94L155.21 321.75L155.8 320.6L156.47 319.47L157.23 318.39L158.07 317.35L158.99 316.36L159.98 315.44L161.02 314.6L162.1 313.84L163.22 313.17L164.38 312.58L165.56 312.08L166.77 311.66L168 311.32L169.25 311.07L170.51 310.9L171.77 310.82L173.04 310.82L174.3 310.9L175.56 311.07L176.81 311.32L178.04 311.66L179.25 312.08L180.43 312.58L181.59 313.17L182.71 313.84L183.79 314.6L184.83 315.44L185.82 316.36L185.82 316.36L301.03 431.56L301.03 162.65L301.02 162.65L301.07 161.3L301.21 159.97L301.44 158.67L301.76 157.4L302.16 156.17L302.64 154.97L303.2 153.82L303.84 152.71L304.54 151.65L305.31 150.65L306.14 149.69L307.04 148.8L307.99 147.96L309 147.19L310.06 146.49L311.17 145.86L312.32 145.3L313.52 144.81L314.75 144.41L316.02 144.1L317.32 143.87L318.65 143.72L320 143.68L321.35 143.72L322.68 143.87Z" id="b4kuQQufV"></path></defs><g><g><g><g clip-path="url(#clipbaJQFrY5b)"><use xlink:href="#b1HYoToI8p" opacity="1" fill-opacity="0" stroke="#000000" stroke-width="40" stroke-opacity="1"></use></g></g><g><use xlink:href="#b4kuQQufV" opacity="1" fill="#000000" fill-opacity="1"></use></g></g></g></svg>