<?xml version="1.0" encoding="UTF-8" standalone="no"?>
<!DOCTYPE svg PUBLIC "-//W3C//DTD SVG 1.1//EN" "http://www.w3.org/Graphics/SVG/1.1/DTD/svg11.dtd">
<svg version="1.1" xmlns="http://www.w3.org/2000/svg" xmlns:xlink="http://www.w3.org/1999/xlink" preserveAspectRatio="xMidYMid meet" viewBox="0 0 640 640" width="640" height="640"><defs><path d="M640 320C640 496.61 496.61 640 320 640C143.39 640 0 496.61 0 320C0 143.39 143.39 0 320 0C496.61 0 640 143.39 640 320Z" id="b1HYoToI8p"></path><clipPath id="clipbaJQFrY5b"><use xlink:href="#b1HYoToI8p" opacity="1"></use></clipPath><path d="M480.05 301.24L481.35 301.47L482.62 301.78L483.85 302.19L485.05 302.67L486.2 303.23L487.31 303.86L488.37 304.56L489.38 305.33L490.33 306.17L491.23 307.06L492.06 308.02L492.83 309.02L493.53 310.08L494.17 311.19L494.73 312.34L495.21 313.54L495.61 314.77L495.93 316.04L496.16 317.34L496.3 318.67L496.35 320.02L496.3 321.38L496.16 322.71L495.93 324.01L495.61 325.27L495.21 326.51L494.73 327.7L494.17 328.85L493.53 329.96L492.83 331.02L492.06 332.03L491.23 332.98L490.33 333.88L489.38 334.71L488.37 335.48L487.31 336.19L486.2 336.82L485.05 337.38L483.85 337.86L482.62 338.26L481.35 338.58L480.05 338.81L478.72 338.95L477.37 339L208.46 339L323.66 454.2L324.58 455.19L325.42 456.23L326.18 457.31L326.85 458.43L327.44 459.59L327.94 460.77L328.36 461.98L328.7 463.21L328.95 464.46L329.12 465.72L329.2 466.98L329.2 468.25L329.12 469.51L328.95 470.77L328.7 472.02L328.36 473.25L327.94 474.46L327.44 475.64L326.85 476.8L326.18 477.92L325.42 479L324.58 480.04L323.66 481.03L322.67 481.96L321.63 482.8L320.55 483.55L319.43 484.23L318.27 484.81L317.09 485.32L315.88 485.74L314.65 486.07L313.4 486.33L312.14 486.49L310.88 486.58L309.61 486.58L308.34 486.49L307.09 486.33L305.84 486.07L304.61 485.74L303.4 485.32L302.22 484.81L301.06 484.23L299.94 483.55L298.86 482.8L297.82 481.96L296.83 481.03L296.83 481.03L176.07 360.28L154.79 339L154.79 339L149.23 333.44L149.23 333.44L148.31 332.45L147.47 331.41L146.71 330.33L146.04 329.21L145.45 328.05L144.95 326.87L144.53 325.66L144.19 324.42L143.94 323.18L143.77 321.92L143.69 320.66L143.69 319.39L143.77 318.12L143.94 316.87L144.19 315.62L144.53 314.39L144.95 313.18L145.45 311.99L146.04 310.84L146.71 309.72L147.47 308.64L148.31 307.6L149.23 306.61L149.23 306.6L154.79 301.05L154.79 301.05L162.65 293.19L162.65 293.19L176.07 279.77L296.83 159.01L297.82 158.09L298.86 157.25L299.94 156.49L301.06 155.82L302.22 155.23L303.4 154.73L304.61 154.31L305.84 153.97L307.09 153.72L308.34 153.55L309.61 153.47L310.88 153.47L312.14 153.55L313.4 153.72L314.65 153.97L315.88 154.31L317.09 154.73L318.27 155.23L319.43 155.82L320.55 156.49L321.63 157.25L322.67 158.09L323.66 159.01L324.58 160L325.42 161.04L326.18 162.12L326.85 163.25L327.44 164.4L327.94 165.59L328.36 166.8L328.7 168.03L328.95 169.27L329.12 170.53L329.2 171.8L329.2 173.06L329.12 174.33L328.95 175.59L328.7 176.83L328.36 178.06L327.94 179.27L327.44 180.46L326.85 181.61L326.18 182.73L325.42 183.82L324.58 184.86L323.66 185.85L208.46 301.05L477.37 301.05L478.72 301.09L480.05 301.24Z" id="a3CdfMviGc"></path></defs><g><g><g><g clip-path="url(#clipbaJQFrY5b)"><use xlink:href="#b1HYoToI8p" opacity="1" fill-opacity="0" stroke="#000000" stroke-width="40" stroke-opacity="1"></use></g></g><g><use xlink:href="#a3CdfMviGc" opacity="1" fill="#000000" fill-opacity="1"></use></g></g></g></svg>