<?xml version="1.0" encoding="UTF-8" standalone="no"?>
<!DOCTYPE svg PUBLIC "-//W3C//DTD SVG 1.1//EN" "http://www.w3.org/Graphics/SVG/1.1/DTD/svg11.dtd">
<svg version="1.1" xmlns="http://www.w3.org/2000/svg" xmlns:xlink="http://www.w3.org/1999/xlink" preserveAspectRatio="xMidYMid meet" viewBox="0 0 640 640" width="640" height="640"><defs><path d="M640 320C640 496.61 496.61 640 320 640C143.39 640 0 496.61 0 320C0 143.39 143.39 0 320 0C496.61 0 640 143.39 640 320Z" id="b1HYoToI8p"></path><clipPath id="clipbaJQFrY5b"><use xlink:href="#b1HYoToI8p" opacity="1"></use></clipPath><path d="M184.83 324.57L183.79 325.41L182.71 326.17L181.59 326.84L180.43 327.43L179.25 327.93L178.04 328.35L176.81 328.69L175.56 328.94L174.3 329.11L173.04 329.19L171.77 329.19L170.51 329.11L169.25 328.94L168 328.69L166.77 328.35L165.56 327.93L164.38 327.43L163.22 326.84L162.1 326.17L161.02 325.41L159.98 324.57L158.99 323.65L158.07 322.66L157.23 321.62L156.47 320.54L155.8 319.41L155.21 318.26L154.71 317.07L154.29 315.86L153.95 314.63L153.7 313.39L153.53 312.13L153.45 310.86L153.45 309.6L153.53 308.33L153.7 307.08L153.95 305.83L154.29 304.6L154.71 303.39L155.21 302.2L155.8 301.05L156.47 299.93L157.23 298.84L158.07 297.8L158.99 296.81L279.75 176.06L293.16 162.64L293.17 162.64L306.58 149.22L307.57 148.3L308.61 147.46L309.7 146.7L310.82 146.03L311.97 145.44L313.16 144.94L314.37 144.52L315.6 144.18L316.84 143.93L318.1 143.76L319.37 143.68L320.63 143.68L321.9 143.76L323.16 143.93L324.4 144.18L325.63 144.52L326.84 144.94L328.03 145.44L329.18 146.03L330.3 146.7L331.39 147.46L332.43 148.3L333.42 149.22L338.98 154.78L338.98 154.78L346.84 162.64L346.84 162.64L481.01 296.81L481.01 296.81L481.93 297.8L482.77 298.84L483.53 299.93L484.2 301.05L484.79 302.2L485.29 303.39L485.71 304.6L486.05 305.83L486.3 307.08L486.47 308.33L486.55 309.6L486.55 310.86L486.47 312.13L486.3 313.39L486.05 314.63L485.71 315.86L485.29 317.07L484.79 318.26L484.2 319.41L483.53 320.54L482.77 321.62L481.93 322.66L481.01 323.65L480.02 324.57L478.98 325.41L477.9 326.17L476.78 326.84L475.62 327.43L474.44 327.93L473.23 328.35L472 328.69L470.75 328.94L469.49 329.11L468.23 329.19L466.96 329.19L465.7 329.11L464.44 328.94L463.19 328.69L461.96 328.35L460.75 327.93L459.57 327.43L458.41 326.84L457.29 326.17L456.21 325.41L455.17 324.57L454.18 323.65L338.98 208.45L338.98 477.36L338.93 478.71L338.79 480.04L338.56 481.34L338.24 482.61L337.84 483.84L337.36 485.04L336.8 486.19L336.16 487.3L335.46 488.36L334.69 489.36L333.86 490.32L332.96 491.21L332.01 492.05L331 492.82L329.94 493.52L328.83 494.16L327.68 494.71L326.48 495.2L325.25 495.6L323.98 495.91L322.68 496.15L321.35 496.29L320 496.33L318.65 496.29L317.32 496.15L316.02 495.91L314.75 495.6L313.52 495.2L312.32 494.71L311.17 494.16L310.06 493.52L309 492.82L307.99 492.05L307.04 491.21L306.14 490.32L305.31 489.36L304.54 488.36L303.84 487.3L303.2 486.19L302.64 485.04L302.16 483.84L301.76 482.61L301.44 481.34L301.21 480.04L301.07 478.71L301.02 477.36L301.03 208.45L185.82 323.65L184.83 324.57Z" id="a404F2Wrok"></path></defs><g><g><g><g clip-path="url(#clipbaJQFrY5b)"><use xlink:href="#b1HYoToI8p" opacity="1" fill-opacity="0" stroke="#000000" stroke-width="40" stroke-opacity="1"></use></g></g><g><use xlink:href="#a404F2Wrok" opacity="1" fill="#000000" fill-opacity="1"></use></g></g></g></svg>