<?xml version="1.0" encoding="UTF-8" standalone="no"?>
<!DOCTYPE svg PUBLIC "-//W3C//DTD SVG 1.1//EN" "http://www.w3.org/Graphics/SVG/1.1/DTD/svg11.dtd">
<svg version="1.1" xmlns="http://www.w3.org/2000/svg" xmlns:xlink="http://www.w3.org/1999/xlink" preserveAspectRatio="xMidYMid meet" viewBox="0 0 640 640" width="640" height="640"><defs><path d="M640 320C640 496.61 496.61 640 320 640C143.39 640 0 496.61 0 320C0 143.39 143.39 0 320 0C496.61 0 640 143.39 640 320Z" id="b1HYoToI8p"></path><clipPath id="clipbaJQFrY5b"><use xlink:href="#b1HYoToI8p" opacity="1"></use></clipPath><path d="M158.68 338.58L157.41 338.26L156.18 337.86L154.99 337.38L153.83 336.82L152.73 336.19L151.67 335.48L150.66 334.71L149.7 333.88L148.81 332.98L147.97 332.03L147.2 331.02L146.5 329.96L145.87 328.85L145.31 327.7L144.83 326.51L144.43 325.27L144.11 324.01L143.88 322.71L143.74 321.38L143.69 320.02L143.74 318.67L143.88 317.34L144.11 316.04L144.43 314.77L144.83 313.54L145.31 312.34L145.87 311.19L146.5 310.08L147.2 309.02L147.97 308.02L148.81 307.06L149.7 306.17L150.66 305.33L151.67 304.56L152.73 303.86L153.83 303.23L154.99 302.67L156.18 302.19L157.41 301.78L158.68 301.47L159.98 301.24L161.31 301.09L162.66 301.05L431.57 301.05L316.37 185.85L315.45 184.86L314.61 183.82L313.85 182.73L313.18 181.61L312.59 180.46L312.09 179.27L311.67 178.06L311.33 176.83L311.08 175.59L310.91 174.33L310.83 173.06L310.83 171.8L310.91 170.53L311.08 169.27L311.33 168.03L311.67 166.8L312.09 165.59L312.59 164.4L313.18 163.25L313.85 162.12L314.61 161.04L315.45 160L316.37 159.01L317.37 158.09L318.4 157.25L319.49 156.49L320.61 155.82L321.76 155.23L322.95 154.73L324.16 154.31L325.39 153.97L326.64 153.72L327.89 153.55L329.16 153.47L330.42 153.47L331.69 153.55L332.95 153.72L334.19 153.97L335.42 154.31L336.63 154.73L337.82 155.23L338.97 155.82L340.1 156.49L341.18 157.25L342.22 158.09L343.21 159.01L463.97 279.77L477.38 293.19L477.38 293.19L485.24 301.05L490.8 306.6L490.8 306.61L491.73 307.6L492.57 308.64L493.32 309.72L493.99 310.84L494.58 311.99L495.09 313.18L495.51 314.39L495.84 315.62L496.09 316.87L496.26 318.12L496.35 319.39L496.35 320.66L496.26 321.92L496.09 323.18L495.84 324.42L495.51 325.66L495.09 326.87L494.58 328.05L493.99 329.21L493.32 330.33L492.57 331.41L491.73 332.45L490.8 333.44L490.8 333.44L485.24 339L485.24 339L463.97 360.28L463.97 360.28L343.21 481.03L343.21 481.03L342.22 481.96L341.18 482.8L340.1 483.55L338.97 484.23L337.82 484.81L336.63 485.32L335.42 485.74L334.19 486.07L332.95 486.33L331.69 486.49L330.42 486.58L329.16 486.58L327.89 486.49L326.64 486.33L325.39 486.07L324.16 485.74L322.95 485.32L321.76 484.81L320.61 484.23L319.49 483.55L318.4 482.8L317.37 481.96L316.37 481.03L315.45 480.04L314.61 479L313.85 477.92L313.18 476.8L312.59 475.64L312.09 474.46L311.67 473.25L311.33 472.02L311.08 470.77L310.91 469.51L310.83 468.25L310.83 466.98L310.91 465.72L311.08 464.46L311.33 463.21L311.67 461.98L312.09 460.77L312.59 459.59L313.18 458.43L313.85 457.31L314.61 456.23L315.45 455.19L316.37 454.2L316.37 454.2L431.57 339L162.66 339L161.31 338.95L159.98 338.81L158.68 338.58Z" id="abvK9JtxJ"></path></defs><g><g><g><g clip-path="url(#clipbaJQFrY5b)"><use xlink:href="#b1HYoToI8p" opacity="1" fill-opacity="0" stroke="#000000" stroke-width="40" stroke-opacity="1"></use></g></g><g><use xlink:href="#abvK9JtxJ" opacity="1" fill="#000000" fill-opacity="1"></use></g></g></g></svg>