<?xml version="1.0" encoding="UTF-8" standalone="no"?>
<!DOCTYPE svg PUBLIC "-//W3C//DTD SVG 1.1//EN" "http://www.w3.org/Graphics/SVG/1.1/DTD/svg11.dtd">
<svg version="1.1" xmlns="http://www.w3.org/2000/svg" xmlns:xlink="http://www.w3.org/1999/xlink" preserveAspectRatio="xMidYMid meet" viewBox="0 0 640 640" width="640" height="640"><defs><path d="M8.54 65.22L7.56 63.92L6.65 62.59L5.79 61.24L4.99 59.86L4.25 58.45L3.58 57.02L2.95 55.57L2.39 54.1L1.89 52.62L1.45 51.12L1.06 49.61L0.74 48.09L0.47 46.56L0.27 45.02L0.12 43.47L0.03 41.92L0 40.37L0.03 38.82L0.12 37.27L0.27 35.73L0.47 34.19L0.74 32.66L1.06 31.14L1.45 29.62L1.89 28.13L2.39 26.64L2.95 25.17L3.58 23.73L4.25 22.3L4.99 20.89L5.79 19.51L6.65 18.15L7.56 16.82L8.54 15.52L9.57 14.25L10.67 13.02L11.82 11.82L13.02 10.67L14.25 9.57L15.52 8.54L16.82 7.56L18.15 6.65L19.51 5.79L20.89 4.99L22.3 4.25L23.73 3.58L25.17 2.95L26.64 2.39L28.13 1.89L29.62 1.45L31.14 1.06L32.66 0.74L34.19 0.47L35.73 0.27L37.27 0.12L38.82 0.03L40.37 0L41.92 0.03L43.47 0.12L45.02 0.27L46.56 0.47L48.09 0.74L49.61 1.06L51.12 1.45L52.62 1.89L54.1 2.39L55.57 2.95L57.02 3.58L58.45 4.25L59.86 4.99L61.24 5.79L62.59 6.65L63.92 7.56L65.22 8.54L66.49 9.57L67.73 10.67L68.93 11.82L68.93 11.82L559.24 502.13L559.24 155.43L559.27 153.76L559.37 152.12L559.54 150.49L559.77 148.88L560.06 147.29L560.41 145.73L560.83 144.19L561.3 142.67L561.83 141.18L562.41 139.72L563.05 138.28L563.75 136.88L564.49 135.5L565.29 134.16L566.14 132.86L567.03 131.59L567.98 130.35L568.96 129.15L570 128L571.07 126.88L572.19 125.8L573.35 124.77L574.54 123.78L575.78 122.84L577.05 121.95L578.35 121.1L579.7 120.3L581.07 119.56L582.47 118.86L583.91 118.22L585.37 117.64L586.86 117.11L588.38 116.64L589.92 116.22L591.49 115.87L593.07 115.58L594.68 115.35L596.31 115.18L597.96 115.08L599.62 115.05L601.28 115.08L602.93 115.18L604.56 115.35L606.17 115.58L607.75 115.87L609.32 116.22L610.86 116.64L612.38 117.11L613.87 117.64L615.33 118.22L616.77 118.86L618.17 119.56L619.54 120.3L620.88 121.1L622.19 121.95L623.46 122.84L624.7 123.78L625.89 124.77L627.05 125.8L628.17 126.88L629.24 128L630.27 129.15L631.26 130.35L632.2 131.59L633.1 132.86L633.95 134.16L634.74 135.5L635.49 136.88L636.18 138.28L636.82 139.72L637.41 141.18L637.94 142.67L638.41 144.19L638.83 145.73L639.18 147.29L639.47 148.88L639.7 150.49L639.87 152.12L639.97 153.76L640 155.43L640 599.62L639.97 601.28L639.87 602.93L639.7 604.56L639.47 606.17L639.18 607.75L638.83 609.32L638.41 610.86L637.94 612.38L637.41 613.87L636.82 615.33L636.18 616.77L635.49 618.17L634.74 619.54L633.95 620.88L633.1 622.19L632.2 623.46L631.26 624.7L630.27 625.89L629.24 627.05L628.17 628.17L627.05 629.24L625.89 630.27L624.7 631.26L623.46 632.2L622.19 633.1L620.88 633.95L619.54 634.74L618.17 635.49L616.77 636.18L615.33 636.82L613.87 637.41L612.38 637.94L610.86 638.41L609.32 638.83L607.75 639.18L606.17 639.47L604.56 639.7L602.93 639.87L601.28 639.97L599.62 640L155.43 640L153.76 639.97L152.12 639.87L150.49 639.7L148.88 639.47L147.29 639.18L145.73 638.83L144.19 638.41L142.67 637.94L141.18 637.41L139.72 636.82L138.28 636.18L136.88 635.49L135.5 634.74L134.16 633.95L132.86 633.1L131.59 632.2L130.35 631.26L129.15 630.27L128 629.24L126.88 628.17L125.8 627.05L124.77 625.89L123.78 624.7L122.84 623.46L121.95 622.19L121.1 620.88L120.3 619.54L119.56 618.17L118.86 616.77L118.22 615.33L117.64 613.87L117.11 612.38L116.64 610.86L116.22 609.32L115.87 607.75L115.58 606.17L115.35 604.56L115.18 602.93L115.08 601.28L115.05 599.62L115.08 597.96L115.18 596.31L115.35 594.68L115.58 593.07L115.87 591.49L116.22 589.92L116.64 588.38L117.11 586.86L117.64 585.37L118.22 583.91L118.86 582.47L119.56 581.07L120.3 579.7L121.1 578.35L121.95 577.05L122.84 575.78L123.78 574.54L124.77 573.35L125.8 572.19L126.88 571.07L128 570L129.15 568.96L130.35 567.98L131.59 567.03L132.86 566.14L134.16 565.29L135.5 564.49L136.88 563.75L138.28 563.05L139.72 562.41L141.18 561.83L142.67 561.3L144.19 560.83L145.73 560.41L147.29 560.06L148.88 559.77L150.49 559.54L152.12 559.37L153.76 559.27L155.43 559.24L502.13 559.24L11.82 68.93L10.67 67.73L9.57 66.49L8.54 65.22Z" id="b3PqMHq8LX"></path></defs><g><g><g><use xlink:href="#b3PqMHq8LX" opacity="1" fill="#000000" fill-opacity="1"></use></g></g></g></svg>