<?xml version="1.0" encoding="UTF-8" standalone="no"?>
<!DOCTYPE svg PUBLIC "-//W3C//DTD SVG 1.1//EN" "http://www.w3.org/Graphics/SVG/1.1/DTD/svg11.dtd">
<svg version="1.1" xmlns="http://www.w3.org/2000/svg" xmlns:xlink="http://www.w3.org/1999/xlink" preserveAspectRatio="xMidYMid meet" viewBox="0 0 640 640" width="640" height="640"><defs><path d="M486.24 559.27L487.88 559.37L489.51 559.54L491.12 559.77L492.71 560.06L494.27 560.41L495.81 560.83L497.33 561.3L498.82 561.83L500.28 562.41L501.72 563.05L503.12 563.75L504.5 564.49L505.84 565.29L507.14 566.14L508.41 567.03L509.65 567.98L510.85 568.96L512 570L513.12 571.07L514.2 572.19L515.23 573.35L516.22 574.54L517.16 575.78L518.05 577.05L518.9 578.35L519.7 579.7L520.44 581.07L521.14 582.47L521.78 583.91L522.36 585.37L522.89 586.86L523.36 588.38L523.78 589.92L524.13 591.49L524.42 593.07L524.65 594.68L524.82 596.31L524.92 597.96L524.95 599.62L524.92 601.28L524.82 602.93L524.65 604.56L524.42 606.17L524.13 607.75L523.78 609.32L523.36 610.86L522.89 612.38L522.36 613.87L521.78 615.33L521.14 616.77L520.44 618.17L519.7 619.54L518.9 620.88L518.05 622.19L517.16 623.46L516.22 624.7L515.23 625.89L514.2 627.05L513.12 628.17L512 629.24L510.85 630.27L509.65 631.26L508.41 632.2L507.14 633.1L505.84 633.95L504.5 634.74L503.12 635.49L501.72 636.18L500.28 636.82L498.82 637.41L497.33 637.94L495.81 638.41L494.27 638.83L492.71 639.18L491.12 639.47L489.51 639.7L487.88 639.87L486.24 639.97L484.57 640L40.38 640L38.72 639.97L37.07 639.87L35.44 639.7L33.83 639.47L32.25 639.18L30.68 638.83L29.14 638.41L27.62 637.94L26.13 637.41L24.67 636.82L23.23 636.18L21.83 635.49L20.46 634.74L19.12 633.95L17.81 633.1L16.54 632.2L15.3 631.26L14.11 630.27L12.95 629.24L11.83 628.17L10.76 627.05L9.73 625.89L8.74 624.7L7.8 623.46L6.9 622.19L6.05 620.88L5.26 619.54L4.51 618.17L3.82 616.77L3.18 615.33L2.59 613.87L2.06 612.38L1.59 610.86L1.17 609.32L0.82 607.75L0.53 606.17L0.3 604.56L0.13 602.93L0.03 601.28L0 599.62L0 155.43L0.03 153.76L0.13 152.12L0.3 150.49L0.53 148.88L0.82 147.29L1.17 145.73L1.59 144.19L2.06 142.67L2.59 141.18L3.18 139.72L3.82 138.28L4.51 136.88L5.26 135.5L6.05 134.16L6.9 132.86L7.8 131.59L8.74 130.35L9.73 129.15L10.76 128L11.83 126.88L12.95 125.8L14.11 124.77L15.3 123.78L16.54 122.84L17.81 121.95L19.12 121.1L20.46 120.3L21.83 119.56L23.23 118.86L24.67 118.22L26.13 117.64L27.62 117.11L29.14 116.64L30.68 116.22L32.25 115.87L33.83 115.58L35.44 115.35L37.07 115.18L38.72 115.08L40.38 115.05L42.04 115.08L43.69 115.18L45.32 115.35L46.93 115.58L48.51 115.87L50.08 116.22L51.62 116.64L53.14 117.11L54.63 117.64L56.09 118.22L57.53 118.86L58.93 119.56L60.3 120.3L61.65 121.1L62.95 121.95L64.22 122.84L65.46 123.78L66.65 124.77L67.81 125.8L68.93 126.88L70 128L71.04 129.15L72.02 130.35L72.97 131.59L73.86 132.86L74.71 134.16L75.51 135.5L76.25 136.88L76.95 138.28L77.59 139.72L78.17 141.18L78.7 142.67L79.17 144.19L79.59 145.73L79.94 147.29L80.23 148.88L80.46 150.49L80.63 152.12L80.73 153.76L80.76 155.43L80.76 502.13L571.07 11.82L571.07 11.82L572.27 10.67L573.51 9.57L574.78 8.54L576.08 7.56L577.41 6.65L578.76 5.79L580.14 4.99L581.55 4.25L582.98 3.58L584.43 2.95L585.9 2.39L587.38 1.89L588.88 1.45L590.39 1.06L591.91 0.74L593.44 0.47L594.98 0.27L596.53 0.12L598.08 0.03L599.63 0L601.18 0.03L602.73 0.12L604.27 0.27L605.81 0.47L607.34 0.74L608.86 1.06L610.38 1.45L611.87 1.89L613.36 2.39L614.83 2.95L616.27 3.58L617.7 4.25L619.11 4.99L620.49 5.79L621.85 6.65L623.18 7.56L624.48 8.54L625.75 9.57L626.98 10.67L628.18 11.82L629.33 13.02L630.43 14.25L631.46 15.52L632.44 16.82L633.35 18.15L634.21 19.51L635.01 20.89L635.75 22.3L636.42 23.73L637.05 25.17L637.61 26.64L638.11 28.13L638.55 29.62L638.94 31.14L639.26 32.66L639.53 34.19L639.73 35.73L639.88 37.27L639.97 38.82L640 40.37L639.97 41.92L639.88 43.47L639.73 45.02L639.53 46.56L639.26 48.09L638.94 49.61L638.55 51.12L638.11 52.62L637.61 54.1L637.05 55.57L636.42 57.02L635.75 58.45L635.01 59.86L634.21 61.24L633.35 62.59L632.44 63.92L631.46 65.22L630.43 66.49L629.33 67.73L628.18 68.93L137.87 559.24L484.57 559.24L486.24 559.27Z" id="a1tVrmIMp"></path></defs><g><g><g><use xlink:href="#a1tVrmIMp" opacity="1" fill="#000000" fill-opacity="1"></use></g></g></g></svg>