<?xml version="1.0" encoding="UTF-8" standalone="no"?>
<!DOCTYPE svg PUBLIC "-//W3C//DTD SVG 1.1//EN" "http://www.w3.org/Graphics/SVG/1.1/DTD/svg11.dtd">
<svg version="1.1" xmlns="http://www.w3.org/2000/svg" xmlns:xlink="http://www.w3.org/1999/xlink" preserveAspectRatio="xMidYMid meet" viewBox="0 0 640 640" width="640" height="640"><defs><path d="M602.64 37.83L603.56 37.85L603.9 37.86L603.96 37.86L604.1 37.87L605.37 37.95L605.44 37.95L605.45 37.95L605.55 37.96L607.01 38.11L608.46 38.32L609.91 38.59L611.36 38.91L611.37 38.92L611.4 38.92L612.83 39.31L614.25 39.75L615.64 40.24L617 40.79L618.34 41.39L619.65 42.03L619.8 42.12L619.82 42.12L619.91 42.18L620.93 42.73L621.09 42.83L621.18 42.87L621.54 43.09L622.18 43.47L622.32 43.57L622.5 43.68L623.09 44.06L623.4 44.26L623.49 44.33L623.79 44.52L624.52 45.05L624.58 45.1L624.61 45.12L625.02 45.42L626.21 46.35L627.36 47.33L628.46 48.34L629.51 49.39L630.52 50.48L631.47 51.61L632.38 52.76L633.24 53.95L633.54 54.39L633.57 54.43L633.62 54.52L634.05 55.16L634.26 55.5L634.36 55.65L634.54 55.96L634.81 56.4L634.94 56.63L635.1 56.9L635.41 57.46L635.52 57.67L635.58 57.78L635.8 58.18L636.44 59.49L637.04 60.83L637.59 62.19L638.08 63.58L638.52 65L638.91 66.43L639.23 67.89L639.51 69.37L639.72 70.87L639.88 72.39L639.9 72.79L639.91 72.86L639.92 73.08L639.97 73.92L639.97 74.18L639.98 74.31L639.99 74.86L640 75.48L640 75.61L640 75.76L639.98 76.68L639.97 77.03L639.97 77.08L639.96 77.22L639.88 78.51L639.88 78.56L639.88 78.57L639.87 78.68L639.72 80.13L639.51 81.59L639.24 83.04L639.23 83.06L638.91 84.48L638.91 84.5L638.91 84.52L638.9 84.52L638.72 85.22L638.53 85.92L638.53 85.92L638.52 85.96L638.08 87.37L637.59 88.76L637.04 90.12L636.44 91.46L635.8 92.77L635.72 92.91L635.7 92.94L635.61 93.12L635.1 94.05L635.01 94.2L634.96 94.3L634.96 94.3L352.6 583.35L352.56 583.42L352.46 583.6L351.83 584.62L351.8 584.68L351.79 584.68L351.7 584.84L350.89 586.05L350.03 587.24L349.12 588.4L348.16 589.52L347.16 590.61L347.13 590.63L346.1 591.66L346.08 591.68L346.08 591.68L345.01 592.67L345.01 592.67L344.99 592.69L343.87 593.65L342.71 594.55L341.53 595.41L341.44 595.47L341.43 595.48L341.36 595.52L340.31 596.22L340.19 596.29L340.15 596.33L339.85 596.51L339.07 596.98L338.94 597.06L338.82 597.13L338.29 597.42L337.8 597.7L337.68 597.76L337.46 597.88L336.71 598.25L336.51 598.36L336.44 598.39L336.09 598.56L334.69 599.19L333.29 599.75L331.87 600.26L330.44 600.7L329.01 601.09L327.56 601.41L326.11 601.68L324.66 601.89L323.2 602.04L322.63 602.08L322.61 602.08L322.58 602.08L321.74 602.13L321.31 602.15L321.16 602.15L320.86 602.16L320.28 602.17L320 602.17L319.71 602.17L319.13 602.16L318.83 602.15L318.68 602.15L318.25 602.13L317.42 602.08L317.38 602.08L317.36 602.08L316.8 602.04L315.34 601.89L313.88 601.68L312.43 601.41L310.99 601.09L309.55 600.7L308.12 600.26L306.7 599.75L305.3 599.19L303.91 598.56L303.55 598.39L303.49 598.36L303.29 598.25L302.53 597.88L302.31 597.76L302.19 597.7L301.71 597.42L301.17 597.13L301.06 597.06L300.93 596.98L300.15 596.51L299.85 596.33L299.8 596.29L299.68 596.22L298.63 595.52L298.56 595.48L298.56 595.47L298.47 595.41L297.28 594.55L296.13 593.65L295 592.69L294.99 592.67L294.99 592.67L294.95 592.64L293.92 591.68L293.91 591.68L293.89 591.66L292.84 590.61L291.83 589.52L290.88 588.4L289.97 587.24L289.11 586.05L288.3 584.84L288.2 584.68L288.2 584.68L288.16 584.62L287.54 583.6L287.44 583.43L287.39 583.35L5.04 94.3L5.04 94.3L4.98 94.2L4.89 94.05L4.39 93.12L4.29 92.94L4.28 92.91L4.2 92.77L3.55 91.46L2.95 90.12L2.41 88.76L1.91 87.37L1.47 85.96L1.47 85.92L1.47 85.92L1.09 84.52L1.09 84.5L1.08 84.48L0.76 83.06L0.75 83.04L0.49 81.59L0.28 80.13L0.13 78.68L0.12 78.57L0.12 78.56L0.12 78.51L0.03 77.22L0.03 77.08L0.03 77.03L0.02 76.68L-0.01 75.76L0 75.61L-0.01 75.48L0.01 74.86L0.01 74.31L0.02 74.18L0.03 73.92L0.08 73.08L0.09 72.86L0.1 72.79L0.12 72.39L0.27 70.87L0.49 69.37L0.76 67.89L1.09 66.43L1.47 65L1.91 63.58L2.41 62.19L2.95 60.83L3.55 59.49L4.2 58.18L4.42 57.78L4.47 57.67L4.59 57.46L4.89 56.9L5.06 56.63L5.18 56.4L5.45 55.96L5.64 55.65L5.74 55.5L5.94 55.16L6.37 54.52L6.43 54.43L6.46 54.39L6.75 53.95L7.61 52.76L8.52 51.61L9.48 50.48L10.48 49.39L11.53 48.34L12.63 47.33L13.78 46.35L14.97 45.42L15.39 45.12L15.41 45.1L15.48 45.05L16.21 44.52L16.5 44.33L16.6 44.26L16.9 44.06L17.49 43.68L17.67 43.57L17.82 43.47L18.45 43.09L18.82 42.87L18.9 42.83L19.07 42.73L20.09 42.18L20.18 42.12L20.19 42.12L20.35 42.03L21.66 41.39L22.99 40.79L24.36 40.24L25.75 39.75L27.16 39.31L28.6 38.92L28.62 38.92L28.63 38.91L30.08 38.59L31.53 38.32L32.98 38.11L34.44 37.96L34.55 37.95L34.56 37.95L34.63 37.95L35.9 37.87L36.04 37.86L36.09 37.86L36.44 37.85L37.36 37.83L37.51 37.83L37.64 37.83L602.35 37.83L602.49 37.83L602.64 37.83Z" id="bPTRPAn6X"></path></defs><g><g><g><use xlink:href="#bPTRPAn6X" opacity="1" fill="#000000" fill-opacity="1"></use></g></g></g></svg>