<?xml version="1.0" encoding="UTF-8" standalone="no"?>
<!DOCTYPE svg PUBLIC "-//W3C//DTD SVG 1.1//EN" "http://www.w3.org/Graphics/SVG/1.1/DTD/svg11.dtd">
<svg version="1.1" xmlns="http://www.w3.org/2000/svg" xmlns:xlink="http://www.w3.org/1999/xlink" preserveAspectRatio="xMidYMid meet" viewBox="0 0 640 640" width="640" height="640"><defs><path d="M619.44 146.31L620.68 146.46L621.92 146.67L623.15 146.94L624.37 147.26L625.57 147.65L626.76 148.1L627.93 148.61L629.08 149.17L630.2 149.8L631.3 150.49L632.38 151.23L633.42 152.04L634.42 152.91L635.4 153.83L636.32 154.81L637.19 155.81L638 156.85L638.74 157.93L639.43 159.03L640.06 160.15L640.62 161.3L641.13 162.47L641.58 163.65L641.97 164.86L642.29 166.08L642.56 167.31L642.77 168.55L642.92 169.79L643.01 171.04L643.04 172.29L643.01 173.55L642.92 174.8L642.77 176.04L642.56 177.28L642.29 178.51L641.97 179.73L641.58 180.93L641.13 182.12L640.62 183.29L640.06 184.44L639.43 185.56L638.74 186.66L638 187.73L637.19 188.78L636.32 189.78L635.4 190.76L635.4 190.76L376.91 449.24L376.91 449.24L358.45 467.71L339.98 486.17L339.98 486.17L339.01 487.09L338 487.96L336.96 488.77L335.89 489.51L334.79 490.2L333.67 490.83L332.52 491.39L331.35 491.9L330.16 492.35L328.96 492.74L327.74 493.06L326.51 493.33L325.27 493.54L324.02 493.69L322.77 493.78L321.52 493.81L320.27 493.78L319.02 493.69L317.77 493.54L316.53 493.33L315.3 493.06L314.08 492.74L312.88 492.35L311.69 491.9L310.52 491.39L309.38 490.83L308.25 490.2L307.15 489.51L306.08 488.77L305.04 487.96L304.03 487.09L303.06 486.17L303.06 486.17L284.59 467.71L266.13 449.24L266.13 449.24L7.64 190.76L7.64 190.76L6.72 189.78L5.85 188.78L5.05 187.73L4.3 186.66L3.61 185.56L2.99 184.44L2.42 183.29L1.91 182.12L1.46 180.93L1.07 179.73L0.75 178.51L0.48 177.28L0.27 176.04L0.12 174.8L0.03 173.55L0 172.29L0.03 171.04L0.12 169.79L0.27 168.55L0.48 167.31L0.75 166.08L1.07 164.86L1.46 163.65L1.91 162.47L2.42 161.3L2.99 160.15L3.61 159.03L4.3 157.93L5.05 156.85L5.85 155.81L6.72 154.81L7.64 153.83L8.62 152.91L9.62 152.04L10.67 151.23L11.74 150.49L12.84 149.8L13.96 149.17L15.11 148.61L16.28 148.1L17.47 147.65L18.67 147.26L19.89 146.94L21.12 146.67L22.36 146.46L23.6 146.31L24.85 146.22L26.11 146.19L27.36 146.22L28.61 146.31L29.86 146.46L31.09 146.67L32.32 146.94L33.54 147.26L34.75 147.65L35.93 148.1L37.1 148.61L38.25 149.17L39.38 149.8L40.48 150.49L41.55 151.23L42.59 152.04L43.6 152.91L44.57 153.83L44.57 153.83L303.06 412.32L321.52 430.78L339.98 412.32L339.98 412.32L598.47 153.83L599.45 152.91L600.45 152.04L601.49 151.23L602.57 150.49L603.67 149.8L604.79 149.17L605.94 148.61L607.11 148.1L608.3 147.65L609.5 147.26L610.72 146.94L611.95 146.67L613.19 146.46L614.43 146.31L615.68 146.22L616.94 146.19L618.19 146.22L619.44 146.31Z" id="c3idzr7tll"></path></defs><g><g><g><use xlink:href="#c3idzr7tll" opacity="1" fill="#000000" fill-opacity="1"></use></g></g></g></svg>