<?xml version="1.0" encoding="UTF-8" standalone="no"?>
<!DOCTYPE svg PUBLIC "-//W3C//DTD SVG 1.1//EN" "http://www.w3.org/Graphics/SVG/1.1/DTD/svg11.dtd">
<svg version="1.1" xmlns="http://www.w3.org/2000/svg" xmlns:xlink="http://www.w3.org/1999/xlink" preserveAspectRatio="xMidYMid meet" viewBox="0 0 640 640" width="640" height="640"><defs><path d="M565.67 0.02L565.81 0.03L566.06 0.03L566.91 0.08L567.12 0.09L567.19 0.1L567.59 0.12L569.11 0.28L570.61 0.49L572.09 0.77L573.55 1.09L574.99 1.48L576.4 1.92L577.79 2.41L579.16 2.96L580.49 3.56L581.8 4.2L582.2 4.42L582.31 4.48L582.52 4.6L583.08 4.9L583.36 5.06L583.58 5.19L584.02 5.46L584.33 5.64L584.48 5.74L584.82 5.95L585.47 6.38L585.55 6.43L585.59 6.46L586.04 6.76L587.22 7.62L588.38 8.53L589.5 9.48L590.59 10.49L591.64 11.54L592.66 12.64L593.63 13.78L594.57 14.98L594.87 15.39L594.89 15.42L594.93 15.48L595.46 16.21L595.66 16.51L595.72 16.6L595.92 16.91L596.31 17.5L596.42 17.68L596.51 17.82L596.89 18.46L597.11 18.82L597.16 18.91L597.26 19.07L597.81 20.09L597.86 20.18L597.87 20.2L597.95 20.35L598.6 21.66L599.2 23L599.74 24.36L600.24 25.75L600.68 27.17L601.06 28.6L601.07 28.63L601.07 28.64L601.39 30.06L601.4 30.08L601.66 31.53L601.87 32.99L602.02 34.45L602.03 34.55L602.03 34.56L602.04 34.63L602.12 35.9L602.12 36.04L602.13 36.1L602.13 36.44L602.16 37.36L602.15 37.51L602.16 37.65L602.18 602.36L602.18 602.36L602.17 602.48L602.18 602.64L602.15 603.57L602.15 603.91L602.14 603.96L602.14 604.1L602.06 605.37L602.05 605.44L602.05 605.45L602.04 605.56L601.89 607.01L601.68 608.47L601.42 609.92L601.09 611.36L601.09 611.38L601.08 611.4L600.89 612.1L600.71 612.8L600.71 612.8L600.7 612.84L600.26 614.25L599.76 615.64L599.22 617.01L598.62 618.34L597.97 619.65L597.89 619.81L597.88 619.82L597.83 619.91L597.28 620.93L597.18 621.1L597.13 621.18L596.91 621.55L596.53 622.18L596.44 622.33L596.33 622.51L595.94 623.1L595.74 623.4L595.68 623.5L595.48 623.79L594.96 624.52L594.91 624.59L594.89 624.61L594.59 625.03L593.65 626.22L592.68 627.37L591.66 628.46L590.61 629.52L589.52 630.52L588.4 631.48L587.25 632.39L586.06 633.25L585.62 633.54L585.57 633.57L585.49 633.63L584.84 634.06L584.51 634.26L584.36 634.36L584.04 634.55L583.6 634.82L583.38 634.94L583.11 635.1L582.54 635.41L582.33 635.53L582.23 635.58L581.83 635.8L580.52 636.45L579.18 637.04L577.81 637.59L576.42 638.08L575.01 638.53L573.57 638.91L572.11 639.24L570.63 639.51L569.13 639.73L567.62 639.88L567.22 639.91L567.15 639.91L566.93 639.92L566.08 639.97L565.83 639.98L565.7 639.99L565.14 639.99L564.53 640.01L564.4 640L564.24 640.01L563.32 639.98L562.98 639.97L562.93 639.97L562.79 639.97L561.5 639.88L561.45 639.88L561.44 639.88L561.33 639.87L559.87 639.72L558.42 639.51L556.97 639.25L555.52 638.92L555.51 638.92L555.49 638.91L554.09 638.53L554.09 638.53L554.05 638.53L552.64 638.09L551.25 637.59L549.88 637.05L548.55 636.45L547.24 635.8L547.09 635.72L547.07 635.71L546.89 635.61L545.96 635.11L545.8 635.01L545.71 634.96L545.7 634.96L56.65 352.62L56.65 352.62L56.57 352.58L56.4 352.48L55.38 351.86L55.32 351.82L55.31 351.82L55.16 351.72L53.94 350.91L52.76 350.05L51.6 349.14L50.48 348.19L49.39 347.18L48.34 346.13L48.32 346.11L48.31 346.1L47.31 345.01L46.35 343.89L45.44 342.74L44.58 341.55L44.52 341.46L44.52 341.46L44.48 341.39L43.77 340.34L43.7 340.22L43.67 340.17L43.49 339.87L43.01 339.09L42.94 338.96L42.87 338.85L42.57 338.31L42.3 337.82L42.24 337.71L42.12 337.49L41.74 336.73L41.64 336.53L41.61 336.47L41.43 336.11L40.81 334.72L40.24 333.31L39.74 331.9L39.29 330.47L38.91 329.03L38.58 327.58L38.32 326.13L38.11 324.68L37.96 323.22L37.92 322.66L37.92 322.64L37.92 322.6L37.86 321.77L37.85 321.34L37.84 321.19L37.84 320.89L37.82 320.31L37.83 320.02L37.82 319.73L37.84 319.15L37.84 318.86L37.85 318.71L37.86 318.28L37.92 317.44L37.92 317.41L37.92 317.39L37.96 316.82L38.11 315.36L38.32 313.91L38.58 312.46L38.91 311.01L39.29 309.58L39.74 308.15L40.24 306.73L40.81 305.32L41.43 303.93L41.61 303.58L41.64 303.51L41.74 303.31L42.12 302.56L42.24 302.33L42.3 302.22L42.57 301.73L42.87 301.2L42.94 301.08L43.01 300.95L43.49 300.17L43.67 299.87L43.7 299.82L43.77 299.71L44.47 298.65L44.52 298.59L44.52 298.58L44.58 298.49L45.44 297.31L46.35 296.15L47.31 295.03L47.32 295.01L47.35 294.98L48.31 293.94L48.32 293.93L48.34 293.91L49.39 292.86L50.48 291.86L51.6 290.9L52.75 289.99L53.94 289.13L55.15 288.32L55.31 288.23L55.32 288.22L55.38 288.19L56.4 287.56L56.58 287.46L56.65 287.42L545.68 5.05L545.78 4.99L545.93 4.9L546.87 4.39L547.04 4.3L547.07 4.28L547.21 4.21L548.52 3.56L549.86 2.96L551.22 2.41L552.61 1.92L554.03 1.48L555.47 1.1L555.48 1.09L555.5 1.09L556.95 0.76L558.4 0.49L559.85 0.28L561.31 0.13L561.42 0.13L561.42 0.13L561.48 0.12L562.76 0.04L562.9 0.04L562.96 0.03L563.3 0.03L564.22 0L564.37 0L564.51 0L565.12 0.01L565.67 0.02Z" id="i1NJQZhPDf"></path></defs><g><g><g><use xlink:href="#i1NJQZhPDf" opacity="1" fill="#000000" fill-opacity="1"></use></g></g></g></svg>