<?xml version="1.0" encoding="UTF-8" standalone="no"?>
<!DOCTYPE svg PUBLIC "-//W3C//DTD SVG 1.1//EN" "http://www.w3.org/Graphics/SVG/1.1/DTD/svg11.dtd">
<svg version="1.1" xmlns="http://www.w3.org/2000/svg" xmlns:xlink="http://www.w3.org/1999/xlink" preserveAspectRatio="xMidYMid meet" viewBox="0 0 640 640" width="640" height="640"><defs><path d="M151.23 336.96L150.49 335.89L149.8 334.79L149.17 333.67L148.61 332.52L148.1 331.35L147.65 330.16L147.26 328.96L146.94 327.74L146.67 326.51L146.46 325.27L146.31 324.02L146.22 322.77L146.19 321.52L146.22 320.27L146.31 319.02L146.46 317.77L146.67 316.53L146.94 315.3L147.26 314.08L147.65 312.88L148.1 311.69L148.61 310.52L149.17 309.38L149.8 308.25L150.49 307.15L151.23 306.08L152.04 305.04L152.91 304.03L153.83 303.06L449.24 7.64L449.24 7.64L450.22 6.72L451.22 5.85L452.27 5.05L453.34 4.3L454.44 3.61L455.56 2.99L456.71 2.42L457.88 1.91L459.07 1.46L460.27 1.07L461.49 0.75L462.72 0.48L463.96 0.27L465.2 0.12L466.45 0.03L467.71 0L468.96 0.03L470.21 0.12L471.45 0.27L472.69 0.48L473.92 0.75L475.14 1.07L476.35 1.46L477.53 1.91L478.7 2.42L479.85 2.99L480.97 3.61L482.07 4.3L483.15 5.05L484.19 5.85L485.19 6.72L486.17 7.64L487.09 8.62L487.96 9.62L488.77 10.67L489.51 11.74L490.2 12.84L490.83 13.96L491.39 15.11L491.9 16.28L492.35 17.47L492.74 18.67L493.06 19.89L493.33 21.12L493.54 22.36L493.69 23.6L493.78 24.85L493.81 26.11L493.78 27.36L493.69 28.61L493.54 29.86L493.33 31.09L493.06 32.32L492.74 33.54L492.35 34.75L491.9 35.93L491.39 37.1L490.83 38.25L490.2 39.38L489.51 40.48L488.77 41.55L487.96 42.59L487.09 43.6L486.17 44.57L227.68 303.06L227.68 303.06L209.22 321.52L486.17 598.47L487.09 599.45L487.96 600.45L488.77 601.49L489.51 602.57L490.2 603.67L490.83 604.79L491.39 605.94L491.9 607.11L492.35 608.3L492.74 609.5L493.06 610.72L493.33 611.95L493.54 613.19L493.69 614.43L493.78 615.68L493.81 616.94L493.78 618.19L493.69 619.44L493.54 620.68L493.33 621.92L493.06 623.15L492.74 624.37L492.35 625.57L491.9 626.76L491.39 627.93L490.83 629.08L490.2 630.2L489.51 631.3L488.77 632.38L487.96 633.42L487.09 634.42L486.17 635.4L485.19 636.32L484.19 637.19L483.15 638L482.07 638.74L480.97 639.43L479.85 640.06L478.7 640.62L477.53 641.13L476.35 641.58L475.14 641.97L473.92 642.29L472.69 642.56L471.45 642.77L470.21 642.92L468.96 643.01L467.71 643.04L466.45 643.01L465.2 642.92L463.96 642.77L462.72 642.56L461.49 642.29L460.27 641.97L459.07 641.58L457.88 641.13L456.71 640.62L455.56 640.06L454.44 639.43L453.34 638.74L452.27 638L451.22 637.19L450.22 636.32L449.24 635.4L190.76 376.91L190.76 376.91L172.29 358.45L172.3 358.45L153.83 339.98L153.83 339.98L152.91 339.01L152.04 338L151.23 336.96Z" id="iDXHDpXJQ"></path></defs><g><g><g><use xlink:href="#iDXHDpXJQ" opacity="1" fill="#000000" fill-opacity="1"></use></g></g></g></svg>