<?xml version="1.0" encoding="UTF-8" standalone="no"?>
<!DOCTYPE svg PUBLIC "-//W3C//DTD SVG 1.1//EN" "http://www.w3.org/Graphics/SVG/1.1/DTD/svg11.dtd">
<svg version="1.1" xmlns="http://www.w3.org/2000/svg" xmlns:xlink="http://www.w3.org/1999/xlink" preserveAspectRatio="xMidYMid meet" viewBox="0 0 640 640" width="640" height="640"><defs><path d="M75.78 0L76.7 0.03L77.04 0.03L77.1 0.04L77.24 0.04L78.52 0.12L78.58 0.13L78.58 0.13L78.69 0.13L80.15 0.28L81.6 0.49L83.05 0.76L84.5 1.09L84.52 1.09L84.53 1.1L85.97 1.48L87.39 1.92L88.78 2.41L90.14 2.96L91.48 3.56L92.79 4.21L92.93 4.28L92.96 4.3L93.13 4.39L94.07 4.9L94.22 4.99L94.32 5.05L94.32 5.05L583.35 287.42L583.42 287.46L583.6 287.56L584.62 288.19L584.68 288.22L584.69 288.23L584.85 288.32L586.06 289.13L587.25 289.99L588.4 290.9L589.52 291.86L590.61 292.86L591.66 293.91L591.68 293.93L591.69 293.94L592.65 294.98L592.68 295.01L592.69 295.03L593.65 296.15L594.56 297.31L595.42 298.49L595.48 298.58L595.48 298.59L595.53 298.65L596.23 299.71L596.3 299.82L596.33 299.87L596.51 300.17L596.99 300.95L597.06 301.08L597.13 301.2L597.43 301.73L597.7 302.22L597.76 302.33L597.88 302.56L598.26 303.31L598.36 303.51L598.39 303.58L598.57 303.93L599.19 305.32L599.76 306.73L600.26 308.15L600.71 309.58L601.09 311.01L601.42 312.46L601.68 313.91L601.89 315.36L602.04 316.82L602.08 317.39L602.08 317.41L602.09 317.44L602.14 318.28L602.15 318.71L602.16 318.86L602.16 319.15L602.18 319.73L602.17 320.02L602.18 320.31L602.16 320.89L602.16 321.19L602.15 321.34L602.14 321.77L602.09 322.6L602.08 322.64L602.08 322.66L602.04 323.22L601.89 324.68L601.68 326.13L601.42 327.58L601.09 329.03L600.71 330.47L600.26 331.9L599.76 333.31L599.19 334.72L598.57 336.11L598.39 336.47L598.36 336.53L598.26 336.73L597.88 337.49L597.76 337.71L597.7 337.82L597.43 338.31L597.13 338.85L597.06 338.96L596.99 339.09L596.51 339.87L596.33 340.17L596.3 340.22L596.23 340.34L595.53 341.39L595.48 341.46L595.48 341.46L595.42 341.55L594.56 342.74L593.65 343.89L592.69 345.01L591.69 346.1L591.68 346.11L591.66 346.13L590.61 347.18L589.52 348.19L588.4 349.14L587.24 350.05L586.06 350.91L584.84 351.72L584.69 351.82L584.68 351.82L584.62 351.86L583.6 352.48L583.43 352.58L583.35 352.62L583.35 352.62L94.29 634.96L94.2 635.01L94.04 635.11L93.11 635.61L92.93 635.71L92.91 635.72L92.76 635.8L91.45 636.45L90.12 637.05L88.75 637.59L87.36 638.09L85.95 638.53L85.91 638.53L85.91 638.53L84.51 638.91L84.49 638.92L84.48 638.92L83.03 639.25L81.58 639.51L80.13 639.72L78.67 639.87L78.56 639.88L78.55 639.88L78.5 639.88L77.21 639.97L77.07 639.97L77.02 639.97L76.68 639.98L75.76 640.01L75.6 640L75.47 640.01L74.86 639.99L74.3 639.99L74.17 639.98L73.92 639.97L73.07 639.92L72.85 639.91L72.78 639.91L72.38 639.88L70.87 639.73L69.37 639.51L67.89 639.24L66.43 638.91L64.99 638.53L63.58 638.08L62.19 637.59L60.82 637.04L59.48 636.45L58.17 635.8L57.77 635.58L57.67 635.53L57.46 635.41L56.89 635.1L56.62 634.94L56.4 634.82L55.96 634.55L55.64 634.36L55.49 634.26L55.16 634.06L54.51 633.63L54.43 633.57L54.39 633.54L53.94 633.25L52.75 632.39L51.6 631.48L50.48 630.52L49.39 629.52L48.34 628.46L47.32 627.37L46.35 626.22L45.41 625.03L45.11 624.61L45.09 624.59L45.05 624.52L44.52 623.79L44.32 623.5L44.26 623.4L44.06 623.1L43.67 622.51L43.56 622.33L43.47 622.18L43.09 621.55L42.87 621.18L42.82 621.1L42.72 620.93L42.17 619.91L42.12 619.82L42.11 619.81L42.03 619.65L41.38 618.34L40.78 617.01L40.24 615.64L39.74 614.25L39.3 612.84L39.29 612.8L39.29 612.8L39.11 612.1L38.92 611.4L38.91 611.38L38.91 611.36L38.58 609.92L38.32 608.47L38.11 607.01L37.96 605.56L37.95 605.45L37.95 605.44L37.94 605.37L37.86 604.1L37.86 603.96L37.85 603.91L37.85 603.57L37.82 602.64L37.83 602.48L37.82 602.36L37.82 602.36L37.84 37.65L37.85 37.51L37.84 37.36L37.87 36.44L37.87 36.1L37.88 36.04L37.88 35.9L37.96 34.63L37.97 34.56L37.97 34.55L37.98 34.45L38.13 32.99L38.34 31.53L38.6 30.08L38.61 30.06L38.61 30.06L38.93 28.64L38.93 28.63L38.94 28.6L39.32 27.17L39.76 25.75L40.26 24.36L40.8 23L41.4 21.66L42.05 20.35L42.13 20.2L42.14 20.18L42.19 20.09L42.74 19.07L42.84 18.91L42.89 18.82L43.11 18.46L43.49 17.82L43.58 17.68L43.69 17.5L44.08 16.91L44.28 16.6L44.35 16.51L44.54 16.21L45.07 15.48L45.11 15.42L45.13 15.39L45.43 14.98L46.37 13.78L47.34 12.64L48.36 11.54L49.41 10.49L50.5 9.48L51.62 8.53L52.78 7.62L53.96 6.76L54.41 6.46L54.45 6.43L54.53 6.38L55.18 5.95L55.52 5.74L55.67 5.64L55.98 5.46L56.42 5.19L56.65 5.06L56.92 4.9L57.48 4.6L57.69 4.48L57.8 4.42L58.2 4.2L59.51 3.56L60.84 2.96L62.21 2.41L63.6 1.92L65.01 1.48L66.45 1.09L67.91 0.77L69.39 0.49L70.89 0.28L72.41 0.12L72.81 0.1L72.88 0.09L73.09 0.08L73.94 0.03L74.2 0.03L74.33 0.02L74.88 0.01L75.49 0L75.63 0L75.78 0Z" id="ajnooAeGs"></path></defs><g><g><g><use xlink:href="#ajnooAeGs" opacity="1" fill="#000000" fill-opacity="1"></use></g></g></g></svg>