<?xml version="1.0" encoding="UTF-8" standalone="no"?>
<!DOCTYPE svg PUBLIC "-//W3C//DTD SVG 1.1//EN" "http://www.w3.org/Graphics/SVG/1.1/DTD/svg11.dtd">
<svg version="1.1" xmlns="http://www.w3.org/2000/svg" xmlns:xlink="http://www.w3.org/1999/xlink" preserveAspectRatio="xMidYMid meet" viewBox="0 0 640 640" width="640" height="640"><defs><path d="M174.8 0.12L176.04 0.27L177.28 0.48L178.51 0.75L179.73 1.07L180.93 1.46L182.12 1.91L183.29 2.42L184.44 2.99L185.56 3.61L186.66 4.3L187.73 5.05L188.78 5.85L189.78 6.72L190.76 7.64L190.76 7.64L486.17 303.06L486.17 303.06L487.09 304.03L487.96 305.04L488.77 306.08L489.51 307.15L490.2 308.25L490.83 309.38L491.39 310.52L491.9 311.69L492.35 312.88L492.74 314.08L493.06 315.3L493.33 316.53L493.54 317.77L493.69 319.02L493.78 320.27L493.81 321.52L493.78 322.77L493.69 324.02L493.54 325.27L493.33 326.51L493.06 327.74L492.74 328.96L492.35 330.16L491.9 331.35L491.39 332.52L490.83 333.67L490.2 334.79L489.51 335.89L488.77 336.96L487.96 338L487.09 339.01L486.17 339.98L486.17 339.98L467.71 358.45L467.71 358.45L190.76 635.4L189.78 636.32L188.78 637.19L187.73 638L186.66 638.74L185.56 639.43L184.44 640.06L183.29 640.62L182.12 641.13L180.93 641.58L179.73 641.97L178.51 642.29L177.28 642.56L176.04 642.77L174.8 642.92L173.55 643.01L172.29 643.04L171.04 643.01L169.79 642.92L168.55 642.77L167.31 642.56L166.08 642.29L164.86 641.97L163.65 641.58L162.47 641.13L161.3 640.62L160.15 640.06L159.03 639.43L157.93 638.74L156.85 638L155.81 637.19L154.81 636.32L153.83 635.4L152.91 634.42L152.04 633.42L151.23 632.38L150.49 631.3L149.8 630.2L149.17 629.08L148.61 627.93L148.1 626.76L147.65 625.57L147.26 624.37L146.94 623.15L146.67 621.92L146.46 620.68L146.31 619.44L146.22 618.19L146.19 616.94L146.22 615.68L146.31 614.43L146.46 613.19L146.67 611.95L146.94 610.72L147.26 609.5L147.65 608.3L148.1 607.11L148.61 605.94L149.17 604.79L149.8 603.67L150.49 602.57L151.23 601.49L152.04 600.45L152.91 599.45L153.83 598.47L412.32 339.98L430.78 321.52L412.32 303.06L412.32 303.06L153.83 44.57L153.83 44.57L152.91 43.6L152.04 42.59L151.23 41.55L150.49 40.48L149.8 39.38L149.17 38.25L148.61 37.1L148.1 35.93L147.65 34.75L147.26 33.54L146.94 32.32L146.67 31.09L146.46 29.86L146.31 28.61L146.22 27.36L146.19 26.11L146.22 24.85L146.31 23.6L146.46 22.36L146.67 21.12L146.94 19.89L147.26 18.67L147.65 17.47L148.1 16.28L148.61 15.11L149.17 13.96L149.8 12.84L150.49 11.74L151.23 10.67L152.04 9.62L152.91 8.62L153.83 7.64L154.81 6.72L155.81 5.85L156.85 5.05L157.93 4.3L159.03 3.61L160.15 2.99L161.3 2.42L162.47 1.91L163.65 1.46L164.86 1.07L166.08 0.75L167.31 0.48L168.55 0.27L169.79 0.12L171.04 0.03L172.29 0L173.55 0.03L174.8 0.12Z" id="aF861qXNF"></path></defs><g><g><g><use xlink:href="#aF861qXNF" opacity="1" fill="#000000" fill-opacity="1"></use></g></g></g></svg>