<?xml version="1.0" encoding="UTF-8" standalone="no"?>
<!DOCTYPE svg PUBLIC "-//W3C//DTD SVG 1.1//EN" "http://www.w3.org/Graphics/SVG/1.1/DTD/svg11.dtd">
<svg version="1.1" xmlns="http://www.w3.org/2000/svg" xmlns:xlink="http://www.w3.org/1999/xlink" preserveAspectRatio="xMidYMid meet" viewBox="0 0 640 640" width="640" height="640"><defs><path d="M324.02 146.31L325.27 146.46L326.51 146.67L327.74 146.94L328.96 147.26L330.16 147.65L331.35 148.1L332.52 148.61L333.67 149.17L334.79 149.8L335.89 150.49L336.96 151.23L338 152.04L339.01 152.91L339.98 153.83L339.99 153.84L358.45 172.3L635.4 449.24L635.4 449.24L636.32 450.22L637.19 451.22L638 452.27L638.74 453.34L639.43 454.44L640.06 455.56L640.62 456.71L641.13 457.88L641.58 459.07L641.97 460.27L642.29 461.49L642.56 462.72L642.77 463.96L642.92 465.2L643.01 466.45L643.04 467.71L643.01 468.96L642.92 470.21L642.77 471.45L642.56 472.69L642.29 473.92L641.97 475.14L641.58 476.35L641.13 477.53L640.62 478.7L640.06 479.85L639.43 480.97L638.74 482.07L638 483.15L637.19 484.19L636.32 485.19L635.4 486.17L634.42 487.09L633.42 487.96L632.38 488.77L631.3 489.51L630.2 490.2L629.08 490.83L627.93 491.39L626.76 491.9L625.57 492.35L624.37 492.74L623.15 493.06L621.92 493.33L620.68 493.54L619.44 493.69L618.19 493.78L616.94 493.81L615.68 493.78L614.43 493.69L613.19 493.54L611.95 493.33L610.72 493.06L609.5 492.74L608.3 492.35L607.11 491.9L605.94 491.39L604.79 490.83L603.67 490.2L602.57 489.51L601.49 488.77L600.45 487.96L599.45 487.09L598.47 486.17L321.52 209.22L321.52 209.22L44.57 486.17L43.6 487.09L42.59 487.96L41.55 488.77L40.48 489.51L39.38 490.2L38.25 490.83L37.1 491.39L35.93 491.9L34.75 492.35L33.54 492.74L32.32 493.06L31.09 493.33L29.86 493.54L28.61 493.69L27.36 493.78L26.11 493.81L24.85 493.78L23.6 493.69L22.36 493.54L21.12 493.33L19.89 493.06L18.67 492.74L17.47 492.35L16.28 491.9L15.11 491.39L13.96 490.83L12.84 490.2L11.74 489.51L10.67 488.77L9.62 487.96L8.62 487.09L7.64 486.17L6.72 485.19L5.85 484.19L5.05 483.15L4.3 482.07L3.61 480.97L2.99 479.85L2.42 478.7L1.91 477.53L1.46 476.35L1.07 475.14L0.75 473.92L0.48 472.69L0.27 471.45L0.12 470.21L0.03 468.96L0 467.71L0.03 466.45L0.12 465.2L0.27 463.96L0.48 462.72L0.75 461.49L1.07 460.27L1.46 459.07L1.91 457.88L2.42 456.71L2.99 455.56L3.61 454.44L4.3 453.34L5.05 452.27L5.85 451.22L6.72 450.22L7.64 449.24L7.64 449.24L266.13 190.76L266.13 190.76L303.06 153.83L303.06 153.83L304.03 152.91L305.04 152.04L306.08 151.23L307.15 150.49L308.25 149.8L309.38 149.17L310.52 148.61L311.69 148.1L312.88 147.65L314.08 147.26L315.3 146.94L316.53 146.67L317.77 146.46L319.02 146.31L320.27 146.22L321.52 146.19L322.77 146.22L324.02 146.31Z" id="f33wgDXmBh"></path></defs><g><g><g><use xlink:href="#f33wgDXmBh" opacity="1" fill="#000000" fill-opacity="1"></use></g></g></g></svg>