<?xml version="1.0" encoding="UTF-8" standalone="no"?>
<!DOCTYPE svg PUBLIC "-//W3C//DTD SVG 1.1//EN" "http://www.w3.org/Graphics/SVG/1.1/DTD/svg11.dtd">
<svg version="1.1" xmlns="http://www.w3.org/2000/svg" xmlns:xlink="http://www.w3.org/1999/xlink" preserveAspectRatio="xMidYMid meet" viewBox="0 0 640 640" width="640" height="640"><defs><path d="M321.17 37.85L321.32 37.86L321.75 37.87L322.58 37.92L322.62 37.92L322.64 37.92L323.2 37.96L324.66 38.11L326.12 38.32L327.57 38.59L329.01 38.91L330.45 39.3L331.88 39.74L333.3 40.25L334.7 40.81L336.09 41.44L336.45 41.61L336.51 41.64L336.72 41.75L337.47 42.12L337.69 42.25L337.81 42.3L338.29 42.58L338.83 42.87L338.94 42.94L339.07 43.02L339.86 43.49L340.15 43.67L340.2 43.71L340.32 43.78L341.37 44.48L341.44 44.52L341.44 44.53L341.53 44.59L342.72 45.45L343.87 46.35L345 47.31L346.08 48.32L346.09 48.32L346.11 48.34L347.16 49.39L348.17 50.48L349.12 51.6L350.03 52.76L350.89 53.95L351.7 55.16L351.8 55.32L351.8 55.32L351.84 55.38L352.46 56.4L352.56 56.58L352.61 56.65L352.61 56.66L634.96 545.7L635.02 545.8L635.11 545.95L635.61 546.88L635.71 547.06L635.72 547.09L635.8 547.23L636.45 548.54L637.05 549.88L637.59 551.24L638.09 552.63L638.53 554.04L638.91 555.48L638.92 555.5L638.92 555.52L639.25 556.96L639.51 558.41L639.72 559.87L639.87 561.32L639.88 561.43L639.88 561.44L639.88 561.49L639.97 562.78L639.97 562.92L639.97 562.97L639.98 563.32L640.01 564.24L640 564.39L640.01 564.52L639.99 565.14L639.99 565.69L639.98 565.82L639.97 566.08L639.92 566.92L639.91 567.14L639.91 567.21L639.88 567.61L639.73 569.13L639.51 570.63L639.24 572.11L638.91 573.57L638.53 575L638.09 576.42L637.59 577.81L637.05 579.17L636.45 580.51L635.8 581.82L635.58 582.22L635.53 582.33L635.41 582.54L635.11 583.1L634.94 583.37L634.82 583.6L634.55 584.04L634.36 584.35L634.26 584.5L634.06 584.84L633.63 585.48L633.57 585.57L633.54 585.61L633.25 586.05L632.39 587.24L631.48 588.39L630.52 589.52L629.52 590.61L628.47 591.66L627.37 592.67L626.22 593.65L625.03 594.58L624.61 594.88L624.59 594.9L624.52 594.95L623.79 595.48L623.5 595.67L623.4 595.74L623.1 595.94L622.51 596.32L622.33 596.43L622.18 596.53L621.55 596.91L621.18 597.13L621.1 597.17L620.93 597.27L619.91 597.83L619.82 597.88L619.81 597.88L619.65 597.97L618.34 598.61L617.01 599.21L615.64 599.76L614.25 600.25L612.84 600.69L611.4 601.08L611.38 601.08L611.37 601.09L609.94 601.41L609.92 601.41L608.47 601.68L607.02 601.89L605.56 602.04L605.45 602.05L605.44 602.05L605.37 602.05L604.1 602.13L603.96 602.14L603.91 602.14L603.56 602.15L602.64 602.17L602.49 602.17L602.36 602.17L37.65 602.17L37.51 602.17L37.36 602.17L36.45 602.15L36.1 602.14L36.04 602.14L35.9 602.13L34.63 602.05L34.56 602.05L34.55 602.05L34.45 602.04L32.99 601.89L31.54 601.68L30.09 601.41L30.06 601.41L28.64 601.09L28.63 601.08L28.6 601.08L27.17 600.69L25.75 600.25L24.36 599.76L23 599.21L21.66 598.61L20.35 597.97L20.2 597.88L20.18 597.88L20.09 597.83L19.07 597.27L18.91 597.17L18.82 597.13L18.46 596.91L17.82 596.53L17.68 596.43L17.5 596.32L16.91 595.94L16.6 595.74L16.51 595.67L16.21 595.48L15.48 594.95L15.42 594.9L15.39 594.88L14.98 594.58L13.79 593.65L12.64 592.67L11.54 591.66L10.49 590.61L9.48 589.52L8.53 588.39L7.62 587.24L6.76 586.05L6.46 585.61L6.43 585.57L6.38 585.48L5.95 584.84L5.74 584.5L5.64 584.35L5.46 584.04L5.19 583.6L5.06 583.37L4.9 583.1L4.6 582.54L4.48 582.33L4.42 582.22L4.2 581.82L3.56 580.51L2.96 579.17L2.41 577.81L1.92 576.42L1.48 575L1.09 573.57L0.77 572.11L0.49 570.63L0.28 569.13L0.12 567.61L0.1 567.21L0.09 567.14L0.08 566.92L0.03 566.08L0.03 565.82L0.02 565.69L0.01 565.14L0 564.52L0 564.39L0 564.24L0.02 563.32L0.03 562.97L0.04 562.92L0.04 562.78L0.12 561.49L0.12 561.44L0.13 561.43L0.13 561.32L0.28 559.87L0.49 558.41L0.76 556.96L1.09 555.52L1.09 555.5L1.09 555.48L1.48 554.04L1.92 552.63L2.41 551.24L2.96 549.88L3.56 548.54L4.2 547.23L4.28 547.09L4.3 547.06L4.39 546.88L4.9 545.95L4.99 545.8L5.04 545.7L5.04 545.7L287.4 56.66L287.4 56.66L287.4 56.65L287.4 56.65L287.44 56.59L287.54 56.4L288.17 55.38L288.2 55.32L288.21 55.32L288.3 55.16L289.11 53.95L289.97 52.76L290.88 51.6L291.84 50.48L292.84 49.39L293.9 48.34L293.92 48.32L293.92 48.32L295.01 47.31L296.13 46.35L297.29 45.45L298.47 44.59L298.56 44.53L298.57 44.52L298.64 44.48L299.69 43.78L299.81 43.71L299.85 43.67L300.15 43.49L300.93 43.02L301.06 42.94L301.18 42.87L301.71 42.58L302.2 42.3L302.32 42.25L302.54 42.12L303.29 41.75L303.49 41.64L303.56 41.61L303.91 41.44L305.31 40.81L306.71 40.25L308.13 39.74L309.56 39.3L310.99 38.91L312.44 38.59L313.89 38.32L315.34 38.11L316.8 37.96L317.37 37.92L317.39 37.92L317.42 37.92L318.26 37.87L318.69 37.86L318.84 37.85L319.14 37.84L319.72 37.83L320 37.83L320.29 37.83L320.87 37.84L321.17 37.85Z" id="bLawYb8e3"></path></defs><g><g><g><use xlink:href="#bLawYb8e3" opacity="1" fill="#000000" fill-opacity="1"></use></g></g></g></svg>