<?xml version="1.0" encoding="UTF-8" standalone="no"?>
<!DOCTYPE svg PUBLIC "-//W3C//DTD SVG 1.1//EN" "http://www.w3.org/Graphics/SVG/1.1/DTD/svg11.dtd">
<svg version="1.1" xmlns="http://www.w3.org/2000/svg" xmlns:xlink="http://www.w3.org/1999/xlink" preserveAspectRatio="xMidYMid meet" viewBox="0 0 640 640" width="640" height="640"><defs><path d="M65.22 631.46L63.92 632.44L62.59 633.35L61.24 634.21L59.86 635.01L58.45 635.75L57.02 636.42L55.57 637.05L54.1 637.61L52.62 638.11L51.12 638.55L49.61 638.94L48.09 639.26L46.56 639.53L45.02 639.73L43.47 639.88L41.92 639.97L40.37 640L38.82 639.97L37.27 639.88L35.73 639.73L34.19 639.53L32.66 639.26L31.14 638.94L29.62 638.55L28.13 638.11L26.64 637.61L25.17 637.05L23.73 636.42L22.3 635.75L20.89 635.01L19.51 634.21L18.15 633.35L16.82 632.44L15.52 631.46L14.25 630.43L13.02 629.33L11.82 628.18L10.67 626.98L9.57 625.75L8.54 624.48L7.56 623.18L6.65 621.85L5.79 620.49L4.99 619.11L4.25 617.7L3.58 616.27L2.95 614.83L2.39 613.36L1.89 611.87L1.45 610.38L1.06 608.86L0.74 607.34L0.47 605.81L0.27 604.27L0.12 602.73L0.03 601.18L0 599.63L0.03 598.08L0.12 596.53L0.27 594.98L0.47 593.44L0.74 591.91L1.06 590.39L1.45 588.88L1.89 587.38L2.39 585.9L2.95 584.43L3.58 582.98L4.25 581.55L4.99 580.14L5.79 578.76L6.65 577.41L7.56 576.08L8.54 574.78L9.57 573.51L10.67 572.27L11.82 571.07L502.13 80.76L155.43 80.76L153.76 80.73L152.12 80.63L150.49 80.46L148.88 80.23L147.29 79.94L145.73 79.59L144.19 79.17L142.67 78.7L141.18 78.17L139.72 77.59L138.28 76.95L136.88 76.25L135.5 75.51L134.16 74.71L132.86 73.86L131.59 72.97L130.35 72.02L129.15 71.04L128 70L126.88 68.93L125.8 67.81L124.77 66.65L123.78 65.46L122.84 64.22L121.95 62.95L121.1 61.65L120.3 60.3L119.56 58.93L118.86 57.53L118.22 56.09L117.64 54.63L117.11 53.14L116.64 51.62L116.22 50.08L115.87 48.51L115.58 46.93L115.35 45.32L115.18 43.69L115.08 42.04L115.05 40.38L115.08 38.72L115.18 37.07L115.35 35.44L115.58 33.83L115.87 32.25L116.22 30.68L116.64 29.14L117.11 27.62L117.64 26.13L118.22 24.67L118.86 23.23L119.56 21.83L120.3 20.46L121.1 19.12L121.95 17.81L122.84 16.54L123.78 15.3L124.77 14.11L125.8 12.95L126.88 11.83L128 10.76L129.15 9.73L130.35 8.74L131.59 7.8L132.86 6.9L134.16 6.05L135.5 5.26L136.88 4.51L138.28 3.82L139.72 3.18L141.18 2.59L142.67 2.06L144.19 1.59L145.73 1.17L147.29 0.82L148.88 0.53L150.49 0.3L152.12 0.13L153.76 0.03L155.43 0L599.62 0L601.28 0.03L602.93 0.13L604.56 0.3L606.17 0.53L607.75 0.82L609.32 1.17L610.86 1.59L612.38 2.06L613.87 2.59L615.33 3.18L616.77 3.82L618.17 4.51L619.54 5.26L620.88 6.05L622.19 6.9L623.46 7.8L624.7 8.74L625.89 9.73L627.05 10.76L628.17 11.83L629.24 12.95L630.27 14.11L631.26 15.3L632.2 16.54L633.1 17.81L633.95 19.12L634.74 20.46L635.49 21.83L636.18 23.23L636.82 24.67L637.41 26.13L637.94 27.62L638.41 29.14L638.83 30.68L639.18 32.25L639.47 33.83L639.7 35.44L639.87 37.07L639.97 38.72L640 40.38L640 484.57L639.97 486.24L639.87 487.88L639.7 489.51L639.47 491.12L639.18 492.71L638.83 494.27L638.41 495.81L637.94 497.33L637.41 498.82L636.82 500.28L636.18 501.72L635.49 503.12L634.74 504.5L633.95 505.84L633.1 507.14L632.2 508.41L631.26 509.65L630.27 510.85L629.24 512L628.17 513.12L627.05 514.2L625.89 515.23L624.7 516.22L623.46 517.16L622.19 518.05L620.88 518.9L619.54 519.7L618.17 520.44L616.77 521.14L615.33 521.78L613.87 522.36L612.38 522.89L610.86 523.36L609.32 523.78L607.75 524.13L606.17 524.42L604.56 524.65L602.93 524.82L601.28 524.92L599.62 524.95L597.96 524.92L596.31 524.82L594.68 524.65L593.07 524.42L591.49 524.13L589.92 523.78L588.38 523.36L586.86 522.89L585.37 522.36L583.91 521.78L582.47 521.14L581.07 520.44L579.7 519.7L578.35 518.9L577.05 518.05L575.78 517.16L574.54 516.22L573.35 515.23L572.19 514.2L571.07 513.12L570 512L568.96 510.85L567.98 509.65L567.03 508.41L566.14 507.14L565.29 505.84L564.49 504.5L563.75 503.12L563.05 501.72L562.41 500.28L561.83 498.82L561.3 497.33L560.83 495.81L560.41 494.27L560.06 492.71L559.77 491.12L559.54 489.51L559.37 487.88L559.27 486.24L559.24 484.57L559.24 137.87L68.93 628.18L67.73 629.33L66.49 630.43L65.22 631.46Z" id="a4DTdOgJul"></path></defs><g><g><g><use xlink:href="#a4DTdOgJul" opacity="1" fill="#000000" fill-opacity="1"></use></g></g></g></svg>