<?xml version="1.0" encoding="UTF-8" standalone="no"?>
<!DOCTYPE svg PUBLIC "-//W3C//DTD SVG 1.1//EN" "http://www.w3.org/Graphics/SVG/1.1/DTD/svg11.dtd">
<svg version="1.1" xmlns="http://www.w3.org/2000/svg" xmlns:xlink="http://www.w3.org/1999/xlink" preserveAspectRatio="xMidYMid meet" viewBox="0 0 640 640" width="640" height="640"><defs><path d="M225.45 14.55C225.68 110.69 177.19 159.17 80 160" id="b1kEFeH0ng"></path><path d="M210.91 14.55L240 14.55L240 305.45L210.91 305.45L210.91 14.55Z" id="d9Iwxcc44"></path><path d="M240 305.45L443.64 305.45L443.64 334.55L240 334.55L240 305.45Z" id="bSFYeHF4v"></path><path d="M443.64 334.55L472.73 334.55L472.73 610.91L443.64 610.91L443.64 334.55Z" id="a1aJTekKDQ"></path><path d="M225.45 305.45L254.55 305.45L254.55 334.55L225.45 334.55L225.45 305.45Z" id="b4AFLMhjH7"></path><path d="M210.91 290.91L240 290.91L240 320L210.91 320L210.91 290.91Z" id="b1guOyYoWw"></path><path d="M240 320C240 328.03 233.48 334.55 225.45 334.55C217.43 334.55 210.91 328.03 210.91 320C210.91 311.97 217.43 305.45 225.45 305.45C233.48 305.45 240 311.97 240 320Z" id="e8sDKxX4h"></path><path d="M240 14.55C240 22.57 233.48 29.09 225.45 29.09C217.43 29.09 210.91 22.57 210.91 14.55C210.91 6.52 217.43 0 225.45 0C233.48 0 240 6.52 240 14.55Z" id="aCPgXiHxT"></path><path d="M94.55 160C94.55 168.03 88.03 174.55 80 174.55C71.97 174.55 65.45 168.03 65.45 160C65.45 151.97 71.97 145.45 80 145.45C88.03 145.45 94.55 151.97 94.55 160Z" id="aFBehu9zx"></path><path d="M429.09 305.45L458.18 305.45L458.18 334.55L429.09 334.55L429.09 305.45Z" id="b5jpYpoTrM"></path><path d="M443.64 320L472.73 320L472.73 349.09L443.64 349.09L443.64 320Z" id="b5BNlUKJcC"></path><path d="M472.73 320C472.73 328.03 466.21 334.55 458.18 334.55C450.15 334.55 443.64 328.03 443.64 320C443.64 311.97 450.15 305.45 458.18 305.45C466.21 305.45 472.73 311.97 472.73 320Z" id="dwc1rmZOD"></path><path d="M472.21 265.68L471.82 266.89L471.32 268.05L470.74 269.16L470.06 270.2L469.3 271.19L468.46 272.1L467.55 272.94L466.57 273.7L465.52 274.38L464.41 274.96L463.25 275.45L462.05 275.84L460.79 276.13L459.5 276.3L458.18 276.36L456.86 276.3L455.57 276.13L454.32 275.84L453.11 275.45L451.95 274.96L450.84 274.38L449.79 273.7L448.81 272.94L447.9 272.1L447.06 271.19L446.3 270.2L445.62 269.16L445.04 268.05L444.55 266.89L444.16 265.68L443.87 264.43L443.69 263.14L443.64 261.82L443.64 14.55L443.69 13.22L443.87 11.93L444.16 10.68L444.55 9.47L445.04 8.31L445.62 7.21L446.3 6.16L447.06 5.18L447.9 4.26L448.81 3.42L449.79 2.66L450.84 1.99L451.95 1.4L453.11 0.91L454.32 0.52L455.57 0.23L456.86 0.06L458.18 0L560 0L561.32 0.06L562.61 0.23L563.86 0.52L565.07 0.91L566.23 1.4L567.34 1.99L568.38 2.66L569.37 3.42L570.28 4.26L571.12 5.18L571.88 6.16L572.56 7.21L573.14 8.31L573.63 9.47L574.02 10.68L574.31 11.93L574.48 13.22L574.54 14.55L574.48 15.87L574.31 17.16L574.02 18.41L573.63 19.62L573.14 20.78L572.56 21.88L571.88 22.93L571.12 23.91L570.28 24.83L569.37 25.67L568.38 26.43L567.34 27.1L566.23 27.69L565.07 28.18L563.86 28.57L562.61 28.86L561.32 29.03L560 29.09L472.73 29.09L472.73 261.82L472.67 263.14L472.49 264.43L472.21 265.68Z" id="b55IqXHkv8"></path><path d="M472.73 610.91L560 610.91L560 640L472.73 640L472.73 610.91Z" id="a5qdE0t3i"></path><path d="M443.64 596.36L472.73 596.36L472.73 625.45L443.64 625.45L443.64 596.36Z" id="c1ddXr8l0L"></path><path d="M458.18 610.91L487.27 610.91L487.27 640L458.18 640L458.18 610.91Z" id="dJcrtloj5"></path><path d="M472.73 625.45C472.73 633.48 466.21 640 458.18 640C450.15 640 443.64 633.48 443.64 625.45C443.64 617.43 450.15 610.91 458.18 610.91C466.21 610.91 472.73 617.43 472.73 625.45Z" id="a2m8vAIgr0"></path><path d="M574.54 625.45C574.54 633.48 568.03 640 560 640C551.97 640 545.45 633.48 545.45 625.45C545.45 617.43 551.97 610.91 560 610.91C568.03 610.91 574.54 617.43 574.54 625.45Z" id="a3J9B9tNky"></path><path d="M239.77 628.07L239.48 629.32L239.09 630.53L238.6 631.69L238.01 632.79L237.34 633.84L236.58 634.82L235.74 635.74L234.82 636.58L233.84 637.34L232.79 638.01L231.69 638.6L230.53 639.09L229.32 639.48L228.07 639.77L226.78 639.94L225.45 640L123.64 640L122.31 639.94L121.02 639.77L119.77 639.48L118.56 639.09L117.4 638.6L116.3 638.01L115.25 637.34L114.27 636.58L113.35 635.74L112.51 634.82L111.75 633.84L111.08 632.79L110.49 631.69L110 630.53L109.61 629.32L109.33 628.07L109.15 626.78L109.09 625.45L109.15 624.13L109.33 622.84L109.61 621.59L110 620.38L110.49 619.22L111.08 618.12L111.75 617.07L112.51 616.09L113.35 615.17L114.27 614.33L115.25 613.57L116.3 612.9L117.4 612.31L118.56 611.82L119.77 611.43L121.02 611.14L122.31 610.97L123.64 610.91L210.91 610.91L210.91 378.18L210.97 376.86L211.14 375.57L211.43 374.32L211.82 373.11L212.31 371.95L212.9 370.84L213.57 369.8L214.33 368.81L215.17 367.9L216.09 367.06L217.07 366.3L218.12 365.62L219.22 365.04L220.38 364.55L221.59 364.16L222.84 363.87L224.13 363.7L225.45 363.64L226.78 363.7L228.07 363.87L229.32 364.16L230.53 364.55L231.69 365.04L232.79 365.62L233.84 366.3L234.82 367.06L235.74 367.9L236.58 368.81L237.34 369.8L238.01 370.84L238.6 371.95L239.09 373.11L239.48 374.32L239.77 375.57L239.94 376.86L240 378.18L240 625.45L239.94 626.78L239.77 628.07Z" id="igbNK5nPq"></path></defs><g><g><g><g><use xlink:href="#b1kEFeH0ng" opacity="1" fill-opacity="0" stroke="#000000" stroke-width="29.09" stroke-opacity="1"></use></g></g><g><use xlink:href="#d9Iwxcc44" opacity="1" fill="#000000" fill-opacity="1"></use></g><g><use xlink:href="#bSFYeHF4v" opacity="1" fill="#000000" fill-opacity="1"></use></g><g><use xlink:href="#a1aJTekKDQ" opacity="1" fill="#000000" fill-opacity="1"></use></g><g><use xlink:href="#b4AFLMhjH7" opacity="1" fill="#000000" fill-opacity="1"></use></g><g><use xlink:href="#b1guOyYoWw" opacity="1" fill="#000000" fill-opacity="1"></use></g><g><use xlink:href="#e8sDKxX4h" opacity="1" fill="#000000" fill-opacity="1"></use></g><g><use xlink:href="#aCPgXiHxT" opacity="1" fill="#000000" fill-opacity="1"></use></g><g><use xlink:href="#aFBehu9zx" opacity="1" fill="#000000" fill-opacity="1"></use></g><g><use xlink:href="#b5jpYpoTrM" opacity="1" fill="#000000" fill-opacity="1"></use></g><g><use xlink:href="#b5BNlUKJcC" opacity="1" fill="#000000" fill-opacity="1"></use></g><g><use xlink:href="#dwc1rmZOD" opacity="1" fill="#000000" fill-opacity="1"></use></g><g><use xlink:href="#b55IqXHkv8" opacity="1" fill="#000000" fill-opacity="1"></use></g><g><use xlink:href="#a5qdE0t3i" opacity="1" fill="#000000" fill-opacity="1"></use></g><g><use xlink:href="#c1ddXr8l0L" opacity="1" fill="#000000" fill-opacity="1"></use></g><g><use xlink:href="#dJcrtloj5" opacity="1" fill="#000000" fill-opacity="1"></use></g><g><use xlink:href="#a2m8vAIgr0" opacity="1" fill="#000000" fill-opacity="1"></use></g><g><use xlink:href="#a3J9B9tNky" opacity="1" fill="#000000" fill-opacity="1"></use></g><g><use xlink:href="#igbNK5nPq" opacity="1" fill="#000000" fill-opacity="1"></use></g></g></g></svg>