<?xml version="1.0" encoding="UTF-8" standalone="no"?>
<!DOCTYPE svg PUBLIC "-//W3C//DTD SVG 1.1//EN" "http://www.w3.org/Graphics/SVG/1.1/DTD/svg11.dtd">
<svg version="1.1" xmlns="http://www.w3.org/2000/svg" xmlns:xlink="http://www.w3.org/1999/xlink" preserveAspectRatio="xMidYMid meet" viewBox="0 0 640 640" width="640" height="640"><defs><path d="M185.38 234.1L205.38 234.1L205.38 384.1L185.38 384.1L185.38 234.1Z" id="a1a8nSnqKa"></path><path d="M205.38 384.1L305.38 384.1L305.38 404.1L205.38 404.1L205.38 384.1Z" id="fwBfEulVw"></path><path d="M185.38 374.1L205.38 374.1L205.38 394.1L185.38 394.1L185.38 374.1Z" id="b6eFkK4C23"></path><path d="M195.38 384.1L215.38 384.1L215.38 404.1L195.38 404.1L195.38 384.1Z" id="a6c0UGkZ8"></path><path d="M205.38 394.1C205.38 399.62 200.9 404.1 195.38 404.1C189.87 404.1 185.38 399.62 185.38 394.1C185.38 388.58 189.87 384.1 195.38 384.1C200.9 384.1 205.38 388.58 205.38 394.1Z" id="d8lyfkydH"></path><path d="M305.38 255L325.38 255L325.38 385L305.38 385L305.38 255Z" id="f7BFsrMlXR"></path><path d="M205.38 214.1L285.38 214.1L285.38 234.1L205.38 234.1L205.38 214.1Z" id="kGj8OHCNn"></path><path d="M185.38 224.1L205.38 224.1L205.38 244.1L185.38 244.1L185.38 224.1Z" id="b1D4gxNdz8"></path><path d="M295.38 384.1L315.38 384.1L315.38 404.1L295.38 404.1L295.38 384.1Z" id="d9uVawX64"></path><path d="M277.72 230.15L276.99 229.04L276.42 227.86L276.02 226.64L275.77 225.38L275.69 224.1L275.77 222.82L276.02 221.56L276.42 220.34L276.99 219.16L277.72 218.05L278.62 217.03L279.64 216.14L280.75 215.4L281.92 214.83L283.15 214.43L284.41 214.18L285.69 214.1L286.97 214.18L288.23 214.43L289.45 214.83L290.63 215.4L291.74 216.14L292.76 217.03L322.46 246.73L322.46 246.73L323.35 247.75L324.08 248.86L324.65 250.04L325.06 251.26L325.3 252.52L325.38 253.8L325.3 255.08L325.06 256.34L324.65 257.56L324.08 258.74L323.35 259.85L322.46 260.87L321.43 261.76L320.33 262.5L319.15 263.07L317.92 263.47L316.66 263.72L315.39 263.8L314.11 263.72L312.85 263.47L311.62 263.07L310.45 262.5L309.34 261.76L308.32 260.87L278.62 231.17L278.62 231.17L277.72 230.15Z" id="d1gtrN6wV2"></path><path d="M325.38 255C325.38 260.52 320.9 265 315.38 265C309.87 265 305.38 260.52 305.38 255C305.38 249.48 309.87 245 315.38 245C320.9 245 325.38 249.48 325.38 255Z" id="c3EPiQULs7"></path><path d="M295.38 224.1C295.38 229.62 290.9 234.1 285.38 234.1C279.87 234.1 275.38 229.62 275.38 224.1C275.38 218.58 279.87 214.1 285.38 214.1C290.9 214.1 295.38 218.58 295.38 224.1Z" id="c2gFxE55Nr"></path><path d="M305.38 374.1L325.38 374.1L325.38 394.1L305.38 394.1L305.38 374.1Z" id="dq2NybJA0"></path><path d="M195.38 214.1L215.38 214.1L215.38 234.1L195.38 234.1L195.38 214.1Z" id="a6ZqXHIx6l"></path><path d="M325.38 394.1C325.38 399.62 320.9 404.1 315.38 404.1C309.87 404.1 305.38 399.62 305.38 394.1C305.38 388.58 309.87 384.1 315.38 384.1C320.9 384.1 325.38 388.58 325.38 394.1Z" id="a3cX546fh"></path><path d="M205.38 224.1C205.38 229.62 200.9 234.1 195.38 234.1C189.87 234.1 185.38 229.62 185.38 224.1C185.38 218.58 189.87 214.1 195.38 214.1C200.9 214.1 205.38 218.58 205.38 224.1Z" id="b1Y2j1emtY"></path><path d="M255.38 234.1L275.38 234.1L275.38 264.1L255.38 264.1L255.38 234.1Z" id="beEsKlqHp"></path><path d="M305.38 264.1L305.38 284.1L275.38 284.1L275.38 264.1L305.38 264.1Z" id="dAdaS5SSb"></path><path d="M265.38 264.1L285.38 264.1L285.38 284.1L265.38 284.1L265.38 264.1Z" id="f2z3npbnZb"></path><path d="M255.38 253.8L275.38 253.8L275.38 273.8L255.38 273.8L255.38 253.8Z" id="a3SrPLYvOl"></path><path d="M275.38 274.1C275.38 279.62 270.9 284.1 265.38 284.1C259.87 284.1 255.38 279.62 255.38 274.1C255.38 268.58 259.87 264.1 265.38 264.1C270.9 264.1 275.38 268.58 275.38 274.1Z" id="agJxmaKoR"></path><path d="M295.38 264.1L315.38 264.1L315.38 284.1L295.38 284.1L295.38 264.1Z" id="a2CUsVpalu"></path><path d="M255.38 224.1L275.38 224.1L275.38 244.1L255.38 244.1L255.38 224.1Z" id="a47Dyr5Io"></path><path d="" id="g43hLMb0dv"></path><path d="" id="g7KZipf6Co"></path><path d="M220.27 368.63L219.1 368.08L218.05 367.34L217.15 366.43L216.41 365.39L215.85 364.22L215.51 362.95L215.38 361.6L215.51 360.26L215.85 358.99L216.41 357.82L217.15 356.77L218.05 355.87L219.1 355.13L220.27 354.57L221.54 354.22L222.88 354.1L287.88 354.1L287.88 354.1L289.23 354.22L290.5 354.57L291.67 355.13L292.72 355.87L293.62 356.77L294.36 357.82L294.92 358.99L295.26 360.26L295.38 361.6L295.26 362.95L294.92 364.22L294.36 365.39L293.62 366.43L292.72 367.34L291.67 368.08L290.5 368.63L289.23 368.98L287.88 369.1L222.88 369.1L221.54 368.98L220.27 368.63Z" id="fPndZ8uV8"></path><path d="M220.27 318.63L219.1 318.08L218.05 317.34L217.15 316.43L216.41 315.39L215.85 314.22L215.51 312.95L215.38 311.6L215.51 310.26L215.85 308.99L216.41 307.82L217.15 306.77L218.05 305.87L219.1 305.13L220.27 304.57L221.54 304.22L222.88 304.1L287.88 304.1L287.88 304.1L289.23 304.22L290.5 304.57L291.67 305.13L292.72 305.87L293.62 306.77L294.36 307.82L294.92 308.99L295.26 310.26L295.38 311.6L295.26 312.95L294.92 314.22L294.36 315.39L293.62 316.43L292.72 317.34L291.67 318.08L290.5 318.63L289.23 318.98L287.88 319.1L222.88 319.1L221.54 318.98L220.27 318.63Z" id="f3Hhs36IQ1"></path><path d="M220.27 343.63L219.1 343.08L218.05 342.34L217.15 341.43L216.41 340.39L215.85 339.22L215.51 337.95L215.38 336.6L215.51 335.26L215.85 333.99L216.41 332.82L217.15 331.77L218.05 330.87L219.1 330.13L220.27 329.57L221.54 329.22L222.88 329.1L222.88 329.1L287.88 329.1L289.23 329.22L290.5 329.57L291.67 330.13L292.72 330.87L293.62 331.77L294.36 332.82L294.92 333.99L295.26 335.26L295.38 336.6L295.26 337.95L294.92 339.22L294.36 340.39L293.62 341.43L292.72 342.34L291.67 343.08L290.5 343.63L289.23 343.98L287.88 344.1L222.88 344.1L221.54 343.98L220.27 343.63Z" id="c6dRRMg7I4"></path></defs><g><g><g><use xlink:href="#a1a8nSnqKa" opacity="1" fill="#000000" fill-opacity="1"></use></g><g><use xlink:href="#fwBfEulVw" opacity="1" fill="#000000" fill-opacity="1"></use></g><g><use xlink:href="#b6eFkK4C23" opacity="1" fill="#000000" fill-opacity="1"></use></g><g><use xlink:href="#a6c0UGkZ8" opacity="1" fill="#000000" fill-opacity="1"></use></g><g><use xlink:href="#d8lyfkydH" opacity="1" fill="#000000" fill-opacity="1"></use></g><g><use xlink:href="#f7BFsrMlXR" opacity="1" fill="#000000" fill-opacity="1"></use></g><g><use xlink:href="#kGj8OHCNn" opacity="1" fill="#000000" fill-opacity="1"></use></g><g><use xlink:href="#b1D4gxNdz8" opacity="1" fill="#000000" fill-opacity="1"></use></g><g><use xlink:href="#d9uVawX64" opacity="1" fill="#000000" fill-opacity="1"></use></g><g><use xlink:href="#d1gtrN6wV2" opacity="1" fill="#000000" fill-opacity="1"></use></g><g><use xlink:href="#c3EPiQULs7" opacity="1" fill="#000000" fill-opacity="1"></use></g><g><use xlink:href="#c2gFxE55Nr" opacity="1" fill="#000000" fill-opacity="1"></use></g><g><use xlink:href="#dq2NybJA0" opacity="1" fill="#000000" fill-opacity="1"></use></g><g><use xlink:href="#a6ZqXHIx6l" opacity="1" fill="#000000" fill-opacity="1"></use></g><g><use xlink:href="#a3cX546fh" opacity="1" fill="#000000" fill-opacity="1"></use></g><g><use xlink:href="#b1Y2j1emtY" opacity="1" fill="#000000" fill-opacity="1"></use></g><g><use xlink:href="#beEsKlqHp" opacity="1" fill="#000000" fill-opacity="1"></use></g><g><use xlink:href="#dAdaS5SSb" opacity="1" fill="#000000" fill-opacity="1"></use></g><g><use xlink:href="#f2z3npbnZb" opacity="1" fill="#000000" fill-opacity="1"></use></g><g><use xlink:href="#a3SrPLYvOl" opacity="1" fill="#000000" fill-opacity="1"></use></g><g><use xlink:href="#agJxmaKoR" opacity="1" fill="#000000" fill-opacity="1"></use></g><g><use xlink:href="#a2CUsVpalu" opacity="1" fill="#000000" fill-opacity="1"></use></g><g><use xlink:href="#a47Dyr5Io" opacity="1" fill="#000000" fill-opacity="1"></use></g><g><g><use xlink:href="#g43hLMb0dv" opacity="1" fill-opacity="0" stroke="#000000" stroke-width="10" stroke-opacity="1"></use></g></g><g><g><use xlink:href="#g7KZipf6Co" opacity="1" fill-opacity="0" stroke="#000000" stroke-width="10" stroke-opacity="1"></use></g></g><g><use xlink:href="#fPndZ8uV8" opacity="1" fill="#000000" fill-opacity="1"></use></g><g><use xlink:href="#f3Hhs36IQ1" opacity="1" fill="#000000" fill-opacity="1"></use></g><g><use xlink:href="#c6dRRMg7I4" opacity="1" fill="#000000" fill-opacity="1"></use></g></g></g></svg>