<?xml version="1.0" encoding="UTF-8" standalone="no"?>
<!DOCTYPE svg PUBLIC "-//W3C//DTD SVG 1.1//EN" "http://www.w3.org/Graphics/SVG/1.1/DTD/svg11.dtd">
<svg version="1.1" xmlns="http://www.w3.org/2000/svg" xmlns:xlink="http://www.w3.org/1999/xlink" preserveAspectRatio="xMidYMid meet" viewBox="0 0 640 640" width="640" height="640"><defs><path d="M424.66 0.1L425.95 0.22L427.23 0.39L428.51 0.62L429.78 0.89L431.04 1.21L432.29 1.58L433.53 2L434.75 2.46L435.96 2.98L437.15 3.55L438.33 4.17L439.48 4.83L440.61 5.55L441.72 6.31L442.8 7.12L443.86 7.99L444.89 8.9L445.89 9.86L545.93 109.9L546.89 110.9L547.8 111.93L548.67 112.99L549.48 114.07L550.24 115.18L550.96 116.31L551.62 117.46L552.24 118.64L552.81 119.83L553.33 121.04L553.79 122.26L554.21 123.5L554.58 124.75L554.9 126.01L555.17 127.28L555.4 128.56L555.57 129.84L555.69 131.13L555.77 132.42L555.79 133.71L555.77 135.01L555.72 135.74L555.76 136.37L555.79 137.76L555.79 606.32L555.76 607.7L555.68 609.08L555.54 610.43L555.35 611.78L555.11 613.1L554.81 614.41L554.47 615.69L554.07 616.96L553.63 618.2L553.14 619.42L552.61 620.62L552.03 621.79L551.41 622.94L550.74 624.05L550.03 625.14L549.29 626.2L548.5 627.23L547.68 628.23L546.82 629.2L545.92 630.13L544.99 631.03L544.02 631.89L543.02 632.71L541.99 633.5L540.93 634.24L539.84 634.95L538.73 635.62L537.58 636.24L536.41 636.82L535.21 637.35L533.99 637.84L532.75 638.28L531.48 638.68L530.2 639.02L528.89 639.32L527.57 639.56L526.22 639.75L524.87 639.89L523.49 639.97L522.11 640L117.89 640L116.51 639.97L115.13 639.89L113.78 639.75L112.43 639.56L111.11 639.32L109.8 639.02L108.52 638.68L107.25 638.28L106.01 637.84L104.79 637.35L103.59 636.82L102.42 636.24L101.27 635.62L100.16 634.95L99.07 634.24L98.01 633.5L96.98 632.71L95.98 631.89L95.01 631.03L94.08 630.13L93.18 629.2L92.32 628.23L91.5 627.23L90.71 626.2L89.97 625.14L89.26 624.05L88.59 622.94L87.97 621.79L87.39 620.62L86.86 619.42L86.37 618.2L85.93 616.96L85.53 615.69L85.19 614.41L84.89 613.1L84.65 611.78L84.46 610.43L84.32 609.08L84.24 607.7L84.21 606.32L84.21 606.32L84.21 33.68L84.24 32.3L84.32 30.92L84.46 29.57L84.65 28.22L84.89 26.9L85.19 25.59L85.53 24.31L85.93 23.04L86.37 21.8L86.86 20.58L87.39 19.38L87.97 18.21L88.59 17.06L89.26 15.95L89.97 14.86L90.71 13.8L91.5 12.77L92.32 11.77L93.18 10.8L94.08 9.87L95.01 8.97L95.98 8.11L96.98 7.29L98.01 6.5L99.07 5.76L100.16 5.05L101.27 4.38L102.42 3.76L103.59 3.18L104.79 2.65L106.01 2.16L107.25 1.72L108.52 1.32L109.8 0.98L111.11 0.68L112.43 0.44L113.78 0.25L115.13 0.11L116.51 0.03L117.89 0L421.05 0L421.54 0.01L422.08 0L423.37 0.02L424.66 0.1ZM151.58 572.63L488.42 572.63L488.42 235.79L353.68 235.79L352.3 235.76L350.92 235.68L349.57 235.54L348.22 235.35L346.9 235.1L345.59 234.81L344.31 234.46L343.04 234.07L341.8 233.63L340.58 233.14L339.38 232.61L338.21 232.03L337.06 231.4L335.95 230.74L334.86 230.03L333.8 229.29L332.77 228.5L331.77 227.68L330.8 226.82L329.87 225.92L328.97 224.99L328.11 224.02L327.29 223.02L326.5 221.99L325.76 220.93L325.05 219.84L324.38 218.72L323.76 217.58L323.18 216.41L322.65 215.21L322.16 213.99L321.72 212.75L321.32 211.48L320.98 210.2L320.68 208.89L320.44 207.57L320.25 206.22L320.11 204.87L320.03 203.49L320 202.11L320.02 201.08L320 201.08L320 67.37L151.58 67.37L151.58 572.63ZM430.81 471.61L432.14 471.72L433.44 471.89L434.72 472.13L435.98 472.43L437.21 472.79L438.42 473.21L439.6 473.69L440.74 474.23L441.86 474.82L442.94 475.47L443.98 476.16L444.99 476.91L445.96 477.7L446.89 478.54L447.77 479.43L448.61 480.36L449.41 481.33L450.15 482.33L450.85 483.38L451.5 484.46L452.09 485.57L452.62 486.72L453.11 487.9L453.53 489.1L453.89 490.34L454.19 491.59L454.43 492.88L454.6 494.18L454.7 495.5L454.74 496.84L454.7 498.18L454.6 499.51L454.43 500.81L454.19 502.09L453.89 503.35L453.53 504.58L453.11 505.79L452.62 506.96L452.09 508.11L451.5 509.22L450.85 510.31L450.15 511.35L449.41 512.36L448.61 513.33L447.77 514.25L446.89 515.14L445.96 515.98L444.99 516.77L443.98 517.52L442.94 518.22L441.86 518.86L440.74 519.46L439.6 519.99L438.42 520.47L437.21 520.9L435.98 521.26L434.72 521.56L433.44 521.8L432.14 521.97L430.81 522.07L429.47 522.11L429.47 522.11L210.53 522.11L209.19 522.07L207.86 521.97L206.56 521.8L205.28 521.56L204.02 521.26L202.79 520.9L201.58 520.47L200.4 519.99L199.26 519.46L198.14 518.86L197.06 518.22L196.02 517.52L195.01 516.77L194.04 515.98L193.11 515.14L192.23 514.25L191.39 513.33L190.59 512.36L189.85 511.35L189.15 510.31L188.5 509.22L187.91 508.11L187.38 506.96L186.89 505.79L186.47 504.58L186.11 503.35L185.81 502.09L185.57 500.81L185.4 499.51L185.3 498.18L185.26 496.84L185.3 495.5L185.4 494.18L185.57 492.88L185.81 491.59L186.11 490.34L186.47 489.1L186.89 487.9L187.38 486.72L187.91 485.57L188.5 484.46L189.15 483.38L189.85 482.33L190.59 481.33L191.39 480.36L192.23 479.43L193.11 478.54L194.04 477.7L195.01 476.91L196.02 476.16L197.06 475.47L198.14 474.82L199.26 474.23L200.4 473.69L201.58 473.21L202.79 472.79L204.02 472.43L205.28 472.13L206.56 471.89L207.86 471.72L209.19 471.61L210.53 471.58L429.47 471.58L429.47 471.58L430.81 471.61ZM432.14 387.51L433.44 387.68L434.72 387.92L435.98 388.22L437.21 388.58L438.42 389L439.6 389.48L440.74 390.02L441.86 390.61L442.94 391.26L443.98 391.95L444.99 392.7L445.96 393.49L446.89 394.33L447.77 395.22L448.61 396.15L449.41 397.12L450.15 398.12L450.85 399.17L451.5 400.25L452.09 401.36L452.62 402.51L453.11 403.69L453.53 404.89L453.89 406.13L454.19 407.38L454.43 408.67L454.6 409.97L454.7 411.29L454.74 412.63L454.7 413.97L454.6 415.3L454.43 416.6L454.19 417.88L453.89 419.14L453.53 420.37L453.11 421.58L452.62 422.75L452.09 423.9L451.5 425.01L450.85 426.09L450.15 427.14L449.41 428.15L448.61 429.12L447.77 430.04L446.89 430.93L445.96 431.77L444.99 432.56L443.98 433.31L442.94 434.01L441.86 434.65L440.74 435.25L439.6 435.78L438.42 436.26L437.21 436.69L435.98 437.05L434.72 437.35L433.44 437.58L432.14 437.76L430.81 437.86L429.47 437.89L210.53 437.89L209.19 437.86L207.86 437.76L206.56 437.58L205.28 437.35L204.02 437.05L202.79 436.69L201.58 436.26L200.4 435.78L199.26 435.25L198.14 434.65L197.06 434.01L196.02 433.31L195.01 432.56L194.04 431.77L193.11 430.93L192.23 430.04L191.39 429.12L190.59 428.15L189.85 427.14L189.15 426.09L188.5 425.01L187.91 423.9L187.38 422.75L186.89 421.58L186.47 420.37L186.11 419.14L185.81 417.88L185.57 416.6L185.4 415.3L185.3 413.97L185.26 412.63L185.3 411.29L185.4 409.97L185.57 408.67L185.81 407.38L186.11 406.13L186.47 404.89L186.89 403.69L187.38 402.51L187.91 401.36L188.5 400.25L189.15 399.17L189.85 398.12L190.59 397.12L191.39 396.15L192.23 395.22L193.11 394.33L194.04 393.49L195.01 392.7L196.02 391.95L197.06 391.26L198.14 390.61L199.26 390.02L200.4 389.48L201.58 389L202.79 388.58L204.02 388.22L205.28 387.92L206.56 387.68L207.86 387.51L209.19 387.4L210.53 387.37L429.47 387.37L430.81 387.4L432.14 387.51ZM430.81 303.19L432.14 303.3L433.44 303.47L434.72 303.7L435.98 304L437.21 304.37L438.42 304.79L439.6 305.27L440.74 305.81L441.86 306.4L442.94 307.05L443.98 307.74L444.99 308.49L445.96 309.28L446.89 310.12L447.77 311.01L448.61 311.94L449.41 312.9L450.15 313.91L450.85 314.96L451.5 316.04L452.09 317.15L452.62 318.3L453.11 319.48L453.53 320.68L453.89 321.92L454.19 323.17L454.43 324.45L454.6 325.76L454.7 327.08L454.74 328.42L454.7 329.76L454.6 331.08L454.43 332.39L454.19 333.67L453.89 334.93L453.53 336.16L453.11 337.37L452.62 338.54L452.09 339.69L451.5 340.8L450.85 341.88L450.15 342.93L449.41 343.94L448.61 344.91L447.77 345.83L446.89 346.72L445.96 347.56L444.99 348.35L443.98 349.1L442.94 349.8L441.86 350.44L440.74 351.03L439.6 351.57L438.42 352.05L437.21 352.48L435.98 352.84L434.72 353.14L433.44 353.37L432.14 353.55L430.81 353.65L429.47 353.68L429.47 353.68L210.53 353.68L209.19 353.65L207.86 353.55L206.56 353.37L205.28 353.14L204.02 352.84L202.79 352.48L201.58 352.05L200.4 351.57L199.26 351.03L198.14 350.44L197.06 349.8L196.02 349.1L195.01 348.35L194.04 347.56L193.11 346.72L192.23 345.83L191.39 344.91L190.59 343.94L189.85 342.93L189.15 341.88L188.5 340.8L187.91 339.69L187.38 338.54L186.89 337.37L186.47 336.16L186.11 334.93L185.81 333.67L185.57 332.39L185.4 331.08L185.3 329.76L185.26 328.42L185.3 327.08L185.4 325.76L185.57 324.45L185.81 323.17L186.11 321.92L186.47 320.68L186.89 319.48L187.38 318.3L187.91 317.15L188.5 316.04L189.15 314.96L189.85 313.91L190.59 312.9L191.39 311.94L192.23 311.01L193.11 310.12L194.04 309.28L195.01 308.49L196.02 307.74L197.06 307.05L198.14 306.4L199.26 305.81L200.4 305.27L201.58 304.79L202.79 304.37L204.02 304L205.28 303.7L206.56 303.47L207.86 303.3L209.19 303.19L210.53 303.16L429.47 303.16L429.47 303.16L430.81 303.19ZM387.37 168.42L488.42 168.42L488.42 147.66L408.13 67.37L387.37 67.37L387.37 168.42Z" id="b3fRCazyDz"></path></defs><g><g><g><use xlink:href="#b3fRCazyDz" opacity="1" fill="#000000" fill-opacity="1"></use></g></g></g></svg>