<?xml version="1.0" encoding="UTF-8" standalone="no"?>
<!DOCTYPE svg PUBLIC "-//W3C//DTD SVG 1.1//EN" "http://www.w3.org/Graphics/SVG/1.1/DTD/svg11.dtd">
<svg version="1.1" xmlns="http://www.w3.org/2000/svg" xmlns:xlink="http://www.w3.org/1999/xlink" preserveAspectRatio="xMidYMid meet" viewBox="0 0 640 640" width="640" height="640"><defs><path d="M428.51 0.62L429.78 0.89L431.04 1.21L432.29 1.58L433.53 2L434.75 2.46L435.96 2.98L437.15 3.55L438.33 4.17L439.48 4.83L440.61 5.55L441.72 6.31L442.8 7.12L443.86 7.99L444.89 8.9L445.89 9.86L545.93 109.9L546.89 110.9L547.8 111.93L548.67 112.99L549.48 114.07L550.24 115.18L550.96 116.31L551.62 117.46L552.24 118.64L552.81 119.83L553.33 121.04L553.79 122.26L554.21 123.5L554.58 124.75L554.9 126.01L555.17 127.28L555.4 128.56L555.57 129.84L555.69 131.13L555.77 132.42L555.79 133.71L555.77 135.01L555.72 135.74L555.76 136.37L555.79 137.76L555.79 606.32L555.76 607.7L555.68 609.08L555.54 610.43L555.35 611.78L555.11 613.1L554.81 614.41L554.47 615.69L554.07 616.96L553.63 618.2L553.14 619.42L552.61 620.62L552.03 621.79L551.41 622.94L550.74 624.05L550.03 625.14L549.29 626.2L548.5 627.23L547.68 628.23L546.82 629.2L545.92 630.13L544.99 631.03L544.02 631.89L543.02 632.71L541.99 633.5L540.93 634.24L539.84 634.95L538.73 635.62L537.58 636.24L536.41 636.82L535.21 637.35L533.99 637.84L532.75 638.28L531.48 638.68L530.2 639.02L528.89 639.32L527.57 639.56L526.22 639.75L524.87 639.89L523.49 639.97L522.11 640L117.89 640L116.51 639.97L115.13 639.89L113.78 639.75L112.43 639.56L111.11 639.32L109.8 639.02L108.52 638.68L107.25 638.28L106.01 637.84L104.79 637.35L103.59 636.82L102.42 636.24L101.27 635.62L100.16 634.95L99.07 634.24L98.01 633.5L96.98 632.71L95.98 631.89L95.01 631.03L94.08 630.13L93.18 629.2L92.32 628.23L91.5 627.23L90.71 626.2L89.97 625.14L89.26 624.05L88.59 622.94L87.97 621.79L87.39 620.62L86.86 619.42L86.37 618.2L85.93 616.96L85.53 615.69L85.19 614.41L84.89 613.1L84.65 611.78L84.46 610.43L84.32 609.08L84.24 607.7L84.21 606.32L84.21 606.32L84.21 33.68L84.24 32.3L84.32 30.92L84.46 29.57L84.65 28.22L84.89 26.9L85.19 25.59L85.53 24.31L85.93 23.04L86.37 21.8L86.86 20.58L87.39 19.38L87.97 18.21L88.59 17.06L89.26 15.95L89.97 14.86L90.71 13.8L91.5 12.77L92.32 11.77L93.18 10.8L94.08 9.87L95.01 8.97L95.98 8.11L96.98 7.29L98.01 6.5L99.07 5.76L100.16 5.05L101.27 4.38L102.42 3.76L103.59 3.18L104.79 2.65L106.01 2.16L107.25 1.72L108.52 1.32L109.8 0.98L111.11 0.68L112.43 0.44L113.78 0.25L115.13 0.11L116.51 0.03L117.89 0L421.05 0L421.54 0.01L422.08 0L423.37 0.02L424.66 0.1L425.95 0.22L427.23 0.39L427.23 0.39L428.51 0.62ZM353.68 235.79L353.68 235.79L352.3 235.76L350.92 235.68L349.57 235.54L348.22 235.35L346.9 235.1L345.59 234.81L344.31 234.46L343.04 234.07L341.8 233.63L340.58 233.14L339.38 232.61L338.21 232.03L337.06 231.4L335.95 230.74L334.86 230.03L333.8 229.29L332.77 228.5L331.77 227.68L330.8 226.82L329.87 225.92L328.97 224.99L328.11 224.02L327.29 223.02L326.5 221.99L325.76 220.93L325.05 219.84L324.38 218.72L323.76 217.58L323.18 216.41L322.65 215.21L322.16 213.99L321.72 212.75L321.32 211.48L320.98 210.2L320.68 208.89L320.44 207.57L320.25 206.22L320.11 204.87L320.03 203.49L320 202.11L320.02 201.08L320 201.08L320 67.37L151.58 67.37L151.58 572.63L488.42 572.63L488.42 235.79L488.42 235.79L353.68 235.79ZM426.51 472.02L427.84 472.26L429.14 472.56L430.43 472.9L431.69 473.3L432.94 473.74L434.16 474.23L435.36 474.76L436.53 475.34L437.67 475.96L438.79 476.63L439.88 477.33L440.94 478.08L441.97 478.87L442.97 479.69L443.93 480.55L444.87 481.45L445.76 482.38L446.62 483.35L447.45 484.35L448.23 485.38L448.98 486.44L449.69 487.53L450.35 488.64L450.98 489.79L451.55 490.96L452.09 492.16L452.58 493.38L453.02 494.62L453.41 495.89L453.76 497.17L454.05 498.48L454.3 499.8L454.49 501.14L454.63 502.5L454.71 503.88L454.74 505.26L454.71 506.65L454.63 508.02L454.49 509.38L454.3 510.72L454.05 512.05L453.76 513.35L453.41 514.64L453.02 515.91L452.58 517.15L452.09 518.37L451.55 519.57L450.98 520.74L450.35 521.88L449.69 523L448.98 524.09L448.23 525.15L447.45 526.18L446.62 527.18L445.76 528.14L444.87 529.08L443.93 529.97L442.97 530.83L441.97 531.66L440.94 532.44L439.88 533.19L438.79 533.9L437.67 534.56L436.53 535.19L435.36 535.76L434.16 536.3L432.94 536.79L431.69 537.23L430.43 537.62L429.14 537.97L427.84 538.26L426.51 538.51L425.17 538.7L423.81 538.84L422.44 538.92L421.05 538.95L421.05 538.95L218.95 538.95L217.56 538.92L216.19 538.84L214.83 538.7L213.49 538.51L212.16 538.26L210.86 537.97L209.57 537.62L208.31 537.23L207.06 536.79L205.84 536.3L204.64 535.76L203.47 535.19L202.33 534.56L201.21 533.9L200.12 533.19L199.06 532.44L198.03 531.66L197.03 530.83L196.07 529.97L195.13 529.08L194.24 528.14L193.38 527.18L192.55 526.18L191.77 525.15L191.02 524.09L190.31 523L189.65 521.88L189.02 520.74L188.45 519.57L187.91 518.37L187.42 517.15L186.98 515.91L186.59 514.64L186.24 513.35L185.95 512.05L185.7 510.72L185.51 509.38L185.37 508.02L185.29 506.65L185.26 505.26L185.29 503.88L185.37 502.5L185.51 501.14L185.7 499.8L185.95 498.48L186.24 497.17L186.59 495.89L186.98 494.62L187.42 493.38L187.91 492.16L188.45 490.96L189.02 489.79L189.65 488.64L190.31 487.53L191.02 486.44L191.77 485.38L192.55 484.35L193.38 483.35L194.24 482.38L195.13 481.45L196.07 480.55L197.03 479.69L198.03 478.87L199.06 478.08L200.12 477.33L201.21 476.63L202.33 475.96L203.47 475.34L204.64 474.76L205.84 474.23L207.06 473.74L208.31 473.3L209.57 472.9L210.86 472.56L212.16 472.26L213.49 472.02L214.83 471.83L216.19 471.69L217.56 471.61L218.95 471.58L421.05 471.58L421.05 471.58L422.44 471.61L423.81 471.69L425.17 471.83L425.17 471.83L426.51 472.02ZM427.84 371.21L429.14 371.51L430.43 371.85L431.69 372.24L432.94 372.69L434.16 373.18L435.36 373.71L436.53 374.29L437.67 374.91L438.79 375.58L439.88 376.28L440.94 377.03L441.97 377.81L442.97 378.64L443.93 379.5L444.87 380.4L445.76 381.33L446.62 382.29L447.45 383.29L448.23 384.32L448.98 385.38L449.69 386.47L450.35 387.59L450.98 388.74L451.55 389.91L452.09 391.1L452.58 392.32L453.02 393.57L453.41 394.83L453.76 396.12L454.05 397.43L454.3 398.75L454.49 400.09L454.63 401.45L454.71 402.82L454.74 404.21L454.71 405.6L454.63 406.97L454.49 408.33L454.3 409.67L454.05 411L453.76 412.3L453.41 413.59L453.02 414.85L452.58 416.1L452.09 417.32L451.55 418.51L450.98 419.68L450.35 420.83L449.69 421.95L448.98 423.04L448.23 424.1L447.45 425.13L446.62 426.13L445.76 427.09L444.87 428.02L443.93 428.92L442.97 429.78L441.97 430.61L440.94 431.39L439.88 432.14L438.79 432.85L437.67 433.51L436.53 434.13L435.36 434.71L434.16 435.25L432.94 435.73L431.69 436.18L430.43 436.57L429.14 436.92L427.84 437.21L426.51 437.45L425.17 437.64L423.81 437.78L422.44 437.87L421.05 437.89L218.95 437.89L217.56 437.87L216.19 437.78L214.83 437.64L213.49 437.45L212.16 437.21L210.86 436.92L209.57 436.57L208.31 436.18L207.06 435.73L205.84 435.25L204.64 434.71L203.47 434.13L202.33 433.51L201.21 432.85L200.12 432.14L199.06 431.39L198.03 430.61L197.03 429.78L196.07 428.92L195.13 428.02L194.24 427.09L193.38 426.13L192.55 425.13L191.77 424.1L191.02 423.04L190.31 421.95L189.65 420.83L189.02 419.68L188.45 418.51L187.91 417.32L187.42 416.1L186.98 414.85L186.59 413.59L186.24 412.3L185.95 411L185.7 409.67L185.51 408.33L185.37 406.97L185.29 405.6L185.26 404.21L185.29 402.82L185.37 401.45L185.51 400.09L185.7 398.75L185.95 397.43L186.24 396.12L186.59 394.83L186.98 393.57L187.42 392.32L187.91 391.1L188.45 389.91L189.02 388.74L189.65 387.59L190.31 386.47L191.02 385.38L191.77 384.32L192.55 383.29L193.38 382.29L194.24 381.33L195.13 380.4L196.07 379.5L197.03 378.64L198.03 377.81L199.06 377.03L200.12 376.28L201.21 375.58L202.33 374.91L203.47 374.29L204.64 373.71L205.84 373.18L207.06 372.69L208.31 372.24L209.57 371.85L210.86 371.51L212.16 371.21L213.49 370.97L214.83 370.78L216.19 370.64L217.56 370.55L218.95 370.53L421.05 370.53L422.44 370.55L423.81 370.64L425.17 370.78L426.51 370.97L426.51 370.97L427.84 371.21ZM426.51 269.91L427.84 270.16L429.14 270.45L430.43 270.8L431.69 271.19L432.94 271.63L434.16 272.12L435.36 272.66L436.53 273.24L437.67 273.86L438.79 274.52L439.88 275.23L440.94 275.98L441.97 276.76L442.97 277.59L443.93 278.45L444.87 279.34L445.76 280.28L446.62 281.24L447.45 282.24L448.23 283.27L448.98 284.33L449.69 285.42L450.35 286.54L450.98 287.68L451.55 288.86L452.09 290.05L452.58 291.27L453.02 292.52L453.41 293.78L453.76 295.07L454.05 296.37L454.3 297.7L454.49 299.04L454.63 300.4L454.71 301.77L454.74 303.16L454.71 304.55L454.63 305.92L454.49 307.28L454.3 308.62L454.05 309.94L453.76 311.25L453.41 312.53L453.02 313.8L452.58 315.04L452.09 316.26L451.55 317.46L450.98 318.63L450.35 319.78L449.69 320.9L448.98 321.99L448.23 323.05L447.45 324.08L446.62 325.07L445.76 326.04L444.87 326.97L443.93 327.87L442.97 328.73L441.97 329.55L440.94 330.34L439.88 331.09L438.79 331.79L437.67 332.46L436.53 333.08L435.36 333.66L434.16 334.19L432.94 334.68L431.69 335.12L430.43 335.52L429.14 335.86L427.84 336.16L426.51 336.4L425.17 336.59L423.81 336.73L422.44 336.81L421.05 336.84L421.05 336.84L218.95 336.84L217.56 336.81L216.19 336.73L214.83 336.59L213.49 336.4L212.16 336.16L210.86 335.86L209.57 335.52L208.31 335.12L207.06 334.68L205.84 334.19L204.64 333.66L203.47 333.08L202.33 332.46L201.21 331.79L200.12 331.09L199.06 330.34L198.03 329.55L197.03 328.73L196.07 327.87L195.13 326.97L194.24 326.04L193.38 325.07L192.55 324.08L191.77 323.05L191.02 321.99L190.31 320.9L189.65 319.78L189.02 318.63L188.45 317.46L187.91 316.26L187.42 315.04L186.98 313.8L186.59 312.53L186.24 311.25L185.95 309.94L185.7 308.62L185.51 307.28L185.37 305.92L185.29 304.55L185.26 303.16L185.29 301.77L185.37 300.4L185.51 299.04L185.7 297.7L185.95 296.37L186.24 295.07L186.59 293.78L186.98 292.52L187.42 291.27L187.91 290.05L188.45 288.86L189.02 287.68L189.65 286.54L190.31 285.42L191.02 284.33L191.77 283.27L192.55 282.24L193.38 281.24L194.24 280.28L195.13 279.34L196.07 278.45L197.03 277.59L198.03 276.76L199.06 275.98L200.12 275.23L201.21 274.52L202.33 273.86L203.47 273.24L204.64 272.66L205.84 272.12L207.06 271.63L208.31 271.19L209.57 270.8L210.86 270.45L212.16 270.16L213.49 269.91L214.83 269.72L216.19 269.59L217.56 269.5L218.95 269.47L218.95 269.47L421.05 269.47L421.05 269.47L422.44 269.5L423.81 269.59L425.17 269.72L425.17 269.72L426.51 269.91ZM259.42 169.11L260.72 169.4L262.01 169.75L263.27 170.14L264.52 170.58L265.74 171.07L266.93 171.6L268.11 172.18L269.25 172.81L270.37 173.47L271.46 174.18L272.52 174.92L273.55 175.71L274.55 176.53L275.51 177.39L276.45 178.29L277.34 179.22L278.2 180.19L279.03 181.19L279.81 182.22L280.56 183.28L281.27 184.37L281.93 185.49L282.55 186.63L283.13 187.8L283.67 189L284.16 190.22L284.6 191.46L284.99 192.73L285.34 194.01L285.63 195.32L285.87 196.64L286.07 197.99L286.2 199.34L286.29 200.72L286.32 202.11L286.29 203.49L286.2 204.87L286.07 206.22L285.87 207.57L285.63 208.89L285.34 210.2L284.99 211.48L284.6 212.75L284.16 213.99L283.67 215.21L283.13 216.41L282.55 217.58L281.93 218.72L281.27 219.84L280.56 220.93L279.81 221.99L279.03 223.02L278.2 224.02L277.34 224.99L276.45 225.92L275.51 226.82L274.55 227.68L273.55 228.5L272.52 229.29L271.46 230.03L270.37 230.74L269.25 231.4L268.11 232.03L266.93 232.61L265.74 233.14L264.52 233.63L263.27 234.07L262.01 234.46L260.72 234.81L259.42 235.1L258.09 235.35L256.75 235.54L255.39 235.68L254.02 235.76L252.63 235.79L252.63 235.79L218.95 235.79L218.95 235.79L217.56 235.76L216.19 235.68L214.83 235.54L213.49 235.35L212.16 235.1L210.86 234.81L209.57 234.46L208.31 234.07L207.06 233.63L205.84 233.14L204.64 232.61L203.47 232.03L202.33 231.4L201.21 230.74L200.12 230.03L199.06 229.29L198.03 228.5L197.03 227.68L196.07 226.82L195.13 225.92L194.24 224.99L193.38 224.02L192.55 223.02L191.77 221.99L191.02 220.93L190.31 219.84L189.65 218.72L189.02 217.58L188.45 216.41L187.91 215.21L187.42 213.99L186.98 212.75L186.59 211.48L186.24 210.2L185.95 208.89L185.7 207.57L185.51 206.22L185.37 204.87L185.29 203.49L185.26 202.11L185.29 200.72L185.37 199.34L185.51 197.99L185.7 196.64L185.95 195.32L186.24 194.01L186.59 192.73L186.98 191.46L187.42 190.22L187.91 189L188.45 187.8L189.02 186.63L189.65 185.49L190.31 184.37L191.02 183.28L191.77 182.22L192.55 181.19L193.38 180.19L194.24 179.22L195.13 178.29L196.07 177.39L197.03 176.53L198.03 175.71L199.06 174.92L200.12 174.18L201.21 173.47L202.33 172.81L203.47 172.18L204.64 171.6L205.84 171.07L207.06 170.58L208.31 170.14L209.57 169.75L210.86 169.4L212.16 169.11L213.49 168.86L214.83 168.67L216.19 168.53L217.56 168.45L218.95 168.42L252.63 168.42L254.02 168.45L255.39 168.53L256.75 168.67L258.09 168.86L258.09 168.86L259.42 169.11ZM408.13 67.37L387.37 67.37L387.37 168.42L488.42 168.42L488.42 147.66L488.42 147.66L408.13 67.37Z" id="eCeF4lCtC"></path></defs><g><g><g><use xlink:href="#eCeF4lCtC" opacity="1" fill="#000000" fill-opacity="1"></use></g></g></g></svg>