<?xml version="1.0" encoding="UTF-8" standalone="no"?>
<!DOCTYPE svg PUBLIC "-//W3C//DTD SVG 1.1//EN" "http://www.w3.org/Graphics/SVG/1.1/DTD/svg11.dtd">
<svg version="1.1" xmlns="http://www.w3.org/2000/svg" xmlns:xlink="http://www.w3.org/1999/xlink" preserveAspectRatio="xMidYMid meet" viewBox="0 0 640 640" width="640" height="640"><defs><path d="M387.68 0.1L388.97 0.22L390.26 0.39L391.53 0.62L392.8 0.89L394.06 1.21L395.31 1.58L396.55 2L397.78 2.46L398.98 2.98L400.18 3.55L401.35 4.17L402.5 4.83L403.63 5.55L404.74 6.31L405.83 7.12L406.89 7.99L407.92 8.9L408.92 9.86L508.95 109.9L508.95 109.9L509.91 110.9L510.83 111.93L511.69 112.99L512.5 114.07L513.27 115.18L513.98 116.31L514.65 117.46L515.26 118.64L515.83 119.83L516.35 121.04L516.82 122.26L517.23 123.5L517.6 124.75L517.92 126.01L518.2 127.28L518.42 128.56L518.59 129.84L518.71 131.13L518.79 132.42L518.81 133.71L518.79 135.01L518.75 135.74L518.78 136.37L518.81 137.76L518.81 606.32L518.81 606.32L518.78 607.7L518.7 609.08L518.56 610.43L518.37 611.78L518.13 613.1L517.83 614.41L517.49 615.69L517.09 616.96L516.65 618.2L516.16 619.42L515.63 620.62L515.05 621.79L514.43 622.94L513.76 624.05L513.06 625.14L512.31 626.2L511.52 627.23L510.7 628.23L509.84 629.2L508.94 630.13L508.01 631.03L507.04 631.89L506.05 632.71L505.02 633.5L503.96 634.24L502.87 634.95L501.75 635.62L500.6 636.24L499.43 636.82L498.23 637.35L497.01 637.84L495.77 638.28L494.5 638.68L493.22 639.02L491.91 639.32L490.59 639.56L489.25 639.75L487.89 639.89L486.52 639.97L485.13 640L80.92 640L79.53 639.97L78.16 639.89L76.8 639.75L75.46 639.56L74.13 639.32L72.83 639.02L71.54 638.68L70.28 638.28L69.03 637.84L67.81 637.35L66.62 636.82L65.44 636.24L64.3 635.62L63.18 634.95L62.09 634.24L61.03 633.5L60 632.71L59 631.89L58.04 631.03L57.11 630.13L56.21 629.2L55.35 628.23L54.52 627.23L53.74 626.2L52.99 625.14L52.28 624.05L51.62 622.94L51 621.79L50.42 620.62L49.88 619.42L49.4 618.2L48.95 616.96L48.56 615.69L48.21 614.41L47.92 613.1L47.68 611.78L47.48 610.43L47.35 609.08L47.26 607.7L47.24 606.32L47.24 606.32L47.24 33.68L47.26 32.3L47.35 30.92L47.48 29.57L47.68 28.22L47.92 26.9L48.21 25.59L48.56 24.31L48.95 23.04L49.4 21.8L49.88 20.58L50.42 19.38L51 18.21L51.62 17.06L52.28 15.95L52.99 14.86L53.74 13.8L54.52 12.77L55.35 11.77L56.21 10.8L57.11 9.87L58.04 8.97L59 8.11L60 7.29L61.03 6.5L62.09 5.76L63.18 5.05L64.3 4.38L65.44 3.76L66.62 3.18L67.81 2.65L69.03 2.16L70.28 1.72L71.54 1.32L72.83 0.98L74.13 0.68L75.46 0.44L76.8 0.25L78.16 0.11L79.53 0.03L80.92 0L384.08 0L384.57 0.01L385.1 0L386.39 0.02L387.68 0.1ZM114.6 572.63L451.44 572.63L451.44 235.79L316.71 235.79L315.32 235.76L313.95 235.68L312.59 235.54L311.25 235.35L309.92 235.1L308.62 234.81L307.33 234.46L306.07 234.07L304.82 233.63L303.6 233.14L302.41 232.61L301.23 232.03L300.09 231.4L298.97 230.74L297.88 230.03L296.82 229.29L295.79 228.5L294.79 227.68L293.83 226.82L292.89 225.92L292 224.99L291.14 224.02L290.31 223.02L289.53 221.99L288.78 220.93L288.07 219.84L287.41 218.72L286.79 217.58L286.21 216.41L285.67 215.21L285.18 213.99L284.74 212.75L284.35 211.48L284 210.2L283.71 208.89L283.46 207.57L283.27 206.22L283.14 204.87L283.05 203.49L283.02 202.11L283.04 201.08L283.02 201.08L283.02 67.37L114.6 67.37L114.6 572.63ZM395.16 488.56L396.46 488.73L397.74 488.97L399 489.27L400.24 489.63L401.44 490.05L402.62 490.53L403.76 491.07L404.88 491.66L405.96 492.31L407.01 493.01L408.01 493.75L408.98 494.55L409.91 495.39L410.79 496.27L411.63 497.2L412.43 498.17L413.18 499.18L413.87 500.22L414.52 501.3L415.11 502.42L415.65 503.56L416.13 504.74L416.55 505.95L416.91 507.18L417.21 508.44L417.45 509.72L417.62 511.02L417.72 512.34L417.76 513.68L417.72 515.03L417.62 516.35L417.45 517.65L417.21 518.93L416.91 520.19L416.55 521.42L416.13 522.63L415.65 523.81L415.11 524.95L414.52 526.07L413.87 527.15L413.18 528.19L412.43 529.2L411.63 530.17L410.79 531.1L409.91 531.98L408.98 532.82L408.01 533.62L407.01 534.36L405.96 535.06L404.88 535.71L403.76 536.3L402.62 536.84L401.44 537.32L400.24 537.74L399 538.1L397.74 538.4L396.46 538.64L395.16 538.81L393.84 538.91L392.5 538.95L392.5 538.95L173.55 538.95L172.21 538.91L170.89 538.81L169.58 538.64L168.3 538.4L167.04 538.1L165.81 537.74L164.61 537.32L163.43 536.84L162.28 536.3L161.17 535.71L160.09 535.06L159.04 534.36L158.03 533.62L157.07 532.82L156.14 531.98L155.25 531.1L154.41 530.17L153.62 529.2L152.87 528.19L152.17 527.15L151.53 526.07L150.94 524.95L150.4 523.81L149.92 522.63L149.5 521.42L149.13 520.19L148.83 518.93L148.6 517.65L148.43 516.35L148.32 515.03L148.29 513.68L148.32 512.34L148.43 511.02L148.6 509.72L148.83 508.44L149.13 507.18L149.5 505.95L149.92 504.74L150.4 503.56L150.94 502.42L151.53 501.3L152.17 500.22L152.87 499.18L153.62 498.17L154.41 497.2L155.25 496.27L156.14 495.39L157.07 494.55L158.03 493.75L159.04 493.01L160.09 492.31L161.17 491.66L162.28 491.07L163.43 490.53L164.61 490.05L165.81 489.63L167.04 489.27L168.3 488.97L169.58 488.73L170.89 488.56L172.21 488.46L173.55 488.42L392.5 488.42L393.84 488.46L395.16 488.56ZM393.84 404.25L395.16 404.35L396.46 404.52L397.74 404.76L399 405.06L400.24 405.42L401.44 405.84L402.62 406.32L403.76 406.86L404.88 407.45L405.96 408.1L407.01 408.79L408.01 409.54L408.98 410.34L409.91 411.18L410.79 412.06L411.63 412.99L412.43 413.96L413.18 414.97L413.87 416.01L414.52 417.09L415.11 418.21L415.65 419.35L416.13 420.53L416.55 421.74L416.91 422.97L417.21 424.23L417.45 425.51L417.62 426.81L417.72 428.13L417.76 429.47L417.72 430.81L417.62 432.14L417.45 433.44L417.21 434.72L416.91 435.98L416.55 437.21L416.13 438.42L415.65 439.59L415.11 440.74L414.52 441.86L413.87 442.94L413.18 443.98L412.43 444.99L411.63 445.96L410.79 446.89L409.91 447.77L408.98 448.61L408.01 449.41L407.01 450.15L405.96 450.85L404.88 451.49L403.76 452.09L402.62 452.62L401.44 453.11L400.24 453.53L399 453.89L397.74 454.19L396.46 454.43L395.16 454.6L393.84 454.7L392.5 454.74L173.55 454.74L172.21 454.7L170.89 454.6L169.58 454.43L168.3 454.19L167.04 453.89L165.81 453.53L164.61 453.11L163.43 452.62L162.28 452.09L161.17 451.49L160.09 450.85L159.04 450.15L158.03 449.41L157.07 448.61L156.14 447.77L155.25 446.89L154.41 445.96L153.62 444.99L152.87 443.98L152.17 442.94L151.53 441.86L150.94 440.74L150.4 439.59L149.92 438.42L149.5 437.21L149.13 435.98L148.83 434.72L148.6 433.44L148.43 432.14L148.32 430.81L148.29 429.47L148.32 428.13L148.43 426.81L148.6 425.51L148.83 424.23L149.13 422.97L149.5 421.74L149.92 420.53L150.4 419.35L150.94 418.21L151.53 417.09L152.17 416.01L152.87 414.97L153.62 413.96L154.41 412.99L155.25 412.06L156.14 411.18L157.07 410.34L158.03 409.54L159.04 408.79L160.09 408.1L161.17 407.45L162.28 406.86L163.43 406.32L164.61 405.84L165.81 405.42L167.04 405.06L168.3 404.76L169.58 404.52L170.89 404.35L172.21 404.25L173.55 404.21L173.55 404.21L392.5 404.21L392.5 404.21L393.84 404.25ZM393.84 320.04L395.16 320.14L396.46 320.31L397.74 320.55L399 320.85L400.24 321.21L401.44 321.63L402.62 322.11L403.76 322.65L404.88 323.24L405.96 323.89L407.01 324.58L408.01 325.33L408.98 326.13L409.91 326.97L410.79 327.85L411.63 328.78L412.43 329.75L413.18 330.75L413.87 331.8L414.52 332.88L415.11 334L415.65 335.14L416.13 336.32L416.55 337.53L416.91 338.76L417.21 340.02L417.45 341.3L417.62 342.6L417.72 343.92L417.76 345.26L417.72 346.6L417.62 347.93L417.45 349.23L417.21 350.51L416.91 351.77L416.55 353L416.13 354.21L415.65 355.38L415.11 356.53L414.52 357.65L413.87 358.73L413.18 359.77L412.43 360.78L411.63 361.75L410.79 362.68L409.91 363.56L408.98 364.4L408.01 365.2L407.01 365.94L405.96 366.64L404.88 367.28L403.76 367.88L402.62 368.41L401.44 368.89L400.24 369.32L399 369.68L397.74 369.98L396.46 370.22L395.16 370.39L393.84 370.49L392.5 370.53L392.5 370.53L173.55 370.53L172.21 370.49L170.89 370.39L169.58 370.22L168.3 369.98L167.04 369.68L165.81 369.32L164.61 368.89L163.43 368.41L162.28 367.88L161.17 367.28L160.09 366.64L159.04 365.94L158.03 365.2L157.07 364.4L156.14 363.56L155.25 362.68L154.41 361.75L153.62 360.78L152.87 359.77L152.17 358.73L151.53 357.65L150.94 356.53L150.4 355.38L149.92 354.21L149.5 353L149.13 351.77L148.83 350.51L148.6 349.23L148.43 347.93L148.32 346.6L148.29 345.26L148.32 343.92L148.43 342.6L148.6 341.3L148.83 340.02L149.13 338.76L149.5 337.53L149.92 336.32L150.4 335.14L150.94 334L151.53 332.88L152.17 331.8L152.87 330.75L153.62 329.75L154.41 328.78L155.25 327.85L156.14 326.97L157.07 326.13L158.03 325.33L159.04 324.58L160.09 323.89L161.17 323.24L162.28 322.65L163.43 322.11L164.61 321.63L165.81 321.21L167.04 320.85L168.3 320.55L169.58 320.31L170.89 320.14L172.21 320.04L173.55 320L392.5 320L393.84 320.04ZM226.73 235.93L228.04 236.1L229.32 236.34L230.57 236.64L231.81 237L233.01 237.42L234.19 237.9L235.34 238.44L236.45 239.03L237.53 239.68L238.58 240.37L239.59 241.12L240.55 241.91L241.48 242.76L242.37 243.64L243.21 244.57L244 245.54L244.75 246.54L245.45 247.59L246.09 248.67L246.68 249.78L247.22 250.93L247.7 252.11L248.12 253.31L248.49 254.55L248.79 255.8L249.02 257.09L249.19 258.39L249.3 259.71L249.33 261.05L249.3 262.39L249.19 263.72L249.02 265.02L248.79 266.3L248.49 267.56L248.12 268.79L247.7 270L247.22 271.17L246.68 272.32L246.09 273.44L245.45 274.52L244.75 275.56L244 276.57L243.21 277.54L242.37 278.46L241.48 279.35L240.55 280.19L239.59 280.98L238.58 281.73L237.53 282.43L236.45 283.07L235.34 283.67L234.19 284.2L233.01 284.68L231.81 285.11L230.57 285.47L229.32 285.77L228.04 286.01L226.73 286.18L225.41 286.28L224.07 286.32L224.07 286.32L173.54 286.32L173.54 286.31L172.88 286.31L171.57 286.24L170.27 286.11L168.99 285.91L167.74 285.65L166.5 285.32L165.29 284.93L164.1 284.49L162.95 283.99L161.82 283.43L160.72 282.82L159.66 282.15L158.63 281.44L157.64 280.67L156.68 279.86L155.77 279L154.9 278.1L154.08 277.16L153.3 276.17L152.57 275.14L151.89 274.08L151.27 272.98L150.7 271.84L150.18 270.67L149.72 269.47L149.32 268.24L148.98 266.99L148.71 265.7L148.5 264.39L148.36 263.06L148.29 261.72L148.29 260.39L148.35 259.08L148.49 257.78L148.69 256.5L148.95 255.25L149.28 254.01L149.66 252.8L150.11 251.61L150.61 250.46L151.17 249.33L151.78 248.23L152.44 247.17L153.16 246.14L153.92 245.15L154.74 244.19L155.59 243.28L156.5 242.41L157.44 241.59L158.43 240.81L159.45 240.08L160.52 239.4L161.62 238.78L162.75 238.21L163.92 237.69L165.12 237.23L166.35 236.83L167.61 236.49L168.9 236.22L170.21 236.01L171.54 235.87L172.88 235.8L173.54 235.8L173.54 235.79L224.03 235.79L224.07 235.79L225.41 235.82L226.73 235.93ZM350.39 168.42L451.44 168.42L451.44 147.66L371.15 67.37L350.39 67.37L350.39 168.42Z" id="a61W7Qwvet"></path></defs><g><g><g><use xlink:href="#a61W7Qwvet" opacity="1" fill="#000000" fill-opacity="1"></use></g></g></g></svg>