<?xml version="1.0" encoding="UTF-8" standalone="no"?>
<!DOCTYPE svg PUBLIC "-//W3C//DTD SVG 1.1//EN" "http://www.w3.org/Graphics/SVG/1.1/DTD/svg11.dtd">
<svg version="1.1" xmlns="http://www.w3.org/2000/svg" xmlns:xlink="http://www.w3.org/1999/xlink" preserveAspectRatio="xMidYMid meet" viewBox="0 0 640 640" width="640" height="640"><defs><path d="M84.46 29.57L84.65 28.22L84.89 26.9L85.19 25.59L85.53 24.31L85.93 23.04L86.37 21.8L86.86 20.58L87.39 19.38L87.97 18.21L88.59 17.06L89.26 15.95L89.97 14.86L90.71 13.8L91.5 12.77L92.32 11.77L93.18 10.8L94.08 9.87L95.01 8.97L95.98 8.11L96.98 7.29L98.01 6.5L99.07 5.76L100.16 5.05L101.27 4.38L102.42 3.76L103.59 3.18L104.79 2.65L106.01 2.16L107.25 1.72L108.52 1.32L109.8 0.98L111.11 0.68L112.43 0.44L113.78 0.25L115.13 0.11L116.51 0.03L117.89 0L421.05 0L421.54 0.01L422.08 0L423.37 0.02L424.66 0.1L425.95 0.22L427.23 0.39L428.51 0.62L429.78 0.89L431.04 1.21L432.29 1.58L433.53 2L434.75 2.46L435.96 2.98L437.15 3.55L438.33 4.17L439.48 4.83L440.61 5.55L441.72 6.31L442.8 7.12L443.86 7.99L444.89 8.9L445.89 9.86L545.93 109.9L546.89 110.9L547.8 111.93L548.67 112.99L549.48 114.07L550.24 115.18L550.96 116.31L551.62 117.46L552.24 118.64L552.81 119.83L553.33 121.04L553.79 122.26L554.21 123.5L554.58 124.75L554.9 126.01L555.17 127.28L555.4 128.56L555.57 129.84L555.69 131.13L555.77 132.42L555.79 133.71L555.77 135.01L555.72 135.74L555.76 136.37L555.79 137.76L555.79 606.32L555.79 606.32L555.76 607.7L555.68 609.08L555.54 610.43L555.35 611.78L555.11 613.1L554.81 614.41L554.47 615.69L554.07 616.96L553.63 618.2L553.14 619.42L552.61 620.62L552.03 621.79L551.41 622.94L550.74 624.05L550.03 625.14L549.29 626.2L548.5 627.23L547.68 628.23L546.82 629.2L545.92 630.13L544.99 631.03L544.02 631.89L543.02 632.71L541.99 633.5L540.93 634.24L539.84 634.95L538.73 635.62L537.58 636.24L536.41 636.82L535.21 637.35L533.99 637.84L532.75 638.28L531.48 638.68L530.2 639.02L528.89 639.32L527.57 639.56L526.22 639.75L524.87 639.89L523.49 639.97L522.11 640L117.89 640L116.51 639.97L115.13 639.89L113.78 639.75L112.43 639.56L111.11 639.32L109.8 639.02L108.52 638.68L107.25 638.28L106.01 637.84L104.79 637.35L103.59 636.82L102.42 636.24L101.27 635.62L100.16 634.95L99.07 634.24L98.01 633.5L96.98 632.71L95.98 631.89L95.01 631.03L94.08 630.13L93.18 629.2L92.32 628.23L91.5 627.23L90.71 626.2L89.97 625.14L89.26 624.05L88.59 622.94L87.97 621.79L87.39 620.62L86.86 619.42L86.37 618.2L85.93 616.96L85.53 615.69L85.19 614.41L84.89 613.1L84.65 611.78L84.46 610.43L84.32 609.08L84.24 607.7L84.21 606.32L84.21 606.32L84.21 33.68L84.24 32.3L84.32 30.92L84.46 29.57ZM151.58 572.63L488.42 572.63L488.42 235.79L353.68 235.79L353.68 235.79L352.3 235.76L350.92 235.68L349.57 235.54L348.22 235.35L346.9 235.1L345.59 234.81L344.31 234.46L343.04 234.07L341.8 233.63L340.58 233.14L339.38 232.61L338.21 232.03L337.06 231.4L335.95 230.74L334.86 230.03L333.8 229.29L332.77 228.5L331.77 227.68L330.8 226.82L329.87 225.92L328.97 224.99L328.11 224.02L327.29 223.02L326.5 221.99L325.76 220.93L325.05 219.84L324.38 218.72L323.76 217.58L323.18 216.41L322.65 215.21L322.16 213.99L321.72 212.75L321.32 211.48L320.98 210.2L320.68 208.89L320.44 207.57L320.25 206.22L320.11 204.87L320.03 203.49L320 202.11L320.02 201.08L320 201.08L320 67.37L151.58 67.37L151.58 572.63ZM268.99 320.1L270.28 320.22L271.57 320.39L272.84 320.62L274.11 320.89L275.37 321.21L276.62 321.58L277.86 322L279.09 322.46L280.3 322.98L281.49 323.55L282.66 324.17L283.81 324.83L284.95 325.55L286.05 326.31L287.14 327.12L288.2 327.99L289.23 328.9L290.23 329.86L290.23 329.86L320 359.63L349.77 329.86L350.77 328.9L351.8 327.99L352.86 327.12L353.95 326.31L355.05 325.55L356.19 324.83L357.34 324.17L358.51 323.55L359.7 322.98L360.91 322.46L362.14 322L363.38 321.58L364.63 321.21L365.89 320.89L367.16 320.62L368.43 320.39L369.72 320.22L371.01 320.1L372.3 320.02L373.59 320L374.88 320.02L376.18 320.1L377.46 320.22L378.75 320.39L380.03 320.62L381.3 320.89L382.56 321.21L383.81 321.58L385.05 322L386.27 322.46L387.48 322.98L388.67 323.55L389.84 324.17L391 324.83L392.13 325.55L393.24 326.31L394.32 327.12L395.38 327.99L396.41 328.9L397.41 329.86L398.37 330.86L399.28 331.89L400.15 332.95L400.96 334.03L401.72 335.14L402.44 336.27L403.1 337.43L403.72 338.6L404.29 339.79L404.8 341L405.27 342.22L405.69 343.46L406.06 344.71L406.38 345.97L406.65 347.24L406.87 348.52L407.05 349.8L407.17 351.09L407.24 352.38L407.27 353.68L407.24 354.97L407.17 356.26L407.05 357.55L406.87 358.83L406.65 360.11L406.38 361.38L406.06 362.64L405.69 363.89L405.27 365.13L404.8 366.36L404.29 367.56L403.72 368.76L403.1 369.93L402.44 371.08L401.72 372.21L400.96 373.32L400.15 374.41L399.28 375.46L398.37 376.49L397.41 377.5L367.64 407.27L397.41 437.04L398.37 438.04L399.28 439.07L400.15 440.13L400.96 441.22L401.72 442.32L402.44 443.46L403.1 444.61L403.72 445.78L404.29 446.97L404.8 448.18L405.27 449.41L405.69 450.64L406.06 451.89L406.38 453.15L406.65 454.43L406.87 455.7L407.05 456.99L407.17 458.28L407.24 459.57L407.27 460.86L407.24 462.15L407.17 463.44L407.05 464.73L406.87 466.02L406.65 467.3L406.38 468.57L406.06 469.83L405.69 471.08L405.27 472.31L404.8 473.54L404.29 474.75L403.72 475.94L403.1 477.11L402.44 478.26L401.72 479.4L400.96 480.51L400.15 481.59L399.28 482.65L398.37 483.68L397.41 484.68L396.41 485.64L395.38 486.55L394.32 487.41L393.24 488.23L392.13 488.99L391 489.71L389.84 490.37L388.67 490.99L387.48 491.56L386.27 492.07L385.05 492.54L383.81 492.96L382.56 493.33L381.3 493.65L380.03 493.92L378.75 494.14L377.46 494.32L376.18 494.44L374.88 494.51L373.59 494.54L372.3 494.51L371.01 494.44L369.72 494.32L368.43 494.14L367.16 493.92L365.89 493.65L364.63 493.33L363.38 492.96L362.14 492.54L360.91 492.07L359.7 491.56L358.51 490.99L357.34 490.37L356.19 489.71L355.05 488.99L353.95 488.23L352.86 487.41L351.8 486.55L350.77 485.64L349.77 484.68L349.77 484.68L320 454.91L290.23 484.68L289.23 485.64L288.2 486.55L287.14 487.41L286.05 488.23L284.95 488.99L283.81 489.71L282.66 490.37L281.49 490.99L280.3 491.56L279.09 492.07L277.86 492.54L276.62 492.96L275.37 493.33L274.11 493.65L272.84 493.92L271.57 494.14L270.28 494.32L268.99 494.44L267.7 494.51L266.41 494.54L265.12 494.51L263.82 494.44L262.54 494.32L261.25 494.14L259.97 493.92L258.7 493.65L257.44 493.33L256.19 492.96L254.95 492.54L253.73 492.07L252.52 491.56L251.33 490.99L250.16 490.37L249 489.71L247.87 488.99L246.76 488.23L245.68 487.41L244.62 486.55L243.59 485.64L242.59 484.68L241.63 483.68L240.72 482.65L239.85 481.59L239.04 480.51L238.28 479.4L237.56 478.26L236.9 477.11L236.28 475.94L235.71 474.75L235.2 473.54L234.73 472.31L234.31 471.08L233.94 469.83L233.62 468.57L233.35 467.3L233.13 466.02L232.95 464.73L232.83 463.44L232.76 462.15L232.73 460.86L232.76 459.57L232.83 458.28L232.95 456.99L233.13 455.7L233.35 454.43L233.62 453.15L233.94 451.89L234.31 450.64L234.73 449.41L235.2 448.18L235.71 446.97L236.28 445.78L236.9 444.61L237.56 443.46L238.28 442.32L239.04 441.22L239.85 440.13L240.72 439.07L241.63 438.04L242.59 437.04L242.59 437.04L272.36 407.27L242.59 377.5L241.63 376.49L240.72 375.46L239.85 374.41L239.04 373.32L238.28 372.21L237.56 371.08L236.9 369.93L236.28 368.76L235.71 367.56L235.2 366.36L234.73 365.13L234.31 363.89L233.94 362.64L233.62 361.38L233.35 360.11L233.13 358.83L232.95 357.55L232.83 356.26L232.76 354.97L232.73 353.68L232.76 352.38L232.83 351.09L232.95 349.8L233.13 348.52L233.35 347.24L233.62 345.97L233.94 344.71L234.31 343.46L234.73 342.22L235.2 341L235.71 339.79L236.28 338.6L236.9 337.43L237.56 336.27L238.28 335.14L239.04 334.03L239.85 332.95L240.72 331.89L241.63 330.86L242.59 329.86L243.59 328.9L244.62 327.99L245.68 327.12L246.76 326.31L247.87 325.55L249 324.83L250.16 324.17L251.33 323.55L252.52 322.98L253.73 322.46L254.95 322L256.19 321.58L257.44 321.21L258.7 320.89L259.97 320.62L261.25 320.39L262.54 320.22L263.82 320.1L265.12 320.02L266.41 320L267.7 320.02L268.99 320.1ZM387.37 168.42L488.42 168.42L488.42 147.66L408.13 67.37L387.37 67.37L387.37 168.42Z" id="d2Kq0ft1Y"></path></defs><g><g><g><use xlink:href="#d2Kq0ft1Y" opacity="1" fill="#000000" fill-opacity="1"></use></g></g></g></svg>