<?xml version="1.0" encoding="UTF-8" standalone="no"?>
<!DOCTYPE svg PUBLIC "-//W3C//DTD SVG 1.1//EN" "http://www.w3.org/Graphics/SVG/1.1/DTD/svg11.dtd">
<svg version="1.1" xmlns="http://www.w3.org/2000/svg" xmlns:xlink="http://www.w3.org/1999/xlink" preserveAspectRatio="xMidYMid meet" viewBox="0 0 640 640" width="640" height="640"><defs><path d="M47.24 67.37L114.6 67.37L114.6 572.63L47.24 572.63L47.24 67.37Z" id="aS903LOZc"></path><path d="M114.6 572.63L451.44 572.63L451.44 640L114.6 640L114.6 572.63Z" id="a7V4Z3on"></path><path d="M47.24 538.95L114.6 538.95L114.6 606.32L47.24 606.32L47.24 538.95Z" id="e6iXqtP6K"></path><path d="M80.92 572.63L148.29 572.63L148.29 640L80.92 640L80.92 572.63Z" id="a1ST4uIxW0"></path><path d="M114.6 606.32C114.6 624.91 99.51 640 80.92 640C62.33 640 47.24 624.91 47.24 606.32C47.24 587.72 62.33 572.63 80.92 572.63C99.51 572.63 114.6 587.72 114.6 606.32Z" id="dRGNwaVRJ"></path><path d="M451.44 137.76L518.81 137.76L518.81 575.65L451.44 575.65L451.44 137.76Z" id="b1iaATDlQ"></path><path d="M114.6 0L384.08 0L384.08 67.37L114.6 67.37L114.6 0Z" id="b3R1wAbp9g"></path><path d="M47.24 33.68L114.6 33.68L114.6 101.05L47.24 101.05L47.24 33.68Z" id="c1DknuYfdy"></path><path d="M417.76 572.63L485.13 572.63L485.13 640L417.76 640L417.76 572.63Z" id="beqBhfLsH"></path><path d="M511.69 112.99L512.5 114.07L513.27 115.18L513.98 116.31L514.65 117.46L515.26 118.64L515.83 119.83L516.35 121.04L516.82 122.26L517.23 123.5L517.6 124.75L517.92 126.01L518.2 127.28L518.42 128.56L518.59 129.84L518.71 131.13L518.79 132.42L518.81 133.71L518.79 135.01L518.71 136.3L518.59 137.59L518.42 138.87L518.2 140.15L517.92 141.42L517.6 142.68L517.23 143.93L516.82 145.17L516.35 146.39L515.83 147.6L515.26 148.79L514.65 149.97L513.98 151.12L513.27 152.25L512.5 153.36L511.69 154.44L510.83 155.5L509.91 156.53L508.95 157.53L507.95 158.49L506.92 159.41L505.86 160.27L504.78 161.08L503.67 161.85L502.54 162.56L501.39 163.23L500.21 163.84L499.02 164.41L497.81 164.93L496.59 165.4L495.35 165.81L494.1 166.18L492.84 166.5L491.57 166.78L490.29 167L489.01 167.17L487.72 167.29L486.43 167.37L485.13 167.39L483.84 167.37L482.55 167.29L481.26 167.17L479.98 167L478.7 166.78L477.43 166.5L476.17 166.18L474.92 165.81L473.68 165.4L472.46 164.93L471.25 164.41L470.06 163.84L468.88 163.23L467.73 162.56L466.6 161.85L465.49 161.08L464.41 160.27L463.35 159.41L462.32 158.49L461.32 157.53L361.28 57.5L360.32 56.49L359.41 55.46L358.54 54.41L357.73 53.32L356.97 52.21L356.25 51.08L355.59 49.93L354.97 48.76L354.4 47.56L353.89 46.36L353.42 45.13L353 43.89L352.63 42.64L352.31 41.38L352.04 40.11L351.82 38.83L351.64 37.55L351.52 36.26L351.45 34.97L351.42 33.68L351.45 32.38L351.52 31.09L351.64 29.8L351.82 28.52L352.04 27.24L352.31 25.97L352.63 24.71L353 23.46L353.42 22.22L353.89 21L354.4 19.79L354.97 18.6L355.59 17.43L356.25 16.27L356.97 15.14L357.73 14.03L358.54 12.95L359.41 11.89L360.32 10.86L361.28 9.86L362.28 8.9L363.31 7.99L364.37 7.12L365.45 6.31L366.56 5.55L367.69 4.83L368.85 4.17L370.02 3.55L371.21 2.98L372.42 2.46L373.64 2L374.88 1.58L376.13 1.21L377.39 0.89L378.66 0.62L379.94 0.39L381.22 0.22L382.51 0.1L383.81 0.02L385.1 0L386.39 0.02L387.68 0.1L388.97 0.22L390.26 0.39L391.53 0.62L392.8 0.89L394.06 1.21L395.31 1.58L396.55 2L397.78 2.46L398.98 2.98L400.18 3.55L401.35 4.17L402.5 4.83L403.63 5.55L404.74 6.31L405.83 7.12L406.89 7.99L407.92 8.9L408.92 9.86L508.95 109.9L508.95 109.9L509.91 110.9L510.83 111.93L511.69 112.99Z" id="m2dZlR7rvc"></path><path d="M518.81 137.76C518.81 156.35 503.72 171.44 485.13 171.44C466.54 171.44 451.44 156.35 451.44 137.76C451.44 119.17 466.54 104.08 485.13 104.08C503.72 104.08 518.81 119.17 518.81 137.76Z" id="c1gvKQujUy"></path><path d="M417.76 33.68C417.76 52.28 402.67 67.37 384.08 67.37C365.49 67.37 350.39 52.28 350.39 33.68C350.39 15.09 365.49 0 384.08 0C402.67 0 417.76 15.09 417.76 33.68Z" id="coDTHkz7N"></path><path d="M451.44 538.95L518.81 538.95L518.81 606.32L451.44 606.32L451.44 538.95Z" id="b6zlljCbuO"></path><path d="M80.92 0L148.29 0L148.29 67.37L80.92 67.37L80.92 0Z" id="a25b0VVhnf"></path><path d="M518.81 606.32C518.81 624.91 503.72 640 485.13 640C466.54 640 451.44 624.91 451.44 606.32C451.44 587.72 466.54 572.63 485.13 572.63C503.72 572.63 518.81 587.72 518.81 606.32Z" id="a164AlkyqH"></path><path d="M114.6 33.68C114.6 52.28 99.51 67.37 80.92 67.37C62.33 67.37 47.24 52.28 47.24 33.68C47.24 15.09 62.33 0 80.92 0C99.51 0 114.6 15.09 114.6 33.68Z" id="a2qYVs9fM"></path><path d="M283.02 67.37L350.39 67.37L350.39 168.42L283.02 168.42L283.02 67.37Z" id="c1MqJwMZg"></path><path d="M451.44 168.42L451.44 235.79L350.39 235.79L350.39 168.42L451.44 168.42Z" id="eoaCnAMnj"></path><path d="M316.71 168.42L384.08 168.42L384.08 235.79L316.71 235.79L316.71 168.42Z" id="bcR47G4lq"></path><path d="M283.02 133.71L350.39 133.71L350.39 201.08L283.02 201.08L283.02 133.71Z" id="e5ViZ9O29"></path><path d="M350.39 202.11C350.39 220.7 335.3 235.79 316.71 235.79C298.12 235.79 283.02 220.7 283.02 202.11C283.02 183.51 298.12 168.42 316.71 168.42C335.3 168.42 350.39 183.51 350.39 202.11Z" id="c5QNcCyBfS"></path><path d="M417.76 168.42L485.13 168.42L485.13 235.79L417.76 235.79L417.76 168.42Z" id="g7eZ3Cgjsg"></path><path d="M283.02 33.68L350.39 33.68L350.39 101.05L283.02 101.05L283.02 33.68Z" id="bHHnmuzO"></path><path d="" id="dgCb6x5cQ"></path><path d="" id="b3rVd8UajG"></path><path d="M170.89 538.81L169.58 538.64L168.3 538.4L167.04 538.1L165.81 537.74L164.61 537.32L163.43 536.84L162.28 536.3L161.17 535.71L160.09 535.06L159.04 534.36L158.03 533.62L157.07 532.82L156.14 531.98L155.25 531.1L154.41 530.17L153.62 529.2L152.87 528.19L152.17 527.15L151.53 526.07L150.94 524.95L150.4 523.81L149.92 522.63L149.5 521.42L149.13 520.19L148.83 518.93L148.6 517.65L148.43 516.35L148.32 515.03L148.29 513.68L148.32 512.34L148.43 511.02L148.6 509.72L148.83 508.44L149.13 507.18L149.5 505.95L149.92 504.74L150.4 503.56L150.94 502.42L151.53 501.3L152.17 500.22L152.87 499.18L153.62 498.17L154.41 497.2L155.25 496.27L156.14 495.39L157.07 494.55L158.03 493.75L159.04 493.01L160.09 492.31L161.17 491.66L162.28 491.07L163.43 490.53L164.61 490.05L165.81 489.63L167.04 489.27L168.3 488.97L169.58 488.73L170.89 488.56L172.21 488.46L173.55 488.42L392.5 488.42L393.84 488.46L395.16 488.56L396.46 488.73L397.74 488.97L399 489.27L400.24 489.63L401.44 490.05L402.62 490.53L403.76 491.07L404.88 491.66L405.96 492.31L407.01 493.01L408.01 493.75L408.98 494.55L409.91 495.39L410.79 496.27L411.63 497.2L412.43 498.17L413.18 499.18L413.87 500.22L414.52 501.3L415.11 502.42L415.65 503.56L416.13 504.74L416.55 505.95L416.91 507.18L417.21 508.44L417.45 509.72L417.62 511.02L417.72 512.34L417.76 513.68L417.72 515.03L417.62 516.35L417.45 517.65L417.21 518.93L416.91 520.19L416.55 521.42L416.13 522.63L415.65 523.81L415.11 524.95L414.52 526.07L413.87 527.15L413.18 528.19L412.43 529.2L411.63 530.17L410.79 531.1L409.91 531.98L408.98 532.82L408.01 533.62L407.01 534.36L405.96 535.06L404.88 535.71L403.76 536.3L402.62 536.84L401.44 537.32L400.24 537.74L399 538.1L397.74 538.4L396.46 538.64L395.16 538.81L393.84 538.91L392.5 538.95L392.5 538.95L173.55 538.95L172.21 538.91L170.89 538.81Z" id="f1FohsHwFi"></path><path d="M170.89 370.39L169.58 370.22L168.3 369.98L167.04 369.68L165.81 369.32L164.61 368.89L163.43 368.41L162.28 367.88L161.17 367.28L160.09 366.64L159.04 365.94L158.03 365.2L157.07 364.4L156.14 363.56L155.25 362.68L154.41 361.75L153.62 360.78L152.87 359.77L152.17 358.73L151.53 357.65L150.94 356.53L150.4 355.38L149.92 354.21L149.5 353L149.13 351.77L148.83 350.51L148.6 349.23L148.43 347.93L148.32 346.6L148.29 345.26L148.32 343.92L148.43 342.6L148.6 341.3L148.83 340.02L149.13 338.76L149.5 337.53L149.92 336.32L150.4 335.14L150.94 334L151.53 332.88L152.17 331.8L152.87 330.75L153.62 329.75L154.41 328.78L155.25 327.85L156.14 326.97L157.07 326.13L158.03 325.33L159.04 324.58L160.09 323.89L161.17 323.24L162.28 322.65L163.43 322.11L164.61 321.63L165.81 321.21L167.04 320.85L168.3 320.55L169.58 320.31L170.89 320.14L172.21 320.04L173.55 320L392.5 320L393.84 320.04L395.16 320.14L396.46 320.31L397.74 320.55L399 320.85L400.24 321.21L401.44 321.63L402.62 322.11L403.76 322.65L404.88 323.24L405.96 323.89L407.01 324.58L408.01 325.33L408.98 326.13L409.91 326.97L410.79 327.85L411.63 328.78L412.43 329.75L413.18 330.75L413.87 331.8L414.52 332.88L415.11 334L415.65 335.14L416.13 336.32L416.55 337.53L416.91 338.76L417.21 340.02L417.45 341.3L417.62 342.6L417.72 343.92L417.76 345.26L417.72 346.6L417.62 347.93L417.45 349.23L417.21 350.51L416.91 351.77L416.55 353L416.13 354.21L415.65 355.38L415.11 356.53L414.52 357.65L413.87 358.73L413.18 359.77L412.43 360.78L411.63 361.75L410.79 362.68L409.91 363.56L408.98 364.4L408.01 365.2L407.01 365.94L405.96 366.64L404.88 367.28L403.76 367.88L402.62 368.41L401.44 368.89L400.24 369.32L399 369.68L397.74 369.98L396.46 370.22L395.16 370.39L393.84 370.49L392.5 370.53L392.5 370.53L173.55 370.53L172.21 370.49L170.89 370.39Z" id="a1y8NV3UF9"></path><path d="M170.89 454.6L169.58 454.43L168.3 454.19L167.04 453.89L165.81 453.53L164.61 453.11L163.43 452.62L162.28 452.09L161.17 451.49L160.09 450.85L159.04 450.15L158.03 449.41L157.07 448.61L156.14 447.77L155.25 446.89L154.41 445.96L153.62 444.99L152.87 443.98L152.17 442.94L151.53 441.86L150.94 440.74L150.4 439.59L149.92 438.42L149.5 437.21L149.13 435.98L148.83 434.72L148.6 433.44L148.43 432.14L148.32 430.81L148.29 429.47L148.32 428.13L148.43 426.81L148.6 425.51L148.83 424.23L149.13 422.97L149.5 421.74L149.92 420.53L150.4 419.35L150.94 418.21L151.53 417.09L152.17 416.01L152.87 414.97L153.62 413.96L154.41 412.99L155.25 412.06L156.14 411.18L157.07 410.34L158.03 409.54L159.04 408.79L160.09 408.1L161.17 407.45L162.28 406.86L163.43 406.32L164.61 405.84L165.81 405.42L167.04 405.06L168.3 404.76L169.58 404.52L170.89 404.35L172.21 404.25L173.55 404.21L173.55 404.21L392.5 404.21L392.5 404.21L393.84 404.25L395.16 404.35L396.46 404.52L397.74 404.76L399 405.06L400.24 405.42L401.44 405.84L402.62 406.32L403.76 406.86L404.88 407.45L405.96 408.1L407.01 408.79L408.01 409.54L408.98 410.34L409.91 411.18L410.79 412.06L411.63 412.99L412.43 413.96L413.18 414.97L413.87 416.01L414.52 417.09L415.11 418.21L415.65 419.35L416.13 420.53L416.55 421.74L416.91 422.97L417.21 424.23L417.45 425.51L417.62 426.81L417.72 428.13L417.76 429.47L417.72 430.81L417.62 432.14L417.45 433.44L417.21 434.72L416.91 435.98L416.55 437.21L416.13 438.42L415.65 439.59L415.11 440.74L414.52 441.86L413.87 442.94L413.18 443.98L412.43 444.99L411.63 445.96L410.79 446.89L409.91 447.77L408.98 448.61L408.01 449.41L407.01 450.15L405.96 450.85L404.88 451.49L403.76 452.09L402.62 452.62L401.44 453.11L400.24 453.53L399 453.89L397.74 454.19L396.46 454.43L395.16 454.6L393.84 454.7L392.5 454.74L173.55 454.74L172.21 454.7L170.89 454.6Z" id="a2iFwzqsaK"></path></defs><g><g><g><use xlink:href="#aS903LOZc" opacity="1" fill="#000000" fill-opacity="1"></use></g><g><use xlink:href="#a7V4Z3on" opacity="1" fill="#000000" fill-opacity="1"></use></g><g><use xlink:href="#e6iXqtP6K" opacity="1" fill="#000000" fill-opacity="1"></use></g><g><use xlink:href="#a1ST4uIxW0" opacity="1" fill="#000000" fill-opacity="1"></use></g><g><use xlink:href="#dRGNwaVRJ" opacity="1" fill="#000000" fill-opacity="1"></use></g><g><use xlink:href="#b1iaATDlQ" opacity="1" fill="#000000" fill-opacity="1"></use></g><g><use xlink:href="#b3R1wAbp9g" opacity="1" fill="#000000" fill-opacity="1"></use></g><g><use xlink:href="#c1DknuYfdy" opacity="1" fill="#000000" fill-opacity="1"></use></g><g><use xlink:href="#beqBhfLsH" opacity="1" fill="#000000" fill-opacity="1"></use></g><g><use xlink:href="#m2dZlR7rvc" opacity="1" fill="#000000" fill-opacity="1"></use></g><g><use xlink:href="#c1gvKQujUy" opacity="1" fill="#000000" fill-opacity="1"></use></g><g><use xlink:href="#coDTHkz7N" opacity="1" fill="#000000" fill-opacity="1"></use></g><g><use xlink:href="#b6zlljCbuO" opacity="1" fill="#000000" fill-opacity="1"></use></g><g><use xlink:href="#a25b0VVhnf" opacity="1" fill="#000000" fill-opacity="1"></use></g><g><use xlink:href="#a164AlkyqH" opacity="1" fill="#000000" fill-opacity="1"></use></g><g><use xlink:href="#a2qYVs9fM" opacity="1" fill="#000000" fill-opacity="1"></use></g><g><use xlink:href="#c1MqJwMZg" opacity="1" fill="#000000" fill-opacity="1"></use></g><g><use xlink:href="#eoaCnAMnj" opacity="1" fill="#000000" fill-opacity="1"></use></g><g><use xlink:href="#bcR47G4lq" opacity="1" fill="#000000" fill-opacity="1"></use></g><g><use xlink:href="#e5ViZ9O29" opacity="1" fill="#000000" fill-opacity="1"></use></g><g><use xlink:href="#c5QNcCyBfS" opacity="1" fill="#000000" fill-opacity="1"></use></g><g><use xlink:href="#g7eZ3Cgjsg" opacity="1" fill="#000000" fill-opacity="1"></use></g><g><use xlink:href="#bHHnmuzO" opacity="1" fill="#000000" fill-opacity="1"></use></g><g><g><use xlink:href="#dgCb6x5cQ" opacity="1" fill-opacity="0" stroke="#000000" stroke-width="10" stroke-opacity="1"></use></g></g><g><g><use xlink:href="#b3rVd8UajG" opacity="1" fill-opacity="0" stroke="#000000" stroke-width="10" stroke-opacity="1"></use></g></g><g><use xlink:href="#f1FohsHwFi" opacity="1" fill="#000000" fill-opacity="1"></use></g><g><use xlink:href="#a1y8NV3UF9" opacity="1" fill="#000000" fill-opacity="1"></use></g><g><use xlink:href="#a2iFwzqsaK" opacity="1" fill="#000000" fill-opacity="1"></use></g></g></g></svg>