<?xml version="1.0" encoding="UTF-8" standalone="no"?>
<!DOCTYPE svg PUBLIC "-//W3C//DTD SVG 1.1//EN" "http://www.w3.org/Graphics/SVG/1.1/DTD/svg11.dtd">
<svg version="1.1" xmlns="http://www.w3.org/2000/svg" xmlns:xlink="http://www.w3.org/1999/xlink" preserveAspectRatio="xMidYMid meet" viewBox="0 0 640 640" width="640" height="640"><defs><path d="M424.66 0.1L425.95 0.22L427.23 0.39L428.51 0.62L429.78 0.89L431.04 1.21L432.29 1.58L433.53 2L434.75 2.46L435.96 2.98L437.15 3.55L438.33 4.17L439.48 4.83L440.61 5.55L441.72 6.31L442.8 7.12L443.86 7.99L444.89 8.9L445.89 9.86L545.93 109.9L546.89 110.9L547.8 111.93L548.67 112.99L549.48 114.07L550.24 115.18L550.96 116.31L551.62 117.46L552.24 118.64L552.81 119.83L553.33 121.04L553.79 122.26L554.21 123.5L554.58 124.75L554.9 126.01L555.17 127.28L555.4 128.56L555.57 129.84L555.69 131.13L555.77 132.42L555.79 133.71L555.77 135.01L555.72 135.74L555.76 136.37L555.79 137.76L555.79 606.32L555.79 606.32L555.76 607.7L555.68 609.08L555.54 610.43L555.35 611.78L555.11 613.1L554.81 614.41L554.47 615.69L554.07 616.96L553.63 618.2L553.14 619.42L552.61 620.62L552.03 621.79L551.41 622.94L550.74 624.05L550.03 625.14L549.29 626.2L548.5 627.23L547.68 628.23L546.82 629.2L545.92 630.13L544.99 631.03L544.02 631.89L543.02 632.71L541.99 633.5L540.93 634.24L539.84 634.95L538.73 635.62L537.58 636.24L536.41 636.82L535.21 637.35L533.99 637.84L532.75 638.28L531.48 638.68L530.2 639.02L528.89 639.32L527.57 639.56L526.22 639.75L524.87 639.89L523.49 639.97L522.11 640L117.89 640L116.51 639.97L115.13 639.89L113.78 639.75L112.43 639.56L111.11 639.32L109.8 639.02L108.52 638.68L107.25 638.28L106.01 637.84L104.79 637.35L103.59 636.82L102.42 636.24L101.27 635.62L100.16 634.95L99.07 634.24L98.01 633.5L96.98 632.71L95.98 631.89L95.01 631.03L94.08 630.13L93.18 629.2L92.32 628.23L91.5 627.23L90.71 626.2L89.97 625.14L89.26 624.05L88.59 622.94L87.97 621.79L87.39 620.62L86.86 619.42L86.37 618.2L85.93 616.96L85.53 615.69L85.19 614.41L84.89 613.1L84.65 611.78L84.46 610.43L84.32 609.08L84.24 607.7L84.21 606.32L84.21 606.32L84.21 33.68L84.24 32.3L84.32 30.92L84.46 29.57L84.65 28.22L84.89 26.9L85.19 25.59L85.53 24.31L85.93 23.04L86.37 21.8L86.86 20.58L87.39 19.38L87.97 18.21L88.59 17.06L89.26 15.95L89.97 14.86L90.71 13.8L91.5 12.77L92.32 11.77L93.18 10.8L94.08 9.87L95.01 8.97L95.98 8.11L96.98 7.29L98.01 6.5L99.07 5.76L100.16 5.05L101.27 4.38L102.42 3.76L103.59 3.18L104.79 2.65L106.01 2.16L107.25 1.72L108.52 1.32L109.8 0.98L111.11 0.68L112.43 0.44L113.78 0.25L115.13 0.11L116.51 0.03L117.89 0L421.05 0L421.54 0.01L422.08 0L423.37 0.02L424.66 0.1ZM151.58 572.63L488.42 572.63L488.42 235.79L353.68 235.79L353.68 235.79L352.3 235.76L350.92 235.68L349.57 235.54L348.22 235.35L346.9 235.1L345.59 234.81L344.31 234.46L343.04 234.07L341.8 233.63L340.58 233.14L339.38 232.61L338.21 232.03L337.06 231.4L335.95 230.74L334.86 230.03L333.8 229.29L332.77 228.5L331.77 227.68L330.8 226.82L329.87 225.92L328.97 224.99L328.11 224.02L327.29 223.02L326.5 221.99L325.76 220.93L325.05 219.84L324.38 218.72L323.76 217.58L323.18 216.41L322.65 215.21L322.16 213.99L321.72 212.75L321.32 211.48L320.98 210.2L320.68 208.89L320.44 207.57L320.25 206.22L320.11 204.87L320.03 203.49L320 202.11L320.02 201.08L320 201.08L320 67.37L151.58 67.37L151.58 572.63ZM282.29 477.45L281.25 478.25L280.18 478.99L279.07 479.67L277.95 480.28L276.79 480.84L275.62 481.33L274.43 481.76L273.22 482.13L272 482.44L270.77 482.68L269.53 482.87L268.28 482.99L267.03 483.05L265.78 483.05L264.53 482.99L263.29 482.87L262.05 482.68L260.81 482.44L259.59 482.13L258.39 481.76L257.2 481.33L256.02 480.84L254.87 480.28L253.74 479.67L252.64 478.99L251.57 478.25L250.53 477.45L249.52 476.59L248.54 475.67L247.62 474.69L246.76 473.68L245.96 472.64L245.22 471.57L244.54 470.47L243.93 469.34L243.37 468.19L242.88 467.02L242.45 465.82L242.08 464.62L241.77 463.4L241.53 462.16L241.34 460.92L241.22 459.68L241.16 458.43L241.16 457.18L241.22 455.93L241.34 454.68L241.53 453.44L241.77 452.21L242.08 450.99L242.45 449.78L242.88 448.59L243.37 447.42L243.93 446.26L244.54 445.14L245.22 444.04L245.96 442.96L246.76 441.92L247.62 440.91L248.54 439.94L248.55 439.94L284.27 404.21L248.54 368.48L248.55 368.48L247.62 367.51L246.76 366.5L245.96 365.46L245.22 364.39L244.54 363.28L243.93 362.16L243.37 361.01L242.88 359.83L242.45 358.64L242.08 357.43L241.77 356.21L241.53 354.98L241.34 353.74L241.22 352.5L241.16 351.25L241.16 349.99L241.22 348.74L241.34 347.5L241.53 346.26L241.77 345.02L242.08 343.8L242.45 342.6L242.88 341.41L243.37 340.23L243.93 339.08L244.54 337.95L245.22 336.85L245.96 335.78L246.76 334.74L247.62 333.73L248.54 332.76L249.52 331.83L250.53 330.97L251.57 330.17L252.64 329.43L253.74 328.75L254.87 328.14L256.02 327.58L257.2 327.09L258.39 326.66L259.59 326.29L260.81 325.98L262.05 325.74L263.29 325.55L264.53 325.43L265.78 325.37L267.03 325.37L268.28 325.43L269.53 325.55L270.77 325.74L272 325.98L273.22 326.29L274.43 326.66L275.62 327.09L276.79 327.58L277.95 328.14L279.07 328.75L280.18 329.43L281.25 330.17L282.29 330.97L283.3 331.83L284.27 332.76L284.27 332.76L320 368.48L355.73 332.76L355.73 332.76L356.7 331.83L357.71 330.97L358.75 330.17L359.82 329.43L360.93 328.75L362.05 328.14L363.21 327.58L364.38 327.09L365.57 326.66L366.78 326.29L368 325.98L369.23 325.74L370.47 325.55L371.72 325.43L372.97 325.37L374.22 325.37L375.47 325.43L376.71 325.55L377.95 325.74L379.19 325.98L380.41 326.29L381.61 326.66L382.8 327.09L383.98 327.58L385.13 328.14L386.26 328.75L387.36 329.43L388.43 330.17L389.47 330.97L390.48 331.83L391.46 332.76L392.38 333.73L393.24 334.74L394.04 335.78L394.78 336.85L395.46 337.95L396.07 339.08L396.63 340.23L397.12 341.41L397.55 342.6L397.92 343.8L398.23 345.02L398.47 346.26L398.66 347.5L398.78 348.74L398.84 349.99L398.84 351.25L398.78 352.5L398.66 353.74L398.47 354.98L398.23 356.21L397.92 357.43L397.55 358.64L397.12 359.83L396.63 361.01L396.07 362.16L395.46 363.28L394.78 364.39L394.04 365.46L393.24 366.5L392.38 367.51L391.46 368.48L391.46 368.48L355.73 404.21L391.46 439.94L392.38 440.91L393.24 441.92L394.04 442.96L394.78 444.04L395.46 445.14L396.07 446.26L396.63 447.42L397.12 448.59L397.55 449.78L397.92 450.99L398.23 452.21L398.47 453.44L398.66 454.68L398.78 455.93L398.84 457.18L398.84 458.43L398.78 459.68L398.66 460.92L398.47 462.16L398.23 463.4L397.92 464.62L397.55 465.82L397.12 467.02L396.63 468.19L396.07 469.34L395.46 470.47L394.78 471.57L394.04 472.64L393.24 473.68L392.38 474.69L391.46 475.67L390.48 476.59L389.47 477.45L388.43 478.25L387.36 478.99L386.26 479.67L385.13 480.28L383.98 480.84L382.8 481.33L381.61 481.76L380.41 482.13L379.19 482.44L377.95 482.68L376.71 482.87L375.47 482.99L374.22 483.05L372.97 483.05L371.72 482.99L370.47 482.87L369.23 482.68L368 482.44L366.78 482.13L365.57 481.76L364.38 481.33L363.21 480.84L362.05 480.28L360.93 479.67L359.82 478.99L358.75 478.25L357.71 477.45L356.7 476.59L355.73 475.67L320 439.94L284.27 475.67L283.3 476.59L282.29 477.45ZM387.37 168.42L488.42 168.42L488.42 147.66L408.13 67.37L387.37 67.37L387.37 168.42Z" id="e3lTgpRXO"></path></defs><g><g><g><use xlink:href="#e3lTgpRXO" opacity="1" fill="#000000" fill-opacity="1"></use></g></g></g></svg>