<?xml version="1.0" encoding="UTF-8" standalone="no"?>
<!DOCTYPE svg PUBLIC "-//W3C//DTD SVG 1.1//EN" "http://www.w3.org/Graphics/SVG/1.1/DTD/svg11.dtd">
<svg version="1.1" xmlns="http://www.w3.org/2000/svg" xmlns:xlink="http://www.w3.org/1999/xlink" preserveAspectRatio="xMidYMid meet" viewBox="0 0 640 640" width="640" height="640"><defs><path d="M424.66 0.1L425.95 0.22L427.23 0.39L428.51 0.62L429.78 0.89L431.04 1.21L432.29 1.58L433.53 2L434.75 2.46L435.96 2.98L437.15 3.55L438.33 4.17L439.48 4.83L440.61 5.55L441.72 6.31L442.8 7.12L443.86 7.99L444.89 8.9L445.89 9.86L545.93 109.9L545.93 109.9L546.89 110.9L547.8 111.93L548.67 112.99L549.48 114.07L550.24 115.18L550.96 116.31L551.62 117.46L552.24 118.64L552.81 119.83L553.32 121.04L553.79 122.26L554.21 123.5L554.58 124.75L554.9 126.01L555.17 127.28L555.39 128.56L555.57 129.84L555.69 131.13L555.76 132.42L555.79 133.71L555.76 135.01L555.72 135.74L555.76 136.37L555.79 137.76L555.79 606.32L555.79 606.32L555.76 607.7L555.68 609.08L555.54 610.43L555.35 611.78L555.1 613.1L554.81 614.41L554.46 615.69L554.07 616.96L553.63 618.2L553.14 619.42L552.61 620.62L552.03 621.79L551.4 622.94L550.74 624.05L550.03 625.14L549.29 626.2L548.5 627.23L547.68 628.23L546.82 629.2L545.92 630.13L544.99 631.03L544.02 631.89L543.02 632.71L541.99 633.5L540.93 634.24L539.84 634.95L538.72 635.62L537.58 636.24L536.41 636.82L535.21 637.35L533.99 637.84L532.75 638.28L531.48 638.68L530.2 639.02L528.89 639.32L527.57 639.56L526.22 639.75L524.87 639.89L523.49 639.97L522.1 640L117.9 640L116.51 639.97L115.13 639.89L113.78 639.75L112.43 639.56L111.11 639.32L109.8 639.02L108.52 638.68L107.25 638.28L106.01 637.84L104.79 637.35L103.59 636.82L102.42 636.24L101.28 635.62L100.16 634.95L99.07 634.24L98.01 633.5L96.98 632.71L95.98 631.89L95.01 631.03L94.08 630.13L93.18 629.2L92.32 628.23L91.5 627.23L90.71 626.2L89.97 625.14L89.26 624.05L88.6 622.94L87.97 621.79L87.39 620.62L86.86 619.42L86.37 618.2L85.93 616.96L85.54 615.69L85.19 614.41L84.9 613.1L84.65 611.78L84.46 610.43L84.32 609.08L84.24 607.7L84.21 606.32L84.21 606.32L84.21 33.68L84.24 32.3L84.32 30.92L84.46 29.57L84.65 28.22L84.9 26.9L85.19 25.59L85.54 24.31L85.93 23.04L86.37 21.8L86.86 20.58L87.39 19.38L87.97 18.21L88.6 17.06L89.26 15.95L89.97 14.86L90.71 13.8L91.5 12.77L92.32 11.77L93.18 10.8L94.08 9.87L95.01 8.97L95.98 8.11L96.98 7.29L98.01 6.5L99.07 5.76L100.16 5.05L101.28 4.38L102.42 3.76L103.59 3.18L104.79 2.65L106.01 2.16L107.25 1.72L108.52 1.32L109.8 0.98L111.11 0.68L112.43 0.44L113.78 0.25L115.13 0.11L116.51 0.03L117.9 0L421.05 0L421.54 0.01L422.08 0L423.37 0.02L424.66 0.1ZM151.58 572.63L488.42 572.63L488.42 235.79L353.68 235.79L352.3 235.76L350.92 235.68L349.57 235.54L348.22 235.35L346.9 235.1L345.59 234.81L344.31 234.46L343.04 234.07L341.8 233.63L340.58 233.14L339.38 232.61L338.21 232.03L337.06 231.4L335.95 230.74L334.86 230.03L333.8 229.29L332.77 228.5L331.77 227.68L330.8 226.82L329.87 225.92L328.97 224.99L328.11 224.02L327.29 223.02L326.5 221.99L325.76 220.93L325.05 219.84L324.38 218.72L323.76 217.58L323.18 216.41L322.65 215.21L322.16 213.99L321.72 212.75L321.32 211.48L320.98 210.2L320.68 208.89L320.44 207.57L320.25 206.22L320.11 204.87L320.03 203.49L320 202.11L320.02 201.08L320 201.08L320 67.37L151.58 67.37L151.58 572.63ZM430.81 437.93L432.14 438.03L433.44 438.2L434.72 438.44L435.98 438.74L437.21 439.1L438.42 439.53L439.59 440.01L440.74 440.54L441.86 441.14L442.94 441.78L443.98 442.48L444.99 443.23L445.96 444.02L446.89 444.86L447.77 445.75L448.61 446.67L449.41 447.64L450.15 448.65L450.85 449.69L451.49 450.78L452.09 451.89L452.62 453.04L453.1 454.21L453.53 455.42L453.89 456.65L454.19 457.91L454.43 459.19L454.6 460.49L454.7 461.82L454.74 463.16L454.7 464.5L454.6 465.82L454.43 467.12L454.19 468.41L453.89 469.66L453.53 470.9L453.1 472.1L452.62 473.28L452.09 474.43L451.49 475.54L450.85 476.62L450.15 477.67L449.41 478.67L448.61 479.64L447.77 480.57L446.89 481.46L445.96 482.3L444.99 483.09L443.98 483.84L442.94 484.53L441.86 485.18L440.74 485.77L439.59 486.31L438.42 486.79L437.21 487.21L435.98 487.57L434.72 487.87L433.44 488.11L432.14 488.28L430.81 488.39L429.47 488.42L429.47 488.42L210.53 488.42L209.19 488.39L207.86 488.28L206.56 488.11L205.28 487.87L204.02 487.57L202.79 487.21L201.58 486.79L200.41 486.31L199.26 485.77L198.14 485.18L197.06 484.53L196.02 483.84L195.01 483.09L194.04 482.3L193.11 481.46L192.23 480.57L191.39 479.64L190.59 478.67L189.85 477.67L189.15 476.62L188.51 475.54L187.91 474.43L187.38 473.28L186.9 472.1L186.47 470.9L186.11 469.66L185.81 468.41L185.57 467.12L185.4 465.82L185.3 464.5L185.26 463.16L185.3 461.82L185.4 460.49L185.57 459.19L185.81 457.91L186.11 456.65L186.47 455.42L186.9 454.21L187.38 453.04L187.91 451.89L188.51 450.78L189.15 449.69L189.85 448.65L190.59 447.64L191.39 446.67L192.23 445.75L193.11 444.86L194.04 444.02L195.01 443.23L196.02 442.48L197.06 441.78L198.14 441.14L199.26 440.54L200.41 440.01L201.58 439.53L202.79 439.1L204.02 438.74L205.28 438.44L206.56 438.2L207.86 438.03L209.19 437.93L210.53 437.89L429.47 437.89L429.47 437.9L430.81 437.93ZM430.81 353.72L432.14 353.82L433.44 353.99L434.72 354.23L435.98 354.53L437.21 354.89L438.42 355.32L439.59 355.8L440.74 356.33L441.86 356.93L442.94 357.57L443.98 358.27L444.99 359.02L445.96 359.81L446.89 360.65L447.77 361.54L448.61 362.46L449.41 363.43L450.15 364.44L450.85 365.48L451.49 366.56L452.09 367.68L452.62 368.83L453.1 370L453.53 371.21L453.89 372.44L454.19 373.7L454.43 374.98L454.6 376.28L454.7 377.61L454.74 378.95L454.7 380.29L454.6 381.61L454.43 382.91L454.19 384.2L453.89 385.45L453.53 386.69L453.1 387.89L452.62 389.07L452.09 390.22L451.49 391.33L450.85 392.41L450.15 393.46L449.41 394.46L448.61 395.43L447.77 396.36L446.89 397.24L445.96 398.09L444.99 398.88L443.98 399.63L442.94 400.32L441.86 400.97L440.74 401.56L439.59 402.1L438.42 402.58L437.21 403L435.98 403.36L434.72 403.66L433.44 403.9L432.14 404.07L430.81 404.18L429.47 404.21L210.53 404.21L209.19 404.18L207.86 404.07L206.56 403.9L205.28 403.66L204.02 403.36L202.79 403L201.58 402.58L200.41 402.1L199.26 401.56L198.14 400.97L197.06 400.32L196.02 399.63L195.01 398.88L194.04 398.09L193.11 397.24L192.23 396.36L191.39 395.43L190.59 394.46L189.85 393.46L189.15 392.41L188.51 391.33L187.91 390.22L187.38 389.07L186.9 387.89L186.47 386.69L186.11 385.45L185.81 384.2L185.57 382.91L185.4 381.61L185.3 380.29L185.26 378.95L185.3 377.61L185.4 376.28L185.57 374.98L185.81 373.7L186.11 372.44L186.47 371.21L186.9 370L187.38 368.83L187.91 367.68L188.51 366.56L189.15 365.48L189.85 364.44L190.59 363.43L191.39 362.46L192.23 361.54L193.11 360.65L194.04 359.81L195.01 359.02L196.02 358.27L197.06 357.57L198.14 356.93L199.26 356.33L200.41 355.8L201.58 355.32L202.79 354.89L204.02 354.53L205.28 354.23L206.56 353.99L207.86 353.82L209.19 353.72L210.53 353.68L429.47 353.68L430.81 353.72ZM430.81 269.51L432.14 269.61L433.44 269.78L434.72 270.02L435.98 270.32L437.21 270.68L438.42 271.11L439.59 271.59L440.74 272.12L441.86 272.72L442.94 273.36L443.98 274.06L444.99 274.8L445.96 275.6L446.89 276.44L447.77 277.32L448.61 278.25L449.41 279.22L450.15 280.23L450.85 281.27L451.49 282.35L452.09 283.47L452.62 284.62L453.1 285.79L453.53 287L453.89 288.23L454.19 289.49L454.43 290.77L454.6 292.07L454.7 293.4L454.74 294.74L454.7 296.08L454.6 297.4L454.43 298.7L454.19 299.98L453.89 301.24L453.53 302.47L453.1 303.68L452.62 304.86L452.09 306L451.49 307.12L450.85 308.2L450.15 309.25L449.41 310.25L448.61 311.22L447.77 312.15L446.89 313.03L445.96 313.87L444.99 314.67L443.98 315.42L442.94 316.11L441.86 316.76L440.74 317.35L439.59 317.89L438.42 318.37L437.21 318.79L435.98 319.15L434.72 319.45L433.44 319.69L432.14 319.86L430.81 319.96L429.47 320L210.53 320L209.19 319.96L207.86 319.86L206.56 319.69L205.28 319.45L204.02 319.15L202.79 318.79L201.58 318.37L200.41 317.89L199.26 317.35L198.14 316.76L197.06 316.11L196.02 315.42L195.01 314.67L194.04 313.87L193.11 313.03L192.23 312.15L191.39 311.22L190.59 310.25L189.85 309.25L189.15 308.2L188.51 307.12L187.91 306L187.38 304.86L186.9 303.68L186.47 302.47L186.11 301.24L185.81 299.98L185.57 298.7L185.4 297.4L185.3 296.08L185.26 294.74L185.3 293.4L185.4 292.07L185.57 290.77L185.81 289.49L186.11 288.23L186.47 287L186.9 285.79L187.38 284.62L187.91 283.47L188.51 282.35L189.15 281.27L189.85 280.23L190.59 279.22L191.39 278.25L192.23 277.32L193.11 276.44L194.04 275.6L195.01 274.8L196.02 274.06L197.06 273.36L198.14 272.72L199.26 272.12L200.41 271.59L201.58 271.11L202.79 270.68L204.02 270.32L205.28 270.02L206.56 269.78L207.86 269.61L209.19 269.51L210.53 269.47L429.47 269.47L429.47 269.47L430.81 269.51ZM263.64 185.4L264.94 185.57L266.22 185.81L267.48 186.11L268.71 186.47L269.92 186.89L271.09 187.37L272.24 187.91L273.36 188.5L274.44 189.15L275.48 189.85L276.49 190.59L277.46 191.39L278.39 192.23L279.27 193.11L280.11 194.04L280.91 195.01L281.65 196.02L282.35 197.06L282.99 198.14L283.59 199.26L284.12 200.4L284.6 201.58L285.03 202.79L285.39 204.02L285.69 205.28L285.93 206.56L286.1 207.86L286.2 209.18L286.24 210.53L286.2 211.87L286.1 213.19L285.93 214.49L285.69 215.77L285.39 217.03L285.03 218.26L284.6 219.47L284.12 220.65L283.59 221.79L282.99 222.91L282.35 223.99L281.65 225.03L280.91 226.04L280.11 227.01L279.27 227.94L278.39 228.82L277.46 229.66L276.49 230.46L275.48 231.2L274.44 231.9L273.36 232.55L272.24 233.14L271.09 233.68L269.92 234.16L268.71 234.58L267.48 234.94L266.22 235.24L264.94 235.48L263.64 235.65L262.31 235.75L260.97 235.79L260.97 235.79L210.45 235.79L210.45 235.78L209.78 235.78L208.47 235.72L207.18 235.58L205.9 235.38L204.64 235.12L203.4 234.79L202.19 234.41L201.01 233.96L199.85 233.46L198.72 232.9L197.62 232.29L196.56 231.63L195.53 230.91L194.54 230.15L193.59 229.33L192.68 228.48L191.81 227.57L190.98 226.63L190.21 225.64L189.48 224.62L188.8 223.55L188.17 222.45L187.6 221.32L187.08 220.15L186.62 218.95L186.22 217.72L185.89 216.46L185.61 215.17L185.4 213.86L185.26 212.53L185.19 211.19L185.19 209.86L185.26 208.55L185.39 207.25L185.59 205.98L185.86 204.72L186.18 203.48L186.57 202.27L187.01 201.09L187.51 199.93L188.07 198.8L188.68 197.7L189.35 196.64L190.06 195.61L190.83 194.62L191.64 193.67L192.5 192.76L193.4 191.89L194.35 191.06L195.33 190.29L196.36 189.56L197.42 188.88L198.52 188.25L199.66 187.68L200.83 187.16L202.03 186.7L203.26 186.3L204.52 185.97L205.8 185.69L207.11 185.48L208.44 185.34L209.78 185.27L210.45 185.27L210.45 185.26L260.93 185.26L260.97 185.26L262.31 185.3L263.64 185.4ZM387.37 168.42L488.42 168.42L488.42 147.66L408.13 67.37L387.37 67.37L387.37 168.42Z" id="bCc4PBzXO"></path></defs><g><g><g><use xlink:href="#bCc4PBzXO" opacity="1" fill="#000000" fill-opacity="1"></use></g></g></g></svg>