<?xml version="1.0" encoding="UTF-8" standalone="no"?>
<!DOCTYPE svg PUBLIC "-//W3C//DTD SVG 1.1//EN" "http://www.w3.org/Graphics/SVG/1.1/DTD/svg11.dtd">
<svg version="1.1" xmlns="http://www.w3.org/2000/svg" xmlns:xlink="http://www.w3.org/1999/xlink" preserveAspectRatio="xMidYMid meet" viewBox="0 0 640 640" width="640" height="640"><defs><path d="M424.66 0.1L425.95 0.22L427.23 0.39L428.51 0.62L429.78 0.89L431.04 1.21L432.29 1.58L433.53 2L434.75 2.46L435.96 2.98L437.15 3.55L438.33 4.17L439.48 4.83L440.61 5.55L441.72 6.31L442.8 7.12L443.86 7.99L444.89 8.9L445.89 9.86L545.93 109.9L546.89 110.9L547.8 111.93L548.67 112.99L549.48 114.07L550.24 115.18L550.96 116.31L551.62 117.46L552.24 118.64L552.81 119.83L553.33 121.04L553.79 122.26L554.21 123.5L554.58 124.75L554.9 126.01L555.17 127.28L555.4 128.56L555.57 129.84L555.69 131.13L555.77 132.42L555.79 133.71L555.77 135.01L555.72 135.74L555.76 136.37L555.79 137.76L555.79 606.32L555.79 606.32L555.76 607.7L555.68 609.08L555.54 610.43L555.35 611.78L555.11 613.1L554.81 614.41L554.47 615.69L554.07 616.96L553.63 618.2L553.14 619.42L552.61 620.62L552.03 621.79L551.41 622.94L550.74 624.05L550.03 625.14L549.29 626.2L548.5 627.23L547.68 628.23L546.82 629.2L545.92 630.13L544.99 631.03L544.02 631.89L543.02 632.71L541.99 633.5L540.93 634.24L539.84 634.95L538.73 635.62L537.58 636.24L536.41 636.82L535.21 637.35L533.99 637.84L532.75 638.28L531.48 638.68L530.2 639.02L528.89 639.32L527.57 639.56L526.22 639.75L524.87 639.89L523.49 639.97L522.11 640L117.89 640L116.51 639.97L115.13 639.89L113.78 639.75L112.43 639.56L111.11 639.32L109.8 639.02L108.52 638.68L107.25 638.28L106.01 637.84L104.79 637.35L103.59 636.82L102.42 636.24L101.27 635.62L100.16 634.95L99.07 634.24L98.01 633.5L96.98 632.71L95.98 631.89L95.01 631.03L94.08 630.13L93.18 629.2L92.32 628.23L91.5 627.23L90.71 626.2L89.97 625.14L89.26 624.05L88.59 622.94L87.97 621.79L87.39 620.62L86.86 619.42L86.37 618.2L85.93 616.96L85.53 615.69L85.19 614.41L84.89 613.1L84.65 611.78L84.46 610.43L84.32 609.08L84.24 607.7L84.21 606.32L84.21 606.32L84.21 33.68L84.24 32.3L84.32 30.92L84.46 29.57L84.65 28.22L84.89 26.9L85.19 25.59L85.53 24.31L85.93 23.04L86.37 21.8L86.86 20.58L87.39 19.38L87.97 18.21L88.59 17.06L89.26 15.95L89.97 14.86L90.71 13.8L91.5 12.77L92.32 11.77L93.18 10.8L94.08 9.87L95.01 8.97L95.98 8.11L96.98 7.29L98.01 6.5L99.07 5.76L100.16 5.05L101.27 4.38L102.42 3.76L103.59 3.18L104.79 2.65L106.01 2.16L107.25 1.72L108.52 1.32L109.8 0.98L111.11 0.68L112.43 0.44L113.78 0.25L115.13 0.11L116.51 0.03L117.89 0L421.05 0L421.54 0.01L422.08 0L423.37 0.02L424.66 0.1ZM151.58 572.63L488.42 572.63L488.42 235.79L353.68 235.79L353.68 235.79L352.3 235.76L350.92 235.68L349.57 235.54L348.22 235.35L346.9 235.1L345.59 234.81L344.31 234.46L343.04 234.07L341.8 233.63L340.58 233.14L339.38 232.61L338.21 232.03L337.06 231.4L335.95 230.74L334.86 230.03L333.8 229.29L332.77 228.5L331.77 227.68L330.8 226.82L329.87 225.92L328.97 224.99L328.11 224.02L327.29 223.02L326.5 221.99L325.76 220.93L325.05 219.84L324.38 218.72L323.76 217.58L323.18 216.41L322.65 215.21L322.16 213.99L321.72 212.75L321.32 211.48L320.98 210.2L320.68 208.89L320.44 207.57L320.25 206.22L320.11 204.87L320.03 203.49L320 202.11L320.02 201.08L320 201.08L320 67.37L151.58 67.37L151.58 572.63ZM388.76 372.07L390.13 372.15L391.49 372.29L392.83 372.48L394.15 372.72L395.46 373.02L396.75 373.36L398.01 373.76L399.25 374.2L400.47 374.69L401.67 375.22L402.84 375.8L403.99 376.42L405.11 377.09L406.2 377.79L407.26 378.54L408.29 379.33L409.28 380.15L410.25 381.01L411.18 381.91L412.08 382.84L412.94 383.81L413.76 384.8L414.55 385.83L415.3 386.89L416 387.98L416.67 389.1L417.29 390.25L417.87 391.42L418.4 392.62L418.89 393.84L419.33 395.08L419.73 396.35L420.07 397.63L420.37 398.94L420.61 400.26L420.8 401.6L420.94 402.96L421.02 404.33L421.05 405.72L421.02 407.11L420.94 408.48L420.8 409.84L420.61 411.18L420.37 412.51L420.07 413.81L419.73 415.1L419.33 416.36L418.89 417.61L418.4 418.83L417.87 420.02L417.29 421.2L416.67 422.34L416 423.46L415.3 424.55L414.55 425.61L413.76 426.64L412.94 427.64L412.08 428.6L411.18 429.54L410.25 430.43L409.28 431.29L408.29 432.12L407.26 432.9L406.2 433.65L405.11 434.36L403.99 435.02L402.84 435.64L401.67 436.22L400.47 436.76L399.25 437.25L398.01 437.69L396.75 438.08L395.46 438.43L394.15 438.72L392.83 438.97L391.49 439.16L390.13 439.29L388.76 439.38L387.37 439.41L387.37 439.41L252.63 439.41L251.24 439.38L249.87 439.29L248.51 439.16L247.17 438.97L245.85 438.72L244.54 438.43L243.25 438.08L241.99 437.69L240.75 437.25L239.53 436.76L238.33 436.22L237.16 435.64L236.01 435.02L234.89 434.36L233.8 433.65L232.74 432.9L231.71 432.12L230.72 431.29L229.75 430.43L228.82 429.54L227.92 428.6L227.06 427.64L226.24 426.64L225.45 425.61L224.7 424.55L224 423.46L223.33 422.34L222.71 421.2L222.13 420.02L221.6 418.83L221.11 417.61L220.67 416.36L220.27 415.1L219.93 413.81L219.63 412.51L219.39 411.18L219.2 409.84L219.06 408.48L218.98 407.11L218.95 405.72L218.98 404.33L219.06 402.96L219.2 401.6L219.39 400.26L219.63 398.94L219.93 397.63L220.27 396.35L220.67 395.08L221.11 393.84L221.6 392.62L222.13 391.42L222.71 390.25L223.33 389.1L224 387.98L224.7 386.89L225.45 385.83L226.24 384.8L227.06 383.81L227.92 382.84L228.82 381.91L229.75 381.01L230.72 380.15L231.71 379.33L232.74 378.54L233.8 377.79L234.89 377.09L236.01 376.42L237.16 375.8L238.33 375.22L239.53 374.69L240.75 374.2L241.99 373.76L243.25 373.36L244.54 373.02L245.85 372.72L247.17 372.48L248.51 372.29L249.87 372.15L251.24 372.07L252.63 372.04L252.63 372.04L387.37 372.04L387.37 372.04L388.76 372.07ZM387.37 168.42L488.42 168.42L488.42 147.66L408.13 67.37L387.37 67.37L387.37 168.42Z" id="c2L4nrpPA"></path></defs><g><g><g><use xlink:href="#c2L4nrpPA" opacity="1" fill="#000000" fill-opacity="1"></use></g></g></g></svg>