<?xml version="1.0" encoding="UTF-8" standalone="no"?>
<!DOCTYPE svg PUBLIC "-//W3C//DTD SVG 1.1//EN" "http://www.w3.org/Graphics/SVG/1.1/DTD/svg11.dtd">
<svg version="1.1" xmlns="http://www.w3.org/2000/svg" xmlns:xlink="http://www.w3.org/1999/xlink" preserveAspectRatio="xMidYMid meet" viewBox="0 0 640 640" width="640" height="640"><defs><path d="M424.66 0.1L425.95 0.22L427.23 0.39L428.51 0.62L429.78 0.89L431.04 1.21L432.29 1.58L433.53 2L434.75 2.46L435.96 2.98L437.15 3.55L438.33 4.17L439.48 4.83L440.61 5.55L441.72 6.31L442.8 7.12L443.86 7.99L444.89 8.9L445.89 9.86L545.93 109.9L546.89 110.9L547.8 111.93L548.67 112.99L549.48 114.07L550.24 115.18L550.96 116.31L551.62 117.46L552.24 118.64L552.81 119.83L553.33 121.04L553.79 122.26L554.21 123.5L554.58 124.75L554.9 126.01L555.17 127.28L555.4 128.56L555.57 129.84L555.69 131.13L555.77 132.42L555.79 133.71L555.77 135.01L555.72 135.74L555.76 136.37L555.79 137.76L555.79 606.32L555.79 606.32L555.76 607.7L555.68 609.08L555.54 610.43L555.35 611.78L555.11 613.1L554.81 614.41L554.47 615.69L554.07 616.96L553.63 618.2L553.14 619.42L552.61 620.62L552.03 621.79L551.41 622.94L550.74 624.05L550.03 625.14L549.29 626.2L548.5 627.23L547.68 628.23L546.82 629.2L545.92 630.13L544.99 631.03L544.02 631.89L543.02 632.71L541.99 633.5L540.93 634.24L539.84 634.95L538.73 635.62L537.58 636.24L536.41 636.82L535.21 637.35L533.99 637.84L532.75 638.28L531.48 638.68L530.2 639.02L528.89 639.32L527.57 639.56L526.22 639.75L524.87 639.89L523.49 639.97L522.11 640L117.89 640L116.51 639.97L115.13 639.89L113.78 639.75L112.43 639.56L111.11 639.32L109.8 639.02L108.52 638.68L107.25 638.28L106.01 637.84L104.79 637.35L103.59 636.82L102.42 636.24L101.27 635.62L100.16 634.95L99.07 634.24L98.01 633.5L96.98 632.71L95.98 631.89L95.01 631.03L94.08 630.13L93.18 629.2L92.32 628.23L91.5 627.23L90.71 626.2L89.97 625.14L89.26 624.05L88.59 622.94L87.97 621.79L87.39 620.62L86.86 619.42L86.37 618.2L85.93 616.96L85.53 615.69L85.19 614.41L84.89 613.1L84.65 611.78L84.46 610.43L84.32 609.08L84.24 607.7L84.21 606.32L84.21 606.32L84.21 33.68L84.24 32.3L84.32 30.92L84.46 29.57L84.65 28.22L84.89 26.9L85.19 25.59L85.53 24.31L85.93 23.04L86.37 21.8L86.86 20.58L87.39 19.38L87.97 18.21L88.59 17.06L89.26 15.95L89.97 14.86L90.71 13.8L91.5 12.77L92.32 11.77L93.18 10.8L94.08 9.87L95.01 8.97L95.98 8.11L96.98 7.29L98.01 6.5L99.07 5.76L100.16 5.05L101.27 4.38L102.42 3.76L103.59 3.18L104.79 2.65L106.01 2.16L107.25 1.72L108.52 1.32L109.8 0.98L111.11 0.68L112.43 0.44L113.78 0.25L115.13 0.11L116.51 0.03L117.89 0L421.05 0L421.54 0.01L422.08 0L423.37 0.02L424.66 0.1ZM151.58 572.63L488.42 572.63L488.42 235.79L353.68 235.79L353.68 235.79L352.3 235.76L350.92 235.68L349.57 235.54L348.22 235.35L346.9 235.1L345.59 234.81L344.31 234.46L343.04 234.07L341.8 233.63L340.58 233.14L339.38 232.61L338.21 232.03L337.06 231.4L335.95 230.74L334.86 230.03L333.8 229.29L332.77 228.5L331.77 227.68L330.8 226.82L329.87 225.92L328.97 224.99L328.11 224.02L327.29 223.02L326.5 221.99L325.76 220.93L325.05 219.84L324.38 218.72L323.76 217.58L323.18 216.41L322.65 215.21L322.16 213.99L321.72 212.75L321.32 211.48L320.98 210.2L320.68 208.89L320.44 207.57L320.25 206.22L320.11 204.87L320.03 203.49L320 202.11L320.02 201.08L320 201.08L320 67.37L151.58 67.37L151.58 572.63ZM322.66 303.3L323.97 303.47L325.25 303.7L326.51 304L327.74 304.37L328.94 304.79L330.12 305.27L331.27 305.81L332.38 306.4L333.46 307.05L334.51 307.74L335.52 308.49L336.48 309.28L337.41 310.12L338.3 311.01L339.14 311.94L339.93 312.9L340.68 313.91L341.38 314.96L342.02 316.04L342.61 317.15L343.15 318.3L343.63 319.48L344.05 320.68L344.42 321.92L344.72 323.17L344.95 324.45L345.12 325.76L345.23 327.08L345.26 328.42L345.26 378.95L395.79 378.95L397.13 378.98L398.45 379.09L399.76 379.26L401.04 379.49L402.3 379.79L403.53 380.16L404.73 380.58L405.91 381.06L407.06 381.6L408.17 382.19L409.25 382.83L410.3 383.53L411.31 384.28L412.27 385.07L413.2 385.91L414.09 386.8L414.93 387.73L415.72 388.69L416.47 389.7L417.17 390.75L417.81 391.83L418.4 392.94L418.94 394.09L419.42 395.27L419.84 396.47L420.21 397.71L420.51 398.96L420.74 400.24L420.91 401.55L421.02 402.87L421.05 404.21L421.02 405.55L420.91 406.87L420.74 408.18L420.51 409.46L420.21 410.72L419.84 411.95L419.42 413.15L418.94 414.33L418.4 415.48L417.81 416.59L417.17 417.67L416.47 418.72L415.72 419.73L414.93 420.7L414.09 421.62L413.2 422.51L412.27 423.35L411.31 424.14L410.3 424.89L409.25 425.59L408.17 426.23L407.06 426.82L405.91 427.36L404.73 427.84L403.53 428.26L402.3 428.63L401.04 428.93L399.76 429.16L398.45 429.33L397.13 429.44L395.79 429.47L345.26 429.47L345.26 480L345.23 481.34L345.12 482.66L344.95 483.97L344.72 485.25L344.42 486.51L344.05 487.74L343.63 488.94L343.15 490.12L342.61 491.27L342.02 492.38L341.38 493.46L340.68 494.51L339.93 495.52L339.14 496.48L338.3 497.41L337.41 498.3L336.48 499.14L335.52 499.93L334.51 500.68L333.46 501.38L332.38 502.02L331.27 502.61L330.12 503.15L328.94 503.63L327.74 504.05L326.51 504.42L325.25 504.72L323.97 504.95L322.66 505.12L321.34 505.23L320 505.26L318.66 505.23L317.34 505.12L316.03 504.95L314.75 504.72L313.49 504.42L312.26 504.05L311.06 503.63L309.88 503.15L308.73 502.61L307.62 502.02L306.54 501.38L305.49 500.68L304.48 499.93L303.52 499.14L302.59 498.3L301.7 497.41L300.86 496.48L300.07 495.52L299.32 494.51L298.62 493.46L297.98 492.38L297.39 491.27L296.85 490.12L296.37 488.94L295.95 487.74L295.58 486.51L295.28 485.25L295.05 483.97L294.88 482.66L294.77 481.34L294.74 480L294.74 429.47L244.21 429.47L242.87 429.44L241.55 429.33L240.24 429.16L238.96 428.93L237.7 428.63L236.47 428.26L235.27 427.84L234.09 427.36L232.94 426.82L231.83 426.23L230.75 425.59L229.7 424.89L228.69 424.14L227.73 423.35L226.8 422.51L225.91 421.62L225.07 420.7L224.28 419.73L223.53 418.72L222.83 417.67L222.19 416.59L221.6 415.48L221.06 414.33L220.58 413.15L220.16 411.95L219.79 410.72L219.49 409.46L219.26 408.18L219.09 406.87L218.98 405.55L218.95 404.21L218.98 402.87L219.09 401.55L219.26 400.24L219.49 398.96L219.79 397.71L220.16 396.47L220.58 395.27L221.06 394.09L221.6 392.94L222.19 391.83L222.83 390.75L223.53 389.7L224.28 388.69L225.07 387.73L225.91 386.8L226.8 385.91L227.73 385.07L228.69 384.28L229.7 383.53L230.75 382.83L231.83 382.19L232.94 381.6L234.09 381.06L235.27 380.58L236.47 380.16L237.7 379.79L238.96 379.49L240.24 379.26L241.55 379.09L242.87 378.98L244.21 378.95L294.74 378.95L294.74 328.42L294.77 327.08L294.88 325.76L295.05 324.45L295.28 323.17L295.58 321.92L295.95 320.68L296.37 319.48L296.85 318.3L297.39 317.15L297.98 316.04L298.62 314.96L299.32 313.91L300.07 312.9L300.86 311.94L301.7 311.01L302.59 310.12L303.52 309.28L304.48 308.49L305.49 307.74L306.54 307.05L307.62 306.4L308.73 305.81L309.88 305.27L311.06 304.79L312.26 304.37L313.49 304L314.75 303.7L316.03 303.47L317.34 303.3L318.66 303.19L320 303.16L321.34 303.19L322.66 303.3ZM387.37 168.42L488.42 168.42L488.42 147.66L408.13 67.37L387.37 67.37L387.37 168.42Z" id="bfhswdngo"></path></defs><g><g><g><use xlink:href="#bfhswdngo" opacity="1" fill="#000000" fill-opacity="1"></use></g></g></g></svg>