<?xml version="1.0" encoding="UTF-8" standalone="no"?>
<!DOCTYPE svg PUBLIC "-//W3C//DTD SVG 1.1//EN" "http://www.w3.org/Graphics/SVG/1.1/DTD/svg11.dtd">
<svg version="1.1" xmlns="http://www.w3.org/2000/svg" xmlns:xlink="http://www.w3.org/1999/xlink" preserveAspectRatio="xMidYMid meet" viewBox="0 0 640 640" width="640" height="640"><defs><path d="M424.66 0.1L425.95 0.22L427.23 0.39L428.51 0.62L429.78 0.89L431.04 1.21L432.29 1.58L433.53 2L434.75 2.46L435.96 2.98L437.15 3.55L438.33 4.17L439.48 4.83L440.61 5.55L441.72 6.31L442.8 7.12L443.86 7.99L444.89 8.9L445.89 9.86L545.93 109.9L546.89 110.9L547.8 111.93L548.67 112.99L549.48 114.07L550.24 115.18L550.96 116.31L551.62 117.46L552.24 118.64L552.81 119.83L553.33 121.04L553.79 122.26L554.21 123.5L554.58 124.75L554.9 126.01L555.17 127.28L555.4 128.56L555.57 129.84L555.69 131.13L555.77 132.42L555.79 133.71L555.77 135.01L555.72 135.74L555.76 136.37L555.79 137.76L555.79 606.32L555.76 607.7L555.68 609.08L555.54 610.43L555.35 611.78L555.11 613.1L554.81 614.41L554.47 615.69L554.07 616.96L553.63 618.2L553.14 619.42L552.61 620.62L552.03 621.79L551.41 622.94L550.74 624.05L550.03 625.14L549.29 626.2L548.5 627.23L547.68 628.23L546.82 629.2L545.92 630.13L544.99 631.03L544.02 631.89L543.02 632.71L541.99 633.5L540.93 634.24L539.84 634.95L538.73 635.62L537.58 636.24L536.41 636.82L535.21 637.35L533.99 637.84L532.75 638.28L531.48 638.68L530.2 639.02L528.89 639.32L527.57 639.56L526.22 639.75L524.87 639.89L523.49 639.97L522.11 640L117.89 640L116.51 639.97L115.13 639.89L113.78 639.75L112.43 639.56L111.11 639.32L109.8 639.02L108.52 638.68L107.25 638.28L106.01 637.84L104.79 637.35L103.59 636.82L102.42 636.24L101.27 635.62L100.16 634.95L99.07 634.24L98.01 633.5L96.98 632.71L95.98 631.89L95.01 631.03L94.08 630.13L93.18 629.2L92.32 628.23L91.5 627.23L90.71 626.2L89.97 625.14L89.26 624.05L88.59 622.94L87.97 621.79L87.39 620.62L86.86 619.42L86.37 618.2L85.93 616.96L85.53 615.69L85.19 614.41L84.89 613.1L84.65 611.78L84.46 610.43L84.32 609.08L84.24 607.7L84.21 606.32L84.21 606.32L84.21 33.68L84.24 32.3L84.32 30.92L84.46 29.57L84.65 28.22L84.89 26.9L85.19 25.59L85.53 24.31L85.93 23.04L86.37 21.8L86.86 20.58L87.39 19.38L87.97 18.21L88.59 17.06L89.26 15.95L89.97 14.86L90.71 13.8L91.5 12.77L92.32 11.77L93.18 10.8L94.08 9.87L95.01 8.97L95.98 8.11L96.98 7.29L98.01 6.5L99.07 5.76L100.16 5.05L101.27 4.38L102.42 3.76L103.59 3.18L104.79 2.65L106.01 2.16L107.25 1.72L108.52 1.32L109.8 0.98L111.11 0.68L112.43 0.44L113.78 0.25L115.13 0.11L116.51 0.03L117.89 0L421.05 0L421.54 0.01L422.08 0L423.37 0.02L424.66 0.1ZM151.58 572.63L488.42 572.63L488.42 235.79L353.68 235.79L353.68 235.79L352.3 235.76L350.92 235.68L349.57 235.54L348.22 235.35L346.9 235.1L345.59 234.81L344.31 234.46L343.04 234.07L341.8 233.63L340.58 233.14L339.38 232.61L338.21 232.03L337.06 231.4L335.95 230.74L334.86 230.03L333.8 229.29L332.77 228.5L331.77 227.68L330.8 226.82L329.87 225.92L328.97 224.99L328.11 224.02L327.29 223.02L326.5 221.99L325.76 220.93L325.05 219.84L324.38 218.72L323.76 217.58L323.18 216.41L322.65 215.21L322.16 213.99L321.72 212.75L321.32 211.48L320.98 210.2L320.68 208.89L320.44 207.57L320.25 206.22L320.11 204.87L320.03 203.49L320 202.11L320.02 201.08L320 201.08L320 67.37L151.58 67.37L151.58 572.63ZM322.76 286.4L324.12 286.54L325.46 286.73L326.78 286.98L328.09 287.27L329.38 287.62L330.64 288.01L331.89 288.45L333.11 288.94L334.3 289.48L335.47 290.05L336.62 290.68L337.74 291.34L338.83 292.05L339.89 292.79L340.92 293.58L341.92 294.4L342.88 295.27L343.81 296.16L344.71 297.09L345.57 298.06L346.4 299.06L347.18 300.09L347.93 301.15L348.63 302.24L349.3 303.36L349.92 304.5L350.5 305.67L351.04 306.87L351.52 308.09L351.97 309.33L352.36 310.6L352.7 311.89L353 313.19L353.24 314.52L353.43 315.86L353.57 317.22L353.66 318.59L353.68 319.98L353.68 370.5L404.21 370.5L404.21 370.5L405.6 370.53L406.97 370.61L408.33 370.75L409.67 370.94L411 371.19L412.3 371.48L413.59 371.83L414.85 372.22L416.1 372.66L417.32 373.15L418.51 373.69L419.69 374.26L420.83 374.89L421.95 375.55L423.04 376.26L424.1 377.01L425.13 377.79L426.13 378.62L427.09 379.48L428.02 380.37L428.92 381.3L429.78 382.27L430.61 383.27L431.39 384.3L432.14 385.36L432.85 386.45L433.51 387.57L434.13 388.71L434.71 389.88L435.25 391.08L435.73 392.3L436.18 393.54L436.57 394.81L436.92 396.1L437.21 397.4L437.45 398.73L437.65 400.07L437.78 401.43L437.87 402.8L437.89 404.19L437.87 405.57L437.78 406.95L437.65 408.31L437.45 409.65L437.21 410.97L436.92 412.28L436.57 413.56L436.18 414.83L435.73 416.07L435.25 417.29L434.71 418.49L434.13 419.66L433.51 420.81L432.85 421.92L432.14 423.01L431.39 424.07L430.61 425.1L429.78 426.1L428.92 427.07L428.02 428L427.09 428.9L426.13 429.76L425.13 430.58L424.1 431.37L423.04 432.11L421.95 432.82L420.83 433.49L419.69 434.11L418.51 434.69L417.32 435.22L416.1 435.71L414.85 436.15L413.59 436.55L412.3 436.89L411 437.19L409.67 437.43L408.33 437.62L406.97 437.76L405.6 437.84L404.21 437.87L353.68 437.87L353.68 488.4L353.68 488.4L353.66 489.78L353.57 491.16L353.43 492.52L353.24 493.86L353 495.18L352.7 496.49L352.36 497.77L351.97 499.04L351.52 500.28L351.04 501.5L350.5 502.7L349.92 503.87L349.3 505.02L348.63 506.14L347.93 507.22L347.18 508.29L346.4 509.32L345.57 510.31L344.71 511.28L343.81 512.21L342.88 513.11L341.92 513.97L340.92 514.79L339.89 515.58L338.83 516.33L337.74 517.03L336.62 517.7L335.47 518.32L334.3 518.9L333.11 519.43L331.89 519.92L330.64 520.36L329.38 520.76L328.09 521.1L326.78 521.4L325.46 521.64L324.12 521.83L322.76 521.97L321.39 522.05L320 522.08L318.61 522.05L317.24 521.97L315.88 521.83L314.54 521.64L313.22 521.4L311.91 521.1L310.62 520.76L309.36 520.36L308.11 519.92L306.89 519.43L305.7 518.9L304.53 518.32L303.38 517.7L302.26 517.03L301.17 516.33L300.11 515.58L299.08 514.79L298.08 513.97L297.12 513.11L296.19 512.21L295.29 511.28L294.43 510.31L293.6 509.32L292.82 508.29L292.07 507.22L291.37 506.14L290.7 505.02L290.08 503.87L289.5 502.7L288.96 501.5L288.48 500.28L288.03 499.04L287.64 497.77L287.3 496.49L287 495.18L286.76 493.86L286.57 492.52L286.43 491.16L286.34 489.78L286.32 488.4L286.32 488.4L286.32 437.87L235.79 437.87L234.4 437.84L233.03 437.76L231.67 437.62L230.33 437.43L229 437.19L227.7 436.89L226.41 436.55L225.15 436.15L223.9 435.71L222.68 435.22L221.49 434.69L220.31 434.11L219.17 433.49L218.05 432.82L216.96 432.11L215.9 431.37L214.87 430.58L213.87 429.76L212.91 428.9L211.98 428L211.08 427.07L210.22 426.1L209.39 425.1L208.61 424.07L207.86 423.01L207.15 421.92L206.49 420.81L205.87 419.66L205.29 418.49L204.75 417.29L204.27 416.07L203.82 414.83L203.43 413.56L203.08 412.28L202.79 410.97L202.55 409.65L202.35 408.31L202.22 406.95L202.13 405.57L202.1 404.19L202.13 402.8L202.22 401.43L202.35 400.07L202.55 398.73L202.79 397.4L203.08 396.1L203.43 394.81L203.82 393.54L204.27 392.3L204.75 391.08L205.29 389.88L205.87 388.71L206.49 387.57L207.15 386.45L207.86 385.36L208.61 384.3L209.39 383.27L210.22 382.27L211.08 381.3L211.98 380.37L212.91 379.48L213.87 378.62L214.87 377.79L215.9 377.01L216.96 376.26L218.05 375.55L219.17 374.89L220.31 374.26L221.49 373.69L222.68 373.15L223.9 372.66L225.15 372.22L226.41 371.83L227.7 371.48L229 371.19L230.33 370.94L231.67 370.75L233.03 370.61L234.4 370.53L235.79 370.5L235.79 370.5L286.32 370.5L286.32 319.98L286.34 318.59L286.43 317.22L286.57 315.86L286.76 314.52L287 313.19L287.3 311.89L287.64 310.6L288.03 309.33L288.48 308.09L288.96 306.87L289.5 305.67L290.08 304.5L290.7 303.36L291.37 302.24L292.07 301.15L292.82 300.09L293.6 299.06L294.43 298.06L295.29 297.09L296.19 296.16L297.12 295.27L298.08 294.4L299.08 293.58L300.11 292.79L301.17 292.05L302.26 291.34L303.38 290.68L304.53 290.05L305.7 289.48L306.89 288.94L308.11 288.45L309.36 288.01L310.62 287.62L311.91 287.27L313.22 286.98L314.54 286.73L315.88 286.54L317.24 286.4L318.61 286.32L320 286.29L321.39 286.32L322.76 286.4ZM387.37 168.42L488.42 168.42L488.42 147.66L408.13 67.37L387.37 67.37L387.37 168.42Z" id="c1BxFfVXbg"></path></defs><g><g><g><use xlink:href="#c1BxFfVXbg" opacity="1" fill="#000000" fill-opacity="1"></use></g></g></g></svg>