<?xml version="1.0" encoding="UTF-8" standalone="no"?>
<!DOCTYPE svg PUBLIC "-//W3C//DTD SVG 1.1//EN" "http://www.w3.org/Graphics/SVG/1.1/DTD/svg11.dtd">
<svg version="1.1" xmlns="http://www.w3.org/2000/svg" xmlns:xlink="http://www.w3.org/1999/xlink" preserveAspectRatio="xMidYMid meet" viewBox="0 0 640 640" width="640" height="640"><defs><path d="M237.02 33.85L238.31 34.01L239.58 34.21L240.85 34.46L242.11 34.75L243.36 35.1L244.6 35.49L245.82 35.93L247.02 36.42L248.2 36.95L249.37 37.53L250.52 38.16L251.64 38.84L252.74 39.55L253.82 40.32L254.87 41.13L255.89 41.99L256.88 42.89L257.84 43.83L258.76 44.82L259.65 45.85L260.51 46.93L261.33 48.05L262.1 49.2L262.82 50.38L263.49 51.57L264.1 52.78L264.66 54L265.17 55.24L265.32 55.65L320.7 134.74L538.95 134.74L538.95 134.73L606.32 134.73L606.32 134.74L607.7 134.77L609.08 134.85L610.43 134.99L611.78 135.18L613.1 135.43L614.41 135.72L615.69 136.06L616.96 136.46L618.2 136.9L619.42 137.39L620.62 137.92L621.79 138.5L622.94 139.13L624.05 139.79L625.14 140.5L626.2 141.24L627.23 142.03L628.23 142.85L629.2 143.71L630.13 144.61L631.03 145.54L631.89 146.51L632.71 147.51L633.5 148.54L634.24 149.6L634.95 150.69L635.62 151.8L636.24 152.95L636.82 154.12L637.35 155.32L637.84 156.54L638.28 157.78L638.68 159.05L639.02 160.33L639.32 161.64L639.56 162.96L639.75 164.31L639.89 165.66L639.97 167.04L640 168.41L640 572.63L639.97 574.02L639.89 575.39L639.75 576.75L639.56 578.09L639.32 579.42L639.02 580.72L638.68 582.01L638.28 583.27L637.84 584.52L637.35 585.74L636.82 586.93L636.24 588.11L635.62 589.25L634.95 590.37L634.24 591.46L633.5 592.52L632.71 593.55L631.89 594.55L631.03 595.51L630.13 596.44L629.2 597.34L628.23 598.2L627.23 599.03L626.2 599.81L625.14 600.56L624.05 601.27L622.94 601.93L621.79 602.55L620.62 603.13L619.42 603.67L618.2 604.15L616.96 604.6L615.69 604.99L614.41 605.34L613.1 605.63L611.78 605.87L610.43 606.07L609.08 606.2L607.7 606.29L606.32 606.31L33.68 606.32L32.3 606.29L30.92 606.2L29.57 606.07L28.22 605.87L26.9 605.63L25.59 605.34L24.31 604.99L23.04 604.6L21.8 604.15L20.58 603.67L19.38 603.13L18.21 602.55L17.06 601.93L15.95 601.27L14.86 600.56L13.8 599.81L12.77 599.03L11.77 598.2L10.8 597.34L9.87 596.44L8.97 595.51L8.11 594.55L7.29 593.55L6.5 592.52L5.76 591.46L5.05 590.37L4.38 589.25L3.76 588.11L3.18 586.93L2.65 585.74L2.16 584.52L1.72 583.27L1.32 582.01L0.98 580.72L0.68 579.42L0.44 578.09L0.25 576.75L0.11 575.39L0.03 574.02L0 572.63L0 572.63L0 67.37L0.03 65.98L0.11 64.61L0.25 63.25L0.44 61.91L0.68 60.58L0.98 59.28L1.32 57.99L1.72 56.73L2.16 55.48L2.65 54.26L3.18 53.07L3.76 51.89L4.38 50.75L5.05 49.63L5.76 48.54L6.5 47.48L7.29 46.45L8.11 45.45L8.97 44.49L9.87 43.56L10.8 42.66L11.77 41.8L12.77 40.97L13.8 40.19L14.86 39.44L15.95 38.73L17.06 38.07L18.21 37.45L19.38 36.87L20.58 36.33L21.8 35.85L23.04 35.4L24.31 35.01L25.59 34.66L26.9 34.37L28.22 34.13L29.57 33.93L30.92 33.8L32.3 33.71L33.68 33.69L235.79 33.68L235.79 33.76L237.02 33.85ZM67.37 538.95L572.63 538.95L572.63 202.11L303.16 202.11L303.16 202.11L302.8 202.1L302.46 202.1L302.16 202.09L301.78 202.08L301.38 202.05L301.17 202.04L300.94 202.03L300.4 201.99L299.96 201.95L299.88 201.94L299.76 201.93L299.04 201.86L297.7 201.66L296.38 201.42L295.07 201.13L293.79 200.78L292.52 200.39L291.28 199.95L290.06 199.46L289.92 199.4L289.88 199.38L289.48 199.2L288.86 198.92L288.8 198.89L288.69 198.84L287.53 198.26L286.38 197.64L285.26 196.96L284.16 196.24L283.08 195.48L282.03 194.67L281.01 193.81L280.02 192.91L279.06 191.97L278.14 190.98L277.24 189.94L276.39 188.87L275.57 187.74L214.87 101.05L67.37 101.05L67.37 538.95ZM406.97 336.95L408.33 337.09L409.67 337.28L411 337.53L412.3 337.82L413.59 338.17L414.85 338.56L416.1 339L417.32 339.49L418.51 340.03L419.68 340.6L420.83 341.23L421.95 341.89L423.04 342.6L424.1 343.34L425.13 344.13L426.13 344.95L427.09 345.82L428.02 346.71L428.92 347.64L429.78 348.61L430.61 349.61L431.39 350.64L432.14 351.7L432.85 352.79L433.51 353.91L434.13 355.05L434.71 356.22L435.25 357.42L435.73 358.64L436.18 359.88L436.57 361.15L436.92 362.44L437.21 363.74L437.45 365.07L437.64 366.41L437.78 367.77L437.87 369.14L437.89 370.53L437.87 371.91L437.78 373.29L437.64 374.65L437.45 375.99L437.21 377.31L436.92 378.62L436.57 379.9L436.18 381.17L435.73 382.41L435.25 383.63L434.71 384.83L434.13 386L433.51 387.15L432.85 388.26L432.14 389.35L431.39 390.41L430.61 391.44L429.78 392.44L428.92 393.41L428.02 394.34L427.09 395.24L426.13 396.1L425.13 396.92L424.1 397.71L423.04 398.45L421.95 399.16L420.83 399.83L419.68 400.45L418.51 401.03L417.32 401.56L416.1 402.05L414.85 402.49L413.59 402.89L412.3 403.23L411 403.53L409.67 403.77L408.33 403.96L406.97 404.1L405.6 404.18L404.21 404.21L235.79 404.21L235.79 404.21L234.4 404.18L233.03 404.1L231.67 403.96L230.33 403.77L229 403.53L227.7 403.23L226.41 402.89L225.15 402.49L223.9 402.05L222.68 401.56L221.49 401.03L220.32 400.45L219.17 399.83L218.05 399.16L216.96 398.45L215.9 397.71L214.87 396.92L213.87 396.1L212.91 395.24L211.98 394.34L211.08 393.41L210.22 392.44L209.39 391.44L208.61 390.41L207.86 389.35L207.15 388.26L206.49 387.15L205.87 386L205.29 384.83L204.75 383.63L204.27 382.41L203.82 381.17L203.43 379.9L203.08 378.62L202.79 377.31L202.55 375.99L202.36 374.65L202.22 373.29L202.13 371.91L202.11 370.53L202.13 369.14L202.22 367.77L202.36 366.41L202.55 365.07L202.79 363.74L203.08 362.44L203.43 361.15L203.82 359.88L204.27 358.64L204.75 357.42L205.29 356.22L205.87 355.05L206.49 353.91L207.15 352.79L207.86 351.7L208.61 350.64L209.39 349.61L210.22 348.61L211.08 347.64L211.98 346.71L212.91 345.82L213.87 344.95L214.87 344.13L215.9 343.34L216.96 342.6L218.05 341.89L219.17 341.23L220.32 340.6L221.49 340.03L222.68 339.49L223.9 339L225.15 338.56L226.41 338.17L227.7 337.82L229 337.53L230.33 337.28L231.67 337.09L233.03 336.95L234.4 336.87L235.79 336.84L404.21 336.84L405.6 336.87L406.97 336.95Z" id="b1i1SCfcKR"></path></defs><g><g><g><use xlink:href="#b1i1SCfcKR" opacity="1" fill="#000000" fill-opacity="1"></use></g></g></g></svg>