<?xml version="1.0" encoding="UTF-8" standalone="no"?>
<!DOCTYPE svg PUBLIC "-//W3C//DTD SVG 1.1//EN" "http://www.w3.org/Graphics/SVG/1.1/DTD/svg11.dtd">
<svg version="1.1" xmlns="http://www.w3.org/2000/svg" xmlns:xlink="http://www.w3.org/1999/xlink" preserveAspectRatio="xMidYMid meet" viewBox="0 0 640 640" width="640" height="640"><defs><path d="M237.02 33.85L238.31 34.01L239.58 34.21L240.85 34.46L242.11 34.75L243.36 35.1L244.6 35.49L245.82 35.93L247.02 36.42L248.2 36.95L249.37 37.53L250.52 38.16L251.64 38.84L252.74 39.55L253.82 40.32L254.87 41.13L255.89 41.99L256.88 42.89L257.84 43.83L258.76 44.82L259.65 45.85L260.51 46.93L261.33 48.05L262.1 49.2L262.82 50.38L263.49 51.57L264.1 52.78L264.66 54L265.17 55.24L265.32 55.65L320.7 134.74L538.95 134.74L538.95 134.73L606.32 134.73L606.32 134.74L607.7 134.77L609.08 134.85L610.43 134.99L611.78 135.18L613.1 135.43L614.41 135.72L615.69 136.06L616.96 136.46L618.2 136.9L619.42 137.39L620.62 137.92L621.79 138.5L622.94 139.13L624.05 139.79L625.14 140.5L626.2 141.24L627.23 142.03L628.23 142.85L629.2 143.71L630.13 144.61L631.03 145.54L631.89 146.51L632.71 147.51L633.5 148.54L634.24 149.6L634.95 150.69L635.62 151.8L636.24 152.95L636.82 154.12L637.35 155.32L637.84 156.54L638.28 157.78L638.68 159.05L639.02 160.33L639.32 161.64L639.56 162.96L639.75 164.31L639.89 165.66L639.97 167.04L640 168.42L640 572.63L639.97 574.02L639.89 575.39L639.75 576.75L639.56 578.09L639.32 579.42L639.02 580.72L638.68 582.01L638.28 583.27L637.84 584.52L637.35 585.74L636.82 586.93L636.24 588.11L635.62 589.25L634.95 590.37L634.24 591.46L633.5 592.52L632.71 593.55L631.89 594.55L631.03 595.51L630.13 596.44L629.2 597.34L628.23 598.2L627.23 599.03L626.2 599.81L625.14 600.56L624.05 601.27L622.94 601.93L621.79 602.55L620.62 603.13L619.42 603.67L618.2 604.15L616.96 604.6L615.69 604.99L614.41 605.34L613.1 605.63L611.78 605.87L610.43 606.07L609.08 606.2L607.7 606.29L606.32 606.31L33.68 606.32L32.3 606.29L30.92 606.2L29.57 606.07L28.22 605.87L26.9 605.63L25.59 605.34L24.31 604.99L23.04 604.6L21.8 604.15L20.58 603.67L19.38 603.13L18.21 602.55L17.06 601.93L15.95 601.27L14.86 600.56L13.8 599.81L12.77 599.03L11.77 598.2L10.8 597.34L9.87 596.44L8.97 595.51L8.11 594.55L7.29 593.55L6.5 592.52L5.76 591.46L5.05 590.37L4.38 589.25L3.76 588.11L3.18 586.93L2.65 585.74L2.16 584.52L1.72 583.27L1.32 582.01L0.98 580.72L0.68 579.42L0.44 578.09L0.25 576.75L0.11 575.39L0.03 574.02L0 572.63L0 572.63L0 67.37L0.03 65.98L0.11 64.61L0.25 63.25L0.44 61.91L0.68 60.58L0.98 59.28L1.32 57.99L1.72 56.73L2.16 55.48L2.65 54.26L3.18 53.07L3.76 51.89L4.38 50.75L5.05 49.63L5.76 48.54L6.5 47.48L7.29 46.45L8.11 45.45L8.97 44.49L9.87 43.56L10.8 42.66L11.77 41.8L12.77 40.97L13.8 40.19L14.86 39.44L15.95 38.73L17.06 38.07L18.21 37.45L19.38 36.87L20.58 36.33L21.8 35.85L23.04 35.4L24.31 35.01L25.59 34.66L26.9 34.37L28.22 34.13L29.57 33.93L30.92 33.8L32.3 33.71L33.68 33.69L235.79 33.69L235.79 33.76L237.02 33.85ZM67.37 538.95L572.63 538.95L572.63 202.11L303.16 202.11L303.16 202.11L302.8 202.1L302.46 202.1L302.16 202.09L301.78 202.08L301.38 202.05L301.17 202.04L300.94 202.03L300.4 201.99L299.96 201.95L299.88 201.94L299.76 201.93L299.04 201.86L297.7 201.66L296.38 201.42L295.07 201.13L293.79 200.78L292.52 200.39L291.28 199.95L290.06 199.46L289.92 199.4L289.88 199.38L289.48 199.2L288.86 198.92L288.8 198.89L288.69 198.84L287.53 198.26L286.38 197.64L285.26 196.96L284.16 196.24L283.08 195.48L282.03 194.67L281.01 193.81L280.02 192.91L279.06 191.97L278.14 190.98L277.24 189.94L276.39 188.87L275.57 187.74L214.87 101.05L67.37 101.05L67.37 538.95Z" id="b1rO8siVYG"></path></defs><g><g><g><use xlink:href="#b1rO8siVYG" opacity="1" fill="#000000" fill-opacity="1"></use></g></g></g></svg>