<?xml version="1.0" encoding="UTF-8" standalone="no"?>
<!DOCTYPE svg PUBLIC "-//W3C//DTD SVG 1.1//EN" "http://www.w3.org/Graphics/SVG/1.1/DTD/svg11.dtd">
<svg version="1.1" xmlns="http://www.w3.org/2000/svg" xmlns:xlink="http://www.w3.org/1999/xlink" preserveAspectRatio="xMidYMid meet" viewBox="0 0 640 640" width="640" height="640"><defs><path d="M237.02 33.85L238.31 34.01L239.58 34.21L240.85 34.46L242.11 34.75L243.36 35.1L244.6 35.49L245.82 35.93L247.02 36.42L248.2 36.95L249.37 37.53L250.52 38.16L251.64 38.84L252.74 39.55L253.82 40.32L254.87 41.13L255.89 41.99L256.88 42.89L257.84 43.83L258.76 44.82L259.65 45.85L260.51 46.93L261.33 48.05L262.1 49.2L262.82 50.38L263.49 51.57L264.1 52.78L264.66 54L265.17 55.24L265.32 55.65L320.7 134.74L538.95 134.74L538.95 134.73L606.32 134.73L606.32 134.74L607.7 134.77L609.08 134.85L610.43 134.99L611.78 135.18L613.1 135.43L614.41 135.72L615.69 136.06L616.96 136.46L618.2 136.9L619.42 137.39L620.62 137.92L621.79 138.5L622.94 139.13L624.05 139.79L625.14 140.5L626.2 141.24L627.23 142.03L628.23 142.85L629.2 143.71L630.13 144.61L631.03 145.54L631.89 146.51L632.71 147.51L633.5 148.54L634.24 149.6L634.95 150.69L635.62 151.8L636.24 152.95L636.82 154.12L637.35 155.32L637.84 156.54L638.28 157.78L638.68 159.05L639.02 160.33L639.32 161.64L639.56 162.96L639.75 164.31L639.89 165.66L639.97 167.04L640 168.42L640 572.63L639.97 574.02L639.89 575.39L639.75 576.75L639.56 578.09L639.32 579.42L639.02 580.72L638.68 582.01L638.28 583.27L637.84 584.52L637.35 585.74L636.82 586.93L636.24 588.11L635.62 589.25L634.95 590.37L634.24 591.46L633.5 592.52L632.71 593.55L631.89 594.55L631.03 595.51L630.13 596.44L629.2 597.34L628.23 598.2L627.23 599.03L626.2 599.81L625.14 600.56L624.05 601.27L622.94 601.93L621.79 602.55L620.62 603.13L619.42 603.67L618.2 604.15L616.96 604.6L615.69 604.99L614.41 605.34L613.1 605.63L611.78 605.87L610.43 606.07L609.08 606.2L607.7 606.29L606.32 606.31L33.68 606.32L32.3 606.29L30.92 606.2L29.57 606.07L28.22 605.87L26.9 605.63L25.59 605.34L24.31 604.99L23.04 604.6L21.8 604.15L20.58 603.67L19.38 603.13L18.21 602.55L17.06 601.93L15.95 601.27L14.86 600.56L13.8 599.81L12.77 599.03L11.77 598.2L10.8 597.34L9.87 596.44L8.97 595.51L8.11 594.55L7.29 593.55L6.5 592.52L5.76 591.46L5.05 590.37L4.38 589.25L3.76 588.11L3.18 586.93L2.65 585.74L2.16 584.52L1.72 583.27L1.32 582.01L0.98 580.72L0.68 579.42L0.44 578.09L0.25 576.75L0.11 575.39L0.03 574.02L0 572.63L0 572.63L0 67.37L0.03 65.98L0.11 64.61L0.25 63.25L0.44 61.91L0.68 60.58L0.98 59.28L1.32 57.99L1.72 56.73L2.16 55.48L2.65 54.26L3.18 53.07L3.76 51.89L4.38 50.75L5.05 49.63L5.76 48.54L6.5 47.48L7.29 46.45L8.11 45.45L8.97 44.49L9.87 43.56L10.8 42.66L11.77 41.8L12.77 40.97L13.8 40.19L14.86 39.44L15.95 38.73L17.06 38.07L18.21 37.45L19.38 36.87L20.58 36.33L21.8 35.85L23.04 35.4L24.31 35.01L25.59 34.66L26.9 34.37L28.22 34.13L29.57 33.93L30.92 33.8L32.3 33.71L33.68 33.69L235.79 33.69L235.79 33.76L237.02 33.85ZM67.37 538.95L572.63 538.95L572.63 202.11L303.16 202.11L303.16 202.11L302.8 202.1L302.46 202.1L302.16 202.09L301.78 202.08L301.38 202.05L301.17 202.04L300.94 202.03L300.4 201.99L299.96 201.95L299.88 201.94L299.76 201.93L299.04 201.86L297.7 201.66L296.38 201.42L295.07 201.13L293.79 200.78L292.52 200.39L291.28 199.95L290.06 199.46L289.92 199.4L289.88 199.38L289.48 199.2L288.86 198.92L288.8 198.89L288.69 198.84L287.53 198.26L286.38 197.64L285.26 196.96L284.16 196.24L283.08 195.48L282.03 194.67L281.01 193.81L280.02 192.91L279.06 191.97L278.14 190.98L277.24 189.94L276.39 188.87L275.57 187.74L214.87 101.05L67.37 101.05L67.37 538.95ZM263.04 277.4L264.33 277.52L265.61 277.7L266.89 277.92L268.16 278.19L269.42 278.51L270.67 278.88L271.91 279.3L273.13 279.77L274.34 280.29L275.53 280.85L276.71 281.47L277.86 282.13L278.99 282.85L280.1 283.61L281.18 284.43L282.24 285.29L283.27 286.2L284.27 287.16L284.27 287.16L320 322.89L355.73 287.16L356.73 286.2L357.76 285.29L358.82 284.43L359.9 283.61L361.01 282.85L362.14 282.13L363.29 281.47L364.47 280.85L365.66 280.29L366.87 279.77L368.09 279.3L369.33 278.88L370.58 278.51L371.84 278.19L373.11 277.92L374.39 277.7L375.67 277.52L376.96 277.4L378.25 277.33L379.55 277.3L380.84 277.33L382.13 277.4L383.42 277.52L384.7 277.7L385.98 277.92L387.25 278.19L388.51 278.51L389.76 278.88L391 279.3L392.22 279.77L393.43 280.29L394.62 280.85L395.8 281.47L396.95 282.13L398.08 282.85L399.19 283.61L400.27 284.43L401.33 285.29L402.36 286.2L403.36 287.16L404.33 288.16L405.24 289.19L406.1 290.25L406.91 291.34L407.68 292.44L408.39 293.58L409.06 294.73L409.67 295.9L410.24 297.09L410.76 298.3L411.23 299.53L411.65 300.76L412.02 302.01L412.34 303.28L412.61 304.55L412.83 305.82L413 307.11L413.12 308.4L413.2 309.69L413.22 310.98L413.2 312.27L413.12 313.57L413 314.85L412.83 316.14L412.61 317.42L412.34 318.69L412.02 319.95L411.65 321.2L411.23 322.43L410.76 323.66L410.24 324.87L409.67 326.06L409.06 327.23L408.39 328.39L407.68 329.52L406.91 330.63L406.1 331.71L405.24 332.77L404.33 333.8L403.36 334.8L403.36 334.8L367.64 370.53L403.36 406.25L404.33 407.25L405.24 408.28L406.1 409.34L406.91 410.43L407.68 411.54L408.39 412.67L409.06 413.82L409.67 414.99L410.24 416.19L410.76 417.39L411.23 418.62L411.65 419.86L412.02 421.11L412.34 422.37L412.61 423.64L412.83 424.91L413 426.2L413.12 427.49L413.2 428.78L413.22 430.07L413.2 431.36L413.12 432.66L413 433.95L412.83 435.23L412.61 436.51L412.34 437.78L412.02 439.04L411.65 440.29L411.23 441.53L410.76 442.75L410.24 443.96L409.67 445.15L409.06 446.32L408.39 447.48L407.68 448.61L406.91 449.72L406.1 450.8L405.24 451.86L404.33 452.89L403.36 453.89L402.36 454.85L401.33 455.76L400.27 456.63L399.19 457.44L398.08 458.2L396.95 458.92L395.8 459.58L394.62 460.2L393.43 460.77L392.22 461.28L391 461.75L389.76 462.17L388.51 462.54L387.25 462.86L385.98 463.13L384.7 463.35L383.42 463.53L382.13 463.65L380.84 463.72L379.55 463.75L378.25 463.72L376.96 463.65L375.67 463.53L374.39 463.35L373.11 463.13L371.84 462.86L370.58 462.54L369.33 462.17L368.09 461.75L366.87 461.28L365.66 460.77L364.47 460.2L363.29 459.58L362.14 458.92L361.01 458.2L359.9 457.44L358.82 456.63L357.76 455.76L356.73 454.85L355.73 453.89L355.73 453.89L320 418.16L284.27 453.89L283.27 454.85L282.24 455.76L281.18 456.63L280.1 457.44L278.99 458.2L277.86 458.92L276.71 459.58L275.53 460.2L274.34 460.77L273.13 461.28L271.91 461.75L270.67 462.17L269.42 462.54L268.16 462.86L266.89 463.13L265.61 463.35L264.33 463.53L263.04 463.65L261.75 463.72L260.45 463.75L259.16 463.72L257.87 463.65L256.58 463.53L255.3 463.35L254.02 463.13L252.75 462.86L251.49 462.54L250.24 462.17L249 461.75L247.78 461.28L246.57 460.77L245.38 460.2L244.2 459.58L243.05 458.92L241.92 458.2L240.81 457.44L239.73 456.63L238.67 455.76L237.64 454.85L236.64 453.89L235.67 452.89L234.76 451.86L233.9 450.8L233.09 449.72L232.32 448.61L231.61 447.48L230.94 446.32L230.33 445.15L229.76 443.96L229.24 442.75L228.77 441.53L228.35 440.29L227.98 439.04L227.66 437.78L227.39 436.51L227.17 435.23L227 433.95L226.88 432.66L226.8 431.36L226.78 430.07L226.8 428.78L226.88 427.49L227 426.2L227.17 424.91L227.39 423.64L227.66 422.37L227.98 421.11L228.35 419.86L228.77 418.62L229.24 417.39L229.76 416.19L230.33 414.99L230.94 413.82L231.61 412.67L232.32 411.54L233.09 410.43L233.9 409.34L234.76 408.28L235.67 407.25L236.64 406.25L272.36 370.53L236.64 334.8L235.67 333.8L234.76 332.77L233.9 331.71L233.09 330.63L232.32 329.52L231.61 328.39L230.94 327.23L230.33 326.06L229.76 324.87L229.24 323.66L228.77 322.43L228.35 321.2L227.98 319.95L227.66 318.69L227.39 317.42L227.17 316.14L227 314.85L226.88 313.57L226.8 312.27L226.78 310.98L226.8 309.69L226.88 308.4L227 307.11L227.17 305.82L227.39 304.55L227.66 303.28L227.98 302.01L228.35 300.76L228.77 299.53L229.24 298.3L229.76 297.09L230.33 295.9L230.94 294.73L231.61 293.58L232.32 292.44L233.09 291.34L233.9 290.25L234.76 289.19L235.67 288.16L236.64 287.16L237.64 286.2L238.67 285.29L239.73 284.43L240.81 283.61L241.92 282.85L243.05 282.13L244.2 281.47L245.38 280.85L246.57 280.29L247.78 279.77L249 279.3L250.24 278.88L251.49 278.51L252.75 278.19L254.02 277.92L255.3 277.7L256.58 277.52L257.87 277.4L259.16 277.33L260.45 277.3L261.75 277.33L263.04 277.4Z" id="a1NBKL7BPW"></path></defs><g><g><g><use xlink:href="#a1NBKL7BPW" opacity="1" fill="#000000" fill-opacity="1"></use></g></g></g></svg>