<?xml version="1.0" encoding="UTF-8" standalone="no"?>
<!DOCTYPE svg PUBLIC "-//W3C//DTD SVG 1.1//EN" "http://www.w3.org/Graphics/SVG/1.1/DTD/svg11.dtd">
<svg version="1.1" xmlns="http://www.w3.org/2000/svg" xmlns:xlink="http://www.w3.org/1999/xlink" preserveAspectRatio="xMidYMid meet" viewBox="0 0 640 640" width="640" height="640"><defs><path d="M462.15 159.9L463.43 160.16L464.67 160.52L465.87 160.97L467.03 161.52L468.13 162.14L469.18 162.85L470.16 163.64L471.09 164.49L471.95 165.42L472.73 166.41L473.44 167.45L474.06 168.56L474.61 169.71L475.06 170.91L475.42 172.15L475.68 173.43L475.84 174.75L475.9 176.09L475.9 455.07L475.84 456.41L475.68 457.73L475.42 459.01L475.06 460.25L474.61 461.45L474.06 462.61L473.44 463.71L472.73 464.76L471.95 465.75L471.09 466.67L470.16 467.53L469.18 468.31L468.13 469.02L467.03 469.65L465.87 470.19L464.67 470.64L463.43 471L462.15 471.26L460.83 471.42L459.49 471.48L459.49 471.48L180.51 471.48L179.17 471.42L177.85 471.26L176.57 471L175.33 470.64L174.13 470.19L172.97 469.65L171.87 469.02L170.82 468.31L169.84 467.53L168.91 466.67L168.05 465.75L167.27 464.76L166.56 463.71L165.94 462.61L165.39 461.45L164.94 460.25L164.58 459.01L164.32 457.73L164.16 456.41L164.1 455.07L164.1 176.09L164.16 174.75L164.32 173.43L164.58 172.15L164.94 170.91L165.39 169.71L165.94 168.56L166.56 167.45L167.27 166.41L168.05 165.42L168.91 164.49L169.84 163.64L170.82 162.85L171.87 162.14L172.97 161.52L174.13 160.97L175.33 160.52L176.57 160.16L177.85 159.9L179.17 159.74L180.51 159.68L459.49 159.68L460.83 159.74L462.15 159.9ZM443.08 438.66L443.08 192.5L196.92 192.5L196.92 438.66L443.08 438.66Z" id="b17pU4BTjo"></path><path d="M640 320C640 496.61 496.61 640 320 640C143.39 640 0 496.61 0 320C0 143.39 143.39 0 320 0C496.61 0 640 143.39 640 320Z" id="b5yJ589nAL"></path><clipPath id="clipae3ofSMB"><use xlink:href="#b5yJ589nAL" opacity="1"></use></clipPath></defs><g><g><g><use xlink:href="#b17pU4BTjo" opacity="1" fill="#000000" fill-opacity="1"></use></g><g><use xlink:href="#b5yJ589nAL" opacity="1" fill="#000000" fill-opacity="0"></use><g clip-path="url(#clipae3ofSMB)"><use xlink:href="#b5yJ589nAL" opacity="1" fill-opacity="0" stroke="#000000" stroke-width="40" stroke-opacity="1"></use></g></g></g></g></svg>