<?xml version="1.0" encoding="UTF-8" standalone="no"?>
<!DOCTYPE svg PUBLIC "-//W3C//DTD SVG 1.1//EN" "http://www.w3.org/Graphics/SVG/1.1/DTD/svg11.dtd">
<svg version="1.1" xmlns="http://www.w3.org/2000/svg" xmlns:xlink="http://www.w3.org/1999/xlink" preserveAspectRatio="xMidYMid meet" viewBox="0 0 640 640" width="640" height="640"><defs><path d="M640 320C640 496.61 496.61 640 320 640C143.39 640 0 496.61 0 320C0 143.39 143.39 0 320 0C496.61 0 640 143.39 640 320Z" id="d3B1lpYn41"></path><clipPath id="clipb2gO7tpRpo"><use xlink:href="#d3B1lpYn41" opacity="1"></use></clipPath><path d="M190.37 189.93L190.39 189.09L190.41 188.98L190.41 188.92L190.45 188.54L190.53 187.81L190.55 187.69L190.56 187.6L190.65 187.16L190.76 186.54L190.79 186.42L190.81 186.31L190.95 185.81L191.09 185.28L191.13 185.17L191.16 185.05L191.36 184.48L191.51 184.04L191.55 183.95L191.59 183.84L191.88 183.19L192.04 182.82L192.07 182.76L192.12 182.67L192.5 181.95L192.67 181.62L192.7 181.58L192.72 181.54L193.09 180.96L193.39 180.48L194.19 179.41L195.05 178.42L195.98 177.5L196.96 176.67L197.7 176.14L197.85 176.02L197.89 176L198 175.92L198.57 175.56L198.93 175.34L199 175.29L199.08 175.24L199.48 175.04L200.05 174.73L200.17 174.68L200.21 174.66L200.41 174.57L201.22 174.21L201.37 174.16L201.37 174.16L202.43 173.78L203.69 173.43L204.98 173.18L206.3 173.03L206.81 173.01L207.56 172.97L207.61 172.98L207.65 172.97L207.99 172.99L208.84 173.01L208.94 173.02L209 173.03L209.39 173.07L210.11 173.15L210.24 173.17L210.33 173.18L210.77 173.27L211.38 173.38L211.51 173.41L211.62 173.43L212.12 173.57L212.64 173.7L212.75 173.74L212.87 173.78L213.45 173.98L213.88 174.13L213.97 174.17L214.09 174.21L214.74 174.5L215.11 174.66L215.17 174.69L215.26 174.73L215.98 175.12L216.3 175.29L441 305.02L441 305.02L441.3 305.21L442 305.65L442.09 305.71L442.14 305.74L442.47 305.99L443.04 306.4L443.14 306.48L443.21 306.54L443.57 306.85L444.03 307.24L444.12 307.32L444.2 307.4L444.58 307.79L444.95 308.15L445.03 308.24L445.12 308.33L445.52 308.81L445.82 309.14L445.87 309.21L445.95 309.31L446.38 309.9L446.61 310.21L446.64 310.26L446.7 310.35L447.15 311.07L447.33 311.35L447.35 311.39L447.38 311.43L447.72 312.1L447.96 312.55L448.49 313.77L448.92 315.02L449.24 316.27L449.47 317.54L449.57 318.43L449.59 318.64L449.59 318.68L449.61 318.82L449.63 319.48L449.65 319.91L449.64 320L449.65 320.09L449.63 320.53L449.61 321.19L449.59 321.32L449.59 321.36L449.57 321.57L449.47 322.46L449.24 323.73L448.92 324.99L448.49 326.23L447.96 327.46L447.72 327.91L447.38 328.57L447.35 328.62L447.33 328.65L447.15 328.94L446.7 329.66L446.64 329.74L446.61 329.8L446.38 330.1L445.95 330.69L445.87 330.79L445.81 330.86L445.52 331.2L445.12 331.68L445.03 331.77L444.95 331.86L444.58 332.22L444.2 332.6L444.11 332.68L444.03 332.77L443.57 333.16L443.21 333.47L443.14 333.52L443.04 333.6L442.47 334.02L442.14 334.26L442.09 334.3L442 334.36L441.32 334.78L441 334.98L216.3 464.71L215.98 464.88L215.25 465.27L215.16 465.31L215.1 465.34L214.74 465.5L214.08 465.79L213.97 465.83L213.88 465.87L213.44 466.02L212.87 466.22L212.75 466.26L212.64 466.3L212.12 466.43L211.61 466.57L211.5 466.59L211.38 466.62L210.77 466.74L210.32 466.82L210.23 466.83L210.11 466.85L209.38 466.93L209 466.97L208.94 466.98L208.83 466.99L207.99 467.01L207.65 467.03L207.61 467.03L207.56 467.03L206.81 467L206.3 466.97L204.98 466.82L203.69 466.57L202.43 466.22L201.22 465.79L200.41 465.43L200.21 465.34L200.17 465.32L200.05 465.27L199.47 464.96L199.08 464.76L199 464.71L198.92 464.66L198.57 464.44L198 464.08L197.88 464L197.85 463.98L197.69 463.87L196.96 463.33L195.97 462.5L195.05 461.58L194.18 460.59L193.39 459.52L193.09 459.04L192.72 458.46L192.69 458.42L192.67 458.38L192.5 458.05L192.11 457.33L192.07 457.24L192.04 457.18L191.88 456.81L191.59 456.16L191.55 456.05L191.51 455.96L191.36 455.52L191.16 454.95L191.12 454.83L191.08 454.72L190.95 454.2L190.81 453.69L190.79 453.58L190.76 453.46L190.64 452.84L190.56 452.4L190.55 452.31L190.53 452.19L190.45 451.46L190.4 451.08L190.4 451.02L190.39 450.91L190.37 450.07L190.35 449.73L190.35 449.73L190.36 190.36L190.36 190.27L190.36 190.27L190.37 189.93ZM397.76 320L224.95 220.23L224.95 419.77L397.76 320Z" id="cwv7b56FW"></path></defs><g><g><g><g clip-path="url(#clipb2gO7tpRpo)"><use xlink:href="#d3B1lpYn41" opacity="1" fill-opacity="0" stroke="#000000" stroke-width="40" stroke-opacity="1"></use></g></g><g><use xlink:href="#cwv7b56FW" opacity="1" fill="#000000" fill-opacity="1"></use></g></g></g></svg>