<?xml version="1.0" encoding="UTF-8" standalone="no"?>
<!DOCTYPE svg PUBLIC "-//W3C//DTD SVG 1.1//EN" "http://www.w3.org/Graphics/SVG/1.1/DTD/svg11.dtd">
<svg version="1.1" xmlns="http://www.w3.org/2000/svg" xmlns:xlink="http://www.w3.org/1999/xlink" preserveAspectRatio="xMidYMid meet" viewBox="0 0 640 640" width="640" height="640"><defs><path d="M640 320C640 496.61 496.61 640 320 640C143.39 640 0 496.61 0 320C0 143.39 143.39 0 320 0C496.61 0 640 143.39 640 320Z" id="amgrdRjfP"></path><clipPath id="clipcUyJsPKLQ"><use xlink:href="#amgrdRjfP" opacity="1"></use></clipPath><path d="M200.65 190.27L200.66 189.93L200.69 189.09L200.7 188.98L200.7 188.92L200.74 188.54L200.82 187.81L200.84 187.69L200.85 187.6L200.94 187.16L201.05 186.54L201.08 186.42L201.1 186.31L201.24 185.81L201.38 185.28L201.42 185.17L201.45 185.05L201.65 184.48L201.81 184.04L201.84 183.95L201.89 183.84L202.17 183.19L202.33 182.82L202.37 182.76L202.41 182.67L202.79 181.95L202.97 181.62L202.99 181.58L203.01 181.54L203.38 180.96L203.69 180.48L204.48 179.41L205.34 178.42L206.27 177.5L207.25 176.67L207.99 176.14L208.15 176.02L208.18 176L208.29 175.92L208.86 175.56L209.22 175.34L209.3 175.29L209.38 175.24L209.77 175.04L210.34 174.73L210.47 174.68L210.5 174.66L210.7 174.57L211.51 174.21L211.67 174.16L211.67 174.16L212.73 173.78L213.98 173.43L215.27 173.18L216.59 173.03L217.1 173.01L217.85 172.97L217.91 172.98L217.95 172.97L218.29 172.99L219.13 173.01L219.23 173.02L219.3 173.03L219.68 173.07L220.4 173.15L220.53 173.17L220.62 173.18L221.06 173.27L221.67 173.38L221.8 173.41L221.91 173.43L222.41 173.57L222.93 173.7L223.04 173.74L223.16 173.78L223.74 173.98L224.18 174.13L224.26 174.17L224.38 174.21L225.03 174.5L225.4 174.66L225.46 174.69L225.55 174.73L226.28 175.12L226.59 175.29L451.29 305.02L451.29 305.02L451.6 305.22L452.3 305.65L452.38 305.71L452.43 305.74L452.76 305.99L453.33 306.4L453.43 306.48L453.5 306.54L453.86 306.85L454.32 307.24L454.41 307.32L454.5 307.4L454.88 307.79L455.24 308.15L455.32 308.24L455.41 308.33L455.81 308.81L456.11 309.14L456.16 309.21L456.24 309.31L456.67 309.9L456.9 310.21L456.94 310.26L457 310.35L457.44 311.07L457.62 311.35L457.64 311.39L457.67 311.43L458.01 312.1L458.25 312.55L458.78 313.77L459.21 315.02L459.54 316.27L459.77 317.54L459.86 318.43L459.88 318.64L459.89 318.68L459.9 318.82L459.92 319.48L459.94 319.91L459.94 320L459.94 320.09L459.92 320.53L459.9 321.19L459.89 321.32L459.88 321.36L459.86 321.57L459.77 322.46L459.54 323.73L459.21 324.99L458.78 326.23L458.25 327.46L458.01 327.91L457.67 328.57L457.64 328.62L457.62 328.65L457.44 328.94L457 329.66L456.94 329.74L456.9 329.8L456.67 330.1L456.24 330.69L456.16 330.79L456.11 330.86L455.81 331.2L455.41 331.68L455.32 331.77L455.24 331.86L454.88 332.22L454.49 332.6L454.41 332.68L454.32 332.77L453.86 333.16L453.5 333.47L453.43 333.52L453.33 333.6L452.76 334.02L452.43 334.26L452.38 334.3L452.3 334.36L451.61 334.78L451.29 334.98L226.59 464.71L226.27 464.88L225.55 465.27L225.45 465.31L225.39 465.34L225.03 465.5L224.38 465.79L224.26 465.83L224.17 465.87L223.74 466.02L223.16 466.22L223.04 466.26L222.93 466.3L222.41 466.43L221.91 466.57L221.79 466.59L221.67 466.62L221.06 466.74L220.62 466.82L220.53 466.83L220.4 466.85L219.67 466.93L219.29 466.97L219.23 466.98L219.13 466.99L218.28 467.01L217.94 467.03L217.9 467.03L217.85 467.03L217.1 467L216.59 466.97L215.27 466.82L213.98 466.57L212.72 466.22L211.51 465.79L210.7 465.43L210.5 465.34L210.46 465.32L210.34 465.27L209.77 464.96L209.37 464.76L209.29 464.71L209.21 464.66L208.86 464.44L208.29 464.08L208.17 464L208.14 463.98L207.99 463.87L207.25 463.33L206.27 462.5L205.34 461.58L204.48 460.59L203.68 459.52L203.38 459.04L203.01 458.46L202.99 458.42L202.96 458.38L202.79 458.05L202.4 457.33L202.36 457.24L202.33 457.18L202.17 456.81L201.88 456.16L201.84 456.05L201.8 455.96L201.65 455.52L201.45 454.95L201.41 454.83L201.38 454.72L201.24 454.2L201.1 453.69L201.08 453.58L201.05 453.46L200.94 452.84L200.85 452.4L200.84 452.31L200.82 452.19L200.74 451.46L200.7 451.08L200.69 451.02L200.68 450.91L200.66 450.07L200.64 449.73L200.64 449.73L200.65 190.36L200.65 190.36L200.65 190.27L200.65 190.27ZM408.05 320L235.24 220.23L235.24 419.77L408.05 320Z" id="aphtIiuC"></path></defs><g><g><g><g clip-path="url(#clipcUyJsPKLQ)"><use xlink:href="#amgrdRjfP" opacity="1" fill-opacity="0" stroke="#000000" stroke-width="40" stroke-opacity="1"></use></g></g><g><use xlink:href="#aphtIiuC" opacity="1" fill="#000000" fill-opacity="1"></use></g></g></g></svg>