<?xml version="1.0" encoding="UTF-8" standalone="no"?>
<!DOCTYPE svg PUBLIC "-//W3C//DTD SVG 1.1//EN" "http://www.w3.org/Graphics/SVG/1.1/DTD/svg11.dtd">
<svg version="1.1" xmlns="http://www.w3.org/2000/svg" xmlns:xlink="http://www.w3.org/1999/xlink" preserveAspectRatio="xMidYMid meet" viewBox="0 0 640 640" width="640" height="640"><defs><path d="M445.74 164.32L447.02 164.58L448.26 164.94L449.46 165.39L450.62 165.94L451.72 166.56L452.77 167.27L453.75 168.05L454.68 168.91L455.53 169.84L456.32 170.82L457.03 171.87L457.65 172.97L458.2 174.13L458.65 175.33L459.01 176.57L459.27 177.85L459.43 179.17L459.49 180.51L459.49 459.49L459.43 460.83L459.27 462.15L459.01 463.43L458.65 464.67L458.2 465.87L457.65 467.03L457.03 468.13L456.32 469.18L455.53 470.16L454.68 471.09L453.75 471.95L452.77 472.73L451.72 473.44L450.62 474.06L449.46 474.61L448.26 475.06L447.02 475.42L445.74 475.68L444.42 475.84L443.08 475.9L361.03 475.9L361.03 475.9L359.68 475.84L358.37 475.68L357.08 475.42L355.84 475.06L354.64 474.61L353.49 474.06L352.38 473.44L351.34 472.73L350.35 471.95L349.42 471.09L348.57 470.16L347.78 469.18L347.08 468.13L346.45 467.03L345.91 465.87L345.45 464.67L345.09 463.43L344.83 462.15L344.67 460.83L344.62 459.49L344.62 180.51L344.67 179.17L344.83 177.85L345.09 176.57L345.45 175.33L345.91 174.13L346.45 172.97L347.08 171.87L347.78 170.82L348.57 169.84L349.42 168.91L350.35 168.05L351.34 167.27L352.38 166.56L353.49 165.94L354.64 165.39L355.84 164.94L357.08 164.58L358.37 164.32L359.68 164.16L361.03 164.1L443.08 164.1L444.42 164.16L445.74 164.32ZM281.63 164.32L282.92 164.58L284.16 164.94L285.36 165.39L286.51 165.94L287.62 166.56L288.66 167.27L289.65 168.05L290.58 168.91L291.43 169.84L292.22 170.82L292.92 171.87L293.55 172.97L294.09 174.13L294.55 175.33L294.91 176.57L295.17 177.85L295.33 179.17L295.38 180.51L295.38 196.92L295.39 459.49L295.38 459.49L295.33 460.83L295.17 462.15L294.91 463.43L294.55 464.67L294.09 465.87L293.55 467.03L292.92 468.13L292.22 469.18L291.43 470.16L290.58 471.09L289.65 471.95L288.66 472.73L287.62 473.44L286.51 474.06L285.36 474.61L284.16 475.06L282.92 475.42L281.63 475.68L280.32 475.84L278.97 475.9L196.92 475.9L195.58 475.84L194.26 475.68L192.98 475.42L191.74 475.06L190.54 474.61L189.38 474.06L188.28 473.44L187.23 472.73L186.25 471.95L185.32 471.09L184.47 470.16L183.68 469.18L182.97 468.13L182.35 467.03L181.8 465.87L181.35 464.67L180.99 463.43L180.73 462.15L180.57 460.83L180.51 459.49L180.51 180.51L180.57 179.17L180.73 177.85L180.99 176.57L181.35 175.33L181.8 174.13L182.35 172.97L182.97 171.87L183.68 170.82L184.47 169.84L185.32 168.91L186.25 168.05L187.23 167.27L188.28 166.56L189.38 165.94L190.54 165.39L191.74 164.94L192.98 164.58L194.26 164.32L195.58 164.16L196.92 164.1L278.97 164.1L280.32 164.16L281.63 164.32ZM377.44 443.08L426.67 443.08L426.67 196.92L377.44 196.92L377.44 443.08ZM213.33 443.08L262.56 443.08L262.56 196.92L213.33 196.92L213.33 443.08Z" id="k3ymthofjh"></path><path d="M133.28 91.38C133.28 91.38 132.9 91.38 132.42 91.38C131.95 91.38 131.57 91.38 131.57 91.38C131.57 91.38 131.95 91.38 132.42 91.38C132.9 91.38 133.11 91.38 133.28 91.38Z" id="dVY8Eail"></path><path d="M640 320C640 496.61 496.61 640 320 640C143.39 640 0 496.61 0 320C0 143.39 143.39 0 320 0C496.61 0 640 143.39 640 320Z" id="b26z8XyH5H"></path><clipPath id="clipb6wD5FhUON"><use xlink:href="#b26z8XyH5H" opacity="1"></use></clipPath></defs><g><g><g><use xlink:href="#k3ymthofjh" opacity="1" fill="#000000" fill-opacity="1"></use></g><g><use xlink:href="#dVY8Eail" opacity="1" fill="#33d2cc" fill-opacity="1"></use></g><g><g clip-path="url(#clipb6wD5FhUON)"><use xlink:href="#b26z8XyH5H" opacity="1" fill-opacity="0" stroke="#000000" stroke-width="40" stroke-opacity="1"></use></g></g></g></g></svg>