<?xml version="1.0" encoding="UTF-8" standalone="no"?>
<!DOCTYPE svg PUBLIC "-//W3C//DTD SVG 1.1//EN" "http://www.w3.org/Graphics/SVG/1.1/DTD/svg11.dtd">
<svg version="1.1" xmlns="http://www.w3.org/2000/svg" xmlns:xlink="http://www.w3.org/1999/xlink" preserveAspectRatio="xMidYMid meet" viewBox="0 0 640 640" width="640" height="640"><defs><path d="M609.08 0.11L610.44 0.25L611.78 0.44L613.1 0.68L614.41 0.98L615.69 1.32L616.96 1.72L618.2 2.16L619.42 2.65L620.62 3.18L621.79 3.76L622.94 4.38L624.05 5.05L625.14 5.76L626.2 6.5L627.23 7.29L628.23 8.11L629.2 8.97L630.13 9.87L631.03 10.8L631.89 11.77L632.71 12.77L633.5 13.8L634.24 14.86L634.95 15.95L635.62 17.06L636.24 18.21L636.82 19.38L637.35 20.58L637.84 21.8L638.28 23.04L638.68 24.31L639.02 25.59L639.32 26.9L639.56 28.22L639.75 29.57L639.89 30.92L639.97 32.3L640 33.68L640 606.32L639.97 607.7L639.89 609.08L639.75 610.43L639.56 611.78L639.32 613.1L639.02 614.41L638.68 615.69L638.28 616.96L637.84 618.2L637.35 619.42L636.82 620.62L636.24 621.79L635.62 622.94L634.95 624.05L634.24 625.14L633.5 626.2L632.71 627.23L631.89 628.23L631.03 629.2L630.13 630.13L629.2 631.03L628.23 631.89L627.23 632.71L626.2 633.5L625.14 634.24L624.05 634.95L622.94 635.62L621.79 636.24L620.62 636.82L619.42 637.35L618.2 637.84L616.96 638.28L615.69 638.68L614.41 639.02L613.1 639.32L611.78 639.56L610.44 639.75L609.08 639.89L607.7 639.97L606.32 640L437.89 640L436.51 639.97L435.13 639.89L433.78 639.75L432.43 639.56L431.11 639.32L429.8 639.02L428.52 638.68L427.25 638.28L426.01 637.84L424.79 637.35L423.59 636.82L422.42 636.24L421.28 635.62L420.16 634.95L419.07 634.24L418.01 633.5L416.98 632.71L415.98 631.89L415.01 631.03L414.08 630.13L413.18 629.2L412.32 628.23L411.5 627.23L410.71 626.2L409.97 625.14L409.26 624.05L408.6 622.94L407.97 621.79L407.39 620.62L406.86 619.42L406.37 618.2L405.93 616.96L405.54 615.69L405.19 614.41L404.9 613.1L404.65 611.78L404.46 610.43L404.32 609.08L404.24 607.7L404.21 606.32L404.21 33.68L404.24 32.3L404.32 30.92L404.46 29.57L404.65 28.22L404.9 26.9L405.19 25.59L405.54 24.31L405.93 23.04L406.37 21.8L406.86 20.58L407.39 19.38L407.97 18.21L408.6 17.06L409.26 15.95L409.97 14.86L410.71 13.8L411.5 12.77L412.32 11.77L413.18 10.8L414.08 9.87L415.01 8.97L415.98 8.11L416.98 7.29L418.01 6.5L419.07 5.76L420.16 5.05L421.28 4.38L422.42 3.76L423.59 3.18L424.79 2.65L426.01 2.16L427.25 1.72L428.52 1.32L429.8 0.98L431.11 0.68L432.43 0.44L433.78 0.25L435.13 0.11L436.51 0.03L437.89 0L606.32 0L607.7 0.03L609.08 0.11ZM204.87 0.11L206.22 0.25L207.57 0.44L208.89 0.68L210.2 0.98L211.48 1.32L212.75 1.72L213.99 2.16L215.21 2.65L216.41 3.18L217.58 3.76L218.73 4.38L219.84 5.05L220.93 5.76L221.99 6.5L223.02 7.29L224.02 8.11L224.99 8.97L225.92 9.87L226.82 10.8L227.68 11.77L228.5 12.77L229.29 13.8L230.03 14.86L230.74 15.95L231.41 17.06L232.03 18.21L232.61 19.38L233.14 20.58L233.63 21.8L234.07 23.04L234.47 24.31L234.81 25.59L235.1 26.9L235.35 28.22L235.54 29.57L235.68 30.92L235.76 32.3L235.79 33.68L235.79 606.32L235.76 607.7L235.68 609.08L235.54 610.43L235.35 611.78L235.1 613.1L234.81 614.41L234.47 615.69L234.07 616.96L233.63 618.2L233.14 619.42L232.61 620.62L232.03 621.79L231.41 622.94L230.74 624.05L230.03 625.14L229.29 626.2L228.5 627.23L227.68 628.23L226.82 629.2L225.92 630.13L224.99 631.03L224.02 631.89L223.02 632.71L221.99 633.5L220.93 634.24L219.84 634.95L218.73 635.62L217.58 636.24L216.41 636.82L215.21 637.35L213.99 637.84L212.75 638.28L211.48 638.68L210.2 639.02L208.89 639.32L207.57 639.56L206.22 639.75L204.87 639.89L203.49 639.97L202.11 640L33.68 640L32.3 639.97L30.92 639.89L29.57 639.75L28.22 639.56L26.9 639.32L25.59 639.02L24.31 638.68L23.04 638.28L21.8 637.84L20.58 637.35L19.38 636.82L18.21 636.24L17.06 635.62L15.95 634.95L14.86 634.24L13.8 633.5L12.77 632.71L11.77 631.89L10.8 631.03L9.87 630.13L8.97 629.2L8.11 628.23L7.29 627.23L6.5 626.2L5.76 625.14L5.05 624.05L4.38 622.94L3.76 621.79L3.18 620.62L2.65 619.42L2.16 618.2L1.72 616.96L1.32 615.69L0.98 614.41L0.69 613.1L0.44 611.78L0.25 610.43L0.11 609.08L0.03 607.7L0 606.32L0 33.68L0.03 32.3L0.11 30.92L0.25 29.57L0.44 28.22L0.69 26.9L0.98 25.59L1.32 24.31L1.72 23.04L2.16 21.8L2.65 20.58L3.18 19.38L3.76 18.21L4.38 17.06L5.05 15.95L5.76 14.86L6.5 13.8L7.29 12.77L8.11 11.77L8.97 10.8L9.87 9.87L10.8 8.97L11.77 8.11L12.77 7.29L13.8 6.5L14.86 5.76L15.95 5.05L17.06 4.38L18.21 3.76L19.38 3.18L20.58 2.65L21.8 2.16L23.04 1.72L24.31 1.32L25.59 0.98L26.9 0.68L28.22 0.44L29.57 0.25L30.92 0.11L32.3 0.03L33.68 0L202.11 0L203.49 0.03L204.87 0.11ZM471.58 572.63L572.63 572.63L572.63 67.37L471.58 67.37L471.58 572.63ZM67.37 572.63L168.42 572.63L168.42 67.37L67.37 67.37L67.37 572.63Z" id="a5q2QYvkKg"></path></defs><g><g><g><use xlink:href="#a5q2QYvkKg" opacity="1" fill="#000000" fill-opacity="1"></use></g></g></g></svg>