<?xml version="1.0" encoding="UTF-8" standalone="no"?>
<!DOCTYPE svg PUBLIC "-//W3C//DTD SVG 1.1//EN" "http://www.w3.org/Graphics/SVG/1.1/DTD/svg11.dtd">
<svg version="1.1" xmlns="http://www.w3.org/2000/svg" xmlns:xlink="http://www.w3.org/1999/xlink" preserveAspectRatio="xMidYMid meet" viewBox="0 0 640 640" width="640" height="640"><defs><path d="M494.09 605.44L493.93 606.96L493.72 608.46L493.45 609.94L493.12 611.4L492.73 612.83L492.29 614.25L491.8 615.64L491.25 617L490.65 618.34L490.01 619.65L489.31 620.93L488.57 622.18L487.78 623.4L486.94 624.58L486.06 625.73L485.14 626.85L484.18 627.93L483.18 628.97L482.14 629.97L481.06 630.93L479.94 631.85L478.79 632.73L477.61 633.57L476.39 634.36L475.14 635.1L473.86 635.8L472.55 636.44L471.21 637.04L469.85 637.59L468.46 638.08L467.04 638.52L465.61 638.91L464.15 639.23L462.67 639.51L461.17 639.72L459.65 639.88L458.11 639.97L456.56 640L455.01 639.97L453.48 639.88L451.96 639.72L450.46 639.51L448.98 639.23L447.52 638.91L446.08 638.52L444.67 638.08L443.28 637.59L441.92 637.04L440.58 636.44L439.27 635.8L437.99 635.1L436.74 634.36L435.52 633.57L434.34 632.73L433.19 631.85L432.07 630.93L430.99 629.97L429.95 628.97L428.95 627.93L427.98 626.85L427.06 625.73L426.18 624.58L425.35 623.4L424.56 622.18L423.82 620.93L423.12 619.65L422.47 618.34L421.88 617L421.33 615.64L420.84 614.25L420.4 612.83L420.01 611.4L419.68 609.94L419.41 608.46L419.2 606.96L419.04 605.44L418.95 603.9L418.92 602.35L418.92 602.35L418.92 37.65L418.95 36.1L419.04 34.56L419.2 33.04L419.41 31.54L419.68 30.06L420.01 28.6L420.4 27.17L420.84 25.75L421.33 24.36L421.88 23L422.47 21.66L423.12 20.35L423.82 19.07L424.56 17.82L425.35 16.6L426.18 15.42L427.06 14.27L427.98 13.15L428.95 12.07L429.95 11.03L430.99 10.03L432.07 9.07L433.19 8.15L434.34 7.27L435.52 6.43L436.74 5.64L437.99 4.9L439.27 4.2L440.58 3.56L441.92 2.96L443.28 2.41L444.67 1.92L446.08 1.48L447.52 1.09L448.98 0.77L450.46 0.49L451.96 0.28L453.48 0.12L455.01 0.03L456.56 0L458.11 0.03L459.65 0.12L461.17 0.28L462.67 0.49L464.15 0.77L465.61 1.09L467.04 1.48L468.46 1.92L469.85 2.41L471.21 2.96L472.55 3.56L473.86 4.2L475.14 4.9L476.39 5.64L477.61 6.43L478.79 7.27L479.94 8.15L481.06 9.07L482.14 10.03L483.18 11.03L484.18 12.07L485.14 13.15L486.06 14.27L486.94 15.42L487.78 16.6L488.57 17.82L489.31 19.07L490.01 20.35L490.65 21.66L491.25 23L491.8 24.36L492.29 25.75L492.73 27.17L493.12 28.6L493.45 30.06L493.72 31.54L493.93 33.04L494.09 34.56L494.18 36.1L494.21 37.65L494.21 602.35L494.21 602.35L494.18 603.9L494.09 605.44ZM196.12 0.12L197.64 0.28L199.14 0.49L200.62 0.77L202.08 1.09L203.52 1.48L204.93 1.92L206.32 2.41L207.69 2.96L209.02 3.56L210.33 4.2L211.61 4.9L212.86 5.64L214.08 6.43L215.26 7.27L216.42 8.15L217.53 9.07L218.61 10.03L219.65 11.03L220.65 12.07L221.62 13.15L222.54 14.27L223.42 15.42L224.25 16.6L225.04 17.82L225.78 19.07L226.48 20.35L227.13 21.66L227.72 23L228.27 24.36L228.76 25.75L229.2 27.17L229.59 28.6L229.92 30.06L230.19 31.54L230.4 33.04L230.56 34.56L230.65 36.1L230.68 37.65L230.68 602.35L230.65 603.9L230.56 605.44L230.4 606.96L230.19 608.46L229.92 609.94L229.59 611.4L229.2 612.83L228.76 614.25L228.27 615.64L227.72 617L227.13 618.34L226.48 619.65L225.78 620.93L225.04 622.18L224.25 623.4L223.42 624.58L222.54 625.73L221.62 626.85L220.65 627.93L219.65 628.97L218.61 629.97L217.53 630.93L216.42 631.85L215.26 632.73L214.08 633.57L212.86 634.36L211.61 635.1L210.33 635.8L209.02 636.44L207.69 637.04L206.32 637.59L204.93 638.08L203.52 638.52L202.08 638.91L200.62 639.23L199.14 639.51L197.64 639.72L196.12 639.88L194.59 639.97L193.04 640L191.49 639.97L189.95 639.88L188.43 639.72L186.93 639.51L185.45 639.23L183.99 638.91L182.56 638.52L181.14 638.08L179.75 637.59L178.39 637.04L177.05 636.44L175.74 635.8L174.46 635.1L173.21 634.36L171.99 633.57L170.81 632.73L169.66 631.85L168.54 630.93L167.46 629.97L166.42 628.97L165.42 627.93L164.46 626.85L163.54 625.73L162.66 624.58L161.82 623.4L161.03 622.18L160.29 620.93L159.6 619.65L158.95 618.34L158.35 617L157.8 615.64L157.31 614.25L156.87 612.83L156.49 611.4L156.16 609.94L155.88 608.46L155.67 606.96L155.52 605.44L155.42 603.9L155.39 602.35L155.39 37.65L155.42 36.1L155.52 34.56L155.67 33.04L155.88 31.54L156.16 30.06L156.49 28.6L156.87 27.17L157.31 25.75L157.8 24.36L158.35 23L158.95 21.66L159.6 20.35L160.29 19.07L161.03 17.82L161.82 16.6L162.66 15.42L163.54 14.27L164.46 13.15L165.42 12.07L166.42 11.03L167.46 10.03L168.54 9.07L169.66 8.15L170.81 7.27L171.99 6.43L173.21 5.64L174.46 4.9L175.74 4.2L177.05 3.56L178.39 2.96L179.75 2.41L181.14 1.92L182.56 1.48L183.99 1.09L185.45 0.77L186.93 0.49L188.43 0.28L189.95 0.12L191.49 0.03L193.04 0L194.59 0.03L196.12 0.12Z" id="dv4t4ekAn"></path></defs><g><g><g><use xlink:href="#dv4t4ekAn" opacity="1" fill="#000000" fill-opacity="1"></use></g></g></g></svg>