<?xml version="1.0" encoding="UTF-8" standalone="no"?>
<!DOCTYPE svg PUBLIC "-//W3C//DTD SVG 1.1//EN" "http://www.w3.org/Graphics/SVG/1.1/DTD/svg11.dtd">
<svg version="1.1" xmlns="http://www.w3.org/2000/svg" xmlns:xlink="http://www.w3.org/1999/xlink" preserveAspectRatio="xMidYMid meet" viewBox="0 0 640 640" width="640" height="640"><defs><path d="M575.39 0.11L576.75 0.25L578.09 0.44L579.42 0.68L580.72 0.98L582.01 1.32L583.27 1.72L584.52 2.16L585.74 2.65L586.93 3.18L588.11 3.76L589.25 4.38L590.37 5.05L591.46 5.76L592.52 6.5L593.55 7.29L594.55 8.11L595.51 8.97L596.44 9.87L597.34 10.8L598.2 11.77L599.03 12.77L599.81 13.8L600.56 14.86L601.27 15.95L601.93 17.06L602.55 18.21L603.13 19.38L603.67 20.58L604.15 21.8L604.6 23.04L604.99 24.31L605.34 25.59L605.63 26.9L605.87 28.22L606.07 29.57L606.2 30.92L606.29 32.3L606.32 33.68L606.32 606.32L606.29 607.7L606.2 609.08L606.07 610.43L605.87 611.78L605.63 613.1L605.34 614.41L604.99 615.69L604.6 616.96L604.15 618.2L603.67 619.42L603.13 620.62L602.55 621.79L601.93 622.94L601.27 624.05L600.56 625.14L599.81 626.2L599.03 627.23L598.2 628.23L597.34 629.2L596.44 630.13L595.51 631.03L594.55 631.89L593.55 632.71L592.52 633.5L591.46 634.24L590.37 634.95L589.25 635.62L588.11 636.24L586.93 636.82L585.74 637.35L584.52 637.84L583.27 638.28L582.01 638.68L580.72 639.02L579.42 639.32L578.09 639.56L576.75 639.75L575.39 639.89L574.02 639.97L572.63 640L404.21 640L402.82 639.97L401.45 639.89L400.09 639.75L398.75 639.56L397.43 639.32L396.12 639.02L394.83 638.68L393.57 638.28L392.32 637.84L391.1 637.35L389.91 636.82L388.74 636.24L387.59 635.62L386.47 634.95L385.38 634.24L384.32 633.5L383.29 632.71L382.29 631.89L381.33 631.03L380.4 630.13L379.5 629.2L378.64 628.23L377.81 627.23L377.03 626.2L376.28 625.14L375.58 624.05L374.91 622.94L374.29 621.79L373.71 620.62L373.18 619.42L372.69 618.2L372.24 616.96L371.85 615.69L371.51 614.41L371.21 613.1L370.97 611.78L370.78 610.43L370.64 609.08L370.55 607.7L370.53 606.32L370.53 33.68L370.55 32.3L370.64 30.92L370.78 29.57L370.97 28.22L371.21 26.9L371.51 25.59L371.85 24.31L372.24 23.04L372.69 21.8L373.18 20.58L373.71 19.38L374.29 18.21L374.91 17.06L375.58 15.95L376.28 14.86L377.03 13.8L377.81 12.77L378.64 11.77L379.5 10.8L380.4 9.87L381.33 8.97L382.29 8.11L383.29 7.29L384.32 6.5L385.38 5.76L386.47 5.05L387.59 4.38L388.74 3.76L389.91 3.18L391.1 2.65L392.32 2.16L393.57 1.72L394.83 1.32L396.12 0.98L397.43 0.68L398.75 0.44L400.09 0.25L401.45 0.11L402.82 0.03L404.21 0L572.63 0L574.02 0.03L575.39 0.11ZM238.55 0.11L239.91 0.25L241.25 0.44L242.57 0.68L243.88 0.98L245.17 1.32L246.43 1.72L247.68 2.16L248.9 2.65L250.09 3.18L251.26 3.76L252.41 4.38L253.53 5.05L254.62 5.76L255.68 6.5L256.71 7.29L257.71 8.11L258.67 8.97L259.6 9.87L260.5 10.8L261.36 11.77L262.19 12.77L262.97 13.8L263.72 14.86L264.42 15.95L265.09 17.06L265.71 18.21L266.29 19.38L266.83 20.58L267.31 21.8L267.76 23.04L268.15 24.31L268.49 25.59L268.79 26.9L269.03 28.22L269.22 29.57L269.36 30.92L269.45 32.3L269.47 33.68L269.47 606.32L269.45 607.7L269.36 609.08L269.22 610.43L269.03 611.78L268.79 613.1L268.49 614.41L268.15 615.69L267.76 616.96L267.31 618.2L266.83 619.42L266.29 620.62L265.71 621.79L265.09 622.94L264.42 624.05L263.72 625.14L262.97 626.2L262.19 627.23L261.36 628.23L260.5 629.2L259.6 630.13L258.67 631.03L257.71 631.89L256.71 632.71L255.68 633.5L254.62 634.24L253.53 634.95L252.41 635.62L251.26 636.24L250.09 636.82L248.9 637.35L247.68 637.84L246.43 638.28L245.17 638.68L243.88 639.02L242.57 639.32L241.25 639.56L239.91 639.75L238.55 639.89L237.18 639.97L235.79 640L67.37 640L65.98 639.97L64.61 639.89L63.25 639.75L61.91 639.56L60.58 639.32L59.28 639.02L57.99 638.68L56.73 638.28L55.48 637.84L54.26 637.35L53.07 636.82L51.89 636.24L50.75 635.62L49.63 634.95L48.54 634.24L47.48 633.5L46.45 632.71L45.45 631.89L44.49 631.03L43.56 630.13L42.66 629.2L41.8 628.23L40.97 627.23L40.19 626.2L39.44 625.14L38.73 624.05L38.07 622.94L37.45 621.79L36.87 620.62L36.33 619.42L35.85 618.2L35.4 616.96L35.01 615.69L34.66 614.41L34.37 613.1L34.13 611.78L33.93 610.43L33.8 609.08L33.71 607.7L33.69 606.32L33.69 33.68L33.71 32.3L33.8 30.92L33.93 29.57L34.13 28.22L34.37 26.9L34.66 25.59L35.01 24.31L35.4 23.04L35.85 21.8L36.33 20.58L36.87 19.38L37.45 18.21L38.07 17.06L38.73 15.95L39.44 14.86L40.19 13.8L40.97 12.77L41.8 11.77L42.66 10.8L43.56 9.87L44.49 8.97L45.45 8.11L46.45 7.29L47.48 6.5L48.54 5.76L49.63 5.05L50.75 4.38L51.89 3.76L53.07 3.18L54.26 2.65L55.48 2.16L56.73 1.72L57.99 1.32L59.28 0.98L60.58 0.68L61.91 0.44L63.25 0.25L64.61 0.11L65.98 0.03L67.37 0L235.79 0L237.18 0.03L238.55 0.11ZM437.89 572.63L538.95 572.63L538.95 67.37L437.89 67.37L437.89 572.63ZM101.05 572.63L202.11 572.63L202.11 67.37L101.05 67.37L101.05 572.63Z" id="a8aNT95Ji"></path></defs><g><g><g><use xlink:href="#a8aNT95Ji" opacity="1" fill="#000000" fill-opacity="1"></use></g></g></g></svg>