<?xml version="1.0" encoding="UTF-8" standalone="no"?>
<!DOCTYPE svg PUBLIC "-//W3C//DTD SVG 1.1//EN" "http://www.w3.org/Graphics/SVG/1.1/DTD/svg11.dtd">
<svg version="1.1" xmlns="http://www.w3.org/2000/svg" xmlns:xlink="http://www.w3.org/1999/xlink" preserveAspectRatio="xMidYMid meet" viewBox="0 0 640 640" width="640" height="640"><defs><path d="M85.95 1.48L87.37 1.92L88.76 2.41L90.12 2.96L91.46 3.56L91.56 3.61L91.56 3.61L91.58 3.62L92.77 4.2L92.9 4.27L92.94 4.3L93.22 4.45L94.05 4.9L94.19 4.98L94.3 5.04L94.3 5.04L583.35 287.39L583.45 287.46L583.6 287.54L584.45 288.06L584.68 288.2L584.71 288.22L584.84 288.3L586.05 289.11L587.24 289.97L588.4 290.88L589.52 291.83L590.61 292.84L590.62 292.86L590.63 292.86L591.42 293.65L591.66 293.89L591.66 293.89L591.68 293.92L592.69 295L593.65 296.13L594.55 297.28L595.41 298.47L596.22 299.68L596.31 299.82L596.33 299.85L596.43 300.02L596.98 300.93L597.07 301.08L597.13 301.17L597.37 301.61L597.7 302.19L597.77 302.33L597.88 302.53L598.22 303.21L598.36 303.49L598.4 303.58L598.56 303.91L598.95 304.77L598.96 304.8L598.97 304.82L599.19 305.3L599.75 306.71L600.26 308.12L600.7 309.55L601.09 310.99L601.41 312.43L601.68 313.89L601.89 315.34L602.04 316.8L602.08 317.35L602.08 317.38L602.08 317.44L602.13 318.25L602.15 318.67L602.15 318.83L602.16 319.16L602.17 319.71L602.17 319.99L602.17 320.28L602.16 320.89L602.15 321.16L602.15 321.3L602.13 321.74L602.04 323.2L601.89 324.66L601.68 326.11L601.41 327.56L601.09 329L600.7 330.44L600.26 331.87L599.75 333.29L599.19 334.69L598.96 335.19L598.96 335.19L598.56 336.09L598.39 336.44L598.36 336.51L598.24 336.73L597.88 337.46L597.76 337.68L597.7 337.8L597.41 338.32L597.13 338.82L597.06 338.93L596.98 339.07L596.48 339.89L596.33 340.15L596.3 340.19L596.22 340.31L595.48 341.43L595.48 341.43L595.41 341.53L594.55 342.71L593.65 343.87L592.69 344.99L591.68 346.08L591.67 346.09L591.66 346.1L590.67 347.09L590.63 347.13L590.63 347.13L590.61 347.16L589.52 348.16L588.4 349.12L587.24 350.03L586.05 350.89L584.84 351.7L584.7 351.78L584.68 351.8L584.51 351.9L583.6 352.46L583.44 352.54L583.35 352.6L94.3 634.95L94.3 634.95L94.2 635.01L94.05 635.1L93.12 635.6L92.94 635.7L92.91 635.71L92.77 635.79L91.46 636.44L90.12 637.04L88.76 637.58L87.37 638.07L85.95 638.52L84.52 638.9L84.5 638.9L84.48 638.91L83.04 639.24L81.59 639.5L80.13 639.71L78.68 639.86L78.56 639.87L78.56 639.87L77.22 639.96L77.07 639.96L77.03 639.96L76.73 639.97L75.76 639.99L75.6 639.99L75.48 640L74.9 639.98L74.31 639.98L74.17 639.97L73.92 639.96L73.1 639.91L72.86 639.9L72.78 639.89L72.39 639.87L70.87 639.72L69.37 639.5L67.89 639.23L66.43 638.9L65 638.52L63.58 638.07L62.19 637.58L60.83 637.04L59.49 636.44L58.97 636.18L58.95 636.17L58.18 635.79L57.8 635.58L57.67 635.52L57.43 635.38L56.9 635.1L56.64 634.94L56.4 634.81L55.93 634.52L55.65 634.35L55.51 634.26L55.16 634.05L54.49 633.6L54.43 633.56L54.41 633.54L53.95 633.24L52.76 632.38L51.6 631.47L50.48 630.51L49.39 629.51L48.34 628.46L47.33 627.36L46.35 626.21L45.42 625.02L45.1 624.59L45.1 624.58L45.08 624.55L44.52 623.78L44.32 623.47L44.26 623.39L44.09 623.13L43.67 622.5L43.56 622.3L43.47 622.17L43.13 621.6L42.87 621.17L42.82 621.08L42.73 620.92L42.22 619.99L42.12 619.81L42.11 619.79L42.03 619.64L41.39 618.33L40.79 617L40.24 615.63L39.75 614.24L39.31 612.83L39.3 612.8L39.3 612.79L39.21 612.47L38.92 611.39L38.92 611.38L38.91 611.36L38.59 609.91L38.32 608.46L38.11 607.01L37.96 605.55L37.95 605.43L37.95 605.43L37.87 604.09L37.86 603.94L37.86 603.9L37.86 603.65L37.83 602.64L37.83 602.46L37.83 602.35L37.83 602.35L37.83 37.65L37.83 37.52L37.83 37.36L37.85 36.41L37.86 36.1L37.86 36.05L37.87 35.9L37.95 34.58L37.95 34.56L37.96 34.45L38.11 32.99L38.32 31.53L38.59 30.08L38.59 30.06L38.91 28.64L38.92 28.62L38.92 28.6L39.31 27.17L39.75 25.75L40.24 24.36L40.79 23L41.39 21.66L42.03 20.35L42.11 20.21L42.12 20.18L42.22 20.01L42.73 19.07L42.82 18.92L42.87 18.82L43.13 18.39L43.47 17.82L43.56 17.69L43.67 17.5L44.1 16.86L44.26 16.6L44.32 16.52L44.52 16.21L45.08 15.44L45.1 15.42L45.1 15.41L45.42 14.98L46.35 13.78L47.33 12.64L48.34 11.54L49.39 10.49L50.48 9.48L51.61 8.53L52.76 7.62L53.95 6.76L54.42 6.45L54.43 6.43L54.47 6.41L55.16 5.95L55.52 5.73L55.65 5.64L55.91 5.49L56.4 5.19L56.65 5.05L56.9 4.9L57.41 4.62L57.67 4.48L57.81 4.41L58.18 4.2L58.93 3.84L58.96 3.82L58.98 3.81L59.49 3.56L60.83 2.96L62.19 2.41L63.58 1.92L65 1.48L66.43 1.09L67.89 0.77L69.37 0.49L70.87 0.28L71.4 0.23L71.42 0.22L71.44 0.22L72.39 0.12L72.76 0.1L72.86 0.09L73.16 0.08L73.92 0.03L74.15 0.03L74.31 0.02L74.97 0.01L75.48 0L75.59 0L75.76 0L76.83 0.03L77.03 0.03L77.06 0.03L77.22 0.04L78.68 0.13L80.13 0.28L81.59 0.49L83.04 0.76L84.48 1.09L84.52 1.09L85.92 1.47L85.94 1.48L85.95 1.48ZM489.23 320L113.12 102.85L113.12 537.14L489.23 320Z" id="ajJnlUvpF"></path></defs><g><g><g><use xlink:href="#ajJnlUvpF" opacity="1" fill="#000000" fill-opacity="1"></use></g></g></g></svg>