<?xml version="1.0" encoding="UTF-8" standalone="no"?>
<!DOCTYPE svg PUBLIC "-//W3C//DTD SVG 1.1//EN" "http://www.w3.org/Graphics/SVG/1.1/DTD/svg11.dtd">
<svg version="1.1" xmlns="http://www.w3.org/2000/svg" xmlns:xlink="http://www.w3.org/1999/xlink" preserveAspectRatio="xMidYMid meet" viewBox="0 0 640 640" width="640" height="640"><defs><path d="M603.9 508.27L605.44 508.36L606.95 508.51L608.45 508.73L609.93 509L611.39 509.33L612.83 509.72L614.25 510.16L615.63 510.65L617 511.2L618.34 511.79L619.65 512.44L620.93 513.14L622.18 513.88L623.39 514.67L624.58 515.5L625.73 516.38L626.85 517.3L627.92 518.27L628.97 519.27L629.97 520.31L630.93 521.39L631.85 522.5L632.73 523.65L633.56 524.84L634.35 526.06L635.1 527.31L635.79 528.59L636.44 529.9L637.04 531.23L637.58 532.6L638.08 533.99L638.52 535.4L638.9 536.84L639.23 538.3L639.5 539.78L639.72 541.28L639.87 542.8L639.97 544.33L640 545.88L639.97 547.43L639.87 548.97L639.72 550.49L639.5 551.99L639.23 553.47L638.9 554.93L638.52 556.36L638.08 557.78L637.58 559.17L637.04 560.53L636.44 561.87L635.79 563.18L635.1 564.46L634.35 565.71L633.56 566.93L632.73 568.11L631.85 569.26L630.93 570.38L629.97 571.46L628.97 572.5L627.92 573.5L626.85 574.46L625.73 575.38L624.58 576.26L623.39 577.1L622.18 577.89L620.93 578.63L619.65 579.33L618.34 579.97L617 580.57L615.63 581.12L614.25 581.61L612.83 582.05L611.39 582.44L609.93 582.76L608.45 583.04L606.95 583.25L605.44 583.41L603.9 583.5L602.35 583.53L37.65 583.53L36.1 583.5L34.56 583.41L33.04 583.25L31.54 583.04L30.06 582.76L28.6 582.44L27.17 582.05L25.75 581.61L24.36 581.12L23 580.57L21.66 579.97L20.35 579.33L19.07 578.63L17.82 577.89L16.6 577.1L15.42 576.26L14.27 575.38L13.15 574.46L12.07 573.5L11.03 572.5L10.03 571.46L9.07 570.38L8.15 569.26L7.27 568.11L6.43 566.93L5.64 565.71L4.9 564.46L4.2 563.18L3.56 561.87L2.96 560.53L2.41 559.17L1.92 557.78L1.48 556.36L1.09 554.93L0.77 553.47L0.49 551.99L0.28 550.49L0.12 548.97L0.03 547.43L0 545.88L0.03 544.33L0.12 542.8L0.28 541.28L0.49 539.78L0.77 538.3L1.09 536.84L1.48 535.4L1.92 533.99L2.41 532.6L2.96 531.23L3.56 529.9L4.2 528.59L4.9 527.31L5.64 526.06L6.43 524.84L7.27 523.65L8.15 522.5L9.07 521.39L10.03 520.31L11.03 519.27L12.07 518.27L13.15 517.3L14.27 516.38L15.42 515.5L16.6 514.67L17.82 513.88L19.07 513.14L20.35 512.44L21.66 511.79L23 511.2L24.36 510.65L25.75 510.16L27.17 509.72L28.6 509.33L30.06 509L31.54 508.73L33.04 508.51L34.56 508.36L36.1 508.27L37.65 508.24L37.65 508.24L602.35 508.24L602.35 508.24L603.9 508.27ZM603.9 282.38L605.44 282.48L606.96 282.63L608.46 282.85L609.94 283.12L611.4 283.45L612.83 283.83L614.25 284.27L615.64 284.77L617 285.31L618.34 285.91L619.65 286.56L620.93 287.25L622.18 288L623.4 288.79L624.58 289.62L625.73 290.5L626.85 291.42L627.93 292.38L628.97 293.38L629.97 294.43L630.93 295.51L631.85 296.62L632.73 297.77L633.57 298.96L634.36 300.18L635.1 301.42L635.8 302.71L636.44 304.01L637.04 305.35L637.59 306.72L638.08 308.11L638.52 309.52L638.91 310.96L639.23 312.42L639.51 313.9L639.72 315.4L639.88 316.91L639.97 318.45L640 320L639.97 321.55L639.88 323.09L639.72 324.6L639.51 326.1L639.23 327.58L638.91 329.04L638.52 330.48L638.08 331.89L637.59 333.28L637.04 334.65L636.44 335.99L635.8 337.29L635.1 338.58L634.36 339.82L633.57 341.04L632.73 342.23L631.85 343.38L630.93 344.49L629.97 345.57L628.97 346.62L627.93 347.62L626.85 348.58L625.73 349.5L624.58 350.38L623.4 351.21L622.18 352L620.93 352.75L619.65 353.44L618.34 354.09L617 354.69L615.64 355.23L614.25 355.73L612.83 356.17L611.4 356.55L609.94 356.88L608.46 357.15L606.96 357.37L605.44 357.52L603.9 357.62L602.35 357.65L37.65 357.65L36.1 357.62L34.56 357.52L33.05 357.37L31.55 357.15L30.07 356.88L28.61 356.55L27.17 356.17L25.75 355.73L24.37 355.23L23 354.69L21.66 354.09L20.35 353.44L19.07 352.75L17.82 352L16.61 351.21L15.42 350.38L14.27 349.5L13.15 348.58L12.08 347.62L11.03 346.62L10.03 345.57L9.07 344.49L8.15 343.38L7.27 342.23L6.44 341.04L5.65 339.82L4.9 338.58L4.21 337.29L3.56 335.99L2.96 334.65L2.42 333.28L1.92 331.89L1.48 330.48L1.1 329.04L0.77 327.58L0.5 326.1L0.28 324.6L0.13 323.09L0.03 321.55L0 320L0.03 318.45L0.13 316.91L0.28 315.4L0.5 313.9L0.77 312.42L1.1 310.96L1.48 309.52L1.92 308.11L2.42 306.72L2.96 305.35L3.56 304.01L4.21 302.71L4.9 301.42L5.65 300.18L6.44 298.96L7.27 297.77L8.15 296.62L9.07 295.51L10.03 294.43L11.03 293.38L12.08 292.38L13.15 291.42L14.27 290.5L15.42 289.62L16.61 288.79L17.82 288L19.07 287.25L20.35 286.56L21.66 285.91L23 285.31L24.37 284.77L25.75 284.27L27.17 283.83L28.61 283.45L30.07 283.12L31.55 282.85L33.05 282.63L34.56 282.48L36.1 282.38L37.65 282.35L37.65 282.35L602.35 282.35L602.35 282.35L603.9 282.38ZM605.44 56.59L606.96 56.75L608.46 56.96L609.94 57.24L611.4 57.56L612.83 57.95L614.25 58.39L615.64 58.88L617 59.43L618.34 60.03L619.65 60.67L620.93 61.37L622.18 62.11L623.4 62.9L624.58 63.74L625.73 64.62L626.85 65.54L627.93 66.5L628.97 67.5L629.97 68.54L630.93 69.62L631.85 70.74L632.73 71.89L633.57 73.07L634.36 74.29L635.1 75.54L635.8 76.82L636.44 78.13L637.04 79.47L637.59 80.83L638.08 82.22L638.52 83.64L638.91 85.07L639.23 86.53L639.51 88.01L639.72 89.51L639.88 91.03L639.97 92.57L640 94.12L639.97 95.67L639.88 97.2L639.72 98.72L639.51 100.22L639.23 101.7L638.91 103.16L638.52 104.6L638.08 106.01L637.59 107.4L637.04 108.77L636.44 110.1L635.8 111.41L635.1 112.69L634.36 113.94L633.57 115.16L632.73 116.35L631.85 117.5L630.93 118.61L629.97 119.69L628.97 120.73L627.93 121.73L626.85 122.7L625.73 123.62L624.58 124.5L623.4 125.33L622.18 126.12L620.93 126.86L619.65 127.56L618.34 128.21L617 128.8L615.64 129.35L614.25 129.84L612.83 130.28L611.4 130.67L609.94 131L608.46 131.27L606.96 131.49L605.44 131.64L603.9 131.73L602.35 131.76L37.65 131.76L36.1 131.73L34.56 131.64L33.05 131.49L31.55 131.27L30.07 131L28.61 130.67L27.17 130.28L25.75 129.84L24.37 129.35L23 128.8L21.66 128.21L20.35 127.56L19.07 126.86L17.82 126.12L16.61 125.33L15.42 124.5L14.27 123.62L13.15 122.7L12.08 121.73L11.03 120.73L10.03 119.69L9.07 118.61L8.15 117.5L7.27 116.35L6.44 115.16L5.65 113.94L4.9 112.69L4.21 111.41L3.56 110.1L2.96 108.77L2.42 107.4L1.92 106.01L1.48 104.6L1.1 103.16L0.77 101.7L0.5 100.22L0.28 98.72L0.13 97.2L0.03 95.67L0 94.12L0.03 92.57L0.13 91.03L0.28 89.51L0.5 88.01L0.77 86.53L1.1 85.07L1.48 83.64L1.92 82.22L2.42 80.83L2.96 79.47L3.56 78.13L4.21 76.82L4.9 75.54L5.65 74.29L6.44 73.07L7.27 71.89L8.15 70.74L9.07 69.62L10.03 68.54L11.03 67.5L12.08 66.5L13.15 65.54L14.27 64.62L15.42 63.74L16.61 62.9L17.82 62.11L19.07 61.37L20.35 60.67L21.66 60.03L23 59.43L24.37 58.88L25.75 58.39L27.17 57.95L28.61 57.56L30.07 57.24L31.55 56.96L33.05 56.75L34.56 56.59L36.1 56.5L37.65 56.47L602.35 56.47L603.9 56.5L605.44 56.59Z" id="j5Ob4YGcGR"></path></defs><g><g><g><use xlink:href="#j5Ob4YGcGR" opacity="1" fill="#000000" fill-opacity="1"></use></g></g></g></svg>