<?xml version="1.0" encoding="UTF-8" standalone="no"?>
<!DOCTYPE svg PUBLIC "-//W3C//DTD SVG 1.1//EN" "http://www.w3.org/Graphics/SVG/1.1/DTD/svg11.dtd">
<svg version="1.1" xmlns="http://www.w3.org/2000/svg" xmlns:xlink="http://www.w3.org/1999/xlink" preserveAspectRatio="xMidYMid meet" viewBox="0 0 640 640" width="640" height="640"><defs><path d="M323.87 200.38L325.11 200.66L326.32 201.02L327.49 201.45L328.63 201.96L329.73 202.53L330.79 203.16L331.81 203.86L332.78 204.62L333.7 205.43L334.57 206.3L335.38 207.22L336.14 208.19L336.84 209.21L337.47 210.27L338.04 211.37L338.55 212.51L338.98 213.68L339.34 214.89L339.62 216.13L339.83 217.39L339.96 218.69L340 220L340 300L420 300L421.31 300.04L422.61 300.17L423.87 300.38L425.11 300.66L426.32 301.02L427.49 301.45L428.63 301.96L429.73 302.53L430.79 303.16L431.81 303.86L432.78 304.62L433.7 305.43L434.57 306.3L435.38 307.22L436.14 308.19L436.84 309.21L437.47 310.27L438.04 311.37L438.55 312.51L438.98 313.68L439.34 314.89L439.62 316.13L439.83 317.39L439.96 318.69L440 320L439.96 321.31L439.83 322.61L439.62 323.87L439.34 325.11L438.98 326.32L438.55 327.49L438.04 328.63L437.47 329.73L436.84 330.79L436.14 331.81L435.38 332.78L434.57 333.7L433.7 334.57L432.78 335.38L431.81 336.14L430.79 336.84L429.73 337.47L428.63 338.04L427.49 338.55L426.32 338.98L425.11 339.34L423.87 339.62L422.61 339.83L421.31 339.96L420 340L340 340L340 420L339.96 421.31L339.83 422.61L339.62 423.87L339.34 425.11L338.98 426.32L338.55 427.49L338.04 428.63L337.47 429.73L336.84 430.79L336.14 431.81L335.38 432.78L334.57 433.7L333.7 434.57L332.78 435.38L331.81 436.14L330.79 436.84L329.73 437.47L328.63 438.04L327.49 438.55L326.32 438.98L325.11 439.34L323.87 439.62L322.61 439.83L321.31 439.96L320 440L318.69 439.96L317.39 439.83L316.13 439.62L314.89 439.34L313.68 438.98L312.51 438.55L311.37 438.04L310.27 437.47L309.21 436.84L308.19 436.14L307.22 435.38L306.3 434.57L305.43 433.7L304.62 432.78L303.86 431.81L303.16 430.79L302.53 429.73L301.96 428.63L301.45 427.49L301.02 426.32L300.66 425.11L300.38 423.87L300.17 422.61L300.04 421.31L300 420L300 340L220 340L218.69 339.96L217.39 339.83L216.13 339.62L214.89 339.34L213.68 338.98L212.51 338.55L211.37 338.04L210.27 337.47L209.21 336.84L208.19 336.14L207.22 335.38L206.3 334.57L205.43 333.7L204.62 332.78L203.86 331.81L203.16 330.79L202.53 329.73L201.96 328.63L201.45 327.49L201.02 326.32L200.66 325.11L200.38 323.87L200.17 322.61L200.04 321.31L200 320L200.04 318.69L200.17 317.39L200.38 316.13L200.66 314.89L201.02 313.68L201.45 312.51L201.96 311.37L202.53 310.27L203.16 309.21L203.86 308.19L204.62 307.22L205.43 306.3L206.3 305.43L207.22 304.62L208.19 303.86L209.21 303.16L210.27 302.53L211.37 301.96L212.51 301.45L213.68 301.02L214.89 300.66L216.13 300.38L217.39 300.17L218.69 300.04L220 300L300 300L300 220L300.04 218.69L300.17 217.39L300.38 216.13L300.66 214.89L301.02 213.68L301.45 212.51L301.96 211.37L302.53 210.27L303.16 209.21L303.86 208.19L304.62 207.22L305.43 206.3L306.3 205.43L307.22 204.62L308.19 203.86L309.21 203.16L310.27 202.53L311.37 201.96L312.51 201.45L313.68 201.02L314.89 200.66L316.13 200.38L317.39 200.17L318.69 200.04L320 200L321.31 200.04L322.61 200.17L322.61 200.17L323.87 200.38Z" id="bJJh5SitT"></path><path d="M640 320C640 496.61 496.61 640 320 640C143.39 640 0 496.61 0 320C0 143.39 143.39 0 320 0C496.61 0 640 143.39 640 320Z" id="i3sJyrUicB"></path><clipPath id="clipamrBfguMi"><use xlink:href="#i3sJyrUicB" opacity="1"></use></clipPath></defs><g><g><g><use xlink:href="#bJJh5SitT" opacity="1" fill="#000000" fill-opacity="1"></use></g><g><g clip-path="url(#clipamrBfguMi)"><use xlink:href="#i3sJyrUicB" opacity="1" fill-opacity="0" stroke="#000000" stroke-width="40" stroke-opacity="1"></use></g></g></g></g></svg>