<?xml version="1.0" encoding="UTF-8" standalone="no"?>
<!DOCTYPE svg PUBLIC "-//W3C//DTD SVG 1.1//EN" "http://www.w3.org/Graphics/SVG/1.1/DTD/svg11.dtd">
<svg version="1.1" xmlns="http://www.w3.org/2000/svg" xmlns:xlink="http://www.w3.org/1999/xlink" preserveAspectRatio="xMidYMid meet" viewBox="0 0 640 640" width="640" height="640"><defs><path d="M117.49 576.91L118.09 577.02L118.09 576.63L526.1 576.63L527.32 576.66L528.51 576.76L529.7 576.91L530.86 577.12L532.01 577.38L533.15 577.71L534.26 578.08L535.35 578.51L536.42 579L537.47 579.53L538.5 580.11L539.5 580.74L540.48 581.42L541.43 582.14L542.35 582.91L543.24 583.72L544.1 584.57L544.93 585.46L545.73 586.39L546.49 587.35L547.22 588.36L547.92 589.4L548.58 590.47L549.2 591.58L549.78 592.71L550.32 593.88L550.82 595.07L551.28 596.3L551.69 597.55L552.06 598.82L552.38 600.12L552.66 601.43L552.89 602.77L553.07 604.13L553.2 605.51L553.28 606.91L553.31 608.32L553.28 609.73L553.2 611.12L553.07 612.5L552.89 613.86L552.66 615.2L552.38 616.52L552.06 617.81L551.69 619.09L551.28 620.34L550.82 621.56L550.32 622.75L549.78 623.92L549.2 625.06L548.58 626.16L547.92 627.23L547.22 628.27L546.49 629.28L545.73 630.25L544.93 631.18L544.1 632.07L543.24 632.92L542.35 633.73L541.43 634.49L540.48 635.21L539.5 635.89L538.5 636.52L537.47 637.1L536.42 637.64L535.35 638.12L534.26 638.55L533.15 638.93L532.01 639.25L530.86 639.52L529.7 639.72L528.51 639.88L527.32 639.97L526.1 640L526.1 640L118.09 640L118.09 639.62L117.49 639.72L116.3 639.88L115.11 639.97L113.9 640L112.68 639.97L111.49 639.88L110.3 639.72L109.14 639.52L107.99 639.25L106.85 638.93L105.74 638.55L104.65 638.12L103.58 637.64L102.53 637.1L101.5 636.52L100.5 635.89L99.52 635.21L98.57 634.49L97.65 633.73L96.76 632.92L95.9 632.07L95.07 631.18L94.27 630.25L93.51 629.28L92.78 628.27L92.08 627.23L91.42 626.16L90.8 625.06L90.22 623.92L89.68 622.75L89.18 621.56L88.72 620.34L88.31 619.09L87.94 617.81L87.62 616.52L87.34 615.2L87.11 613.86L86.93 612.5L86.8 611.12L86.72 609.73L86.69 608.32L86.72 606.91L86.8 605.51L86.93 604.13L87.11 602.77L87.34 601.43L87.62 600.12L87.94 598.82L88.31 597.55L88.72 596.3L89.18 595.07L89.68 593.88L90.22 592.71L90.8 591.58L91.42 590.47L92.08 589.4L92.78 588.36L93.51 587.35L94.27 586.39L95.07 585.46L95.9 584.57L96.76 583.72L97.65 582.91L98.57 582.14L99.52 581.42L100.5 580.74L101.5 580.11L102.53 579.53L103.58 579L104.65 578.51L105.74 578.08L106.85 577.71L107.99 577.38L109.14 577.12L110.3 576.91L111.49 576.76L112.68 576.66L113.9 576.63L115.11 576.66L116.3 576.76L117.49 576.91ZM322.66 0.11L323.97 0.25L325.26 0.44L326.54 0.68L327.8 0.97L329.03 1.31L330.25 1.7L331.45 2.13L332.62 2.62L333.77 3.14L334.89 3.71L335.99 4.33L337.06 4.98L338.1 5.68L339.11 6.42L340.09 7.19L341.04 8L341.95 8.85L342.84 9.73L343.68 10.65L344.49 11.59L345.27 12.58L346 13.59L346.7 14.63L347.35 15.7L347.97 16.79L348.54 17.92L349.07 19.06L349.55 20.24L349.98 21.43L350.37 22.65L350.71 23.89L351.01 25.14L351.25 26.42L351.44 27.71L351.57 29.02L351.66 30.34L351.68 31.68L351.66 33.02L351.57 34.35L351.44 35.65L351.3 36.57L351.68 36.57L351.68 435.33L499.23 287.79L500.19 286.86L501.19 285.98L502.21 285.15L503.26 284.37L504.33 283.64L505.42 282.96L506.54 282.32L507.67 281.74L508.83 281.2L510 280.71L511.18 280.27L512.38 279.88L513.59 279.54L514.81 279.25L516.04 279.01L517.27 278.81L518.51 278.66L519.76 278.57L521 278.52L522.25 278.52L523.5 278.57L524.74 278.66L525.98 278.81L527.22 279.01L528.45 279.25L529.67 279.54L530.88 279.88L532.07 280.27L533.26 280.71L534.43 281.2L535.58 281.74L536.72 282.32L537.83 282.96L538.93 283.64L540 284.37L541.05 285.15L542.07 285.98L543.07 286.86L544.03 287.79L544.96 288.75L545.84 289.75L546.67 290.77L547.45 291.82L548.18 292.89L548.86 293.98L549.49 295.1L550.08 296.23L550.62 297.39L551.1 298.56L551.54 299.74L551.93 300.94L552.27 302.15L552.57 303.37L552.81 304.6L553.01 305.83L553.15 307.07L553.25 308.32L553.3 309.56L553.3 310.81L553.25 312.06L553.15 313.3L553.01 314.54L552.81 315.78L552.57 317.01L552.27 318.23L551.93 319.44L551.54 320.63L551.1 321.82L550.62 322.99L550.08 324.14L549.49 325.28L548.86 326.39L548.18 327.49L547.45 328.56L546.67 329.61L545.84 330.63L544.96 331.63L544.03 332.59L544.03 332.59L365.29 511.33L365.29 511.33L342.89 533.74L342.88 533.73L342.4 534.22L341.44 535.15L340.44 536.02L339.42 536.85L338.37 537.63L337.3 538.37L336.2 539.05L335.09 539.68L333.95 540.27L332.8 540.8L331.63 541.29L330.45 541.73L330.27 541.79L330.25 541.8L330.15 541.83L329.25 542.12L329.1 542.16L329.03 542.18L328.68 542.28L328.04 542.46L327.91 542.49L327.8 542.52L327.31 542.64L326.82 542.76L326.7 542.78L326.54 542.82L326 542.92L325.59 543L325.46 543.02L325.26 543.06L324.74 543.13L324.36 543.19L324.2 543.21L323.97 543.25L323.5 543.29L323.12 543.34L322.91 543.36L322.66 543.38L322.26 543.41L321.87 543.44L321.61 543.45L321.34 543.47L321 543.47L320.62 543.49L320.29 543.49L320 543.49L319.71 543.49L319.38 543.49L319 543.47L318.66 543.47L318.4 543.45L318.13 543.44L317.74 543.41L317.34 543.38L317.09 543.36L316.88 543.34L316.5 543.29L316.03 543.25L315.8 543.21L315.64 543.19L315.26 543.13L314.74 543.06L314.54 543.02L314.41 543L314 542.92L313.46 542.82L313.3 542.78L313.18 542.76L312.7 542.64L312.2 542.52L312.09 542.49L311.96 542.46L311.32 542.28L310.97 542.18L310.9 542.16L310.75 542.12L309.85 541.83L309.75 541.8L309.73 541.79L309.55 541.73L308.37 541.29L307.2 540.8L306.05 540.27L304.91 539.68L303.8 539.05L302.7 538.37L301.63 537.63L300.58 536.85L299.56 536.02L298.56 535.15L297.6 534.22L297.12 533.73L297.11 533.74L274.71 511.33L274.71 511.33L95.97 332.59L95.97 332.59L95.04 331.63L94.16 330.63L93.33 329.61L92.55 328.56L91.82 327.49L91.14 326.39L90.51 325.28L89.92 324.14L89.38 322.99L88.9 321.82L88.46 320.63L88.07 319.44L87.73 318.23L87.43 317.01L87.19 315.78L86.99 314.54L86.85 313.3L86.75 312.06L86.7 310.81L86.7 309.56L86.75 308.32L86.85 307.07L86.99 305.83L87.19 304.6L87.43 303.37L87.73 302.15L88.07 300.94L88.46 299.74L88.9 298.56L89.38 297.39L89.92 296.23L90.51 295.1L91.14 293.98L91.82 292.89L92.55 291.82L93.33 290.77L94.16 289.75L95.04 288.75L95.97 287.79L96.93 286.86L97.93 285.98L98.95 285.15L100 284.37L101.07 283.64L102.17 282.96L103.28 282.32L104.42 281.74L105.57 281.2L106.74 280.71L107.93 280.27L109.12 279.88L110.33 279.54L111.55 279.25L112.78 279.01L114.02 278.81L115.26 278.66L116.5 278.57L117.75 278.52L119 278.52L120.24 278.57L121.49 278.66L122.73 278.81L123.96 279.01L125.19 279.25L126.41 279.54L127.62 279.88L128.82 280.27L130 280.71L131.17 281.2L132.33 281.74L133.46 282.32L134.58 282.96L135.67 283.64L136.74 284.37L137.79 285.15L138.81 285.98L139.81 286.86L140.77 287.79L288.32 435.33L288.32 36.57L288.7 36.57L288.56 35.65L288.43 34.35L288.34 33.02L288.32 31.68L288.34 30.34L288.43 29.02L288.56 27.71L288.75 26.42L288.99 25.14L289.29 23.89L289.63 22.65L290.02 21.43L290.45 20.24L290.93 19.06L291.46 17.92L292.03 16.79L292.65 15.7L293.3 14.63L294 13.59L294.73 12.58L295.51 11.59L296.32 10.65L297.16 9.73L298.05 8.85L298.96 8L299.91 7.19L300.89 6.42L301.9 5.68L302.94 4.98L304.01 4.33L305.11 3.71L306.23 3.14L307.38 2.62L308.55 2.13L309.75 1.7L310.97 1.31L312.2 0.97L313.46 0.68L314.74 0.44L316.03 0.25L317.34 0.11L318.66 0.03L320 0L321.34 0.03L322.66 0.11Z" id="ck6g5yXmk"></path></defs><g><g><g><use xlink:href="#ck6g5yXmk" opacity="1" fill="#000000" fill-opacity="1"></use></g></g></g></svg>