<?xml version="1.0" encoding="UTF-8" standalone="no"?>
<!DOCTYPE svg PUBLIC "-//W3C//DTD SVG 1.1//EN" "http://www.w3.org/Graphics/SVG/1.1/DTD/svg11.dtd">
<svg version="1.1" xmlns="http://www.w3.org/2000/svg" xmlns:xlink="http://www.w3.org/1999/xlink" preserveAspectRatio="xMidYMid meet" viewBox="0 0 640 640" width="640" height="640"><defs><path d="M440.14 0.1L441.36 0.24L442.59 0.42L442.63 0.43L442.68 0.42L443.9 0.24L445.13 0.1L446.36 0.03L447.59 0L448.82 0.03L450.06 0.1L451.28 0.24L452.51 0.42L453.72 0.65L454.93 0.94L456.12 1.28L457.3 1.67L458.47 2.12L459.62 2.61L460.76 3.16L461.87 3.76L462.96 4.41L464.03 5.12L465.07 5.88L466.09 6.68L467.07 7.55L468.03 8.46L631.54 171.97L631.54 171.97L632.45 172.93L633.32 173.91L634.13 174.93L634.88 175.97L635.59 177.04L636.24 178.13L636.84 179.24L637.39 180.38L637.89 181.53L638.33 182.7L638.72 183.88L639.06 185.07L639.35 186.28L639.58 187.5L639.77 188.72L639.9 189.94L639.97 191.18L640 192.41L639.97 193.64L639.9 194.87L639.77 196.1L639.58 197.32L639.57 197.37L639.58 197.41L639.77 198.64L639.9 199.86L639.97 201.09L640 202.33L639.97 203.56L639.9 204.79L639.77 206.02L639.58 207.24L639.35 208.46L639.06 209.66L638.72 210.86L638.33 212.04L637.89 213.21L637.39 214.36L636.84 215.49L636.24 216.6L635.59 217.7L634.88 218.76L634.13 219.81L633.32 220.82L632.45 221.81L631.54 222.77L222.77 631.54L222.77 631.54L221.81 632.45L220.82 633.32L219.81 634.12L218.76 634.88L217.7 635.59L216.6 636.24L215.49 636.84L214.79 637.18L214.72 637.22L214.68 637.23L214.36 637.39L213.74 637.66L213.58 637.73L213.49 637.76L213.21 637.88L212.67 638.09L212.41 638.19L212.28 638.24L212.04 638.33L211.58 638.48L211.23 638.6L211.04 638.66L210.86 638.72L210.46 638.83L210.01 638.97L209.81 639.02L209.66 639.06L209.31 639.14L208.78 639.28L208.57 639.32L208.46 639.35L208.13 639.41L207.53 639.53L207.33 639.57L207.24 639.58L206.91 639.63L206.25 639.74L206.09 639.75L206.02 639.76L205.63 639.81L204.96 639.88L204.85 639.89L204.79 639.9L204.25 639.93L203.66 639.97L203.6 639.97L203.56 639.97L202.42 640L202.33 640L28.9 640L27.58 639.97L26.28 639.88L24.98 639.74L23.71 639.53L22.46 639.28L21.22 638.97L20.01 638.6L18.82 638.19L17.66 637.73L16.52 637.22L15.41 636.66L14.32 636.05L13.27 635.4L12.24 634.71L11.25 633.97L10.29 633.2L9.36 632.38L8.47 631.53L7.62 630.64L6.8 629.71L6.03 628.75L5.29 627.76L4.6 626.74L3.95 625.68L3.34 624.59L2.79 623.48L2.27 622.34L1.81 621.18L1.4 619.99L1.03 618.78L0.72 617.54L0.47 616.29L0.26 615.02L0.12 613.72L0.03 612.42L0 611.1L0 553.29L0 437.67L0.03 436.44L0.03 436.4L0.03 436.34L0.07 435.75L0.1 435.21L0.11 435.15L0.12 435.04L0.19 434.37L0.24 433.98L0.25 433.91L0.26 433.75L0.37 433.09L0.42 432.76L0.44 432.67L0.47 432.47L0.59 431.87L0.65 431.54L0.68 431.43L0.72 431.22L0.86 430.69L0.94 430.34L0.98 430.2L1.03 429.99L1.17 429.54L1.28 429.14L1.34 428.96L1.4 428.77L1.52 428.42L1.67 427.96L1.76 427.73L1.81 427.59L1.91 427.33L2.12 426.79L2.24 426.51L2.27 426.42L2.34 426.26L2.61 425.64L2.77 425.32L2.79 425.28L2.82 425.22L3.16 424.51L3.76 423.4L4.41 422.3L5.12 421.24L5.88 420.19L6.68 419.18L7.55 418.19L8.46 417.23L8.46 417.23L417.23 8.46L418.19 7.55L419.18 6.68L420.19 5.88L421.24 5.12L422.3 4.41L423.4 3.76L424.51 3.16L425.64 2.61L426.79 2.12L427.96 1.67L429.14 1.28L430.34 0.94L431.54 0.65L432.76 0.42L433.98 0.24L435.21 0.1L436.44 0.03L437.67 0L438.91 0.03L440.14 0.1ZM613.72 582.31L615.02 582.45L616.29 582.66L617.54 582.91L618.78 583.22L619.99 583.59L621.18 584L622.34 584.46L623.48 584.98L624.59 585.53L625.68 586.14L626.74 586.79L627.76 587.48L628.75 588.22L629.71 588.99L630.64 589.81L631.53 590.66L632.38 591.55L633.2 592.48L633.97 593.44L634.71 594.43L635.4 595.46L636.05 596.51L636.66 597.6L637.22 598.71L637.73 599.85L638.19 601.01L638.6 602.2L638.97 603.42L639.28 604.65L639.53 605.9L639.74 607.18L639.88 608.47L639.97 609.77L640 611.1L639.97 612.42L639.88 613.72L639.74 615.02L639.53 616.29L639.28 617.54L638.97 618.78L638.6 619.99L638.19 621.18L637.73 622.34L637.22 623.48L636.66 624.59L636.05 625.68L635.4 626.74L634.71 627.76L633.97 628.75L633.2 629.71L632.38 630.64L631.53 631.53L630.64 632.38L629.71 633.2L628.75 633.97L627.76 634.71L626.74 635.4L625.68 636.05L624.59 636.66L623.48 637.22L622.34 637.73L621.18 638.19L619.99 638.6L618.78 638.97L617.54 639.28L616.29 639.53L615.02 639.74L613.72 639.88L612.42 639.97L611.1 640L350.95 640L349.63 639.97L348.32 639.88L347.03 639.74L345.76 639.53L344.51 639.28L343.27 638.97L342.06 638.6L340.87 638.19L339.71 637.73L338.57 637.22L337.45 636.66L336.37 636.05L335.31 635.4L334.29 634.71L333.3 633.97L332.33 633.2L331.41 632.38L330.52 631.53L329.67 630.64L328.85 629.71L328.07 628.75L327.34 627.76L326.65 626.74L326 625.68L325.39 624.59L324.83 623.48L324.32 622.34L323.86 621.18L323.44 619.99L323.08 618.78L322.77 617.54L322.51 616.29L322.31 615.02L322.17 613.72L322.08 612.42L322.05 611.1L322.08 609.77L322.17 608.47L322.31 607.18L322.51 605.9L322.77 604.65L323.08 603.42L323.44 602.2L323.86 601.01L324.32 599.85L324.83 598.71L325.39 597.6L326 596.51L326.65 595.46L327.34 594.43L328.07 593.44L328.85 592.48L329.67 591.55L330.52 590.66L331.41 589.81L332.33 588.99L333.3 588.22L334.29 587.48L335.31 586.79L336.37 586.14L337.45 585.53L338.57 584.98L339.71 584.46L340.87 584L342.06 583.59L343.27 583.22L344.51 582.91L345.76 582.66L347.03 582.45L348.32 582.31L349.63 582.22L350.95 582.19L611.1 582.19L612.42 582.22L613.72 582.31ZM57.81 582.19L190.36 582.19L575.18 197.37L442.63 64.82L57.81 449.64L57.81 582.19Z" id="a5YTNaH1JL"></path></defs><g><g><g><use xlink:href="#a5YTNaH1JL" opacity="1" fill="#000000" fill-opacity="1"></use></g></g></g></svg>