<?xml version="1.0" encoding="UTF-8" standalone="no"?>
<!DOCTYPE svg PUBLIC "-//W3C//DTD SVG 1.1//EN" "http://www.w3.org/Graphics/SVG/1.1/DTD/svg11.dtd">
<svg version="1.1" xmlns="http://www.w3.org/2000/svg" xmlns:xlink="http://www.w3.org/1999/xlink" preserveAspectRatio="xMidYMid meet" viewBox="0 0 640 640" width="640" height="640"><defs><path d="M262.61 360.17L263.87 360.38L265.11 360.66L266.32 361.02L267.49 361.45L268.63 361.96L269.73 362.53L270.79 363.16L271.81 363.86L272.78 364.62L273.7 365.43L274.57 366.3L275.38 367.22L276.14 368.19L276.84 369.21L277.47 370.27L278.04 371.37L278.55 372.51L278.98 373.68L279.34 374.89L279.63 376.13L279.83 377.39L279.96 378.69L280 380L280 620L279.96 621.31L279.83 622.61L279.63 623.87L279.34 625.11L278.98 626.32L278.55 627.49L278.04 628.63L277.47 629.73L276.84 630.79L276.14 631.81L275.38 632.78L274.57 633.7L273.7 634.57L272.78 635.38L271.81 636.14L270.79 636.84L269.73 637.47L268.63 638.04L267.49 638.55L266.32 638.98L265.11 639.34L263.87 639.62L262.61 639.83L261.31 639.96L260 640L20 640L18.69 639.96L17.39 639.83L16.13 639.62L14.89 639.34L13.68 638.98L12.51 638.55L11.37 638.04L10.27 637.47L9.21 636.84L8.19 636.14L7.22 635.38L6.3 634.57L5.43 633.7L4.62 632.78L3.86 631.81L3.16 630.79L2.53 629.73L1.96 628.63L1.45 627.49L1.02 626.32L0.66 625.11L0.38 623.87L0.17 622.61L0.04 621.31L0 620L0 380L0 380L0.04 378.69L0.17 377.39L0.38 376.13L0.66 374.89L1.02 373.68L1.45 372.51L1.96 371.37L2.53 370.27L3.16 369.21L3.86 368.19L4.62 367.22L5.43 366.3L6.3 365.43L7.22 364.62L8.19 363.86L9.21 363.16L10.27 362.53L11.37 361.96L12.51 361.45L13.68 361.02L14.89 360.66L16.13 360.38L17.39 360.17L18.69 360.04L20 360L260 360L261.31 360.04L262.61 360.17ZM622.61 360.17L623.87 360.38L625.11 360.66L626.32 361.02L627.49 361.45L628.63 361.96L629.73 362.53L630.79 363.16L631.81 363.86L632.78 364.62L633.7 365.43L634.57 366.3L635.38 367.22L636.14 368.19L636.84 369.21L637.47 370.27L638.04 371.37L638.55 372.51L638.98 373.68L639.34 374.89L639.63 376.13L639.83 377.39L639.96 378.69L640 380L640 620L639.96 621.31L639.83 622.61L639.63 623.87L639.34 625.11L638.98 626.32L638.55 627.49L638.04 628.63L637.47 629.73L636.84 630.79L636.14 631.81L635.38 632.78L634.57 633.7L633.7 634.57L632.78 635.38L631.81 636.14L630.79 636.84L629.73 637.47L628.63 638.04L627.49 638.55L626.32 638.98L625.11 639.34L623.87 639.62L622.61 639.83L621.31 639.96L620 640L380 640L378.69 639.96L377.39 639.83L376.13 639.62L374.89 639.34L373.68 638.98L372.51 638.55L371.37 638.04L370.27 637.47L369.21 636.84L368.19 636.14L367.22 635.38L366.3 634.57L365.43 633.7L364.62 632.78L363.86 631.81L363.16 630.79L362.53 629.73L361.96 628.63L361.45 627.49L361.02 626.32L360.66 625.11L360.38 623.87L360.17 622.61L360.04 621.31L360 620L360 380L360 380L360.04 378.69L360.17 377.39L360.38 376.13L360.66 374.89L361.02 373.68L361.45 372.51L361.96 371.37L362.53 370.27L363.16 369.21L363.86 368.19L364.62 367.22L365.43 366.3L366.3 365.43L367.22 364.62L368.19 363.86L369.21 363.16L370.27 362.53L371.37 361.96L372.51 361.45L373.68 361.02L374.89 360.66L376.13 360.38L377.39 360.17L378.69 360.04L380 360L620 360L621.31 360.04L622.61 360.17ZM400 600L600 600L600 400L400 400L400 600ZM40 600L240 600L240 400L40 400L40 600ZM262.61 0.17L263.87 0.38L265.11 0.66L266.32 1.02L267.49 1.45L268.63 1.96L269.73 2.53L270.79 3.16L271.81 3.86L272.78 4.62L273.7 5.43L274.57 6.3L275.38 7.22L276.14 8.19L276.84 9.21L277.47 10.27L278.04 11.37L278.55 12.51L278.98 13.68L279.34 14.89L279.63 16.13L279.83 17.39L279.96 18.69L280 20L280 260L279.96 261.31L279.83 262.61L279.63 263.87L279.34 265.11L278.98 266.32L278.55 267.49L278.04 268.63L277.47 269.73L276.84 270.79L276.14 271.81L275.38 272.78L274.57 273.7L273.7 274.57L272.78 275.38L271.81 276.14L270.79 276.84L269.73 277.47L268.63 278.04L267.49 278.55L266.32 278.98L265.11 279.34L263.87 279.62L262.61 279.83L261.31 279.96L260 280L20 280L18.69 279.96L17.39 279.83L16.13 279.62L14.89 279.34L13.68 278.98L12.51 278.55L11.37 278.04L10.27 277.47L9.21 276.84L8.19 276.14L7.22 275.38L6.3 274.57L5.43 273.7L4.62 272.78L3.86 271.81L3.16 270.79L2.53 269.73L1.96 268.63L1.45 267.49L1.02 266.32L0.66 265.11L0.38 263.87L0.17 262.61L0.04 261.31L0 260L0 20L0 20L0.04 18.69L0.17 17.39L0.38 16.13L0.66 14.89L1.02 13.68L1.45 12.51L1.96 11.37L2.53 10.27L3.16 9.21L3.86 8.19L4.62 7.22L5.43 6.3L6.3 5.43L7.22 4.62L8.19 3.86L9.21 3.16L10.27 2.53L11.37 1.96L12.51 1.45L13.68 1.02L14.89 0.66L16.13 0.38L17.39 0.17L18.69 0.04L20 0L260 0L261.31 0.04L262.61 0.17ZM622.61 0.17L623.87 0.38L625.11 0.66L626.32 1.02L627.49 1.45L628.63 1.96L629.73 2.53L630.79 3.16L631.81 3.86L632.78 4.62L633.7 5.43L634.57 6.3L635.38 7.22L636.14 8.19L636.84 9.21L637.47 10.27L638.04 11.37L638.55 12.51L638.98 13.68L639.34 14.89L639.63 16.13L639.83 17.39L639.96 18.69L640 20L640 260L639.96 261.31L639.83 262.61L639.63 263.87L639.34 265.11L638.98 266.32L638.55 267.49L638.04 268.63L637.47 269.73L636.84 270.79L636.14 271.81L635.38 272.78L634.57 273.7L633.7 274.57L632.78 275.38L631.81 276.14L630.79 276.84L629.73 277.47L628.63 278.04L627.49 278.55L626.32 278.98L625.11 279.34L623.87 279.62L622.61 279.83L621.31 279.96L620 280L380 280L378.69 279.96L377.39 279.83L376.13 279.62L374.89 279.34L373.68 278.98L372.51 278.55L371.37 278.04L370.27 277.47L369.21 276.84L368.19 276.14L367.22 275.38L366.3 274.57L365.43 273.7L364.62 272.78L363.86 271.81L363.16 270.79L362.53 269.73L361.96 268.63L361.45 267.49L361.02 266.32L360.66 265.11L360.38 263.87L360.17 262.61L360.04 261.31L360 260L360 20L360 20L360.04 18.69L360.17 17.39L360.38 16.13L360.66 14.89L361.02 13.68L361.45 12.51L361.96 11.37L362.53 10.27L363.16 9.21L363.86 8.19L364.62 7.22L365.43 6.3L366.3 5.43L367.22 4.62L368.19 3.86L369.21 3.16L370.27 2.53L371.37 1.96L372.51 1.45L373.68 1.02L374.89 0.66L376.13 0.38L377.39 0.17L378.69 0.04L380 0L620 0L621.31 0.04L622.61 0.17ZM40 240L240 240L240 40L40 40L40 240ZM400 240L600 240L600 40L400 40L400 240Z" id="aeaDMn0sn"></path></defs><g><g><g><use xlink:href="#aeaDMn0sn" opacity="1" fill="#000000" fill-opacity="1"></use></g></g></g></svg>