<?xml version="1.0" encoding="UTF-8" standalone="no"?>
<!DOCTYPE svg PUBLIC "-//W3C//DTD SVG 1.1//EN" "http://www.w3.org/Graphics/SVG/1.1/DTD/svg11.dtd">
<svg version="1.1" xmlns="http://www.w3.org/2000/svg" xmlns:xlink="http://www.w3.org/1999/xlink" preserveAspectRatio="xMidYMid meet" viewBox="0 0 640 640" width="640" height="640"><defs><path d="M443.55 76.4L443.8 75.11L444.11 73.85L444.49 72.62L444.92 71.41L445.42 70.23L445.98 69.09L446.59 67.98L447.26 66.91L447.98 65.87L448.75 64.87L449.57 63.92L450.43 63.01L451.35 62.14L452.3 61.32L453.3 60.55L454.33 59.83L455.41 59.16L456.52 58.55L457.66 57.99L458.84 57.5L460.04 57.06L461.28 56.68L462.54 56.37L463.82 56.13L465.13 55.95L466.46 55.84L467.81 55.8L469.16 55.84L470.48 55.95L471.79 56.13L473.08 56.37L474.34 56.68L475.57 57.06L476.78 57.5L477.95 57.99L479.1 58.55L480.21 59.16L481.28 59.83L482.32 60.55L483.32 61.32L484.27 62.14L485.18 63.01L486.05 63.92L486.87 64.87L487.64 65.87L488.36 66.91L489.03 67.98L489.64 69.09L490.2 70.23L490.69 71.41L491.13 72.62L491.51 73.85L491.82 75.11L492.06 76.4L492.24 77.7L492.35 79.03L492.38 80.38L492.38 181.14L632.81 321.56L633.73 322.54L634.6 323.56L635.4 324.61L636.13 325.69L636.8 326.8L637.41 327.94L637.95 329.1L638.43 330.28L638.85 331.49L639.2 332.7L639.49 333.93L639.71 335.18L639.87 336.43L639.97 337.68L640 338.94L639.97 340.2L639.87 341.45L639.71 342.7L639.49 343.94L639.2 345.17L638.85 346.39L638.43 347.59L637.95 348.78L637.41 349.94L636.8 351.08L636.13 352.19L635.4 353.27L634.6 354.32L633.73 355.34L632.81 356.32L631.83 357.24L630.81 358.11L629.76 358.91L628.68 359.64L627.57 360.31L626.43 360.92L625.27 361.46L624.08 361.94L622.88 362.36L621.66 362.71L620.43 363L619.19 363.22L617.94 363.38L616.69 363.48L615.43 363.51L614.17 363.48L612.92 363.38L611.67 363.22L610.42 363L609.19 362.71L607.97 362.36L606.77 361.94L605.59 361.46L604.43 360.92L603.29 360.31L602.18 359.64L601.1 358.91L600.04 358.11L599.03 357.24L598.05 356.32L553.48 311.74L553.48 596.48L553.44 597.83L553.33 599.16L553.15 600.47L552.91 601.75L552.6 603.01L552.22 604.25L551.78 605.45L551.29 606.63L550.73 607.77L550.12 608.88L549.45 609.96L548.73 610.99L547.96 611.99L547.14 612.95L546.27 613.86L545.36 614.73L544.41 615.54L543.41 616.32L542.37 617.04L541.3 617.7L540.19 618.32L539.05 618.87L537.87 619.37L536.66 619.81L535.43 620.18L534.17 620.49L532.88 620.74L531.58 620.92L530.25 621.02L528.9 621.06L111.1 621.06L109.75 621.02L108.42 620.92L107.12 620.74L105.83 620.49L104.57 620.18L103.34 619.81L102.13 619.37L100.95 618.87L99.81 618.32L98.7 617.7L97.63 617.04L96.59 616.32L95.59 615.54L94.64 614.73L93.73 613.86L92.86 612.95L92.04 611.99L91.27 610.99L90.55 609.96L89.88 608.88L89.27 607.77L88.71 606.63L88.22 605.45L87.78 604.25L87.4 603.01L87.09 601.75L86.85 600.47L86.67 599.16L86.56 597.83L86.52 596.48L86.52 311.74L41.95 356.32L41.95 356.32L40.97 357.24L39.96 358.11L38.9 358.91L37.82 359.64L36.71 360.31L35.57 360.92L34.41 361.46L33.23 361.94L32.03 362.36L30.81 362.71L29.58 363L28.33 363.22L27.08 363.38L25.83 363.48L24.57 363.51L23.31 363.48L22.06 363.38L20.81 363.22L19.57 363L18.34 362.71L17.12 362.36L15.92 361.94L14.73 361.46L13.57 360.92L12.43 360.31L11.32 359.64L10.24 358.91L9.19 358.11L8.17 357.24L7.19 356.32L6.27 355.34L5.4 354.32L4.6 353.27L3.87 352.19L3.2 351.08L2.59 349.94L2.05 348.78L1.57 347.59L1.15 346.39L0.8 345.17L0.51 343.94L0.29 342.7L0.13 341.45L0.03 340.2L0 338.94L0.03 337.68L0.13 336.43L0.29 335.18L0.51 333.93L0.8 332.7L1.15 331.49L1.57 330.28L2.05 329.1L2.59 327.94L3.2 326.8L3.87 325.69L4.6 324.61L5.4 323.56L6.27 322.54L7.19 321.56L7.19 321.56L268.84 59.91L269.86 58.9L275.4 53.35L276.59 52.17L279.01 49.75L280.24 48.52L283.99 44.77L302.62 26.13L302.62 26.13L303.6 25.21L304.62 24.34L305.67 23.54L306.75 22.81L307.86 22.14L309 21.53L310.16 20.99L311.34 20.51L312.55 20.09L313.76 19.74L315 19.45L316.24 19.23L317.49 19.07L318.74 18.97L320 18.94L321.26 18.97L322.51 19.07L323.76 19.23L325 19.45L326.24 19.74L327.45 20.09L328.66 20.51L329.84 20.99L331 21.53L332.14 22.14L333.25 22.81L334.33 23.54L335.38 24.34L336.4 25.21L337.38 26.13L337.38 26.13L356.01 44.77L359.76 48.52L360.99 49.75L363.41 52.17L364.6 53.35L370.14 58.9L371.16 59.91L443.23 131.99L443.23 80.38L443.27 79.03L443.38 77.7L443.55 76.4ZM302.62 95.65L135.68 262.59L135.68 571.91L240.13 571.91L240.13 406.02L240.17 404.7L240.31 403.41L240.53 402.15L240.84 400.92L241.23 399.72L241.7 398.56L242.24 397.44L242.86 396.36L243.54 395.33L244.29 394.35L245.1 393.43L245.97 392.56L246.9 391.75L247.88 391L248.91 390.32L249.98 389.7L251.1 389.16L252.26 388.69L253.46 388.3L254.69 387.99L255.95 387.77L257.24 387.63L258.56 387.58L381.44 387.58L382.76 387.63L384.05 387.77L385.31 387.99L386.54 388.3L387.74 388.69L388.9 389.16L390.02 389.7L391.09 390.32L392.12 391L393.1 391.75L394.03 392.56L394.9 393.43L395.71 394.35L396.46 395.33L397.14 396.36L397.76 397.44L398.3 398.56L398.77 399.72L399.16 400.92L399.47 402.15L399.69 403.41L399.83 404.7L399.87 406.02L399.87 571.91L504.32 571.91L504.32 262.59L337.38 95.65L337.38 95.65L320 78.27L320 78.27L302.62 95.65ZM276.99 571.91L363.01 571.91L363.01 424.45L276.99 424.45L276.99 571.91Z" id="artOaos1"></path></defs><g><g><g><use xlink:href="#artOaos1" opacity="1" fill="#000000" fill-opacity="1"></use></g></g></g></svg>