<?xml version="1.0" encoding="UTF-8" standalone="no"?>
<!DOCTYPE svg PUBLIC "-//W3C//DTD SVG 1.1//EN" "http://www.w3.org/Graphics/SVG/1.1/DTD/svg11.dtd">
<svg version="1.1" xmlns="http://www.w3.org/2000/svg" xmlns:xlink="http://www.w3.org/1999/xlink" preserveAspectRatio="xMidYMid meet" viewBox="0 0 640 640" width="640" height="640"><defs><path d="M31.74 436.48L33.04 436.63L34.32 436.83L35.58 437.09L36.82 437.4L38.04 437.77L39.24 438.18L40.41 438.65L41.56 439.17L42.68 439.73L43.77 440.34L44.83 440.99L45.86 441.69L46.86 442.43L47.83 443.21L48.76 444.03L49.66 444.89L50.52 445.78L51.34 446.72L52.12 447.68L52.86 448.68L53.55 449.71L54.21 450.78L54.82 451.87L55.38 452.99L55.89 454.14L56.36 455.31L56.78 456.5L57.14 457.72L57.45 458.97L57.71 460.23L57.92 461.51L58.06 462.81L58.15 464.12L58.18 465.45L58.15 466.78L58.06 468.1L57.92 469.4L57.71 470.68L57.45 471.94L57.14 473.18L56.78 474.4L56.36 475.6L55.89 476.77L55.38 477.92L54.82 479.04L54.21 480.13L53.55 481.19L52.86 482.23L52.12 483.23L51.34 484.19L50.52 485.12L49.66 486.02L48.76 486.88L47.83 487.7L46.86 488.48L45.86 489.22L44.83 489.92L43.77 490.57L42.68 491.18L41.56 491.74L40.41 492.26L39.24 492.72L38.04 493.14L36.82 493.51L35.58 493.82L34.32 494.08L33.04 494.28L31.74 494.43L30.42 494.52L29.09 494.54L27.76 494.52L26.44 494.43L25.15 494.28L23.86 494.08L22.6 493.82L21.36 493.51L20.14 493.14L18.94 492.72L17.77 492.26L16.62 491.74L15.5 491.18L14.41 490.57L13.35 489.92L12.32 489.22L11.32 488.48L10.35 487.7L9.42 486.88L8.52 486.02L7.67 485.12L6.85 484.19L6.06 483.23L5.33 482.23L4.63 481.19L3.97 480.13L3.37 479.04L2.8 477.92L2.29 476.77L1.82 475.6L1.4 474.4L1.04 473.18L0.73 471.94L0.47 470.68L0.27 469.4L0.12 468.1L0.03 466.78L0 465.45L0.03 464.12L0.12 462.81L0.27 461.51L0.47 460.23L0.73 458.97L1.04 457.72L1.4 456.5L1.82 455.31L2.29 454.14L2.8 452.99L3.37 451.87L3.97 450.78L4.63 449.71L5.33 448.68L6.06 447.68L6.85 446.72L7.67 445.78L8.52 444.89L9.42 444.03L10.35 443.21L11.32 442.43L12.32 441.69L13.35 440.99L14.41 440.34L15.5 439.73L16.62 439.17L17.77 438.65L18.94 438.18L20.14 437.77L21.36 437.4L22.6 437.09L23.86 436.83L25.15 436.63L26.44 436.48L27.76 436.39L29.09 436.36L30.42 436.39L31.74 436.48ZM171.9 494.43L170.6 494.28L169.32 494.08L168.06 493.82L166.82 493.51L165.6 493.14L164.4 492.72L163.23 492.26L162.08 491.74L160.96 491.18L159.87 490.57L158.8 489.92L157.77 489.22L156.77 488.48L155.81 487.7L154.88 486.88L153.98 486.02L153.12 485.12L152.3 484.19L151.52 483.23L150.78 482.23L150.08 481.19L149.43 480.13L148.82 479.04L148.26 477.92L147.74 476.77L147.28 475.6L146.86 474.4L146.49 473.18L146.18 471.94L145.92 470.68L145.72 469.4L145.57 468.1L145.48 466.78L145.45 465.45L145.48 464.12L145.57 462.81L145.72 461.51L145.92 460.23L146.18 458.97L146.49 457.72L146.86 456.5L147.28 455.31L147.74 454.14L148.26 452.99L148.82 451.87L149.43 450.78L150.08 449.71L150.78 448.68L151.52 447.68L152.3 446.72L153.12 445.78L153.98 444.89L154.88 444.03L155.81 443.21L156.77 442.43L157.77 441.69L158.8 440.99L159.87 440.34L160.96 439.73L162.08 439.17L163.23 438.65L164.4 438.18L165.6 437.77L166.82 437.4L168.06 437.09L169.32 436.83L170.6 436.63L171.9 436.48L173.21 436.39L174.55 436.36L610.91 436.36L612.24 436.39L613.56 436.48L614.85 436.63L616.14 436.83L617.4 437.09L618.64 437.4L619.86 437.77L621.06 438.18L622.23 438.65L623.38 439.17L624.5 439.73L625.59 440.34L626.65 440.99L627.68 441.69L628.68 442.43L629.65 443.21L630.58 444.03L631.48 444.89L632.33 445.78L633.15 446.72L633.94 447.68L634.67 448.68L635.37 449.71L636.03 450.78L636.63 451.87L637.2 452.99L637.71 454.14L638.18 455.31L638.6 456.5L638.96 457.72L639.27 458.97L639.53 460.23L639.73 461.51L639.88 462.81L639.97 464.12L640 465.45L639.97 466.78L639.88 468.1L639.73 469.4L639.53 470.68L639.27 471.94L638.96 473.18L638.6 474.4L638.18 475.6L637.71 476.77L637.2 477.92L636.63 479.04L636.03 480.13L635.37 481.19L634.67 482.23L633.94 483.23L633.15 484.19L632.33 485.12L631.48 486.02L630.58 486.88L629.65 487.7L628.68 488.48L627.68 489.22L626.65 489.92L625.59 490.57L624.5 491.18L623.38 491.74L622.23 492.26L621.06 492.72L619.86 493.14L618.64 493.51L617.4 493.82L616.14 494.08L614.85 494.28L613.56 494.43L612.24 494.52L610.91 494.54L174.55 494.54L173.21 494.52L171.9 494.43ZM31.74 291.03L33.04 291.17L34.32 291.38L35.58 291.64L36.82 291.95L38.04 292.31L39.24 292.73L40.41 293.2L41.56 293.71L42.68 294.27L43.77 294.88L44.83 295.54L45.86 296.23L46.86 296.97L47.83 297.75L48.76 298.57L49.66 299.43L50.52 300.33L51.34 301.26L52.12 302.23L52.86 303.23L53.55 304.26L54.21 305.32L54.82 306.41L55.38 307.53L55.89 308.68L56.36 309.85L56.78 311.05L57.14 312.27L57.45 313.51L57.71 314.77L57.92 316.05L58.06 317.35L58.15 318.67L58.18 320L58.15 321.33L58.06 322.65L57.92 323.95L57.71 325.23L57.45 326.49L57.14 327.73L56.78 328.95L56.36 330.15L55.89 331.32L55.38 332.47L54.82 333.59L54.21 334.68L53.55 335.74L52.86 336.77L52.12 337.77L51.34 338.74L50.52 339.67L49.66 340.57L48.76 341.43L47.83 342.25L46.86 343.03L45.86 343.77L44.83 344.46L43.77 345.12L42.68 345.73L41.56 346.29L40.41 346.8L39.24 347.27L38.04 347.69L36.82 348.05L35.58 348.36L34.32 348.62L33.04 348.83L31.74 348.97L30.42 349.06L29.09 349.09L27.76 349.06L26.44 348.97L25.15 348.83L23.86 348.62L22.6 348.36L21.36 348.05L20.14 347.69L18.94 347.27L17.77 346.8L16.62 346.29L15.5 345.73L14.41 345.12L13.35 344.46L12.32 343.77L11.32 343.03L10.35 342.25L9.42 341.43L8.52 340.57L7.67 339.67L6.85 338.74L6.06 337.77L5.33 336.77L4.63 335.74L3.97 334.68L3.37 333.59L2.8 332.47L2.29 331.32L1.82 330.15L1.4 328.95L1.04 327.73L0.73 326.49L0.47 325.23L0.27 323.95L0.12 322.65L0.03 321.33L0 320L0.03 318.67L0.12 317.35L0.27 316.05L0.47 314.77L0.73 313.51L1.04 312.27L1.4 311.05L1.82 309.85L2.29 308.68L2.8 307.53L3.37 306.41L3.97 305.32L4.63 304.26L5.33 303.23L6.06 302.23L6.85 301.26L7.67 300.33L8.52 299.43L9.42 298.57L10.35 297.75L11.32 296.97L12.32 296.23L13.35 295.54L14.41 294.88L15.5 294.27L16.62 293.71L17.77 293.2L18.94 292.73L20.14 292.31L21.36 291.95L22.6 291.64L23.86 291.38L25.15 291.17L26.44 291.03L27.76 290.94L29.09 290.91L30.42 290.94L31.74 291.03ZM613.56 291.03L614.85 291.17L616.14 291.38L617.4 291.64L618.64 291.95L619.86 292.31L621.06 292.73L622.23 293.2L623.38 293.71L624.5 294.27L625.59 294.88L626.65 295.54L627.68 296.23L628.68 296.97L629.65 297.75L630.58 298.57L631.48 299.43L632.33 300.33L633.15 301.26L633.94 302.23L634.67 303.23L635.37 304.26L636.03 305.32L636.63 306.41L637.2 307.53L637.71 308.68L638.18 309.85L638.6 311.05L638.96 312.27L639.27 313.51L639.53 314.77L639.73 316.05L639.88 317.35L639.97 318.67L640 320L639.97 321.33L639.88 322.65L639.73 323.95L639.53 325.23L639.27 326.49L638.96 327.73L638.6 328.95L638.18 330.15L637.71 331.32L637.2 332.47L636.63 333.59L636.03 334.68L635.37 335.74L634.67 336.77L633.94 337.77L633.15 338.74L632.33 339.67L631.48 340.57L630.58 341.43L629.65 342.25L628.68 343.03L627.68 343.77L626.65 344.46L625.59 345.12L624.5 345.73L623.38 346.29L622.23 346.8L621.06 347.27L619.86 347.69L618.64 348.05L617.4 348.36L616.14 348.62L614.85 348.83L613.56 348.97L612.24 349.06L610.91 349.09L174.55 349.09L173.21 349.06L171.9 348.97L170.6 348.83L169.32 348.62L168.06 348.36L166.82 348.05L165.6 347.69L164.4 347.27L163.23 346.8L162.08 346.29L160.96 345.73L159.87 345.12L158.8 344.46L157.77 343.77L156.77 343.03L155.81 342.25L154.88 341.43L153.98 340.57L153.12 339.67L152.3 338.74L151.52 337.77L150.78 336.77L150.08 335.74L149.43 334.68L148.82 333.59L148.26 332.47L147.74 331.32L147.28 330.15L146.86 328.95L146.49 327.73L146.18 326.49L145.92 325.23L145.72 323.95L145.57 322.65L145.48 321.33L145.45 320L145.48 318.67L145.57 317.35L145.72 316.05L145.92 314.77L146.18 313.51L146.49 312.27L146.86 311.05L147.28 309.85L147.74 308.68L148.26 307.53L148.82 306.41L149.43 305.32L150.08 304.26L150.78 303.23L151.52 302.23L152.3 301.26L153.12 300.33L153.98 299.43L154.88 298.57L155.81 297.75L156.77 296.97L157.77 296.23L158.8 295.54L159.87 294.88L160.96 294.27L162.08 293.71L163.23 293.2L164.4 292.73L165.6 292.31L166.82 291.95L168.06 291.64L169.32 291.38L170.6 291.17L171.9 291.03L173.21 290.94L174.55 290.91L610.91 290.91L612.24 290.94L613.56 291.03ZM31.74 145.57L33.04 145.72L34.32 145.92L35.58 146.18L36.82 146.49L38.04 146.86L39.24 147.28L40.41 147.74L41.56 148.26L42.68 148.82L43.77 149.43L44.83 150.08L45.86 150.78L46.86 151.52L47.83 152.3L48.76 153.12L49.66 153.98L50.52 154.88L51.34 155.81L52.12 156.77L52.86 157.77L53.55 158.81L54.21 159.87L54.82 160.96L55.38 162.08L55.89 163.23L56.36 164.4L56.78 165.6L57.14 166.82L57.45 168.06L57.71 169.32L57.92 170.6L58.06 171.9L58.15 173.22L58.18 174.55L58.15 175.88L58.06 177.19L57.92 178.49L57.71 179.77L57.45 181.03L57.14 182.28L56.78 183.5L56.36 184.69L55.89 185.86L55.38 187.01L54.82 188.13L54.21 189.22L53.55 190.29L52.86 191.32L52.12 192.32L51.34 193.28L50.52 194.22L49.66 195.11L48.76 195.97L47.83 196.79L46.86 197.57L45.86 198.31L44.83 199.01L43.77 199.66L42.68 200.27L41.56 200.83L40.41 201.35L39.24 201.82L38.04 202.23L36.82 202.6L35.58 202.91L34.32 203.17L33.04 203.37L31.74 203.52L30.42 203.61L29.09 203.64L27.76 203.61L26.44 203.52L25.15 203.37L23.86 203.17L22.6 202.91L21.36 202.6L20.14 202.23L18.94 201.82L17.77 201.35L16.62 200.83L15.5 200.27L14.41 199.66L13.35 199.01L12.32 198.31L11.32 197.57L10.35 196.79L9.42 195.97L8.52 195.11L7.67 194.22L6.85 193.28L6.06 192.32L5.33 191.32L4.63 190.29L3.97 189.22L3.37 188.13L2.8 187.01L2.29 185.86L1.82 184.69L1.4 183.5L1.04 182.28L0.73 181.03L0.47 179.77L0.27 178.49L0.12 177.19L0.03 175.88L0 174.55L0.03 173.22L0.12 171.9L0.27 170.6L0.47 169.32L0.73 168.06L1.04 166.82L1.4 165.6L1.82 164.4L2.29 163.23L2.8 162.08L3.37 160.96L3.97 159.87L4.63 158.81L5.33 157.77L6.06 156.77L6.85 155.81L7.67 154.88L8.52 153.98L9.42 153.12L10.35 152.3L11.32 151.52L12.32 150.78L13.35 150.08L14.41 149.43L15.5 148.82L16.62 148.26L17.77 147.74L18.94 147.28L20.14 146.86L21.36 146.49L22.6 146.18L23.86 145.92L25.15 145.72L26.44 145.57L27.76 145.48L29.09 145.46L30.42 145.48L31.74 145.57ZM613.56 145.57L614.85 145.72L616.14 145.92L617.4 146.18L618.64 146.49L619.86 146.86L621.06 147.28L622.23 147.74L623.38 148.26L624.5 148.82L625.59 149.43L626.65 150.08L627.68 150.78L628.68 151.52L629.65 152.3L630.58 153.12L631.48 153.98L632.33 154.88L633.15 155.81L633.94 156.77L634.67 157.77L635.37 158.81L636.03 159.87L636.63 160.96L637.2 162.08L637.71 163.23L638.18 164.4L638.6 165.6L638.96 166.82L639.27 168.06L639.53 169.32L639.73 170.6L639.88 171.9L639.97 173.22L640 174.55L639.97 175.88L639.88 177.19L639.73 178.49L639.53 179.77L639.27 181.03L638.96 182.28L638.6 183.5L638.18 184.69L637.71 185.86L637.2 187.01L636.63 188.13L636.03 189.22L635.37 190.29L634.67 191.32L633.94 192.32L633.15 193.28L632.33 194.22L631.48 195.11L630.58 195.97L629.65 196.79L628.68 197.57L627.68 198.31L626.65 199.01L625.59 199.66L624.5 200.27L623.38 200.83L622.23 201.35L621.06 201.82L619.86 202.23L618.64 202.6L617.4 202.91L616.14 203.17L614.85 203.37L613.56 203.52L612.24 203.61L610.91 203.64L174.55 203.64L173.21 203.61L171.9 203.52L170.6 203.37L169.32 203.17L168.06 202.91L166.82 202.6L165.6 202.23L164.4 201.82L163.23 201.35L162.08 200.83L160.96 200.27L159.87 199.66L158.8 199.01L157.77 198.31L156.77 197.57L155.81 196.79L154.88 195.97L153.98 195.11L153.12 194.22L152.3 193.28L151.52 192.32L150.78 191.32L150.08 190.29L149.43 189.22L148.82 188.13L148.26 187.01L147.74 185.86L147.28 184.69L146.86 183.5L146.49 182.28L146.18 181.03L145.92 179.77L145.72 178.49L145.57 177.19L145.48 175.88L145.45 174.55L145.48 173.22L145.57 171.9L145.72 170.6L145.92 169.32L146.18 168.06L146.49 166.82L146.86 165.6L147.28 164.4L147.74 163.23L148.26 162.08L148.82 160.96L149.43 159.87L150.08 158.81L150.78 157.77L151.52 156.77L152.3 155.81L153.12 154.88L153.98 153.98L154.88 153.12L155.81 152.3L156.77 151.52L157.77 150.78L158.8 150.08L159.87 149.43L160.96 148.82L162.08 148.26L163.23 147.74L164.4 147.28L165.6 146.86L166.82 146.49L168.06 146.18L169.32 145.92L170.6 145.72L171.9 145.57L173.21 145.48L174.55 145.46L610.91 145.46L612.24 145.48L613.56 145.57Z" id="afZQKlybc"></path></defs><g><g><g><use xlink:href="#afZQKlybc" opacity="1" fill="#000000" fill-opacity="1"></use></g></g></g></svg>