<?xml version="1.0" encoding="UTF-8" standalone="no"?>
<!DOCTYPE svg PUBLIC "-//W3C//DTD SVG 1.1//EN" "http://www.w3.org/Graphics/SVG/1.1/DTD/svg11.dtd">
<svg version="1.1" xmlns="http://www.w3.org/2000/svg" xmlns:xlink="http://www.w3.org/1999/xlink" preserveAspectRatio="xMidYMid meet" viewBox="0 0 640 640" width="640" height="640"><defs><path d="M422.75 639.75L421.47 639.56L420.22 639.31L418.98 639.02L417.76 638.68L416.56 638.28L415.39 637.84L414.24 637.35L413.11 636.82L412.01 636.24L410.93 635.63L409.89 634.96L408.87 634.26L407.89 633.52L406.93 632.74L406.01 631.92L405.12 631.07L404.27 630.18L403.45 629.26L402.67 628.3L401.93 627.32L401.23 626.3L400.57 625.26L399.95 624.18L399.37 623.08L398.84 621.95L398.35 620.8L397.91 619.63L397.52 618.43L397.17 617.21L396.88 615.98L396.63 614.72L396.44 613.44L396.3 612.15L396.22 610.84L396.19 609.52L396.22 608.2L396.3 606.9L396.44 605.6L396.63 604.33L396.88 603.07L397.17 601.83L397.52 600.62L397.91 599.42L398.35 598.24L398.84 597.09L399.37 595.97L399.95 594.87L400.57 593.79L401.23 592.75L401.93 591.73L402.67 590.74L403.45 589.79L404.27 588.87L405.12 587.98L406.01 587.12L406.93 586.31L407.89 585.53L408.87 584.79L409.89 584.08L410.93 583.42L412.01 582.8L413.11 582.23L414.24 581.69L415.39 581.21L416.56 580.77L417.76 580.37L418.98 580.03L420.22 579.73L421.47 579.49L422.75 579.3L424.04 579.16L425.35 579.08L426.67 579.05L579.05 579.05L579.05 426.67L579.08 425.35L579.16 424.04L579.3 422.75L579.49 421.47L579.73 420.22L580.03 418.98L580.37 417.76L580.77 416.56L581.21 415.39L581.69 414.24L582.23 413.11L582.8 412.01L583.42 410.93L584.08 409.89L584.79 408.87L585.53 407.89L586.31 406.93L587.12 406.01L587.98 405.12L588.87 404.27L589.79 403.45L590.74 402.67L591.73 401.93L592.75 401.23L593.79 400.57L594.87 399.95L595.97 399.37L597.09 398.84L598.24 398.35L599.42 397.91L600.62 397.52L601.83 397.17L603.07 396.88L604.33 396.63L605.6 396.44L606.9 396.3L608.2 396.22L609.52 396.19L610.84 396.22L612.15 396.3L613.44 396.44L614.72 396.63L615.98 396.88L617.21 397.17L618.43 397.52L619.63 397.91L620.8 398.35L621.95 398.84L623.08 399.37L624.18 399.95L625.26 400.57L626.3 401.23L627.32 401.93L628.3 402.67L629.26 403.45L630.18 404.27L631.07 405.12L631.92 406.01L632.74 406.93L633.52 407.89L634.26 408.87L634.96 409.89L635.63 410.93L636.24 412.01L636.82 413.11L637.35 414.24L637.84 415.39L638.28 416.56L638.68 417.76L639.02 418.98L639.31 420.22L639.56 421.47L639.75 422.75L639.89 424.04L639.97 425.35L640 426.67L640 609.52L639.97 610.84L639.89 612.15L639.75 613.44L639.56 614.72L639.31 615.98L639.02 617.21L638.68 618.43L638.28 619.63L637.84 620.8L637.35 621.95L636.82 623.08L636.24 624.18L635.63 625.26L634.96 626.3L634.26 627.32L633.52 628.3L632.74 629.26L631.92 630.18L631.07 631.07L630.18 631.92L629.26 632.74L628.3 633.52L627.32 634.26L626.3 634.96L625.26 635.63L624.18 636.24L623.08 636.82L621.95 637.35L620.8 637.84L619.63 638.28L618.43 638.68L617.21 639.02L615.98 639.31L614.72 639.56L613.44 639.75L612.15 639.89L610.84 639.97L609.52 640L426.67 640L425.35 639.97L424.04 639.89L422.75 639.75Z" id="c19BnoUgaX"></path><path d="M422.75 60.7L421.47 60.51L420.22 60.27L418.98 59.97L417.76 59.63L416.56 59.23L415.39 58.79L414.24 58.31L413.11 57.77L412.01 57.2L410.93 56.58L409.89 55.92L408.87 55.21L407.89 54.47L406.93 53.69L406.01 52.88L405.12 52.02L404.27 51.13L403.45 50.21L402.67 49.26L401.93 48.27L401.23 47.25L400.57 46.21L399.95 45.13L399.37 44.03L398.84 42.91L398.35 41.76L397.91 40.58L397.52 39.38L397.17 38.17L396.88 36.93L396.63 35.67L396.44 34.4L396.3 33.1L396.22 31.8L396.19 30.48L396.22 29.16L396.3 27.85L396.44 26.56L396.63 25.28L396.88 24.02L397.17 22.79L397.52 21.57L397.91 20.37L398.35 19.2L398.84 18.05L399.37 16.92L399.95 15.82L400.57 14.74L401.23 13.7L401.93 12.68L402.67 11.7L403.45 10.74L404.27 9.82L405.12 8.93L406.01 8.08L406.93 7.26L407.89 6.48L408.87 5.74L409.89 5.04L410.93 4.37L412.01 3.76L413.11 3.18L414.24 2.65L415.39 2.16L416.56 1.72L417.76 1.32L418.98 0.98L420.22 0.69L421.47 0.44L422.75 0.25L424.04 0.11L425.35 0.03L426.67 0L609.52 0L610.84 0.03L612.15 0.11L613.44 0.25L614.72 0.44L615.98 0.69L617.21 0.98L618.43 1.32L619.63 1.72L620.8 2.16L621.95 2.65L623.08 3.18L624.18 3.76L625.26 4.37L626.3 5.04L627.32 5.74L628.3 6.48L629.26 7.26L630.18 8.08L631.07 8.93L631.92 9.82L632.74 10.74L633.52 11.7L634.26 12.68L634.96 13.7L635.63 14.74L636.24 15.82L636.82 16.92L637.35 18.05L637.84 19.2L638.28 20.37L638.68 21.57L639.02 22.79L639.31 24.02L639.56 25.28L639.75 26.56L639.89 27.85L639.97 29.16L640 30.48L640 213.33L640 213.33L639.97 214.65L639.89 215.96L639.75 217.25L639.56 218.53L639.31 219.78L639.02 221.02L638.68 222.24L638.28 223.44L637.84 224.61L637.35 225.76L636.82 226.89L636.24 227.99L635.63 229.07L634.96 230.11L634.26 231.13L633.52 232.11L632.74 233.07L631.92 233.99L631.07 234.88L630.18 235.73L629.26 236.55L628.3 237.33L627.32 238.07L626.3 238.77L625.26 239.43L624.18 240.05L623.08 240.63L621.95 241.16L620.8 241.65L619.63 242.09L618.43 242.48L617.21 242.83L615.98 243.12L614.72 243.37L613.44 243.56L612.15 243.7L610.84 243.78L609.52 243.81L608.2 243.78L606.9 243.7L605.6 243.56L604.33 243.37L603.07 243.12L601.83 242.83L600.62 242.48L599.42 242.09L598.24 241.65L597.09 241.16L595.97 240.63L594.87 240.05L593.79 239.43L592.75 238.77L591.73 238.07L590.74 237.33L589.79 236.55L588.87 235.73L587.98 234.88L587.12 233.99L586.31 233.07L585.53 232.11L584.79 231.13L584.08 230.11L583.42 229.07L582.8 227.99L582.23 226.89L581.69 225.76L581.21 224.61L580.77 223.44L580.37 222.24L580.03 221.02L579.73 219.78L579.49 218.53L579.3 217.25L579.16 215.96L579.08 214.65L579.05 213.33L579.05 213.33L579.05 60.95L426.67 60.95L425.35 60.92L424.04 60.84L422.75 60.7Z" id="b1CHPEYCDC"></path><path d="M60.95 213.33L60.92 214.65L60.84 215.96L60.7 217.25L60.51 218.53L60.27 219.78L59.97 221.02L59.63 222.24L59.23 223.44L58.79 224.61L58.31 225.76L57.77 226.89L57.2 227.99L56.58 229.07L55.92 230.11L55.21 231.13L54.47 232.11L53.69 233.07L52.88 233.99L52.02 234.88L51.13 235.73L50.21 236.55L49.26 237.33L48.27 238.07L47.25 238.77L46.21 239.43L45.13 240.05L44.03 240.63L42.91 241.16L41.76 241.65L40.58 242.09L39.38 242.48L38.17 242.83L36.93 243.12L35.67 243.37L34.4 243.56L33.1 243.7L31.8 243.78L30.48 243.81L29.16 243.78L27.85 243.7L26.56 243.56L25.28 243.37L24.02 243.12L22.79 242.83L21.57 242.48L20.37 242.09L19.2 241.65L18.05 241.16L16.92 240.63L15.82 240.05L14.74 239.43L13.7 238.77L12.68 238.07L11.7 237.33L10.74 236.55L9.82 235.73L8.93 234.88L8.08 233.99L7.26 233.07L6.48 232.11L5.74 231.13L5.04 230.11L4.37 229.07L3.76 227.99L3.18 226.89L2.65 225.76L2.16 224.61L1.72 223.44L1.32 222.24L0.98 221.02L0.69 219.78L0.44 218.53L0.25 217.25L0.11 215.96L0.03 214.65L0 213.33L0 213.33L0 30.48L0.03 29.16L0.11 27.85L0.25 26.56L0.44 25.28L0.69 24.02L0.98 22.79L1.32 21.57L1.72 20.37L2.16 19.2L2.65 18.05L3.18 16.92L3.76 15.82L4.37 14.74L5.04 13.7L5.74 12.68L6.48 11.7L7.26 10.74L8.08 9.82L8.93 8.93L9.82 8.08L10.74 7.26L11.7 6.48L12.68 5.74L13.7 5.04L14.74 4.37L15.82 3.76L16.92 3.18L18.05 2.65L19.2 2.16L20.37 1.72L21.57 1.32L22.79 0.98L24.02 0.69L25.28 0.44L26.56 0.25L27.85 0.11L29.16 0.03L30.48 0L213.33 0L214.65 0.03L215.96 0.11L217.25 0.25L218.53 0.44L219.78 0.69L221.02 0.98L222.24 1.32L223.44 1.72L224.61 2.16L225.76 2.65L226.89 3.18L227.99 3.76L229.07 4.37L230.11 5.04L231.13 5.74L232.11 6.48L233.07 7.26L233.99 8.08L234.88 8.93L235.73 9.82L236.55 10.74L237.33 11.7L238.07 12.68L238.77 13.7L239.43 14.74L240.05 15.82L240.63 16.92L241.16 18.05L241.65 19.2L242.09 20.37L242.48 21.57L242.83 22.79L243.12 24.02L243.37 25.28L243.56 26.56L243.7 27.85L243.78 29.16L243.81 30.48L243.78 31.8L243.7 33.1L243.56 34.4L243.37 35.67L243.12 36.93L242.83 38.17L242.48 39.38L242.09 40.58L241.65 41.76L241.16 42.91L240.63 44.03L240.05 45.13L239.43 46.21L238.77 47.25L238.07 48.27L237.33 49.26L236.55 50.21L235.73 51.13L234.88 52.02L233.99 52.88L233.07 53.69L232.11 54.47L231.13 55.21L230.11 55.92L229.07 56.58L227.99 57.2L226.89 57.77L225.76 58.31L224.61 58.79L223.44 59.23L222.24 59.63L221.02 59.97L219.78 60.27L218.53 60.51L217.25 60.7L215.96 60.84L214.65 60.92L213.33 60.95L60.95 60.95L60.95 213.33L60.95 213.33Z" id="c1SwLqUJD"></path><path d="M217.25 579.3L218.53 579.49L219.78 579.73L221.02 580.03L222.24 580.37L223.44 580.77L224.61 581.21L225.76 581.69L226.89 582.23L227.99 582.8L229.07 583.42L230.11 584.08L231.13 584.79L232.11 585.53L233.07 586.31L233.99 587.12L234.88 587.98L235.73 588.87L236.55 589.79L237.33 590.74L238.07 591.73L238.77 592.75L239.43 593.79L240.05 594.87L240.63 595.97L241.16 597.09L241.65 598.24L242.09 599.42L242.48 600.62L242.83 601.83L243.12 603.07L243.37 604.33L243.56 605.6L243.7 606.9L243.78 608.2L243.81 609.52L243.78 610.84L243.7 612.15L243.56 613.44L243.37 614.72L243.12 615.98L242.83 617.21L242.48 618.43L242.09 619.63L241.65 620.8L241.16 621.95L240.63 623.08L240.05 624.18L239.43 625.26L238.77 626.3L238.07 627.32L237.33 628.3L236.55 629.26L235.73 630.18L234.88 631.07L233.99 631.92L233.07 632.74L232.11 633.52L231.13 634.26L230.11 634.96L229.07 635.63L227.99 636.24L226.89 636.82L225.76 637.35L224.61 637.84L223.44 638.28L222.24 638.68L221.02 639.02L219.78 639.31L218.53 639.56L217.25 639.75L215.96 639.89L214.65 639.97L213.33 640L30.48 640L29.16 639.97L27.85 639.89L26.56 639.75L25.28 639.56L24.02 639.31L22.79 639.02L21.57 638.68L20.37 638.28L19.2 637.84L18.05 637.35L16.92 636.82L15.82 636.24L14.74 635.63L13.7 634.96L12.68 634.26L11.7 633.52L10.74 632.74L9.82 631.92L8.93 631.07L8.08 630.18L7.26 629.26L6.48 628.3L5.74 627.32L5.04 626.3L4.37 625.26L3.76 624.18L3.18 623.08L2.65 621.95L2.16 620.8L1.72 619.63L1.32 618.43L0.98 617.21L0.69 615.98L0.44 614.72L0.25 613.44L0.11 612.15L0.03 610.84L0 609.52L0 426.67L0.03 425.35L0.11 424.04L0.25 422.75L0.44 421.47L0.69 420.22L0.98 418.98L1.32 417.76L1.72 416.56L2.16 415.39L2.65 414.24L3.18 413.11L3.76 412.01L4.37 410.93L5.04 409.89L5.74 408.87L6.48 407.89L7.26 406.93L8.08 406.01L8.93 405.12L9.82 404.27L10.74 403.45L11.7 402.67L12.68 401.93L13.7 401.23L14.74 400.57L15.82 399.95L16.92 399.37L18.05 398.84L19.2 398.35L20.37 397.91L21.57 397.52L22.79 397.17L24.02 396.88L25.28 396.63L26.56 396.44L27.85 396.3L29.16 396.22L30.48 396.19L31.8 396.22L33.1 396.3L34.4 396.44L35.67 396.63L36.93 396.88L38.17 397.17L39.38 397.52L40.58 397.91L41.76 398.35L42.91 398.84L44.03 399.37L45.13 399.95L46.21 400.57L47.25 401.23L48.27 401.93L49.26 402.67L50.21 403.45L51.13 404.27L52.02 405.12L52.88 406.01L53.69 406.93L54.47 407.89L55.21 408.87L55.92 409.89L56.58 410.93L57.2 412.01L57.77 413.11L58.31 414.24L58.79 415.39L59.23 416.56L59.63 417.76L59.97 418.98L60.27 420.22L60.51 421.47L60.7 422.75L60.84 424.04L60.92 425.35L60.95 426.67L60.95 579.05L213.33 579.05L214.65 579.08L215.96 579.16L217.25 579.3Z" id="c2kX4Hu7P"></path></defs><g><g><g><use xlink:href="#c19BnoUgaX" opacity="1" fill="#000000" fill-opacity="1"></use></g><g><use xlink:href="#b1CHPEYCDC" opacity="1" fill="#000000" fill-opacity="1"></use></g><g><use xlink:href="#c1SwLqUJD" opacity="1" fill="#000000" fill-opacity="1"></use></g><g><use xlink:href="#c2kX4Hu7P" opacity="1" fill="#000000" fill-opacity="1"></use></g></g></g></svg>