<?xml version="1.0" encoding="UTF-8" standalone="no"?>
<!DOCTYPE svg PUBLIC "-//W3C//DTD SVG 1.1//EN" "http://www.w3.org/Graphics/SVG/1.1/DTD/svg11.dtd">
<svg version="1.1" xmlns="http://www.w3.org/2000/svg" xmlns:xlink="http://www.w3.org/1999/xlink" preserveAspectRatio="xMidYMid meet" viewBox="0 0 640 640" width="640" height="640"><defs><path d="M55.07 79.89L53.43 176.98L53.53 177.22L53.98 178.4L54.38 179.6L54.72 180.83L55 182.09L55.22 183.36L55.38 184.65L55.47 185.96L55.51 187.29L55.47 188.62L55.38 189.93L55.22 191.22L55 192.5L54.72 193.75L54.38 194.98L53.98 196.18L53.53 197.36L53.03 198.51L52.47 199.64L51.87 200.73L51.21 201.79L50.51 202.81L49.76 203.8L48.97 204.76L48.14 205.68L47.26 206.55L46.34 207.39L45.39 208.18L44.4 208.93L43.37 209.63L42.31 210.28L41.22 210.89L40.1 211.45L38.95 211.95L37.77 212.4L36.56 212.79L35.33 213.13L34.08 213.41L32.81 213.63L31.52 213.79L30.2 213.89L28.88 213.92L27.55 213.89L26.24 213.79L24.94 213.63L23.67 213.41L22.42 213.13L21.19 212.79L19.98 212.4L18.81 211.95L17.65 211.45L16.53 210.89L15.44 210.28L14.38 209.63L13.35 208.93L12.36 208.18L11.41 207.39L10.49 206.55L9.62 205.68L8.78 204.76L7.99 203.8L7.24 202.81L6.54 201.79L5.88 200.73L5.28 199.64L4.72 198.51L4.22 197.36L3.77 196.18L3.38 194.98L3.04 193.75L2.76 192.5L2.54 191.22L2.38 189.93L2.28 188.62L2.25 187.29L2.27 186.43L0 186.39L2.25 53.71L2.25 26.63L2.26 26.63L2.28 25.74L2.38 24.43L2.54 23.14L2.76 21.86L3.04 20.61L3.38 19.38L3.77 18.18L4.22 17L4.72 15.85L5.28 14.73L5.88 13.64L6.54 12.58L7.24 11.55L7.99 10.56L8.78 9.6L9.62 8.69L10.49 7.81L11.41 6.98L12.36 6.18L13.35 5.44L14.38 4.73L15.44 4.08L16.53 3.47L17.65 2.92L18.81 2.41L19.98 1.96L21.19 1.57L22.42 1.23L23.67 0.95L24.94 0.73L26.24 0.57L27.55 0.47L28.88 0.44L188.65 0.44L189.98 0.47L191.29 0.57L192.59 0.73L193.86 0.95L195.11 1.23L196.34 1.57L197.55 1.96L198.73 2.41L199.88 2.92L201 3.47L202.09 4.08L203.15 4.73L204.18 5.44L205.17 6.18L206.12 6.98L207.04 7.81L207.91 8.69L208.75 9.6L209.54 10.56L210.29 11.55L210.99 12.58L211.65 13.64L212.25 14.73L212.81 15.85L213.31 17L213.76 18.18L214.16 19.38L214.49 20.61L214.77 21.86L215 23.14L215.16 24.43L215.25 25.74L215.28 27.07L215.25 28.4L215.16 29.71L215 31L214.77 32.28L214.49 33.53L214.16 34.76L213.76 35.96L213.31 37.14L212.81 38.29L212.25 39.42L211.65 40.51L210.99 41.57L210.29 42.59L209.54 43.58L208.75 44.54L207.91 45.45L207.04 46.33L206.12 47.17L205.17 47.96L204.18 48.71L203.15 49.41L202.09 50.06L201 50.67L199.88 51.22L198.73 51.73L197.55 52.18L196.34 52.57L195.11 52.91L193.86 53.19L192.59 53.41L191.29 53.57L189.98 53.67L188.65 53.7L55.51 53.7L55.51 79.89L55.07 79.89Z" id="dXV4Lv4fZ"></path><path d="M191.29 586.87L192.59 587.03L193.86 587.25L195.11 587.53L196.34 587.87L197.55 588.26L198.73 588.71L199.88 589.22L201 589.77L202.09 590.38L203.15 591.03L204.18 591.74L205.17 592.48L206.12 593.28L207.04 594.11L207.91 594.99L208.75 595.9L209.54 596.86L210.29 597.85L210.99 598.87L211.65 599.93L212.25 601.03L212.81 602.15L213.31 603.3L213.76 604.48L214.16 605.68L214.49 606.91L214.77 608.16L215 609.44L215.16 610.73L215.25 612.04L215.28 613.37L215.25 614.7L215.16 616.01L215 617.3L214.77 618.58L214.49 619.83L214.16 621.06L213.76 622.26L213.31 623.44L212.81 624.59L212.25 625.71L211.65 626.81L210.99 627.87L210.29 628.89L209.54 629.88L208.75 630.84L207.91 631.75L207.04 632.63L206.12 633.46L205.17 634.26L204.18 635.01L203.15 635.71L202.09 636.36L201 636.97L199.88 637.52L198.73 638.03L197.55 638.48L196.34 638.87L195.11 639.21L193.86 639.49L192.59 639.71L191.29 639.87L189.98 639.97L188.65 640L28.88 640L27.55 639.97L26.24 639.87L24.94 639.71L23.67 639.49L22.42 639.21L21.19 638.87L19.98 638.48L18.81 638.03L17.65 637.52L16.53 636.97L15.44 636.36L14.38 635.71L13.35 635.01L12.36 634.26L11.41 633.46L10.49 632.63L9.62 631.75L8.78 630.84L7.99 629.88L7.24 628.89L6.54 627.87L5.88 626.81L5.28 625.71L4.72 624.59L4.22 623.44L3.77 622.26L3.38 621.06L3.04 619.83L2.76 618.58L2.54 617.3L2.38 616.01L2.28 614.7L2.25 613.37L1.12 613.37L1.12 453.59L1.12 453.59L1.16 452.26L1.25 450.95L1.41 449.66L1.63 448.38L1.91 447.13L2.25 445.9L2.65 444.7L3.1 443.52L3.6 442.37L4.16 441.25L4.76 440.15L5.42 439.09L6.12 438.07L6.87 437.08L7.66 436.12L8.49 435.21L9.37 434.33L10.29 433.5L11.24 432.7L12.23 431.96L13.26 431.25L14.32 430.6L15.41 429.99L16.53 429.44L17.68 428.93L18.86 428.48L20.07 428.09L21.29 427.75L22.55 427.47L23.82 427.25L25.11 427.09L26.42 426.99L27.75 426.96L29.08 426.99L30.39 427.09L31.69 427.25L32.96 427.47L34.21 427.75L35.44 428.09L36.65 428.48L37.82 428.93L38.98 429.44L40.1 429.99L41.19 430.6L42.25 431.25L43.28 431.96L44.27 432.7L45.22 433.5L46.14 434.33L47.01 435.21L47.85 436.12L48.64 437.08L49.39 438.07L50.09 439.09L50.74 440.15L51.35 441.25L51.91 442.37L52.41 443.52L52.86 444.7L53.25 445.9L53.59 447.13L53.87 448.38L54.09 449.66L54.25 450.95L54.35 452.26L54.38 453.59L54.38 586.74L188.65 586.74L189.98 586.77L191.29 586.87Z" id="cTPvDbGBu"></path><path d="M451.02 639.71L449.75 639.49L448.49 639.21L447.26 638.87L446.06 638.48L444.88 638.03L443.73 637.52L442.61 636.97L441.52 636.36L440.46 635.71L439.43 635.01L438.44 634.26L437.48 633.46L436.57 632.63L435.69 631.75L434.86 630.84L434.07 629.88L433.32 628.89L432.61 627.87L431.96 626.81L431.35 625.71L430.8 624.59L430.3 623.44L429.85 622.26L429.45 621.06L429.11 619.83L428.83 618.58L428.61 617.3L428.45 616.01L428.35 614.7L428.32 613.37L428.35 612.04L428.45 610.73L428.61 609.44L428.83 608.16L429.11 606.91L429.45 605.68L429.85 604.48L430.3 603.3L430.8 602.15L431.35 601.03L431.96 599.93L432.61 598.87L433.32 597.85L434.07 596.86L434.86 595.9L435.69 594.99L436.57 594.11L437.48 593.28L438.44 592.48L439.43 591.74L440.46 591.03L441.52 590.38L442.61 589.77L443.73 589.22L444.88 588.71L446.06 588.26L447.26 587.87L448.49 587.53L449.75 587.25L451.02 587.03L452.31 586.87L453.62 586.77L454.95 586.74L588.1 586.74L588.1 453.59L588.13 452.26L588.23 450.95L588.39 449.66L588.61 448.38L588.89 447.13L589.23 445.9L589.62 444.7L590.07 443.52L590.58 442.37L591.13 441.25L591.74 440.15L592.39 439.09L593.1 438.07L593.84 437.08L594.64 436.12L595.47 435.21L596.35 434.33L597.26 433.5L598.22 432.7L599.21 431.96L600.23 431.25L601.29 430.6L602.39 429.99L603.51 429.44L604.66 428.93L605.84 428.48L607.04 428.09L608.27 427.75L609.52 427.47L610.8 427.25L612.09 427.09L613.4 426.99L614.73 426.96L616.06 426.99L617.37 427.09L618.66 427.25L619.94 427.47L621.19 427.75L622.42 428.09L623.62 428.48L624.8 428.93L625.95 429.44L627.07 429.99L628.17 430.6L629.23 431.25L630.25 431.96L631.24 432.7L632.2 433.5L633.11 434.33L633.99 435.21L634.82 436.12L635.62 437.08L636.37 438.07L637.07 439.09L637.72 440.15L638.33 441.25L638.88 442.37L639.39 443.52L639.84 444.7L640.23 445.9L640.57 447.13L640.85 448.38L641.07 449.66L641.23 450.95L641.33 452.26L641.36 453.59L641.36 613.37L641.33 614.7L641.23 616.01L641.07 617.3L640.85 618.58L640.57 619.83L640.23 621.06L639.84 622.26L639.39 623.44L638.88 624.59L638.33 625.71L637.72 626.81L637.07 627.87L636.37 628.89L635.62 629.88L634.82 630.84L633.99 631.75L633.11 632.63L632.2 633.46L631.24 634.26L630.25 635.01L629.23 635.71L628.17 636.36L627.07 636.97L625.95 637.52L624.8 638.03L623.62 638.48L622.42 638.87L621.19 639.21L619.94 639.49L618.66 639.71L617.37 639.87L616.06 639.97L614.73 640L454.95 640L453.62 639.97L452.31 639.87L451.02 639.71Z" id="b1qb4O5AV4"></path><path d="M451.02 53.41L449.75 53.19L448.49 52.91L447.26 52.57L446.06 52.18L444.88 51.73L443.73 51.22L442.61 50.67L441.52 50.06L440.46 49.41L439.43 48.71L438.44 47.96L437.48 47.17L436.57 46.33L435.69 45.45L434.86 44.54L434.07 43.58L433.32 42.59L432.61 41.57L431.96 40.51L431.35 39.42L430.8 38.29L430.3 37.14L429.85 35.96L429.45 34.76L429.11 33.53L428.83 32.28L428.61 31L428.45 29.71L428.35 28.4L428.32 27.07L428.35 25.74L428.45 24.43L428.61 23.14L428.83 21.86L429.11 20.61L429.45 19.38L429.85 18.18L430.3 17L430.8 15.85L431.35 14.73L431.96 13.64L432.61 12.58L433.32 11.55L434.07 10.56L434.86 9.6L435.69 8.69L436.57 7.81L437.48 6.98L438.44 6.18L439.43 5.44L440.46 4.73L441.52 4.08L442.61 3.47L443.73 2.92L444.88 2.41L446.06 1.96L447.26 1.57L448.49 1.23L449.75 0.95L451.02 0.73L452.31 0.57L453.62 0.47L454.95 0.44L561.47 0.44L561.47 0L614.73 0L616.06 0.03L617.37 0.13L618.66 0.29L619.94 0.51L621.19 0.79L622.42 1.13L623.62 1.52L624.8 1.97L625.95 2.48L627.07 3.03L628.17 3.64L629.23 4.29L630.25 4.99L631.24 5.74L632.2 6.54L633.11 7.37L633.99 8.25L634.82 9.16L635.62 10.12L636.37 11.11L637.07 12.13L637.72 13.19L638.33 14.29L638.88 15.41L639.39 16.56L639.84 17.74L640.23 18.94L640.57 20.17L640.85 21.42L641.07 22.7L641.23 23.99L641.33 25.3L641.36 26.63L641.35 27.07L641.36 27.07L641.36 187.29L641.33 188.62L641.23 189.93L641.07 191.22L640.85 192.5L640.57 193.75L640.23 194.98L639.84 196.18L639.39 197.36L638.88 198.51L638.33 199.64L637.72 200.73L637.07 201.79L636.37 202.81L635.62 203.8L634.82 204.76L633.99 205.68L633.11 206.55L632.2 207.39L631.24 208.18L630.25 208.93L629.23 209.63L628.17 210.28L627.07 210.89L625.95 211.45L624.8 211.95L623.62 212.4L622.42 212.79L621.19 213.13L619.94 213.41L618.66 213.63L617.37 213.79L616.06 213.89L614.73 213.92L613.4 213.89L612.09 213.79L610.8 213.63L609.52 213.41L608.27 213.13L607.04 212.79L605.84 212.4L604.66 211.95L603.51 211.45L602.39 210.89L601.29 210.28L600.23 209.63L599.21 208.93L598.22 208.18L597.26 207.39L596.35 206.55L595.47 205.68L594.64 204.76L593.84 203.8L593.1 202.81L592.39 201.79L591.74 200.73L591.13 199.64L590.58 198.51L590.07 197.36L589.62 196.18L589.23 194.98L588.89 193.75L588.61 192.5L588.39 191.22L588.23 189.93L588.13 188.62L588.1 187.29L588.1 53.7L454.95 53.7L453.62 53.67L452.31 53.57L451.02 53.41Z" id="aw3wWky2O"></path></defs><g><g><g><use xlink:href="#dXV4Lv4fZ" opacity="1" fill="#000000" fill-opacity="1"></use></g><g><use xlink:href="#cTPvDbGBu" opacity="1" fill="#000000" fill-opacity="1"></use></g><g><use xlink:href="#b1qb4O5AV4" opacity="1" fill="#000000" fill-opacity="1"></use></g><g><use xlink:href="#aw3wWky2O" opacity="1" fill="#000000" fill-opacity="1"></use></g></g></g></svg>