<?xml version="1.0" encoding="UTF-8" standalone="no"?>
<!DOCTYPE svg PUBLIC "-//W3C//DTD SVG 1.1//EN" "http://www.w3.org/Graphics/SVG/1.1/DTD/svg11.dtd">
<svg version="1.1" xmlns="http://www.w3.org/2000/svg" xmlns:xlink="http://www.w3.org/1999/xlink" preserveAspectRatio="xMidYMid meet" viewBox="0 0 640 640" width="640" height="640"><defs><path d="M174.37 359.25L175.65 359.53L176.88 359.9L178.07 360.38L179.22 360.95L180.3 361.6L181.33 362.34L182.29 363.16L183.18 364.05L184 365.01L184.74 366.04L185.39 367.13L185.96 368.27L186.44 369.46L186.82 370.7L187.09 371.97L187.26 373.29L187.32 374.63L187.32 452.68L265.37 452.68L266.71 452.74L268.03 452.91L269.3 453.18L270.54 453.56L271.73 454.04L272.87 454.61L273.96 455.26L274.99 456L275.95 456.82L276.84 457.71L277.66 458.67L278.4 459.7L279.05 460.78L279.62 461.93L280.1 463.12L280.47 464.35L280.75 465.63L280.92 466.95L280.98 468.29L280.92 469.64L280.75 470.95L280.47 472.23L280.1 473.47L279.62 474.66L279.05 475.8L278.4 476.89L277.66 477.91L276.84 478.87L275.95 479.77L274.99 480.58L273.96 481.32L272.87 481.98L271.73 482.55L270.54 483.02L269.3 483.4L268.03 483.68L266.71 483.85L265.37 483.9L171.71 483.9L171.71 483.9L170.36 483.85L169.05 483.68L167.77 483.4L166.53 483.02L165.34 482.55L164.2 481.98L163.11 481.32L162.09 480.58L161.13 479.77L160.23 478.87L159.42 477.91L158.68 476.89L158.02 475.8L157.45 474.66L156.98 473.47L156.6 472.23L156.32 470.95L156.16 469.64L156.1 468.29L156.1 374.63L156.16 373.29L156.32 371.97L156.6 370.7L156.98 369.46L157.45 368.27L158.02 367.13L158.68 366.04L159.42 365.01L160.23 364.05L161.13 363.16L162.09 362.34L163.11 361.6L164.2 360.95L165.34 360.38L166.53 359.9L167.77 359.53L169.05 359.25L170.36 359.08L171.71 359.02L173.05 359.08L174.37 359.25ZM470.95 359.25L472.23 359.53L473.47 359.9L474.66 360.38L475.8 360.95L476.89 361.6L477.91 362.34L478.87 363.16L479.77 364.05L480.58 365.01L481.32 366.04L481.98 367.13L482.55 368.27L483.02 369.46L483.4 370.7L483.68 371.97L483.85 373.29L483.9 374.63L483.9 468.29L483.85 469.64L483.68 470.95L483.4 472.23L483.02 473.47L482.55 474.66L481.98 475.8L481.32 476.89L480.58 477.91L479.77 478.87L478.87 479.77L477.91 480.58L476.89 481.32L475.8 481.98L474.66 482.55L473.47 483.02L472.23 483.4L470.95 483.68L469.64 483.85L468.29 483.9L468.29 483.9L374.63 483.9L373.29 483.85L371.97 483.68L370.7 483.4L369.46 483.02L368.27 482.55L367.13 481.98L366.04 481.32L365.02 480.58L364.05 479.77L363.16 478.87L362.34 477.91L361.6 476.89L360.95 475.8L360.38 474.66L359.9 473.47L359.53 472.23L359.25 470.95L359.08 469.64L359.02 468.29L359.08 466.95L359.25 465.63L359.53 464.35L359.9 463.12L360.38 461.93L360.95 460.78L361.6 459.7L362.34 458.67L363.16 457.71L364.05 456.82L365.02 456L366.04 455.26L367.13 454.61L368.27 454.04L369.46 453.56L370.7 453.18L371.97 452.91L373.29 452.74L374.63 452.68L452.68 452.68L452.68 374.63L452.74 373.29L452.91 371.97L453.19 370.7L453.56 369.46L454.04 368.27L454.61 367.13L455.26 366.04L456 365.01L456.82 364.05L457.71 363.16L458.67 362.34L459.7 361.6L460.79 360.95L461.93 360.38L463.12 359.9L464.35 359.53L465.63 359.25L466.95 359.08L468.29 359.02L469.64 359.08L470.95 359.25ZM470.95 156.32L472.23 156.6L473.47 156.98L474.66 157.45L475.8 158.02L476.89 158.68L477.91 159.42L478.87 160.23L479.77 161.13L480.58 162.09L481.32 163.11L481.98 164.2L482.55 165.34L483.02 166.53L483.4 167.77L483.68 169.05L483.84 170.36L483.9 171.71L483.9 265.37L483.84 266.71L483.68 268.03L483.4 269.3L483.02 270.54L482.55 271.73L481.98 272.87L481.32 273.96L480.58 274.99L479.77 275.95L478.87 276.84L477.91 277.66L476.89 278.4L475.8 279.05L474.66 279.62L473.47 280.1L472.23 280.47L470.95 280.75L469.64 280.92L468.29 280.98L466.95 280.92L465.63 280.75L464.35 280.47L463.12 280.1L461.93 279.62L460.78 279.05L459.7 278.4L458.67 277.66L457.71 276.84L456.82 275.95L456 274.99L455.26 273.96L454.61 272.87L454.04 271.73L453.56 270.54L453.18 269.3L452.91 268.03L452.74 266.71L452.68 265.37L452.68 187.32L374.63 187.32L373.29 187.26L371.97 187.09L370.7 186.82L369.46 186.44L368.27 185.96L367.13 185.39L366.04 184.74L365.01 184L364.05 183.18L363.16 182.29L362.34 181.33L361.6 180.3L360.95 179.22L360.38 178.07L359.9 176.88L359.53 175.65L359.25 174.37L359.08 173.05L359.02 171.71L359.08 170.36L359.25 169.05L359.53 167.77L359.9 166.53L360.38 165.34L360.95 164.2L361.6 163.11L362.34 162.09L363.16 161.13L364.05 160.23L365.01 159.42L366.04 158.68L367.13 158.02L368.27 157.45L369.46 156.98L370.7 156.6L371.97 156.32L373.29 156.15L374.63 156.1L468.29 156.1L469.64 156.15L470.95 156.32ZM266.71 156.15L268.03 156.32L269.3 156.6L270.54 156.98L271.73 157.45L272.87 158.02L273.96 158.68L274.99 159.42L275.95 160.23L276.84 161.13L277.66 162.09L278.4 163.11L279.05 164.2L279.62 165.34L280.1 166.53L280.47 167.77L280.75 169.05L280.92 170.36L280.98 171.71L280.92 173.05L280.75 174.37L280.47 175.65L280.1 176.88L279.62 178.07L279.05 179.22L278.4 180.3L277.66 181.33L276.84 182.29L275.95 183.18L274.99 184L273.96 184.74L272.87 185.39L271.73 185.96L270.54 186.44L269.3 186.82L268.03 187.09L266.71 187.26L265.37 187.32L187.32 187.32L187.32 265.37L187.26 266.71L187.09 268.03L186.82 269.3L186.44 270.54L185.96 271.73L185.39 272.87L184.74 273.96L184 274.99L183.18 275.95L182.29 276.84L181.33 277.66L180.3 278.4L179.22 279.05L178.07 279.62L176.88 280.1L175.65 280.47L174.37 280.75L173.05 280.92L171.71 280.98L170.36 280.92L169.05 280.75L167.77 280.47L166.53 280.1L165.34 279.62L164.2 279.05L163.11 278.4L162.09 277.66L161.13 276.84L160.23 275.95L159.42 274.99L158.68 273.96L158.02 272.87L157.45 271.73L156.98 270.54L156.6 269.3L156.32 268.03L156.16 266.71L156.1 265.37L156.1 171.71L156.16 170.36L156.32 169.05L156.6 167.77L156.98 166.53L157.45 165.34L158.02 164.2L158.68 163.11L159.42 162.09L160.23 161.13L161.13 160.23L162.09 159.42L163.11 158.68L164.2 158.02L165.34 157.45L166.53 156.98L167.77 156.6L169.05 156.32L170.36 156.15L171.71 156.1L171.71 156.1L265.37 156.1L266.71 156.15Z" id="d6BxmYCKI8"></path><path d="M640 320C640 496.61 496.61 640 320 640C143.39 640 0 496.61 0 320C0 143.39 143.39 0 320 0C496.61 0 640 143.39 640 320Z" id="d2hk7D8Edh"></path><clipPath id="clipb8lrKOz9V"><use xlink:href="#d2hk7D8Edh" opacity="1"></use></clipPath></defs><g><g><g><use xlink:href="#d6BxmYCKI8" opacity="1" fill="#000000" fill-opacity="1"></use></g><g><g clip-path="url(#clipb8lrKOz9V)"><use xlink:href="#d2hk7D8Edh" opacity="1" fill-opacity="0" stroke="#000000" stroke-width="40" stroke-opacity="1"></use></g></g></g></g></svg>