<?xml version="1.0" encoding="UTF-8" standalone="no"?>
<!DOCTYPE svg PUBLIC "-//W3C//DTD SVG 1.1//EN" "http://www.w3.org/Graphics/SVG/1.1/DTD/svg11.dtd">
<svg version="1.1" xmlns="http://www.w3.org/2000/svg" xmlns:xlink="http://www.w3.org/1999/xlink" preserveAspectRatio="xMidYMid meet" viewBox="0 0 640 640" width="640" height="640"><defs><path d="M457.14 609.52L457.11 610.84L457.03 612.15L456.89 613.44L456.7 614.72L456.46 615.98L456.16 617.21L455.82 618.43L455.43 619.63L454.98 620.8L454.5 621.95L453.96 623.08L453.39 624.18L452.77 625.26L452.11 626.3L451.4 627.32L450.66 628.3L449.88 629.26L449.07 630.18L448.21 631.07L447.32 631.92L446.4 632.74L445.45 633.52L444.46 634.26L443.44 634.96L442.4 635.63L441.32 636.24L440.22 636.82L439.1 637.35L437.95 637.84L436.77 638.28L435.57 638.68L434.36 639.02L433.12 639.31L431.86 639.56L430.59 639.75L429.29 639.89L427.99 639.97L426.67 640L425.35 639.97L424.04 639.89L422.75 639.75L421.47 639.56L420.22 639.31L418.98 639.02L417.76 638.68L416.56 638.28L415.39 637.84L414.24 637.35L413.11 636.82L412.01 636.24L410.93 635.63L409.89 634.96L408.87 634.26L407.89 633.52L406.93 632.74L406.01 631.92L405.12 631.07L404.27 630.18L403.45 629.26L402.67 628.3L401.93 627.32L401.23 626.3L400.57 625.26L399.95 624.18L399.37 623.08L398.84 621.95L398.35 620.8L397.91 619.63L397.52 618.43L397.17 617.21L396.88 615.98L396.63 614.72L396.44 613.44L396.3 612.15L396.22 610.84L396.19 609.52L396.19 609.52L396.19 426.67L396.22 425.35L396.3 424.04L396.44 422.75L396.63 421.47L396.88 420.22L397.17 418.98L397.52 417.76L397.91 416.56L398.35 415.39L398.84 414.24L399.37 413.11L399.95 412.01L400.57 410.93L401.23 409.89L401.93 408.87L402.67 407.89L403.45 406.93L404.27 406.01L405.12 405.12L406.01 404.27L406.93 403.45L407.89 402.67L408.87 401.93L409.89 401.23L410.93 400.57L412.01 399.95L413.11 399.37L414.24 398.84L415.39 398.35L416.56 397.91L417.76 397.52L418.98 397.17L420.22 396.88L421.47 396.63L422.75 396.44L424.04 396.3L425.35 396.22L426.67 396.19L609.52 396.19L610.84 396.22L612.15 396.3L613.44 396.44L614.72 396.63L615.98 396.88L617.21 397.17L618.43 397.52L619.63 397.91L620.8 398.35L621.95 398.84L623.08 399.37L624.18 399.95L625.26 400.57L626.3 401.23L627.32 401.93L628.3 402.67L629.26 403.45L630.18 404.27L631.07 405.12L631.92 406.01L632.74 406.93L633.52 407.89L634.26 408.87L634.96 409.89L635.63 410.93L636.24 412.01L636.82 413.11L637.35 414.24L637.84 415.39L638.28 416.56L638.68 417.76L639.02 418.98L639.31 420.22L639.56 421.47L639.75 422.75L639.89 424.04L639.97 425.35L640 426.67L639.97 427.99L639.89 429.29L639.75 430.59L639.56 431.86L639.31 433.12L639.02 434.36L638.68 435.57L638.28 436.77L637.84 437.95L637.35 439.1L636.82 440.22L636.24 441.32L635.63 442.4L634.96 443.44L634.26 444.46L633.52 445.45L632.74 446.4L631.92 447.32L631.07 448.21L630.18 449.07L629.26 449.88L628.3 450.66L627.32 451.4L626.3 452.11L625.26 452.77L624.18 453.39L623.08 453.96L621.95 454.5L620.8 454.98L619.63 455.43L618.43 455.82L617.21 456.16L615.98 456.46L614.72 456.7L613.44 456.89L612.15 457.03L610.84 457.11L609.52 457.14L457.14 457.14L457.14 609.52L457.14 609.52Z" id="eJyDFMDDm"></path><path d="M613.44 183.11L614.72 183.3L615.98 183.54L617.21 183.84L618.43 184.18L619.63 184.57L620.8 185.02L621.95 185.5L623.08 186.04L624.18 186.61L625.26 187.23L626.3 187.89L627.32 188.6L628.3 189.34L629.26 190.12L630.18 190.93L631.07 191.79L631.92 192.68L632.74 193.6L633.52 194.55L634.26 195.54L634.96 196.56L635.63 197.6L636.24 198.68L636.82 199.78L637.35 200.9L637.84 202.05L638.28 203.23L638.68 204.43L639.02 205.64L639.31 206.88L639.56 208.14L639.75 209.41L639.89 210.71L639.97 212.01L640 213.33L639.97 214.65L639.89 215.96L639.75 217.25L639.56 218.53L639.31 219.78L639.02 221.02L638.68 222.24L638.28 223.44L637.84 224.61L637.35 225.76L636.82 226.89L636.24 227.99L635.63 229.07L634.96 230.11L634.26 231.13L633.52 232.11L632.74 233.07L631.92 233.99L631.07 234.88L630.18 235.73L629.26 236.55L628.3 237.33L627.32 238.07L626.3 238.77L625.26 239.43L624.18 240.05L623.08 240.63L621.95 241.16L620.8 241.65L619.63 242.09L618.43 242.48L617.21 242.83L615.98 243.12L614.72 243.37L613.44 243.56L612.15 243.7L610.84 243.78L609.52 243.81L426.67 243.81L425.35 243.78L424.04 243.7L422.75 243.56L421.47 243.37L420.22 243.12L418.98 242.83L417.76 242.48L416.56 242.09L415.39 241.65L414.24 241.16L413.11 240.63L412.01 240.05L410.93 239.43L409.89 238.77L408.87 238.07L407.89 237.33L406.93 236.55L406.01 235.73L405.12 234.88L404.27 233.99L403.45 233.07L402.67 232.11L401.93 231.13L401.23 230.11L400.57 229.07L399.95 227.99L399.37 226.89L398.84 225.76L398.35 224.61L397.91 223.44L397.52 222.24L397.17 221.02L396.88 219.78L396.63 218.53L396.44 217.25L396.3 215.96L396.22 214.65L396.19 213.33L396.19 213.33L396.19 30.48L396.22 29.16L396.3 27.85L396.44 26.56L396.63 25.28L396.88 24.02L397.17 22.79L397.52 21.57L397.91 20.37L398.35 19.2L398.84 18.05L399.37 16.92L399.95 15.82L400.57 14.74L401.23 13.7L401.93 12.68L402.67 11.7L403.45 10.74L404.27 9.82L405.12 8.93L406.01 8.08L406.93 7.26L407.89 6.48L408.87 5.74L409.89 5.04L410.93 4.37L412.01 3.76L413.11 3.18L414.24 2.65L415.39 2.16L416.56 1.72L417.76 1.32L418.98 0.98L420.22 0.69L421.47 0.44L422.75 0.25L424.04 0.11L425.35 0.03L426.67 0L427.99 0.03L429.29 0.11L430.59 0.25L431.86 0.44L433.12 0.69L434.36 0.98L435.57 1.32L436.77 1.72L437.95 2.16L439.1 2.65L440.22 3.18L441.32 3.76L442.4 4.37L443.44 5.04L444.46 5.74L445.45 6.48L446.4 7.26L447.32 8.08L448.21 8.93L449.07 9.82L449.88 10.74L450.66 11.7L451.4 12.68L452.11 13.7L452.77 14.74L453.39 15.82L453.96 16.92L454.5 18.05L454.98 19.2L455.43 20.37L455.82 21.57L456.16 22.79L456.46 24.02L456.7 25.28L456.89 26.56L457.03 27.85L457.11 29.16L457.14 30.48L457.14 182.86L609.52 182.86L610.84 182.89L612.15 182.97L613.44 183.11Z" id="a7nr9lAlJy"></path><path d="M26.56 243.56L25.28 243.37L24.02 243.12L22.79 242.83L21.57 242.48L20.37 242.09L19.2 241.65L18.05 241.16L16.92 240.63L15.82 240.05L14.74 239.43L13.7 238.77L12.68 238.07L11.7 237.33L10.74 236.55L9.82 235.73L8.93 234.88L8.08 233.99L7.26 233.07L6.48 232.11L5.74 231.13L5.04 230.11L4.37 229.07L3.76 227.99L3.18 226.89L2.65 225.76L2.16 224.61L1.72 223.44L1.32 222.24L0.98 221.02L0.69 219.78L0.44 218.53L0.25 217.25L0.11 215.96L0.03 214.65L0 213.33L0.03 212.01L0.11 210.71L0.25 209.41L0.44 208.14L0.69 206.88L0.98 205.64L1.32 204.43L1.72 203.23L2.16 202.05L2.65 200.9L3.18 199.78L3.76 198.68L4.37 197.6L5.04 196.56L5.74 195.54L6.48 194.55L7.26 193.6L8.08 192.68L8.93 191.79L9.82 190.93L10.74 190.12L11.7 189.34L12.68 188.6L13.7 187.89L14.74 187.23L15.82 186.61L16.92 186.04L18.05 185.5L19.2 185.02L20.37 184.57L21.57 184.18L22.79 183.84L24.02 183.54L25.28 183.3L26.56 183.11L27.85 182.97L29.16 182.89L30.48 182.86L182.86 182.86L182.86 30.48L182.89 29.16L182.97 27.85L183.11 26.56L183.3 25.28L183.54 24.02L183.84 22.79L184.18 21.57L184.57 20.37L185.02 19.2L185.5 18.05L186.04 16.92L186.61 15.82L187.23 14.74L187.89 13.7L188.6 12.68L189.34 11.7L190.12 10.74L190.93 9.82L191.79 8.93L192.68 8.08L193.6 7.26L194.55 6.48L195.54 5.74L196.56 5.04L197.6 4.37L198.68 3.76L199.78 3.18L200.9 2.65L202.05 2.16L203.23 1.72L204.43 1.32L205.64 0.98L206.88 0.69L208.14 0.44L209.41 0.25L210.71 0.11L212.01 0.03L213.33 0L214.65 0.03L215.96 0.11L217.25 0.25L218.53 0.44L219.78 0.69L221.02 0.98L222.24 1.32L223.44 1.72L224.61 2.16L225.76 2.65L226.89 3.18L227.99 3.76L229.07 4.37L230.11 5.04L231.13 5.74L232.11 6.48L233.07 7.26L233.99 8.08L234.88 8.93L235.73 9.82L236.55 10.74L237.33 11.7L238.07 12.68L238.77 13.7L239.43 14.74L240.05 15.82L240.63 16.92L241.16 18.05L241.65 19.2L242.09 20.37L242.48 21.57L242.83 22.79L243.12 24.02L243.37 25.28L243.56 26.56L243.7 27.85L243.78 29.16L243.81 30.48L243.81 213.33L243.78 214.65L243.7 215.96L243.56 217.25L243.37 218.53L243.12 219.78L242.83 221.02L242.48 222.24L242.09 223.44L241.65 224.61L241.16 225.76L240.63 226.89L240.05 227.99L239.43 229.07L238.77 230.11L238.07 231.13L237.33 232.11L236.55 233.07L235.73 233.99L234.88 234.88L233.99 235.73L233.07 236.55L232.11 237.33L231.13 238.07L230.11 238.77L229.07 239.43L227.99 240.05L226.89 240.63L225.76 241.16L224.61 241.65L223.44 242.09L222.24 242.48L221.02 242.83L219.78 243.12L218.53 243.37L217.25 243.56L215.96 243.7L214.65 243.78L213.33 243.81L30.48 243.81L29.16 243.78L27.85 243.7L26.56 243.56Z" id="azwHiKjmK"></path><path d="M26.56 456.89L25.28 456.7L24.02 456.46L22.79 456.16L21.57 455.82L20.37 455.43L19.2 454.98L18.05 454.5L16.92 453.96L15.82 453.39L14.74 452.77L13.7 452.11L12.68 451.4L11.7 450.66L10.74 449.88L9.82 449.07L8.93 448.21L8.08 447.32L7.26 446.4L6.48 445.45L5.74 444.46L5.04 443.44L4.37 442.4L3.76 441.32L3.18 440.22L2.65 439.1L2.16 437.95L1.72 436.77L1.32 435.57L0.98 434.36L0.69 433.12L0.44 431.86L0.25 430.59L0.11 429.29L0.03 427.99L0 426.67L0.03 425.35L0.11 424.04L0.25 422.75L0.44 421.47L0.69 420.22L0.98 418.98L1.32 417.76L1.72 416.56L2.16 415.39L2.65 414.24L3.18 413.11L3.76 412.01L4.37 410.93L5.04 409.89L5.74 408.87L6.48 407.89L7.26 406.93L8.08 406.01L8.93 405.12L9.82 404.27L10.74 403.45L11.7 402.67L12.68 401.93L13.7 401.23L14.74 400.57L15.82 399.95L16.92 399.37L18.05 398.84L19.2 398.35L20.37 397.91L21.57 397.52L22.79 397.17L24.02 396.88L25.28 396.63L26.56 396.44L27.85 396.3L29.16 396.22L30.48 396.19L213.33 396.19L214.65 396.22L215.96 396.3L217.25 396.44L218.53 396.63L219.78 396.88L221.02 397.17L222.24 397.52L223.44 397.91L224.61 398.35L225.76 398.84L226.89 399.37L227.99 399.95L229.07 400.57L230.11 401.23L231.13 401.93L232.11 402.67L233.07 403.45L233.99 404.27L234.88 405.12L235.73 406.01L236.55 406.93L237.33 407.89L238.07 408.87L238.77 409.89L239.43 410.93L240.05 412.01L240.63 413.11L241.16 414.24L241.65 415.39L242.09 416.56L242.48 417.76L242.83 418.98L243.12 420.22L243.37 421.47L243.56 422.75L243.7 424.04L243.78 425.35L243.81 426.67L243.81 609.52L243.81 609.52L243.78 610.84L243.7 612.15L243.56 613.44L243.37 614.72L243.12 615.98L242.83 617.21L242.48 618.43L242.09 619.63L241.65 620.8L241.16 621.95L240.63 623.08L240.05 624.18L239.43 625.26L238.77 626.3L238.07 627.32L237.33 628.3L236.55 629.26L235.73 630.18L234.88 631.07L233.99 631.92L233.07 632.74L232.11 633.52L231.13 634.26L230.11 634.96L229.07 635.63L227.99 636.24L226.89 636.82L225.76 637.35L224.61 637.84L223.44 638.28L222.24 638.68L221.02 639.02L219.78 639.31L218.53 639.56L217.25 639.75L215.96 639.89L214.65 639.97L213.33 640L212.01 639.97L210.71 639.89L209.41 639.75L208.14 639.56L206.88 639.31L205.64 639.02L204.43 638.68L203.23 638.28L202.05 637.84L200.9 637.35L199.78 636.82L198.68 636.24L197.6 635.63L196.56 634.96L195.54 634.26L194.55 633.52L193.6 632.74L192.68 631.92L191.79 631.07L190.93 630.18L190.12 629.26L189.34 628.3L188.6 627.32L187.89 626.3L187.23 625.26L186.61 624.18L186.04 623.08L185.5 621.95L185.02 620.8L184.57 619.63L184.18 618.43L183.84 617.21L183.54 615.98L183.3 614.72L183.11 613.44L182.97 612.15L182.89 610.84L182.86 609.52L182.86 609.52L182.86 457.14L30.48 457.14L29.16 457.11L27.85 457.03L26.56 456.89Z" id="b1BsiWNkbm"></path></defs><g><g><g><use xlink:href="#eJyDFMDDm" opacity="1" fill="#000000" fill-opacity="1"></use></g><g><use xlink:href="#a7nr9lAlJy" opacity="1" fill="#000000" fill-opacity="1"></use></g><g><use xlink:href="#azwHiKjmK" opacity="1" fill="#000000" fill-opacity="1"></use></g><g><use xlink:href="#b1BsiWNkbm" opacity="1" fill="#000000" fill-opacity="1"></use></g></g></g></svg>