<?xml version="1.0" encoding="UTF-8" standalone="no"?>
<!DOCTYPE svg PUBLIC "-//W3C//DTD SVG 1.1//EN" "http://www.w3.org/Graphics/SVG/1.1/DTD/svg11.dtd">
<svg version="1.1" xmlns="http://www.w3.org/2000/svg" xmlns:xlink="http://www.w3.org/1999/xlink" preserveAspectRatio="xMidYMid meet" viewBox="0 0 640 640" width="640" height="640"><defs><path d="M22.7 213.63L21.42 213.41L20.17 213.13L18.94 212.79L17.74 212.4L16.56 211.95L15.41 211.45L14.29 210.89L13.19 210.28L12.13 209.63L11.11 208.93L10.12 208.18L9.16 207.39L8.25 206.55L7.37 205.68L6.54 204.76L5.74 203.8L4.99 202.81L4.29 201.79L3.64 200.73L3.03 199.64L2.48 198.51L1.97 197.36L1.52 196.18L1.13 194.98L0.79 193.75L0.51 192.5L0.29 191.22L0.13 189.93L0.03 188.62L0 187.29L0.03 185.96L0.13 184.65L0.29 183.36L0.51 182.09L0.79 180.83L1.13 179.6L1.52 178.4L1.97 177.22L2.48 176.07L3.03 174.95L3.64 173.86L4.29 172.8L4.99 171.77L5.74 170.78L6.54 169.82L7.37 168.91L8.25 168.03L9.16 167.2L10.12 166.4L11.11 165.66L12.13 164.95L13.19 164.3L14.29 163.69L15.41 163.14L16.56 162.64L17.74 162.19L18.94 161.79L20.17 161.45L21.42 161.17L22.7 160.95L23.99 160.79L25.3 160.69L26.63 160.66L159.78 160.66L159.78 134.47L160.21 134.47L161.86 37.39L161.75 37.14L161.3 35.96L160.91 34.76L160.57 33.53L160.29 32.28L160.07 31L159.91 29.71L159.81 28.4L159.78 27.07L159.81 25.74L159.91 24.43L160.07 23.14L160.29 21.86L160.57 20.61L160.91 19.38L161.3 18.18L161.75 17L162.25 15.85L162.81 14.73L163.42 13.64L164.07 12.58L164.77 11.55L165.52 10.56L166.31 9.6L167.15 8.69L168.02 7.81L168.94 6.98L169.9 6.18L170.89 5.44L171.91 4.73L172.97 4.08L174.06 3.47L175.19 2.92L176.34 2.41L177.52 1.96L178.72 1.57L179.95 1.23L181.2 0.95L182.48 0.73L183.77 0.57L185.08 0.47L186.41 0.44L187.74 0.47L189.05 0.57L190.34 0.73L191.61 0.95L192.87 1.23L194.1 1.57L195.3 1.96L196.48 2.41L197.63 2.92L198.75 3.47L199.84 4.08L200.9 4.73L201.93 5.44L202.92 6.18L203.88 6.98L204.79 7.81L205.67 8.69L206.5 9.6L207.29 10.56L208.04 11.55L208.75 12.58L209.4 13.64L210.01 14.73L210.56 15.85L211.06 17L211.51 18.18L211.91 19.38L212.25 20.61L212.53 21.86L212.75 23.14L212.91 24.43L213.01 25.74L213.04 27.07L213.02 27.94L215.28 27.97L213.04 160.65L213.04 187.73L213.03 187.73L213.01 188.62L212.91 189.93L212.75 191.22L212.53 192.5L212.25 193.75L211.91 194.98L211.51 196.18L211.06 197.36L210.56 198.51L210.01 199.64L209.4 200.73L208.75 201.79L208.04 202.81L207.29 203.8L206.5 204.76L205.67 205.68L204.79 206.55L203.88 207.39L202.92 208.18L201.93 208.93L200.9 209.63L199.84 210.28L198.75 210.89L197.63 211.45L196.48 211.95L195.3 212.4L194.1 212.79L192.87 213.13L191.61 213.41L190.34 213.63L189.05 213.79L187.74 213.89L186.41 213.92L26.63 213.92L25.3 213.89L23.99 213.79L22.7 213.63Z" id="m5HpRthA2"></path><path d="M23.82 479.93L22.55 479.71L21.29 479.43L20.07 479.09L18.86 478.7L17.68 478.25L16.53 477.74L15.41 477.19L14.32 476.58L13.26 475.93L12.23 475.23L11.24 474.48L10.29 473.69L9.37 472.85L8.49 471.97L7.66 471.06L6.87 470.1L6.12 469.11L5.42 468.09L4.76 467.03L4.16 465.94L3.6 464.81L3.1 463.66L2.65 462.48L2.25 461.28L1.91 460.05L1.63 458.8L1.41 457.52L1.25 456.23L1.16 454.92L1.12 453.59L1.16 452.26L1.25 450.95L1.41 449.66L1.63 448.38L1.91 447.13L2.25 445.9L2.65 444.7L3.1 443.52L3.6 442.37L4.16 441.25L4.76 440.15L5.42 439.09L6.12 438.07L6.87 437.08L7.66 436.12L8.49 435.21L9.37 434.33L10.29 433.5L11.24 432.7L12.23 431.96L13.26 431.25L14.32 430.6L15.41 429.99L16.53 429.44L17.68 428.93L18.86 428.48L20.07 428.09L21.29 427.75L22.55 427.47L23.82 427.25L25.11 427.09L26.42 426.99L27.75 426.96L187.53 426.96L188.86 426.99L190.17 427.09L191.46 427.25L192.74 427.47L193.99 427.75L195.22 428.09L196.42 428.48L197.6 428.93L198.75 429.44L199.88 429.99L200.97 430.6L202.03 431.25L203.05 431.96L204.04 432.7L205 433.5L205.91 434.33L206.79 435.21L207.63 436.12L208.42 437.08L209.17 438.07L209.87 439.09L210.52 440.15L211.13 441.25L211.68 442.37L212.19 443.52L212.64 444.7L213.03 445.9L213.37 447.13L213.65 448.38L213.87 449.66L214.03 450.95L214.13 452.26L214.16 453.59L215.28 453.59L215.28 613.37L215.28 613.37L215.25 614.7L215.15 616.01L215 617.3L214.77 618.58L214.49 619.83L214.16 621.06L213.76 622.26L213.31 623.44L212.81 624.59L212.25 625.71L211.65 626.81L210.99 627.87L210.29 628.89L209.54 629.88L208.75 630.84L207.91 631.75L207.04 632.63L206.12 633.46L205.17 634.26L204.18 635.01L203.15 635.71L202.09 636.36L201 636.97L199.88 637.52L198.73 638.03L197.55 638.48L196.34 638.87L195.11 639.21L193.86 639.49L192.59 639.71L191.29 639.87L189.98 639.97L188.65 640L187.33 639.97L186.01 639.87L184.72 639.71L183.45 639.49L182.2 639.21L180.97 638.87L179.76 638.48L178.58 638.03L177.43 637.52L176.31 636.97L175.22 636.36L174.16 635.71L173.13 635.01L172.14 634.26L171.19 633.46L170.27 632.63L169.39 631.75L168.56 630.84L167.77 629.88L167.02 628.89L166.32 627.87L165.66 626.81L165.06 625.71L164.5 624.59L164 623.44L163.55 622.26L163.15 621.06L162.81 619.83L162.53 618.58L162.31 617.3L162.15 616.01L162.06 614.7L162.02 613.37L162.02 480.22L27.75 480.22L26.42 480.19L25.11 480.09L23.82 479.93Z" id="f406ju6lnT"></path><path d="M481.58 613.37L481.55 614.7L481.45 616.01L481.29 617.3L481.07 618.58L480.79 619.83L480.45 621.06L480.06 622.26L479.61 623.44L479.11 624.59L478.55 625.71L477.94 626.81L477.29 627.87L476.59 628.89L475.84 629.88L475.05 630.84L474.21 631.75L473.34 632.63L472.42 633.46L471.46 634.26L470.47 635.01L469.45 635.71L468.39 636.36L467.3 636.97L466.17 637.52L465.02 638.03L463.84 638.48L462.64 638.87L461.41 639.21L460.16 639.49L458.88 639.71L457.59 639.87L456.28 639.97L454.95 640L453.62 639.97L452.31 639.87L451.02 639.71L449.75 639.49L448.49 639.21L447.26 638.87L446.06 638.48L444.88 638.03L443.73 637.52L442.61 636.97L441.52 636.36L440.46 635.71L439.43 635.01L438.44 634.26L437.48 633.46L436.57 632.63L435.69 631.75L434.86 630.84L434.07 629.88L433.32 628.89L432.61 627.87L431.96 626.81L431.35 625.71L430.8 624.59L430.3 623.44L429.85 622.26L429.45 621.06L429.11 619.83L428.83 618.58L428.61 617.3L428.45 616.01L428.35 614.7L428.32 613.37L428.32 453.59L428.32 453.59L428.35 452.26L428.45 450.95L428.61 449.66L428.83 448.38L429.11 447.13L429.45 445.9L429.85 444.7L430.3 443.52L430.8 442.37L431.35 441.25L431.96 440.15L432.61 439.09L433.32 438.07L434.07 437.08L434.86 436.12L435.69 435.21L436.57 434.33L437.48 433.5L438.44 432.7L439.43 431.96L440.46 431.25L441.52 430.6L442.61 429.99L443.73 429.44L444.88 428.93L446.06 428.48L447.26 428.09L448.49 427.75L449.75 427.47L451.02 427.25L452.31 427.09L453.62 426.99L454.95 426.96L614.73 426.96L616.06 426.99L617.37 427.09L618.66 427.25L619.94 427.47L621.19 427.75L622.42 428.09L623.62 428.48L624.8 428.93L625.95 429.44L627.07 429.99L628.17 430.6L629.23 431.25L630.25 431.96L631.24 432.7L632.2 433.5L633.11 434.33L633.99 435.21L634.82 436.12L635.62 437.08L636.37 438.07L637.07 439.09L637.72 440.15L638.33 441.25L638.88 442.37L639.39 443.52L639.84 444.7L640.23 445.9L640.57 447.13L640.85 448.38L641.07 449.66L641.23 450.95L641.33 452.26L641.36 453.59L641.33 454.92L641.23 456.23L641.07 457.52L640.85 458.8L640.57 460.05L640.23 461.28L639.84 462.48L639.39 463.66L638.88 464.81L638.33 465.94L637.72 467.03L637.07 468.09L636.37 469.11L635.62 470.1L634.82 471.06L633.99 471.97L633.11 472.85L632.2 473.69L631.24 474.48L630.25 475.23L629.23 475.93L628.17 476.58L627.07 477.19L625.95 477.74L624.8 478.25L623.62 478.7L622.42 479.09L621.19 479.43L619.94 479.71L618.66 479.93L617.37 480.09L616.06 480.19L614.73 480.22L481.58 480.22L481.58 613.37L481.58 613.37Z" id="g2kRUMbWx"></path><path d="M618.66 160.51L619.94 160.73L621.19 161.01L622.42 161.35L623.62 161.74L624.8 162.19L625.95 162.7L627.07 163.25L628.17 163.86L629.23 164.51L630.25 165.22L631.24 165.96L632.2 166.76L633.11 167.59L633.99 168.47L634.82 169.38L635.62 170.34L636.37 171.33L637.07 172.35L637.72 173.41L638.33 174.51L638.88 175.63L639.39 176.78L639.84 177.96L640.23 179.16L640.57 180.39L640.85 181.64L641.07 182.92L641.23 184.21L641.33 185.52L641.36 186.85L641.33 188.18L641.23 189.49L641.07 190.78L640.85 192.06L640.57 193.31L640.23 194.54L639.84 195.74L639.39 196.92L638.88 198.07L638.33 199.2L637.72 200.29L637.07 201.35L636.37 202.37L635.62 203.36L634.82 204.32L633.99 205.23L633.11 206.11L632.2 206.95L631.24 207.74L630.25 208.49L629.23 209.19L628.17 209.84L627.07 210.45L625.95 211L624.8 211.51L623.62 211.96L622.42 212.35L621.19 212.69L619.94 212.97L618.66 213.19L617.37 213.35L616.06 213.45L614.73 213.48L508.21 213.48L508.21 213.92L454.95 213.92L453.62 213.89L452.31 213.79L451.02 213.63L449.75 213.41L448.49 213.13L447.26 212.79L446.06 212.4L444.88 211.95L443.73 211.45L442.61 210.89L441.52 210.28L440.46 209.63L439.43 208.93L438.44 208.18L437.48 207.39L436.57 206.55L435.69 205.68L434.86 204.76L434.07 203.8L433.32 202.81L432.61 201.79L431.96 200.73L431.35 199.64L430.8 198.51L430.3 197.36L429.85 196.18L429.45 194.98L429.11 193.75L428.83 192.5L428.61 191.22L428.45 189.93L428.35 188.62L428.32 187.29L428.33 186.85L428.32 186.85L428.32 26.63L428.35 25.3L428.45 23.99L428.61 22.7L428.83 21.42L429.11 20.17L429.45 18.94L429.85 17.74L430.3 16.56L430.8 15.41L431.35 14.29L431.96 13.19L432.61 12.13L433.32 11.11L434.07 10.12L434.86 9.16L435.69 8.25L436.57 7.37L437.48 6.54L438.44 5.74L439.43 4.99L440.46 4.29L441.52 3.64L442.61 3.03L443.73 2.48L444.88 1.97L446.06 1.52L447.26 1.13L448.49 0.79L449.75 0.51L451.02 0.29L452.31 0.13L453.62 0.03L454.95 0L456.28 0.03L457.59 0.13L458.88 0.29L460.16 0.51L461.41 0.79L462.64 1.13L463.84 1.52L465.02 1.97L466.17 2.48L467.3 3.03L468.39 3.64L469.45 4.29L470.47 4.99L471.46 5.74L472.42 6.54L473.34 7.37L474.21 8.25L475.05 9.16L475.84 10.12L476.59 11.11L477.29 12.13L477.94 13.19L478.55 14.29L479.11 15.41L479.61 16.56L480.06 17.74L480.45 18.94L480.79 20.17L481.07 21.42L481.29 22.7L481.45 23.99L481.55 25.3L481.58 26.63L481.58 26.63L481.58 160.22L614.73 160.22L616.06 160.25L617.37 160.35L618.66 160.51Z" id="j38NM93Ds"></path></defs><g><g><g><use xlink:href="#m5HpRthA2" opacity="1" fill="#000000" fill-opacity="1"></use></g><g><use xlink:href="#f406ju6lnT" opacity="1" fill="#000000" fill-opacity="1"></use></g><g><use xlink:href="#g2kRUMbWx" opacity="1" fill="#000000" fill-opacity="1"></use></g><g><use xlink:href="#j38NM93Ds" opacity="1" fill="#000000" fill-opacity="1"></use></g></g></g></svg>