<?xml version="1.0" encoding="UTF-8" standalone="no"?>
<!DOCTYPE svg PUBLIC "-//W3C//DTD SVG 1.1//EN" "http://www.w3.org/Graphics/SVG/1.1/DTD/svg11.dtd">
<svg version="1.1" xmlns="http://www.w3.org/2000/svg" xmlns:xlink="http://www.w3.org/1999/xlink" preserveAspectRatio="xMidYMid meet" viewBox="0 0 640 640" width="640" height="640"><defs><path d="M390.24 468.29L390.19 469.64L390.02 470.95L389.74 472.23L389.36 473.47L388.89 474.66L388.32 475.8L387.66 476.89L386.92 477.91L386.11 478.87L385.21 479.77L384.25 480.58L383.23 481.32L382.14 481.98L381 482.55L379.81 483.02L378.57 483.4L377.29 483.68L375.98 483.85L374.63 483.9L373.29 483.85L371.97 483.68L370.7 483.4L369.46 483.02L368.27 482.55L367.13 481.98L366.04 481.32L365.01 480.58L364.05 479.77L363.16 478.87L362.34 477.91L361.6 476.89L360.95 475.8L360.38 474.66L359.9 473.47L359.53 472.23L359.25 470.95L359.08 469.64L359.02 468.29L359.02 468.29L359.02 374.63L359.08 373.29L359.25 371.97L359.53 370.7L359.9 369.46L360.38 368.27L360.95 367.13L361.6 366.04L362.34 365.01L363.16 364.05L364.05 363.16L365.01 362.34L366.04 361.6L367.13 360.95L368.27 360.38L369.46 359.9L370.7 359.53L371.97 359.25L373.29 359.08L374.63 359.02L468.29 359.02L469.64 359.08L470.95 359.25L472.23 359.53L473.47 359.9L474.66 360.38L475.8 360.95L476.89 361.6L477.91 362.34L478.87 363.16L479.77 364.05L480.58 365.01L481.32 366.04L481.98 367.13L482.55 368.27L483.02 369.46L483.4 370.7L483.68 371.97L483.85 373.29L483.9 374.63L483.85 375.98L483.68 377.29L483.4 378.57L483.02 379.81L482.55 381L481.98 382.14L481.32 383.23L480.58 384.25L479.77 385.21L478.87 386.11L477.91 386.92L476.89 387.66L475.8 388.32L474.66 388.89L473.47 389.36L472.23 389.74L470.95 390.02L469.64 390.19L468.29 390.24L390.24 390.24L390.24 468.29L390.24 468.29Z" id="biyaWNyhk"></path><path d="M472.23 250.26L473.47 250.64L474.66 251.11L475.8 251.68L476.89 252.34L477.91 253.08L478.87 253.89L479.76 254.79L480.58 255.75L481.32 256.77L481.98 257.86L482.55 259L483.02 260.19L483.4 261.43L483.68 262.71L483.84 264.02L483.9 265.37L483.84 266.71L483.68 268.03L483.4 269.3L483.02 270.54L482.55 271.73L481.98 272.87L481.32 273.96L480.58 274.99L479.76 275.95L478.87 276.84L477.91 277.66L476.89 278.4L475.8 279.05L474.66 279.62L473.47 280.1L472.23 280.47L470.95 280.75L469.64 280.92L468.29 280.98L374.63 280.98L373.29 280.92L371.97 280.75L370.69 280.47L369.46 280.1L368.27 279.62L367.13 279.05L366.04 278.4L365.01 277.66L364.05 276.84L363.16 275.95L362.34 274.99L361.6 273.96L360.95 272.87L360.38 271.73L359.9 270.54L359.53 269.3L359.25 268.03L359.08 266.71L359.02 265.37L359.02 171.71L359.08 170.36L359.25 169.05L359.53 167.77L359.9 166.53L360.38 165.34L360.95 164.2L361.6 163.11L362.34 162.09L363.16 161.13L364.05 160.23L365.01 159.42L366.04 158.68L367.13 158.02L368.27 157.45L369.46 156.98L370.69 156.6L371.97 156.32L373.29 156.15L374.63 156.1L375.98 156.15L377.29 156.32L378.57 156.6L379.81 156.98L381 157.45L382.14 158.02L383.23 158.68L384.25 159.42L385.21 160.23L386.11 161.13L386.92 162.09L387.66 163.11L388.32 164.2L388.89 165.34L389.36 166.53L389.74 167.77L390.02 169.05L390.19 170.36L390.24 171.71L390.24 249.76L468.29 249.76L469.64 249.81L470.95 249.98L472.23 250.26Z" id="asEdkrf1D"></path><path d="M167.77 280.47L166.53 280.1L165.34 279.62L164.2 279.05L163.11 278.4L162.09 277.66L161.13 276.84L160.23 275.95L159.42 274.99L158.68 273.96L158.02 272.87L157.45 271.73L156.98 270.54L156.6 269.3L156.32 268.03L156.15 266.71L156.1 265.37L156.15 264.02L156.32 262.71L156.6 261.43L156.98 260.19L157.45 259L158.02 257.86L158.68 256.77L159.42 255.75L160.23 254.79L161.13 253.89L162.09 253.08L163.11 252.34L164.2 251.68L165.34 251.11L166.53 250.64L167.77 250.26L169.05 249.98L170.36 249.81L171.71 249.76L249.76 249.76L249.76 171.71L249.81 170.36L249.98 169.05L250.26 167.77L250.64 166.53L251.11 165.34L251.68 164.2L252.34 163.11L253.08 162.09L253.89 161.13L254.79 160.23L255.75 159.42L256.77 158.68L257.86 158.02L259 157.45L260.19 156.98L261.43 156.6L262.71 156.32L264.02 156.15L265.37 156.1L266.71 156.15L268.03 156.32L269.3 156.6L270.54 156.98L271.73 157.45L272.87 158.02L273.96 158.68L274.99 159.42L275.95 160.23L276.84 161.13L277.66 162.09L278.4 163.11L279.05 164.2L279.62 165.34L280.1 166.53L280.47 167.77L280.75 169.05L280.92 170.36L280.98 171.71L280.98 265.37L280.92 266.71L280.75 268.03L280.47 269.3L280.1 270.54L279.62 271.73L279.05 272.87L278.4 273.96L277.66 274.99L276.84 275.95L275.95 276.84L274.99 277.66L273.96 278.4L272.87 279.05L271.73 279.62L270.54 280.1L269.3 280.47L268.03 280.75L266.71 280.92L265.37 280.98L171.71 280.98L170.36 280.92L169.05 280.75L167.77 280.47Z" id="cQ0aFw8Cq"></path><path d="M167.77 389.74L166.53 389.36L165.34 388.89L164.2 388.32L163.11 387.66L162.09 386.92L161.13 386.11L160.23 385.21L159.42 384.25L158.68 383.23L158.02 382.14L157.45 381L156.98 379.81L156.6 378.57L156.32 377.29L156.15 375.98L156.1 374.63L156.15 373.29L156.32 371.97L156.6 370.7L156.98 369.46L157.45 368.27L158.02 367.13L158.68 366.04L159.42 365.01L160.23 364.05L161.13 363.16L162.09 362.34L163.11 361.6L164.2 360.95L165.34 360.38L166.53 359.9L167.77 359.53L169.05 359.25L170.36 359.08L171.71 359.02L265.37 359.02L266.71 359.08L268.03 359.25L269.3 359.53L270.54 359.9L271.73 360.38L272.87 360.95L273.96 361.6L274.99 362.34L275.95 363.16L276.84 364.05L277.66 365.01L278.4 366.04L279.05 367.13L279.62 368.27L280.1 369.46L280.47 370.7L280.75 371.97L280.92 373.29L280.98 374.63L280.98 468.29L280.98 468.29L280.92 469.64L280.75 470.95L280.47 472.23L280.1 473.47L279.62 474.66L279.05 475.8L278.4 476.89L277.66 477.91L276.84 478.87L275.95 479.77L274.99 480.58L273.96 481.32L272.87 481.98L271.73 482.55L270.54 483.02L269.3 483.4L268.03 483.68L266.71 483.85L265.37 483.9L264.02 483.85L262.71 483.68L261.43 483.4L260.19 483.02L259 482.55L257.86 481.98L256.77 481.32L255.75 480.58L254.79 479.77L253.89 478.87L253.08 477.91L252.34 476.89L251.68 475.8L251.11 474.66L250.64 473.47L250.26 472.23L249.98 470.95L249.81 469.64L249.76 468.29L249.76 468.29L249.76 390.24L171.71 390.24L170.36 390.19L169.05 390.02L167.77 389.74Z" id="dEJ8VFJt2"></path><path d="M640 320C640 496.61 496.61 640 320 640C143.39 640 0 496.61 0 320C0 143.39 143.39 0 320 0C496.61 0 640 143.39 640 320Z" id="a4ep6ETUGs"></path><clipPath id="clipdRNhFpVpc"><use xlink:href="#a4ep6ETUGs" opacity="1"></use></clipPath></defs><g><g><g><use xlink:href="#biyaWNyhk" opacity="1" fill="#000000" fill-opacity="1"></use></g><g><use xlink:href="#asEdkrf1D" opacity="1" fill="#000000" fill-opacity="1"></use></g><g><use xlink:href="#cQ0aFw8Cq" opacity="1" fill="#000000" fill-opacity="1"></use></g><g><use xlink:href="#dEJ8VFJt2" opacity="1" fill="#000000" fill-opacity="1"></use></g><g><g clip-path="url(#clipdRNhFpVpc)"><use xlink:href="#a4ep6ETUGs" opacity="1" fill-opacity="0" stroke="#000000" stroke-width="40" stroke-opacity="1"></use></g></g></g></g></svg>