<?xml version="1.0" encoding="UTF-8" standalone="no"?>
<!DOCTYPE svg PUBLIC "-//W3C//DTD SVG 1.1//EN" "http://www.w3.org/Graphics/SVG/1.1/DTD/svg11.dtd">
<svg version="1.1" xmlns="http://www.w3.org/2000/svg" xmlns:xlink="http://www.w3.org/1999/xlink" preserveAspectRatio="xMidYMid meet" viewBox="0 0 640 640" width="640" height="640"><defs><path d="M578.09 573.07L579.42 573.32L580.72 573.61L582.01 573.96L583.27 574.35L584.52 574.79L585.74 575.28L586.93 575.81L588.11 576.39L589.25 577.02L590.37 577.68L591.46 578.39L592.52 579.13L593.55 579.92L594.55 580.74L595.51 581.61L596.44 582.5L597.34 583.43L598.2 584.4L599.03 585.4L599.81 586.43L600.56 587.49L601.27 588.58L601.93 589.7L602.55 590.84L603.13 592.01L603.67 593.21L604.15 594.43L604.6 595.67L604.99 596.94L605.34 598.23L605.63 599.53L605.87 600.86L606.07 602.2L606.2 603.55L606.29 604.93L606.32 606.32L606.29 607.7L606.2 609.08L606.07 610.43L605.87 611.78L605.63 613.1L605.34 614.41L604.99 615.69L604.6 616.96L604.15 618.2L603.67 619.42L603.13 620.62L602.55 621.79L601.93 622.94L601.27 624.05L600.56 625.14L599.81 626.2L599.03 627.23L598.2 628.23L597.34 629.2L596.44 630.13L595.51 631.03L594.55 631.89L593.55 632.71L592.52 633.5L591.46 634.24L590.37 634.95L589.25 635.62L588.11 636.24L586.93 636.82L585.74 637.35L584.52 637.84L583.27 638.28L582.01 638.68L580.72 639.02L579.42 639.32L578.09 639.56L576.75 639.75L575.39 639.89L574.02 639.97L572.63 640L67.37 640L65.98 639.97L64.61 639.89L63.25 639.75L61.91 639.56L60.58 639.32L59.28 639.02L57.99 638.68L56.73 638.28L55.48 637.84L54.26 637.35L53.07 636.82L51.89 636.24L50.75 635.62L49.63 634.95L48.54 634.24L47.48 633.5L46.45 632.71L45.45 631.89L44.49 631.03L43.56 630.13L42.66 629.2L41.8 628.23L40.97 627.23L40.19 626.2L39.44 625.14L38.73 624.05L38.07 622.94L37.45 621.79L36.87 620.62L36.33 619.42L35.85 618.2L35.4 616.96L35.01 615.69L34.66 614.41L34.37 613.1L34.13 611.78L33.93 610.43L33.8 609.08L33.71 607.7L33.69 606.32L33.71 604.93L33.8 603.55L33.93 602.2L34.13 600.86L34.37 599.53L34.66 598.23L35.01 596.94L35.4 595.67L35.85 594.43L36.33 593.21L36.87 592.01L37.45 590.84L38.07 589.7L38.73 588.58L39.44 587.49L40.19 586.43L40.97 585.4L41.8 584.4L42.66 583.43L43.56 582.5L44.49 581.61L45.45 580.74L46.45 579.92L47.48 579.13L48.54 578.39L49.63 577.68L50.75 577.02L51.89 576.39L53.07 575.81L54.26 575.28L55.48 574.79L56.73 574.35L57.99 573.96L59.28 573.61L60.58 573.32L61.91 573.07L63.25 572.88L64.61 572.74L65.98 572.66L67.37 572.63L572.63 572.63L574.02 572.66L575.39 572.74L576.75 572.88L576.75 572.88L578.09 573.07ZM572.73 0L572.89 0L573.84 0.03L574.02 0.03L574.05 0.03L574.19 0.03L575.5 0.12L576.8 0.25L578.1 0.44L579.4 0.68L580.69 0.97L581.98 1.32L581.99 1.32L582.01 1.32L583.27 1.72L584.52 2.16L585.74 2.65L586.93 3.18L587.03 3.23L588.11 3.76L588.22 3.82L588.26 3.84L588.49 3.97L589.25 4.38L589.37 4.46L589.47 4.51L589.92 4.78L590.37 5.05L590.47 5.12L590.66 5.23L591.27 5.64L591.46 5.76L591.52 5.8L591.81 5.99L592.92 6.79L593.98 7.63L595.01 8.5L595.99 9.41L596.93 10.35L597.83 11.32L598.69 12.33L599.5 13.36L600.27 14.42L600.99 15.51L601.2 15.84L601.27 15.95L601.39 16.16L601.67 16.62L601.81 16.85L601.93 17.06L602.17 17.5L602.31 17.75L602.38 17.88L602.55 18.21L602.88 18.86L602.9 18.91L602.91 18.94L603.13 19.38L603.67 20.58L604.15 21.8L604.6 23.04L604.99 24.31L605.34 25.59L605.63 26.9L605.87 28.22L606.07 29.57L606.11 30.04L606.11 30.05L606.12 30.08L606.2 30.92L606.22 31.26L606.23 31.34L606.25 31.62L606.29 32.3L606.29 32.5L606.3 32.64L606.31 33.24L606.32 33.68L606.31 33.78L606.32 33.94L606.29 34.89L606.29 35.07L606.29 35.1L606.28 35.24L606.2 36.55L606.06 37.85L605.87 39.15L605.64 40.45L605.34 41.74L605.34 41.77L605.34 41.77L605.26 42.07L605 43.03L605 43.04L604.99 43.06L604.6 44.33L604.15 45.57L603.67 46.79L603.13 47.99L603.09 48.08L603.09 48.08L602.55 49.16L602.49 49.28L602.47 49.31L602.37 49.5L601.93 50.3L601.85 50.44L601.8 50.53L601.8 50.53L349.17 488.1L349.17 488.1L349.11 488.19L349.04 488.32L348.6 489.05L348.45 489.28L348.43 489.32L348.36 489.43L347.7 490.42L347.69 490.43L347.69 490.43L347.64 490.52L346.87 491.58L346.05 492.61L345.2 493.62L344.3 494.59L344.29 494.6L344.28 494.61L343.34 495.56L342.36 496.45L341.36 497.31L340.32 498.12L339.26 498.89L338.18 499.62L338.05 499.69L338.03 499.71L337.88 499.8L337.06 500.3L336.93 500.38L336.84 500.43L336.45 500.64L335.93 500.93L335.81 501L335.63 501.1L335.01 501.4L334.77 501.52L334.69 501.56L334.39 501.71L333.62 502.06L333.6 502.07L333.59 502.07L333.15 502.27L331.89 502.77L330.62 503.23L329.35 503.62L328.06 503.97L326.77 504.26L325.47 504.5L324.17 504.69L322.86 504.82L322.36 504.85L322.34 504.86L322.3 504.86L321.56 504.91L321.18 504.92L321.04 504.92L320.77 504.93L320.26 504.94L320 504.94L319.74 504.94L319.23 504.93L318.96 504.92L318.82 504.92L318.44 504.91L317.7 504.86L317.66 504.86L317.64 504.85L317.14 504.82L315.83 504.69L314.53 504.5L313.23 504.26L311.94 503.97L310.65 503.62L309.38 503.23L308.11 502.77L306.85 502.27L306.41 502.07L306.4 502.07L306.38 502.06L305.61 501.71L305.31 501.56L305.23 501.52L304.99 501.4L304.37 501.1L304.2 501L304.07 500.93L303.55 500.64L303.16 500.43L303.07 500.38L302.94 500.3L302.12 499.8L301.97 499.71L301.95 499.69L301.82 499.62L300.74 498.89L299.68 498.12L298.64 497.31L297.64 496.45L296.66 495.56L295.72 494.61L295.71 494.6L295.7 494.59L294.8 493.62L293.95 492.61L293.13 491.58L292.36 490.52L292.31 490.43L292.31 490.43L292.3 490.42L291.64 489.43L291.57 489.32L291.55 489.28L291.4 489.04L290.96 488.32L290.89 488.2L290.83 488.1L38.2 50.53L38.15 50.43L38.07 50.3L37.64 49.51L37.53 49.31L37.51 49.28L37.45 49.16L36.91 48.08L36.91 48.08L36.87 47.99L36.33 46.79L35.85 45.57L35.4 44.33L35.01 43.06L35 43.04L35 43.03L34.74 42.07L34.66 41.77L34.66 41.77L34.66 41.74L34.36 40.45L34.13 39.15L33.94 37.85L33.8 36.55L33.72 35.24L33.72 35.1L33.71 35.07L33.71 34.89L33.68 33.94L33.69 33.78L33.69 33.68L33.69 33.24L33.7 32.64L33.71 32.5L33.71 32.3L33.76 31.62L33.77 31.34L33.78 31.26L33.8 30.92L33.88 30.08L33.89 30.05L33.89 30.04L33.93 29.57L34.13 28.22L34.37 26.9L34.66 25.59L35.01 24.31L35.4 23.04L35.85 21.8L36.33 20.58L36.87 19.38L37.09 18.94L37.1 18.91L37.13 18.86L37.45 18.21L37.62 17.88L37.69 17.75L37.83 17.5L38.07 17.06L38.2 16.85L38.33 16.62L38.61 16.16L38.73 15.95L38.8 15.84L39.01 15.51L39.73 14.42L40.5 13.36L41.31 12.33L42.17 11.32L43.07 10.35L44.01 9.41L44.99 8.5L46.02 7.63L47.08 6.79L48.19 5.99L48.48 5.8L48.54 5.76L48.73 5.64L49.34 5.23L49.53 5.12L49.63 5.05L50.09 4.78L50.53 4.51L50.63 4.46L50.75 4.38L51.51 3.97L51.74 3.84L51.78 3.82L51.89 3.76L52.97 3.23L52.97 3.23L53.07 3.18L54.26 2.65L55.48 2.16L56.73 1.72L57.99 1.32L58.01 1.32L58.02 1.32L59.31 0.97L60.6 0.68L61.9 0.44L63.2 0.25L64.5 0.12L65.81 0.03L65.95 0.03L65.98 0.03L66.16 0.03L67.11 0L67.27 0L67.37 0L572.63 0L572.63 0L572.73 0Z" id="c1EUQF1aFi"></path></defs><g><g><g><use xlink:href="#c1EUQF1aFi" opacity="1" fill="#000000" fill-opacity="1"></use></g></g></g></svg>