<?xml version="1.0" encoding="UTF-8" standalone="no"?>
<!DOCTYPE svg PUBLIC "-//W3C//DTD SVG 1.1//EN" "http://www.w3.org/Graphics/SVG/1.1/DTD/svg11.dtd">
<svg version="1.1" xmlns="http://www.w3.org/2000/svg" xmlns:xlink="http://www.w3.org/1999/xlink" preserveAspectRatio="xMidYMid meet" viewBox="0 0 640 640" width="640" height="640"><defs><path d="M582.3 570.93L583.69 571.07L585.07 571.26L586.43 571.51L587.77 571.82L589.09 572.17L590.39 572.58L591.67 573.03L592.92 573.53L594.15 574.08L595.35 574.67L596.53 575.31L597.68 576L598.8 576.72L599.89 577.49L600.94 578.3L601.97 579.14L602.96 580.03L603.92 580.95L604.84 581.91L605.72 582.9L606.57 583.92L607.38 584.98L608.14 586.07L608.87 587.19L609.55 588.34L610.19 589.51L610.79 590.72L611.33 591.95L611.84 593.2L612.29 594.48L612.69 595.78L613.05 597.1L613.35 598.44L613.6 599.8L613.8 601.18L613.94 602.57L614.03 603.98L614.05 605.41L614.03 606.83L613.94 608.24L613.8 609.64L613.6 611.01L613.35 612.37L613.05 613.71L612.69 615.04L612.29 616.34L611.84 617.61L611.33 618.87L610.79 620.09L610.19 621.3L609.55 622.47L608.87 623.62L608.14 624.74L607.38 625.83L606.57 626.89L605.72 627.91L604.84 628.91L603.92 629.86L602.96 630.78L601.97 631.67L600.94 632.51L599.89 633.32L598.8 634.09L597.68 634.81L596.53 635.5L595.35 636.14L594.15 636.73L592.92 637.28L591.67 637.78L590.39 638.24L589.09 638.64L587.77 638.99L586.43 639.3L585.07 639.55L583.69 639.74L582.3 639.89L580.89 639.97L579.46 640L60.54 640L59.11 639.97L57.7 639.89L56.31 639.74L54.93 639.55L53.57 639.3L52.23 638.99L50.91 638.64L49.61 638.24L48.33 637.78L47.08 637.28L45.85 636.73L44.65 636.14L43.47 635.5L42.32 634.81L41.2 634.09L40.11 633.32L39.06 632.51L38.03 631.67L37.04 630.78L36.08 629.86L35.16 628.91L34.28 627.91L33.43 626.89L32.62 625.83L31.86 624.74L31.13 623.62L30.45 622.47L29.81 621.3L29.21 620.09L28.67 618.87L28.16 617.61L27.71 616.34L27.31 615.04L26.95 613.71L26.65 612.37L26.4 611.01L26.2 609.64L26.06 608.24L25.97 606.83L25.95 605.41L25.97 603.98L26.06 602.57L26.2 601.18L26.4 599.8L26.65 598.44L26.95 597.1L27.31 595.78L27.71 594.48L28.16 593.2L28.67 591.95L29.21 590.72L29.81 589.51L30.45 588.34L31.13 587.19L31.86 586.07L32.62 584.98L33.43 583.92L34.28 582.9L35.16 581.91L36.08 580.95L37.04 580.03L38.03 579.14L39.06 578.3L40.11 577.49L41.2 576.72L42.32 576L43.47 575.31L44.65 574.67L45.85 574.08L47.08 573.53L48.33 573.03L49.61 572.58L50.91 572.17L52.23 571.82L53.57 571.51L54.93 571.26L56.31 571.07L57.7 570.93L59.11 570.84L60.54 570.81L579.46 570.81L580.89 570.84L582.3 570.93ZM60.54 0L579.46 0L579.56 0L579.72 0L580.7 0.03L580.89 0.03L580.91 0.03L581.06 0.03L582.4 0.12L583.74 0.26L585.08 0.45L586.41 0.7L587.74 1L589.06 1.35L589.07 1.36L589.09 1.36L590.39 1.76L591.67 2.22L592.92 2.72L594.15 3.27L595.35 3.86L595.47 3.93L595.51 3.95L595.75 4.08L596.53 4.5L596.66 4.58L596.76 4.63L597.21 4.91L597.68 5.19L597.78 5.26L597.98 5.37L598.61 5.79L598.8 5.91L598.86 5.95L599.16 6.15L600.29 6.97L601.39 7.83L602.44 8.73L603.45 9.66L604.42 10.63L605.34 11.63L606.22 12.66L607.05 13.72L607.84 14.81L608.14 15.25L608.14 15.26L608.15 15.27L608.59 15.93L608.8 16.27L608.87 16.38L609 16.6L609.29 17.07L609.42 17.31L609.55 17.53L609.79 17.97L609.94 18.23L610.01 18.37L610.19 18.7L610.52 19.37L610.55 19.42L610.56 19.45L610.79 19.91L611.33 21.13L611.84 22.39L612.29 23.66L612.69 24.96L613.05 26.29L613.35 27.63L613.6 28.99L613.8 30.36L613.85 30.85L613.85 30.86L613.85 30.89L613.94 31.76L613.96 32.1L613.97 32.19L613.98 32.47L614.03 33.17L614.03 33.38L614.04 33.52L614.05 34.13L614.06 34.59L614.05 34.7L614.06 34.86L614.03 35.83L614.03 36.02L614.02 36.05L614.02 36.2L613.93 37.54L613.79 38.87L613.6 40.21L613.36 41.54L613.06 42.87L613.05 42.9L613.05 42.9L612.97 43.21L612.7 44.19L612.7 44.2L612.69 44.22L612.29 45.52L611.84 46.8L611.33 48.06L610.79 49.28L610.19 50.49L610.13 50.61L610.11 50.64L609.99 50.85L609.55 51.66L609.47 51.8L609.42 51.89L609.42 51.89L349.96 501.29L349.9 501.39L349.83 501.52L349.37 502.26L349.22 502.51L349.2 502.55L349.13 502.66L348.38 503.78L347.59 504.87L346.76 505.93L345.88 506.96L344.96 507.96L344.94 507.97L344.93 507.98L343.99 508.93L343.99 508.93L343.97 508.95L342.97 509.87L341.94 510.75L340.87 511.59L339.78 512.38L338.67 513.12L338.54 513.2L338.52 513.21L338.36 513.31L337.53 513.82L337.38 513.9L337.3 513.95L336.89 514.17L336.36 514.47L336.23 514.54L336.05 514.64L335.42 514.95L335.17 515.08L335.09 515.12L334.78 515.27L333.99 515.63L333.95 515.64L333.51 515.84L332.21 516.36L330.91 516.83L329.6 517.23L328.28 517.59L326.95 517.89L325.62 518.13L324.28 518.33L322.94 518.46L322.42 518.5L322.4 518.5L322.37 518.5L321.6 518.55L321.21 518.56L321.07 518.57L320.8 518.57L320.26 518.59L320 518.58L319.74 518.59L319.21 518.57L318.93 518.57L318.79 518.56L318.4 518.55L317.63 518.5L317.6 518.5L317.58 518.5L317.06 518.46L315.72 518.33L314.38 518.13L313.05 517.89L311.72 517.59L310.4 517.23L309.09 516.83L307.79 516.36L306.49 515.84L306.05 515.64L306.01 515.63L305.22 515.27L304.91 515.12L304.83 515.08L304.58 514.95L303.95 514.64L303.77 514.54L303.64 514.47L303.11 514.17L302.7 513.95L302.62 513.9L302.47 513.82L301.64 513.31L301.48 513.21L301.46 513.2L301.33 513.12L300.22 512.38L299.13 511.59L298.06 510.75L297.03 509.87L296.03 508.95L296.01 508.93L296.01 508.93L295.07 507.98L295.06 507.97L295.04 507.96L294.12 506.96L293.24 505.93L292.41 504.87L291.62 503.78L290.87 502.66L290.8 502.55L290.78 502.51L290.63 502.26L290.17 501.52L290.1 501.39L290.04 501.29L30.58 51.89L30.58 51.89L30.53 51.8L30.45 51.66L30.01 50.85L29.89 50.64L29.88 50.61L29.81 50.49L29.21 49.28L28.67 48.06L28.16 46.8L27.71 45.52L27.31 44.22L27.3 44.19L27.3 44.19L27.03 43.21L26.95 42.9L26.95 42.9L26.94 42.87L26.64 41.54L26.4 40.21L26.21 38.87L26.07 37.54L25.98 36.2L25.98 36.05L25.97 36.02L25.97 35.83L25.94 34.86L25.95 34.7L25.95 34.59L25.95 34.13L25.96 33.52L25.97 33.38L25.97 33.17L26.02 32.47L26.03 32.19L26.04 32.1L26.06 31.76L26.15 30.86L26.15 30.86L26.15 30.85L26.2 30.36L26.4 28.99L26.65 27.63L26.95 26.29L27.31 24.96L27.71 23.66L28.16 22.39L28.67 21.13L29.21 19.91L29.44 19.45L29.45 19.42L29.48 19.37L29.81 18.7L29.99 18.37L30.06 18.23L30.21 17.97L30.45 17.53L30.58 17.31L30.71 17.07L31 16.6L31.13 16.38L31.2 16.27L31.41 15.93L31.85 15.27L31.86 15.26L31.86 15.25L32.16 14.81L32.95 13.72L33.78 12.66L34.66 11.63L35.58 10.63L36.55 9.66L37.56 8.73L38.61 7.83L39.71 6.97L40.84 6.15L41.14 5.95L41.2 5.91L41.39 5.79L42.02 5.37L42.22 5.26L42.32 5.19L42.79 4.91L43.24 4.63L43.35 4.58L43.47 4.5L44.25 4.08L44.49 3.95L44.53 3.93L44.65 3.86L45.85 3.27L47.08 2.72L48.33 2.22L49.61 1.76L50.91 1.36L50.93 1.36L50.94 1.35L52.26 1L53.59 0.7L54.92 0.45L56.26 0.26L57.6 0.12L58.94 0.03L59.09 0.03L59.11 0.03L59.3 0.03L60.28 0L60.44 0L60.54 0Z" id="b2QBqAsQK"></path></defs><g><g><g><use xlink:href="#b2QBqAsQK" opacity="1" fill="#000000" fill-opacity="1"></use></g></g></g></svg>