<?xml version="1.0" encoding="UTF-8" standalone="no"?>
<!DOCTYPE svg PUBLIC "-//W3C//DTD SVG 1.1//EN" "http://www.w3.org/Graphics/SVG/1.1/DTD/svg11.dtd">
<svg version="1.1" xmlns="http://www.w3.org/2000/svg" xmlns:xlink="http://www.w3.org/1999/xlink" preserveAspectRatio="xMidYMid meet" viewBox="0 0 640 640" width="640" height="640"><defs><path d="M612.42 32.7L613.74 32.85L615.04 33.05L616.32 33.3L617.58 33.61L618.82 33.97L620.03 34.38L621.22 34.84L622.39 35.35L623.53 35.91L624.65 36.51L625.73 37.15L626.79 37.84L627.81 38.58L628.8 39.35L629.76 40.16L630.69 41.01L631.57 41.9L632.42 42.82L633.24 43.78L634.01 44.77L634.74 45.8L635.43 46.85L636.08 47.94L636.68 49.05L637.23 50.19L637.74 51.36L638.2 52.55L638.61 53.77L638.97 55.01L639.28 56.27L639.54 57.55L639.74 58.85L639.88 60.16L639.97 61.49L640 62.84L640 577.16L639.97 578.51L639.88 579.84L639.74 581.15L639.54 582.45L639.28 583.73L638.97 584.99L638.61 586.23L638.2 587.45L637.74 588.64L637.23 589.81L636.68 590.95L636.08 592.06L635.43 593.15L634.74 594.2L634.01 595.23L633.24 596.22L632.42 597.18L631.57 598.1L630.69 598.99L629.76 599.84L628.8 600.65L627.81 601.42L626.79 602.16L625.73 602.85L624.65 603.49L623.53 604.09L622.39 604.65L621.22 605.16L620.03 605.62L618.82 606.03L617.58 606.39L616.32 606.7L615.04 606.95L613.74 607.15L612.42 607.3L611.09 607.39L609.75 607.41L428.22 607.42L426.87 607.39L425.54 607.3L424.23 607.15L422.93 606.95L421.65 606.7L420.39 606.39L419.15 606.03L417.94 605.62L416.74 605.16L415.58 604.65L414.44 604.09L413.32 603.49L412.24 602.85L411.18 602.16L410.16 601.42L409.16 600.65L408.21 599.84L407.28 598.99L406.39 598.1L405.54 597.18L404.73 596.22L403.96 595.23L403.23 594.2L402.54 593.15L401.89 592.06L401.29 590.95L400.73 589.81L400.22 588.64L399.76 587.45L399.35 586.23L398.99 584.99L398.68 583.73L398.43 582.45L398.23 581.15L398.08 579.84L398 578.51L397.97 577.16L398 575.81L398.08 574.48L398.23 573.17L398.43 571.87L398.68 570.59L398.99 569.33L399.35 568.09L399.76 566.88L400.22 565.68L400.73 564.52L401.29 563.37L401.89 562.26L402.54 561.18L403.23 560.12L403.96 559.1L404.73 558.1L405.54 557.14L406.39 556.22L407.28 555.33L408.21 554.48L409.16 553.67L410.16 552.9L411.18 552.17L412.24 551.48L413.32 550.83L414.44 550.23L415.58 549.67L416.74 549.16L417.94 548.7L419.15 548.29L420.39 547.93L421.65 547.62L422.93 547.37L424.23 547.17L425.54 547.02L426.87 546.94L428.22 546.91L428.22 546.91L579.49 546.91L579.49 93.09L428.22 93.09L428.22 93.09L426.87 93.06L425.54 92.98L424.23 92.83L422.93 92.63L421.65 92.38L420.39 92.07L419.15 91.71L417.94 91.3L416.74 90.84L415.58 90.33L414.44 89.77L413.32 89.17L412.24 88.52L411.18 87.83L410.16 87.1L409.16 86.33L408.21 85.52L407.28 84.67L406.39 83.78L405.54 82.86L404.73 81.9L403.96 80.9L403.23 79.88L402.54 78.82L401.89 77.74L401.29 76.63L400.73 75.48L400.22 74.32L399.76 73.12L399.35 71.91L398.99 70.67L398.68 69.41L398.43 68.13L398.23 66.83L398.08 65.52L398 64.19L397.97 62.84L398 61.49L398.08 60.16L398.23 58.85L398.43 57.55L398.68 56.27L398.99 55.01L399.35 53.77L399.76 52.55L400.22 51.36L400.73 50.19L401.29 49.05L401.89 47.94L402.54 46.85L403.23 45.8L403.96 44.77L404.73 43.78L405.54 42.82L406.39 41.9L407.28 41.01L408.21 40.16L409.16 39.35L410.16 38.58L411.18 37.84L412.24 37.15L413.32 36.51L414.44 35.91L415.58 35.35L416.74 34.84L417.94 34.38L419.15 33.97L420.39 33.61L421.65 33.3L422.93 33.05L424.23 32.85L425.54 32.7L426.87 32.61L428.22 32.59L609.75 32.59L611.09 32.61L612.42 32.7ZM225.92 97.38L227.17 97.53L228.41 97.74L229.64 98L230.87 98.31L232.08 98.67L233.28 99.08L234.47 99.55L235.63 100.07L236.78 100.64L237.91 101.26L239.02 101.93L240.11 102.66L241.17 103.43L242.2 104.26L243.2 105.14L244.18 106.07L245.11 107.04L245.99 108.05L246.82 109.08L247.59 110.14L248.32 111.22L248.99 112.33L249.61 113.46L250.18 114.61L250.7 115.78L251.16 116.97L251.58 118.17L251.94 119.38L252.25 120.6L252.51 121.84L252.71 123.08L252.87 124.33L252.97 125.58L253.03 126.84L253.03 128.09L252.97 129.35L252.87 130.6L252.71 131.85L252.51 133.09L252.25 134.32L251.94 135.55L251.58 136.76L251.16 137.96L250.7 139.15L250.18 140.31L249.61 141.46L248.99 142.59L248.32 143.7L247.59 144.79L246.82 145.85L245.99 146.88L245.11 147.88L244.18 148.86L244.18 148.86L103.29 289.75L484.07 289.75L484.07 290.11L484.74 290.01L486.05 289.86L487.38 289.78L488.73 289.75L490.08 289.78L491.41 289.86L492.72 290.01L494.02 290.21L495.3 290.46L496.56 290.77L497.8 291.13L499.01 291.54L500.21 292L501.37 292.51L502.52 293.07L503.63 293.67L504.71 294.31L505.77 295L506.79 295.74L507.79 296.51L508.75 297.32L509.67 298.17L510.56 299.06L511.41 299.98L512.22 300.94L512.99 301.93L513.73 302.96L514.41 304.01L515.06 305.1L515.66 306.21L516.22 307.36L516.73 308.52L517.19 309.71L517.6 310.93L517.96 312.17L518.27 313.43L518.52 314.71L518.72 316.01L518.87 317.32L518.95 318.65L518.98 320L518.95 321.35L518.87 322.68L518.72 323.99L518.52 325.29L518.27 326.57L517.96 327.83L517.6 329.07L517.19 330.29L516.73 331.48L516.22 332.64L515.66 333.79L515.06 334.9L514.41 335.99L513.73 337.04L512.99 338.07L512.22 339.06L511.41 340.02L510.56 340.94L509.67 341.83L508.75 342.68L507.79 343.49L506.79 344.26L505.77 345L504.71 345.69L503.63 346.33L502.52 346.93L501.37 347.49L500.21 348L499.01 348.46L497.8 348.87L496.56 349.23L495.3 349.54L494.02 349.79L492.72 349.99L491.41 350.14L490.08 350.22L488.73 350.25L487.38 350.22L486.05 350.14L484.74 349.99L484.07 349.89L484.07 350.25L103.29 350.25L244.18 491.14L244.18 491.14L245.11 492.12L245.99 493.12L246.82 494.15L247.59 495.21L248.32 496.3L248.99 497.41L249.61 498.54L250.18 499.69L250.7 500.85L251.16 502.04L251.58 503.24L251.94 504.45L252.25 505.68L252.51 506.91L252.71 508.15L252.87 509.4L252.97 510.65L253.03 511.91L253.03 513.16L252.97 514.42L252.87 515.67L252.71 516.92L252.51 518.16L252.25 519.4L251.94 520.62L251.58 521.83L251.16 523.03L250.7 524.22L250.18 525.39L249.61 526.54L248.99 527.67L248.32 528.78L247.59 529.86L246.82 530.92L245.99 531.95L245.11 532.96L244.18 533.93L243.2 534.86L242.2 535.74L241.17 536.57L240.11 537.34L239.02 538.07L237.91 538.74L236.78 539.36L235.63 539.93L234.47 540.45L233.28 540.92L232.08 541.33L230.87 541.69L229.64 542L228.41 542.26L227.17 542.47L225.92 542.62L224.67 542.73L223.41 542.78L222.16 542.78L220.9 542.73L219.65 542.62L218.4 542.47L217.16 542.26L215.92 542L214.7 541.69L213.49 541.33L212.29 540.92L211.1 540.45L209.93 539.93L208.78 539.36L207.65 538.74L206.54 538.07L205.46 537.34L204.4 536.57L203.37 535.74L202.36 534.86L201.39 533.93L30.71 363.25L30.71 363.25L9.32 341.85L9.33 341.84L8.86 341.39L7.92 340.42L7.04 339.42L6.22 338.38L5.44 337.32L4.72 336.24L4.04 335.13L3.42 334L2.85 332.85L2.34 331.68L1.87 330.5L1.8 330.29L1.8 330.29L1.77 330.22L1.46 329.3L1.41 329.13L1.39 329.07L1.3 328.76L1.09 328.08L1.06 327.94L1.03 327.83L0.91 327.37L0.78 326.86L0.76 326.73L0.72 326.57L0.61 326.06L0.52 325.63L0.5 325.49L0.46 325.29L0.38 324.78L0.32 324.38L0.3 324.22L0.26 323.99L0.21 323.53L0.16 323.14L0.14 322.93L0.12 322.68L0.09 322.27L0.06 321.88L0.05 321.62L0.03 321.35L0.02 321.01L0.01 320.63L0.01 320.3L0 320L0.01 319.71L0.01 319.37L0.02 319L0.03 318.65L0.05 318.39L0.06 318.12L0.09 317.73L0.12 317.32L0.14 317.07L0.16 316.86L0.21 316.47L0.26 316.01L0.3 315.78L0.32 315.62L0.38 315.22L0.46 314.71L0.5 314.51L0.52 314.37L0.61 313.95L0.72 313.43L0.76 313.27L0.78 313.14L0.91 312.63L1.03 312.17L1.06 312.06L1.09 311.92L1.3 311.24L1.39 310.93L1.41 310.87L1.46 310.7L1.77 309.78L1.8 309.71L1.8 309.7L1.87 309.5L2.34 308.32L2.85 307.15L3.42 306L4.04 304.87L4.72 303.76L5.44 302.68L6.22 301.62L7.04 300.58L7.92 299.58L8.86 298.61L9.33 298.16L9.32 298.15L201.39 106.07L202.36 105.14L203.37 104.26L204.4 103.43L205.46 102.66L206.54 101.93L207.65 101.26L208.78 100.64L209.93 100.07L211.1 99.55L212.29 99.08L213.49 98.67L214.7 98.31L215.92 98L217.16 97.74L218.4 97.53L219.65 97.38L220.9 97.27L222.16 97.22L223.41 97.22L224.67 97.27L225.92 97.38Z" id="a1CyqJ0tq5"></path></defs><g><g><g><use xlink:href="#a1CyqJ0tq5" opacity="1" fill="#000000" fill-opacity="1"></use></g></g></g></svg>