<?xml version="1.0" encoding="UTF-8" standalone="no"?>
<!DOCTYPE svg PUBLIC "-//W3C//DTD SVG 1.1//EN" "http://www.w3.org/Graphics/SVG/1.1/DTD/svg11.dtd">
<svg version="1.1" xmlns="http://www.w3.org/2000/svg" xmlns:xlink="http://www.w3.org/1999/xlink" preserveAspectRatio="xMidYMid meet" viewBox="0 0 640 640" width="640" height="640"><defs><path d="M326.52 0.4L328.65 0.7L330.74 1.08L332.81 1.55L334.85 2.1L336.85 2.72L338.82 3.42L340.75 4.19L342.65 5.04L344.5 5.96L346.31 6.94L348.08 8L349.81 9.11L351.49 10.3L353.12 11.54L354.7 12.84L356.23 14.21L357.7 15.63L359.13 17.1L360.49 18.63L361.79 20.21L363.04 21.84L364.22 23.52L365.34 25.25L366.39 27.02L367.38 28.83L368.29 30.69L369.14 32.58L369.91 34.51L370.61 36.48L371.24 38.49L371.78 40.52L372.25 42.59L372.63 44.69L372.94 46.81L373.16 48.96L373.29 51.14L373.33 53.33L373.33 266.67L586.67 266.67L586.67 266.67L588.86 266.71L591.04 266.84L593.19 267.06L595.31 267.37L597.41 267.75L599.48 268.22L601.51 268.76L603.52 269.39L605.49 270.09L607.42 270.86L609.31 271.71L611.17 272.62L612.98 273.61L614.75 274.66L616.48 275.78L618.16 276.96L619.79 278.21L621.37 279.51L622.9 280.87L624.37 282.3L625.79 283.77L627.16 285.3L628.46 286.88L629.7 288.51L630.89 290.19L632 291.92L633.06 293.69L634.04 295.5L634.96 297.35L635.81 299.25L636.58 301.18L637.28 303.15L637.9 305.15L638.45 307.19L638.92 309.26L639.3 311.35L639.6 313.48L639.82 315.63L639.96 317.8L640 320L639.96 322.2L639.82 324.37L639.6 326.52L639.3 328.65L638.92 330.74L638.45 332.81L637.9 334.85L637.28 336.85L636.58 338.82L635.81 340.75L634.96 342.65L634.04 344.5L633.06 346.31L632 348.08L630.89 349.81L629.7 351.49L628.46 353.12L627.16 354.7L625.79 356.23L624.37 357.7L622.9 359.13L621.37 360.49L619.79 361.79L618.16 363.04L616.48 364.22L614.75 365.34L612.98 366.39L611.17 367.38L609.31 368.29L607.42 369.14L605.49 369.91L603.52 370.61L601.51 371.24L599.48 371.78L597.41 372.25L595.31 372.63L593.19 372.94L591.04 373.16L588.86 373.29L586.67 373.33L586.67 373.33L373.33 373.33L373.33 586.67L373.29 588.86L373.16 591.04L372.94 593.19L372.63 595.31L372.25 597.41L371.78 599.48L371.24 601.51L370.61 603.52L369.91 605.49L369.14 607.42L368.29 609.31L367.38 611.17L366.39 612.98L365.34 614.75L364.22 616.48L363.04 618.16L361.79 619.79L360.49 621.37L359.13 622.9L357.7 624.37L356.23 625.79L354.7 627.16L353.12 628.46L351.49 629.7L349.81 630.89L348.08 632L346.31 633.06L344.5 634.04L342.65 634.96L340.75 635.81L338.82 636.58L336.85 637.28L334.85 637.9L332.81 638.45L330.74 638.92L328.65 639.3L326.52 639.6L324.37 639.82L322.2 639.96L320 640L317.8 639.96L315.63 639.82L313.48 639.6L311.35 639.3L309.26 638.92L307.19 638.45L305.15 637.9L303.15 637.28L301.18 636.58L299.25 635.81L297.35 634.96L295.5 634.04L293.69 633.06L291.92 632L290.19 630.89L288.51 629.7L286.88 628.46L285.3 627.16L283.77 625.79L282.3 624.37L280.87 622.9L279.51 621.37L278.21 619.79L276.96 618.16L275.78 616.48L274.66 614.75L273.61 612.98L272.62 611.17L271.71 609.31L270.86 607.42L270.09 605.49L269.39 603.52L268.76 601.51L268.22 599.48L267.75 597.41L267.37 595.31L267.06 593.19L266.84 591.04L266.71 588.86L266.67 586.67L266.67 373.33L53.33 373.33L53.33 373.33L51.14 373.29L48.96 373.16L46.81 372.94L44.69 372.63L42.59 372.25L40.52 371.78L38.49 371.24L36.48 370.61L34.51 369.91L32.58 369.14L30.69 368.29L28.83 367.38L27.02 366.39L25.25 365.34L23.52 364.22L21.84 363.04L20.21 361.79L18.63 360.49L17.1 359.13L15.63 357.7L14.21 356.23L12.84 354.7L11.54 353.12L10.3 351.49L9.11 349.81L8 348.08L6.94 346.31L5.96 344.5L5.04 342.65L4.19 340.75L3.42 338.82L2.72 336.85L2.1 334.85L1.55 332.81L1.08 330.74L0.7 328.65L0.4 326.52L0.18 324.37L0.04 322.2L0 320L0.04 317.8L0.18 315.63L0.4 313.48L0.7 311.35L1.08 309.26L1.55 307.19L2.1 305.15L2.72 303.15L3.42 301.18L4.19 299.25L5.04 297.35L5.96 295.5L6.94 293.69L8 291.92L9.11 290.19L10.3 288.51L11.54 286.88L12.84 285.3L14.21 283.77L15.63 282.3L17.1 280.87L18.63 279.51L20.21 278.21L21.84 276.96L23.52 275.78L25.25 274.66L27.02 273.61L28.83 272.62L30.69 271.71L32.58 270.86L34.51 270.09L36.48 269.39L38.49 268.76L40.52 268.22L42.59 267.75L44.69 267.37L46.81 267.06L48.96 266.84L51.14 266.71L53.33 266.67L53.33 266.67L266.67 266.67L266.67 53.33L266.67 53.33L266.71 51.14L266.84 48.96L267.06 46.81L267.37 44.69L267.75 42.59L268.22 40.52L268.76 38.49L269.39 36.48L270.09 34.51L270.86 32.58L271.71 30.69L272.62 28.83L273.61 27.02L274.66 25.25L275.78 23.52L276.96 21.84L278.21 20.21L279.51 18.63L280.87 17.1L282.3 15.63L283.77 14.21L285.3 12.84L286.88 11.54L288.51 10.3L290.19 9.11L291.92 8L293.69 6.94L295.5 5.96L297.35 5.04L299.25 4.19L301.18 3.42L303.15 2.72L305.15 2.1L307.19 1.55L309.26 1.08L311.35 0.7L313.48 0.4L315.63 0.18L317.8 0.04L320 0L322.2 0.04L324.37 0.18L324.37 0.18L326.52 0.4Z" id="dSL886X8R"></path></defs><g><g><g><use xlink:href="#dSL886X8R" opacity="1" fill="#000000" fill-opacity="1"></use></g></g></g></svg>