<?xml version="1.0" encoding="UTF-8" standalone="no"?>
<!DOCTYPE svg PUBLIC "-//W3C//DTD SVG 1.1//EN" "http://www.w3.org/Graphics/SVG/1.1/DTD/svg11.dtd">
<svg version="1.1" xmlns="http://www.w3.org/2000/svg" xmlns:xlink="http://www.w3.org/1999/xlink" preserveAspectRatio="xMidYMid meet" viewBox="0 0 640 640" width="640" height="640"><defs><path d="M639.73 323.94L639.52 325.22L639.25 326.47L638.93 327.71L638.56 328.92L638.13 330.11L637.65 331.28L637.13 332.42L636.55 333.53L635.93 334.61L635.26 335.66L634.55 336.68L633.79 337.66L632.99 338.61L632.15 339.53L631.28 340.4L630.36 341.24L629.41 342.04L628.43 342.79L627.41 343.51L626.36 344.18L625.28 344.8L624.17 345.37L623.03 345.9L621.87 346.38L620.68 346.81L619.46 347.18L618.22 347.5L616.97 347.77L615.69 347.97L614.97 348.06L614.05 348.58L612.91 349.17L611.73 349.71L610.52 350.19L609.28 350.63L608 351L36.29 506.87L36.21 506.89L35.01 507.22L34.4 507.35L34.39 507.35L34.39 507.36L33.79 507.49L33.19 507.59L33.1 507.61L33.02 507.63L32.57 507.7L32.01 507.78L31.81 507.81L31.67 507.82L31.34 507.87L30.82 507.91L30.52 507.94L30.34 507.95L30.1 507.97L29.62 508L29.24 508.02L29.06 508.02L28.86 508.03L28.39 508.03L27.96 508.03L27.8 508.03L27.62 508.03L27.09 508.01L26.69 507.99L26.57 507.98L26.38 507.97L25.68 507.91L25.43 507.89L25.37 507.89L25.15 507.87L23.92 507.7L22.69 507.49L21.48 507.22L20.27 506.89L19.08 506.52L17.9 506.08L16.74 505.6L15.6 505.06L14.47 504.46L13.37 503.82L12.3 503.11L11.24 502.36L10.22 501.55L9.23 500.68L8.27 499.77L7.35 498.81L6.48 497.81L5.67 496.79L4.92 495.74L4.22 494.66L3.57 493.56L2.98 492.44L2.44 491.29L1.95 490.13L1.52 488.95L1.14 487.76L0.82 486.56L0.55 485.34L0.33 484.12L0.23 483.39L0.23 483.34L0.22 483.3L0.17 482.89L0.11 482.24L0.09 482.05L0.09 481.94L0.06 481.65L0.04 481.09L0.02 480.77L0.01 480.62L0.01 480.41L0.01 479.92L0 479.49L0.01 479.33L0.01 479.17L0.03 478.71L0.04 478.22L0.05 478.07L0.06 477.93L0.11 477.42L0.14 476.96L0.16 476.85L0.17 476.7L0.26 476.03L0.29 475.71L0.31 475.65L0.33 475.47L0.5 474.52L0.5 474.48L0.51 474.47L0.55 474.24L0.82 473.03L1.14 471.82L1.52 470.63L1.95 469.45L2.44 468.29L2.98 467.15L3.57 466.03L4.22 464.92L4.92 463.85L5.67 462.8L6.48 461.77L6.85 461.35L6.96 461.22L7.07 461.1L7.35 460.78L7.61 460.51L7.8 460.3L8.05 460.04L8.27 459.82L8.27 459.82L128.11 339.97L129.07 339.01L137.75 330.34L138.93 329.16L142.54 325.55L143.76 324.32L147.47 320.62L148.09 320L148.09 320L128.11 300.03L128.11 300.03L8.27 180.18L8.05 179.95L7.8 179.7L7.61 179.49L7.35 179.22L7.07 178.9L6.96 178.78L6.85 178.65L6.48 178.23L5.67 177.2L4.92 176.15L4.22 175.08L3.57 173.97L2.98 172.85L2.44 171.71L1.95 170.55L1.52 169.37L1.14 168.18L0.82 166.97L0.55 165.76L0.51 165.53L0.5 165.52L0.5 165.48L0.33 164.53L0.31 164.35L0.29 164.29L0.26 163.97L0.17 163.3L0.16 163.15L0.14 163.04L0.11 162.58L0.06 162.07L0.05 161.93L0.04 161.78L0.03 161.3L0.01 160.83L0.01 160.67L0 160.51L0.01 160.08L0.01 159.59L0.01 159.38L0.02 159.23L0.04 158.91L0.06 158.35L0.09 158.06L0.09 157.95L0.11 157.76L0.17 157.11L0.22 156.7L0.23 156.66L0.23 156.61L0.33 155.88L0.55 154.66L0.82 153.44L1.14 152.24L1.52 151.05L1.95 149.87L2.44 148.71L2.98 147.56L3.57 146.44L4.22 145.34L4.92 144.26L5.67 143.21L6.48 142.19L7.35 141.19L8.27 140.23L9.23 139.32L10.22 138.45L11.24 137.64L12.3 136.89L13.37 136.18L14.47 135.54L15.6 134.94L16.74 134.4L17.9 133.92L19.08 133.48L20.27 133.11L21.48 132.78L22.69 132.51L23.92 132.3L25.15 132.13L25.37 132.11L25.43 132.11L25.68 132.09L26.38 132.03L26.57 132.02L26.69 132.01L27.09 132L27.62 131.97L27.8 131.97L27.96 131.97L28.39 131.97L28.86 131.97L29.06 131.98L29.24 131.98L29.62 132.01L30.1 132.03L30.34 132.05L30.52 132.06L30.82 132.09L31.34 132.13L31.67 132.18L31.81 132.19L32.01 132.22L32.57 132.3L33.02 132.38L33.1 132.39L33.19 132.41L33.79 132.51L34.39 132.64L34.39 132.65L34.4 132.65L35.01 132.78L36.21 133.11L36.29 133.13L608 289L609.28 289.37L610.52 289.81L611.73 290.29L612.91 290.83L614.05 291.42L614.97 291.94L615.69 292.03L616.97 292.23L618.22 292.5L619.46 292.82L620.68 293.19L621.87 293.62L623.03 294.1L624.17 294.63L625.28 295.2L626.36 295.82L627.41 296.49L628.43 297.21L629.41 297.96L630.36 298.76L631.28 299.6L632.15 300.47L632.99 301.39L633.79 302.34L634.55 303.32L635.26 304.34L635.93 305.39L636.55 306.47L637.13 307.58L637.65 308.72L638.13 309.89L638.56 311.08L638.93 312.29L639.25 313.53L639.52 314.78L639.73 316.06L639.88 317.36L639.97 318.67L640 320L639.97 321.33L639.88 322.64L639.73 323.94ZM188.04 359.95L188.04 359.95L168.06 379.92L123.43 424.56L429.23 341.19L206.8 341.19L188.04 359.95ZM206.8 298.81L429.23 298.81L123.43 215.44L188.04 280.05L206.8 298.81Z" id="b11gcpJDzE"></path></defs><g><g><g><use xlink:href="#b11gcpJDzE" opacity="1" fill="#000000" fill-opacity="1"></use></g></g></g></svg>